<?xml version="1.0" encoding="UTF-8"?>
<svg width="18px" height="13px" viewBox="0 0 18 13" version="1.1" xmlns="http://www.w3.org/2000/svg" xmlns:xlink="http://www.w3.org/1999/xlink">
    <!-- Generator: Sketch 46.2 (44496) - http://www.bohemiancoding.com/sketch -->
    <title>Fill 1</title>
    <desc>Created with Sketch.</desc>
    <defs></defs>
    <g id="Oxygen" stroke="none" stroke-width="1" fill="none" fill-rule="evenodd">
        <g id="whitelist" transform="translate(-463.000000, -430.000000)" fill="#36CD98">
            <g id="Group-2" transform="translate(235.000000, 128.000000)">
                <g id="1-copy" transform="translate(222.000000, 293.000000)">
                    <g id="Page-1" transform="translate(6.000000, 9.000000)">
                        <path d="M17.6237053,2.22498621 L17.6237053,2.22498621 L7.76632777,12.2180897 C7.53360794,12.4540138 7.21217172,12.6 6.85730613,12.6 C6.50201195,12.6 6.18057573,12.4540138 5.9478559,12.2180897 L0.376294674,6.56981379 C0.143574847,6.33388966 0,6.00802759 0,5.64784138 C0,4.92833793 0.575585133,4.34482759 1.2857449,4.34482759 C1.64061049,4.34482759 1.96204672,4.49037931 2.19476654,4.72630345 L6.85730613,9.45304138 L15.8052335,0.381475862 C16.0379533,0.145551724 16.3593895,0 16.7146837,0 C17.4244149,0 18,0.583510345 18,1.30344828 C18,1.6632 17.8564252,1.98906207 17.6237053,2.22498621" id="Fill-1"></path>
                    </g>
                </g>
            </g>
        </g>
    </g>
</svg>