<?xml version="1.0" encoding="UTF-8"?>
<svg width="36px" height="36px" viewBox="0 0 36 36" version="1.1" xmlns="http://www.w3.org/2000/svg" xmlns:xlink="http://www.w3.org/1999/xlink">
    <!-- Generator: Sketch 46.2 (44496) - http://www.bohemiancoding.com/sketch -->
    <title>Facebook-color</title>
    <desc>Created with Sketch.</desc>
    <defs></defs>
    <g id="Oxygen" stroke="none" stroke-width="1" fill="none" fill-rule="evenodd">
        <g transform="translate(-648.000000, -11375.000000)" id="Group-15" fill="#FFFFFF">
            <g transform="translate(564.000000, 11374.000000)">
                <path d="M103.228766,37 L85.9869236,37 C84.8892545,37 84,36.1101937 84,35.0129521 L84,2.98690822 C84,1.88938728 84.8893942,1 85.9869236,1 L118.013216,1 C119.110466,1 120,1.88938728 120,2.98690822 L120,35.0129521 C120,36.1103333 119.110326,37 118.013216,37 L108.839479,37 L108.839479,23.058816 L113.518891,23.058816 L114.219566,17.6256892 L108.839479,17.6256892 L108.839479,14.1569811 C108.839479,12.5839655 109.276284,11.5120073 111.531967,11.5120073 L114.408983,11.5107501 L114.408983,6.65131791 C113.911414,6.58510626 112.203588,6.4371777 110.216664,6.4371777 C106.068626,6.4371777 103.228766,8.96914469 103.228766,13.6189066 L103.228766,17.6256892 L98.5373413,17.6256892 L98.5373413,23.058816 L103.228766,23.058816 L103.228766,37 L103.228766,37 Z" id="Facebook"></path>
            </g>
        </g>
    </g>
</svg>