<?xml version="1.0" encoding="utf-8"?>
<!-- Generator: Adobe Illustrator 19.2.0, SVG Export Plug-In . SVG Version: 6.00 Build 0)  -->
<svg version="1.1" id="Layer_1" xmlns="http://www.w3.org/2000/svg" xmlns:xlink="http://www.w3.org/1999/xlink" x="0px" y="0px"
	 width="195px" height="195px" viewBox="0 0 195 195" style="enable-background:new 0 0 195 195;" xml:space="preserve">
<style type="text/css">
	.st0{fill:#FFFFFF;}
</style>
<title>Monogram</title>
<desc>Created with Sketch.</desc>
<path class="st0" d="M0-1.5v195h195v-195H0z M162,44.7l-10.5,10c-0.9,0.7-1.3,1.8-1.2,2.9v73.7c-0.2,1.1,0.3,2.2,1.2,2.9l10.2,10
	v2.2h-51.4v-2.2L121,134c1-1,1-1.3,1-2.9V71.5l-29.4,74.7h-4L54.4,71.5v50.1c-0.3,2.1,0.4,4.2,1.9,5.7L70,144.1v2.2H31v-2.2
	l13.8-16.7c1.5-1.5,2.1-3.7,1.8-5.7V63.7c0.2-1.6-0.5-3.2-1.7-4.3L32.7,44.7v-2.2h38l29.4,64.4l25.8-64.4H162V44.7z"/>
</svg>
