<svg id="Слой_1" data-name="Слой 1" xmlns="http://www.w3.org/2000/svg" viewBox="0 0 420 360"><title>medium</title><g id="surface1"><path d="M140,345.78c0,8.91-4.77,14.22-11.52,14.22a17.73,17.73,0,0,1-7.85-2.07l-109-55.2C5.23,299.49,0,290.9,0,283.67V13.13C0,6,3.79,1.76,9.22,1.76A14,14,0,0,1,15.51,3.4l3.83,2h0L139.49,66.17a2.89,2.89,0,0,1,.51.47V345.78Zm125.86-327L273.2,6.76A14.44,14.44,0,0,1,285.51,0a13,13,0,0,1,3.44.47,11.91,11.91,0,0,1,2.7,1L418.32,65.59a0,0,0,0,1,0,0l0.12,0c0.08,0,.08.16,0.16,0.2a1.6,1.6,0,0,1,.47,2.07L292.93,275.59,280,296.76,196.45,133ZM160,236.05V105.63l89.8,175.94L169,240.66ZM420,345.78c0,8.36-5,13.13-12.27,13.13a24.72,24.72,0,0,1-11-2.93l-18.09-9.18-80.78-40.9L420,105V345.78Z"/></g></svg>