<?xml version="1.0" encoding="UTF-8"?>
<svg width="36px" height="36px" viewBox="0 0 36 36" version="1.1" xmlns="http://www.w3.org/2000/svg" xmlns:xlink="http://www.w3.org/1999/xlink">
    <!-- Generator: Sketch 46.2 (44496) - http://www.bohemiancoding.com/sketch -->
    <title>slack</title>
    <desc>Created with Sketch.</desc>
    <defs></defs>
    <g id="Oxygen" stroke="none" stroke-width="1" fill="none" fill-rule="evenodd" opacity="0.5">
        <g transform="translate(-744.000000, -11374.000000)" id="Group-15" fill="#FFFFFF">
            <g transform="translate(564.000000, 11374.000000)">
                <g id="slack" transform="translate(180.000000, 0.000000)">
                    <g id="Group">
                        <path d="M23.338623,2.22727868 C22.7915409,0.543245902 20.9829836,-0.378295082 19.2992459,0.169081968 C17.6152132,0.716163934 16.6936721,2.52472132 17.2410491,4.20845902 L25.5304918,29.7129836 C26.099705,31.2860656 27.799082,32.1701311 29.430295,31.7006557 C31.1317377,31.2108197 32.1689509,29.4037377 31.626,27.7326886 C31.6053443,27.6689509 23.338623,2.22727868 23.338623,2.22727868" id="Shape"></path>
                        <path d="M10.4942951,6.40062295 C9.94691803,4.71688525 8.13836066,3.79534427 6.45462295,4.34242623 C4.77059016,4.8895082 3.84904918,6.69806557 4.39642623,8.38209836 L12.6858689,33.886623 C13.255082,35.459705 14.9544591,36.3437705 16.5856721,35.874 C18.2871148,35.3844591 19.3243279,33.577377 18.781377,31.9060327 C18.7607213,31.8425902 10.4942951,6.40062295 10.4942951,6.40062295" id="Shape"></path>
                        <path d="M33.7727213,23.3501311 C35.4567541,22.8030491 36.378,20.9944918 35.830918,19.3104591 C35.2838361,17.6267213 33.4752787,16.7051803 31.7915409,17.2522623 L6.28701639,25.542 C4.71393443,26.110918 3.82986886,27.810295 4.29934427,29.4415082 C4.78918032,31.1429509 6.5962623,32.1801639 8.26731148,31.6372132 C8.33104918,31.6165573 33.7727213,23.3501311 33.7727213,23.3501311" id="Shape"></path>
                        <path d="M11.602623,30.5536721 C13.2627541,30.0142623 15.4023934,29.3190491 17.6984262,28.573082 C17.1590164,26.9129509 16.4638032,24.7730164 15.7175409,22.4766886 L9.62144262,24.4581639 L11.602623,30.5536721" id="Shape"></path>
                        <path d="M24.4472459,26.3800327 C26.7518361,25.6314098 28.8938361,24.9353114 30.5430491,24.3994427 C30.0036393,22.7393114 29.3081311,20.5987868 28.5618689,18.3018689 L22.4657705,20.2833443 L24.4472459,26.3800327" id="Shape"></path>
                        <path d="M29.599377,10.5055082 C31.2831148,9.95842623 32.2046557,8.14986886 31.6575738,6.46583607 C31.1104918,4.78209836 29.3019344,3.86055738 27.6179016,4.40763934 L2.11337705,12.697377 C0.540295082,13.2662951 -0.343770491,14.9656721 0.126,16.5968852 C0.615540984,18.2983279 2.42262295,19.3355409 4.09396721,18.7925902 C4.15740984,18.7719344 29.599377,10.5055082 29.599377,10.5055082" id="Shape"></path>
                        <path d="M7.42809836,17.7093443 C9.0882295,17.1699344 11.228459,16.4744262 13.5247869,15.7284591 C12.7761639,13.4235738 12.0800656,11.2815738 11.5441967,9.63206557 L5.44662295,11.6138361 L7.42809836,17.7093443" id="Shape"></path>
                        <path d="M20.2724262,13.536 C22.5776066,12.787082 24.7199016,12.0909836 26.3694098,11.5548197 C25.6204918,9.24963934 24.9243934,7.10704918 24.3882295,5.45724591 L18.2909509,7.43901639 L20.2724262,13.536" id="Shape"></path>
                    </g>
                </g>
            </g>
        </g>
    </g>
</svg>