<svg xmlns="http://www.w3.org/2000/svg" width="24" height="24" viewBox="0 0 24 24"><title>telegram</title><path fill="#BEBEBE" d="M2 0h20c1.1 0 2 .9 2 2v20c0 1.1-.9 2-2 2H2c-1.1 0-2-.9-2-2V2C0 .9.9 0 2 0z"/><g transform="translate(3 4.19)"><defs><filter id="a" filterUnits="userSpaceOnUse" x="0" y=".4" width="17.9" height="15.5"><feColorMatrix values="1 0 0 0 0 0 1 0 0 0 0 0 1 0 0 0 0 0 1 0"/></filter></defs><mask maskUnits="userSpaceOnUse" x="0" y=".4" width="17.9" height="15.5" id="b"><path fill="currentColor" d="M17.9 15.8V.4H0v15.4z" filter="url(#a)"/></mask><path mask="url(#b)" fill="currentColor" d="M17.9.9l-2.8 14.3s-.4 1-1.5.5l-6.5-5-2.4-1.2-4-1.3S.1 8 0 7.5s.7-.7.7-.7L16.6.6c0-.1 1.3-.6 1.3.3"/></g><path fill="#BEBEBE" d="M9.5 19.2s-.2 0-.4-.8-1.4-4.7-1.4-4.7l9.6-6.1s.6-.3.5 0c0 0 .1.1-.2.3-.3.3-7.5 6.8-7.5 6.8"/><path fill="currentColor" d="M12.6 16.8L10 19.1s-.2.2-.4.1l.5-4.4"/></svg>