<svg id="Capa_1" data-name="Capa 1" xmlns="http://www.w3.org/2000/svg" viewBox="0 0 189.47 169.48"><title>telegram</title><path d="M152.53,169.48a7.5,7.5,0,0,1-4.21-1.29l-47.64-32.32L75.13,154.26a7.5,7.5,0,0,1-11.63-4.17L50.66,101.46,4.82,83.93a7.5,7.5,0,0,1-.09-14L179,0.6A7.5,7.5,0,0,1,181.51,0a7.82,7.82,0,0,1,.91,0,7.48,7.48,0,0,1,4.8,2.13c0.14,0.14.27,0.27,0.4,0.42A7.47,7.47,0,0,1,189.45,7a7.61,7.61,0,0,1,0,1.2,7.29,7.29,0,0,1-.12.85L159.9,163.38A7.5,7.5,0,0,1,152.53,169.48Zm-47.67-48.9,42.44,28.79L170.19,29.24,87.51,108.81l17.16,11.64Zm-35.33-6.4,5.68,21.53,12.24-8.81L71.43,116A7.48,7.48,0,0,1,69.54,114.18Zm-41.4-37.4,31.48,12a7.5,7.5,0,0,1,4.57,5.09l4,15.13a7.5,7.5,0,0,1,2.26-4.62L149.23,28.6Z"/></svg>