<?xml version="1.0" encoding="utf-8"?>
<!-- Generator: Adobe Illustrator 19.2.0, SVG Export Plug-In . SVG Version: 6.00 Build 0)  -->
<svg version="1.1" id="Layer_1" xmlns="http://www.w3.org/2000/svg" xmlns:xlink="http://www.w3.org/1999/xlink" x="0px" y="0px"
	 width="156px" height="156px" viewBox="0 0 156 156" style="enable-background:new 0 0 156 156;" xml:space="preserve">
<style type="text/css">
	.st0{fill:url(#SVGID_1_);}
	.st1{fill:#FFFFFF;}
	.st2{fill:#D2E5F1;}
	.st3{fill:#B5CFE4;}
</style>
<title>Vector Smart Object1</title>
<g>
	<g>
		<linearGradient id="SVGID_1_" gradientUnits="userSpaceOnUse" x1="79.7431" y1="5.5582" x2="79.7431" y2="151.3667">
			<stop  offset="0" style="stop-color:#42BCE8"/>
			<stop  offset="1" style="stop-color:#23A7DC"/>
		</linearGradient>
		<circle class="st0" cx="79.7" cy="78.7" r="73.2"/>
		<g>
			<path class="st1" d="M115.3,47.6l-13.1,65.9c0,0-1.8,4.6-6.9,2.4L65.3,92.8l-11-5.3l-18.5-6.2c0,0-2.8-1-3.1-3.2
				c-0.3-2.2,3.2-3.4,3.2-3.4l73.4-28.8C109.3,45.9,115.3,43.3,115.3,47.6z"/>
			<path class="st2" d="M62.9,112.8c0,0-0.9-0.1-2-3.6c-1.1-3.5-6.7-21.8-6.7-21.8l44.3-28.1c0,0,2.6-1.6,2.5,0c0,0,0.5,0.3-0.9,1.6
				c-1.4,1.3-34.8,31.3-34.8,31.3"/>
			<path class="st3" d="M76.8,101.7l-11.9,10.9c0,0-0.9,0.7-2,0.3l2.3-20.2"/>
		</g>
	</g>
</g>
</svg>
