<?xml version="1.0" encoding="utf-8"?>
<!-- Generator: Adobe Illustrator 19.2.0, SVG Export Plug-In . SVG Version: 6.00 Build 0)  -->
<svg version="1.1" id="Layer_1" xmlns="http://www.w3.org/2000/svg" xmlns:xlink="http://www.w3.org/1999/xlink" x="0px" y="0px"
	 width="195px" height="195px" viewBox="0 0 195 195" style="enable-background:new 0 0 195 195;" xml:space="preserve">
<style type="text/css">
	.st0{fill:#FFFFFF;}
</style>
<title>Monogram</title>
<desc>Created with Sketch.</desc>
<g>
	<path class="st0" d="M99.1,2C46.6,2,4.1,44.5,4.1,96.9c0,52.4,42.5,94.9,94.9,94.9c52.4,0,94.9-42.5,94.9-94.9
		C194,44.5,151.5,2,99.1,2z M130.8,142.7c0,0-2.4,5.9-8.9,3.1l-24.1-18.5l-15.5,14.1c0,0-1.2,0.9-2.5,0.3l3.1-26.7
		c0,0,43.4-39,45.2-40.7c1.8-1.7,1.2-2,1.2-2c0.1-2-3.2,0-3.2,0l-57.5,36.5l-24-8.1c0,0-3.7-1.3-4-4.1c-0.4-2.8,4.1-4.4,4.1-4.4
		L139.9,55c0,0,7.8-3.4,7.8,2.3L130.8,142.7z"/>
</g>
</svg>
