<?xml version="1.0" encoding="UTF-8"?>
<svg width="36px" height="30px" viewBox="0 0 36 30" version="1.1" xmlns="http://www.w3.org/2000/svg" xmlns:xlink="http://www.w3.org/1999/xlink">
    <!-- Generator: Sketch 46.2 (44496) - http://www.bohemiancoding.com/sketch -->
    <title>Twitter-color</title>
    <desc>Created with Sketch.</desc>
    <defs></defs>
    <g id="Oxygen" stroke="none" stroke-width="1" fill="none" fill-rule="evenodd">
        <g transform="translate(-840.000000, -11378.000000)" id="Group-15" fill="#FFFFFF">
            <g transform="translate(564.000000, 11374.000000)">
                <path d="M312,7.55146262 C310.677232,8.15384615 309.253038,8.56121343 307.759113,8.7432286 C309.284733,7.8071506 310.455362,6.32286024 311.006867,4.55471289 C309.578447,5.42145179 308,6.05200433 306.313788,6.3900325 C304.969889,4.91874323 303.049128,4 300.923402,4 C296.847332,4 293.540412,7.39111593 293.540412,11.5731311 C293.540412,12.1668472 293.603803,12.7432286 293.730586,13.2979415 C287.592182,12.9815818 282.151083,9.96966414 278.506075,5.38244854 C277.870048,6.50487541 277.506603,7.8071506 277.506603,9.19393283 C277.506603,11.8201517 278.810354,14.1386782 280.792393,15.4972914 C279.58373,15.460455 278.442684,15.1159263 277.445325,14.552546 L277.445325,14.6457205 C277.445325,18.3163597 279.991548,21.3781148 283.372425,22.071506 C282.753302,22.2491874 282.10037,22.3380282 281.426307,22.3380282 C280.950872,22.3380282 280.486001,22.2925244 280.035922,22.2036836 C280.976228,25.2112676 283.70206,27.4019502 286.935024,27.460455 C284.407818,29.4929577 281.221342,30.7042254 277.762282,30.7042254 C277.166403,30.7042254 276.576862,30.6695558 276,30.6002167 C279.268885,32.7453954 283.152668,34 287.321712,34 C300.908611,34 308.335975,22.4615385 308.335975,12.4528711 C308.335975,12.1235103 308.329635,11.7941495 308.316957,11.4712893 C309.760169,10.4030336 311.013207,9.07042254 312,7.55146262" id="Twitter"></path>
            </g>
        </g>
    </g>
</svg>