<?xml version="1.0" encoding="UTF-8"?>
<svg width="208px" height="50px" viewBox="0 0 208 50" version="1.1" xmlns="http://www.w3.org/2000/svg" xmlns:xlink="http://www.w3.org/1999/xlink">
    <!-- Generator: Sketch 46.2 (44496) - http://www.bohemiancoding.com/sketch -->
    <title>changelly-inline</title>
    <desc>Created with Sketch.</desc>
    <defs></defs>
    <g id="Page-1" stroke="none" stroke-width="1" fill="none" fill-rule="evenodd">
        <g id="landing" transform="translate(-473.000000, -6537.000000)">
            <g id="team" transform="translate(135.000000, 5854.000000)">
                <g id="changelly-inline" transform="translate(338.000000, 683.000000)">
                    <g id="changelly-logo">
                        <g id="Group-4" transform="translate(0.000000, 2.000000)" fill="#000000">
                            <path d="M126.237535,41.2197647 C125.545054,42.5985953 124.674977,44.027081 123.398864,44.9345473 C121.96091,45.957156 120.07467,45.6980855 119.318455,43.9846222 C118.534312,42.2078306 119.459529,40.1208741 120.476409,38.6499296 C122.169299,36.2002744 124.680706,34.1672909 127.360399,32.9057617 C127.964082,32.6222234 128.585668,32.38906 129.216563,32.181084 C128.50045,35.2877707 127.675488,38.3563164 126.237535,41.2197647 M116.603673,13.1645923 C117.60623,9.27061924 119.193852,5.80555177 121.805514,2.78018446 C121.813391,2.77082913 121.818404,2.76435237 121.826281,2.75643633 C121.974517,2.84207351 122.146384,2.94138386 122.177893,2.97520695 C122.452164,3.26882014 122.507304,3.56531189 122.534517,3.95535687 C122.602547,4.91607651 122.245923,5.95307801 121.958046,6.85334788 C120.540143,11.3000045 118.277228,15.7783254 115.575335,19.8025533 C115.654107,17.455087 116.107407,15.0932279 116.603673,13.1645923 M121.725309,2.69742584 C121.673033,2.70318296 121.627918,2.68303303 121.602854,2.61682614 C121.605719,2.62474218 121.657279,2.65640635 121.725309,2.69742584 M108.288174,7.35133888 C108.707816,6.08117396 109.184747,4.81748581 109.822087,3.63943483 C110.099939,3.12633138 110.406435,2.59955477 110.793852,2.15985462 C110.855437,2.09004952 111.005105,1.905102 111.152624,1.76333288 C111.21421,1.85328791 111.51999,1.94180365 111.699018,2.06558176 C113.037432,2.99031939 112.491038,4.47277816 112.133698,5.83361774 C110.907714,10.5012039 108.715693,15.0435728 106.19068,19.1433629 C106.211448,18.8101695 106.235079,18.4769761 106.261575,18.1452219 C106.558762,14.4908891 107.133801,10.8365563 108.288174,7.35133888 M79.2440818,40.2086702 C78.3453606,42.3344873 77.0549258,44.661084 74.9789156,45.8254618 C72.8692481,47.0092699 70.5848491,45.4958666 70.6106292,43.1260915 C70.6593248,38.6909491 75.9499642,35.9116987 79.251243,33.993138 C79.958046,33.5822234 80.6720102,33.1842624 81.3852583,32.7848621 C80.829555,35.3021635 80.2559488,37.8144273 79.2440818,40.2086702 M93.9329821,20.8503494 C95.4525729,19.5557167 97.9489412,20.7042624 97.0423427,22.7984153 C96.5589668,23.9152969 95.4754885,24.4435128 94.4500153,24.9487002 C93.6400921,25.3466612 92.8308849,25.7460615 92.0216777,26.1476207 C91.6693504,24.2880705 92.5587621,22.0212039 93.9329821,20.8503494 M78.9454629,22.1881605 C79.7202967,21.4440525 81.4038772,19.9479206 82.382087,21.2209641 C82.7558977,21.7067212 82.4852072,22.3133779 82.2209616,22.7789851 C81.2262813,24.5363464 79.1631611,25.8374558 77.4623939,26.801054 C77.2246445,26.9349071 76.9783018,27.0716387 76.7240818,27.2054918 C76.1490435,25.4423734 77.7080205,23.3755668 78.9454629,22.1881605 M47.121422,26.7341275 C46.5084297,27.3789251 45.5946701,28.5836027 44.7711407,27.5242924 C44.4180972,27.0701994 44.3378926,26.321054 44.3765627,25.7647722 C44.4811151,24.2859116 45.5080205,22.8941275 46.6222916,21.9967362 C48.0767161,20.825162 49.5168184,20.8964063 50.9261279,22.1169161 C50.9569207,22.1442624 50.9955908,22.165132 51.0378414,22.1824033 C51.0170742,22.1967962 50.9963069,22.2119086 50.984133,22.2241425 C49.597023,23.6418336 48.4856164,25.297006 47.121422,26.7341275 M138.897688,28.3799446 C138.426486,28.2216237 137.513442,28.6087902 137.118148,28.8592249 C135.587816,29.8307392 133.741678,30.1603344 131.973596,30.5539776 C132.679683,27.4393749 133.329197,24.2866312 134.433442,21.3109191 C134.620348,20.8856117 134.78935,20.4588651 134.938302,20.0357167 C135.111601,19.5420435 132.716921,19.8644423 132.45554,20.4768561 C132.260041,20.933108 132.080297,21.3929581 131.909862,21.857126 C131.226691,23.4187452 130.332982,24.8839326 129.16357,26.1325083 C128.441729,26.9025233 127.101882,28.3921785 125.940348,28.3842624 C124.831806,28.3763464 124.517432,27.0766762 124.531038,26.195117 C124.568276,23.8872309 125.984747,21.5627932 127.127662,19.6579056 C127.313136,19.3477407 125.026588,19.4628831 124.644184,20.0997647 C123.367355,22.2334978 122.008174,24.3715488 120.295233,26.1836027 C119.843366,26.6621635 119.061371,27.6437527 118.373187,27.8474108 C118.473442,27.8013539 118.066691,27.7754468 117.906281,27.6718186 C117.528174,27.4249821 117.253903,27.1040225 117.017586,26.7182954 C116.285719,25.5236927 115.876102,24.1160765 115.689197,22.6242624 C117.526742,20.2019536 119.126537,17.5803044 120.584542,14.9284303 C122.299632,11.8095098 124.108532,8.41712599 124.856153,4.90096407 C125.029453,4.08777066 125.262905,3.07523693 124.753749,2.34768071 C123.996102,1.26534188 122.450731,1.51001954 121.382292,1.88063423 C117.763059,3.13352779 115.926946,7.96231339 114.818404,11.2517887 C113.648276,14.7262114 112.672931,19.1512789 113.17779,23.1064213 C112.766026,23.6317587 112.349964,24.1477407 111.927458,24.6478906 C111.070271,25.6604243 110.14935,26.6794348 109.085207,27.4789551 C108.850322,27.6552669 108.46935,27.9805443 108.179325,28.0719386 C108.358353,27.9898996 107.666588,27.8049521 107.453187,27.6005743 C106.49646,26.685192 106.321729,24.9472609 106.205719,23.7109191 C106.168481,23.3093599 106.144133,22.907081 106.128379,22.5033629 C108.428532,19.5499596 110.258916,16.1618936 111.786384,12.8846522 C112.911396,10.473138 113.939018,7.97238835 114.61646,5.39247831 C114.96091,4.08345282 115.550987,2.45130889 114.381575,1.44956976 C112.889197,0.170769165 110.677125,0.566571263 109.201217,1.70216347 C107.085105,3.33070919 106.179223,6.47913498 105.453084,8.91799555 C104.275079,12.8709791 103.720808,17.1269311 103.609811,21.2439926 C103.597637,21.7081605 103.577586,22.2903494 103.58045,22.9265113 C102.605821,24.1700495 101.544542,25.3423434 100.367969,26.3980555 C98.5784041,28.0057317 96.2574834,29.8285803 93.7911918,28.5612939 C93.0994271,28.2057917 92.6253606,27.6883704 92.3296061,27.0845923 C94.1098619,26.2555668 95.9617289,25.4632429 97.5873043,24.4118486 C98.8999386,23.5619536 100.615028,21.6642624 99.3117033,20.0882504 C98.100757,18.623063 95.4504246,19.1440825 93.9279693,19.6974858 C91.0864348,20.7294498 88.5213197,24.2225833 89.6398875,27.3343074 C87.9011662,28.2057917 86.16889,29.0895098 84.4473555,29.9919386 C84.7316522,28.7052219 85.0302711,27.4206642 85.4463325,26.1706492 C85.6346701,25.605012 83.2557442,26.1152369 82.9628542,26.6125083 C81.7862813,28.613108 79.4603478,30.2949071 77.4151304,28.2899896 C77.3277647,28.2043524 77.2518568,28.1172759 77.1795294,28.0287602 C78.3754373,27.4897497 79.5269463,26.8499896 80.6097084,26.1375458 C82.147202,25.1242924 84.5196829,23.5777857 85.0102199,21.6527482 C85.545156,19.5485203 82.458711,19.5549971 81.160399,19.8342174 C78.2680205,20.4567062 74.905156,23.0769161 74.1990691,26.067021 C74.0028542,26.9003644 74.1052583,27.6236027 74.40889,28.2273809 C73.3225473,28.5922384 72.1946701,28.7807842 71.1169207,28.5915188 C68.5038261,28.1323884 69.9854629,25.7662114 70.692266,24.1945173 C71.2887877,22.8660615 72.0872532,20.7280105 70.1265371,20.20915 C68.5202967,19.7838426 66.6319079,20.4941275 65.270578,21.3238726 C64.252266,21.9434828 63.3098619,22.7206942 62.4340563,23.5900195 C62.5987621,22.4558666 62.5579437,21.3289101 62.1805524,20.2983854 C61.9571253,19.6895698 60.045821,20.4099296 59.7815754,20.7280105 C58.9637749,21.7167962 58.2870486,22.7984153 57.5874066,23.8728381 C56.8397852,25.0192249 55.953954,26.6312189 54.7100665,27.30912 C53.1274578,28.1719686 52.5867928,26.2426132 52.6627008,25.073198 C52.7321637,23.9822234 53.1632634,22.9740075 53.3652072,21.9125383 C53.3981483,21.7398246 53.2950281,21.6541875 53.1181483,21.6239626 C53.3107826,21.4800345 53.4010128,21.3433029 53.2964604,21.2519086 C49.6621893,18.1027632 42.5390179,21.5354468 41.9002455,26.0979656 C41.4870486,29.0398546 44.1158977,29.4968261 46.3630588,28.6764363 C47.8883785,28.1201545 49.0599386,27.0342174 50.1190691,25.8086702 C50.1054629,26.103003 50.1183529,26.3987752 50.1720614,26.6952669 C50.5064859,28.5382654 52.2487877,28.7958966 53.8278159,28.5109191 C56.8598363,27.9625533 58.4453095,25.7784453 59.9828031,23.4755968 C59.8510384,25.5769461 58.8771253,27.7632129 57.9354373,29.4752369 C57.7349258,29.8400945 60.0515499,29.6234828 60.4189156,29.0333779 C61.2517545,27.6948471 67.5155908,18.9879206 68.78311,21.8312189 C69.7269463,23.9498396 66.4800921,26.1173959 67.0830588,28.2835128 C67.6452072,30.307141 71.4699642,29.7155968 72.9043376,29.42918 C73.5724706,29.2960465 74.2341586,29.121174 74.8872532,28.9139176 C75.6441841,29.7393449 76.8515499,30.2135878 78.1033146,30.2538876 C79.5527263,30.2999446 80.9563069,29.9494798 82.1923171,29.2881305 C82.0097084,30.0113689 81.8421381,30.7374858 81.6788645,31.465042 C80.2666905,32.2321785 78.86311,33.0158666 77.4717033,33.821144 C74.7690946,35.3878006 71.9175345,36.9832429 69.9424962,39.4717587 C67.9946701,41.9264513 66.8968696,46.4666612 71.0624962,47.2517887 C74.5470997,47.9088201 78.1326752,45.6304393 80.0568696,42.8749371 C82.4150281,39.4955068 83.2901176,35.2294798 84.1666394,31.2642624 C86.1194783,30.2186252 88.0866394,29.2017737 90.0609616,28.2014738 C92.1720614,31.5708291 97.7240818,29.7508591 100.332164,28.025162 C101.555284,27.2162864 102.680297,26.2706792 103.724389,25.2315188 C103.993647,27.1824633 104.734107,28.9801245 106.66045,29.0988651 C109.438967,29.2708591 111.843673,27.1119386 113.595284,25.1660315 C113.77288,25.7856417 113.996307,26.3858216 114.274159,26.9600945 C115.972777,30.4733779 119.97155,28.4914888 122.134926,26.4448321 C121.927969,28.2662414 122.557432,29.6623434 125.134005,29.3946372 C127.139836,29.1859416 128.907918,28.277036 130.398864,26.9802444 C130.057995,28.3878606 129.750783,29.8084303 129.433545,31.2239626 C127.661166,31.7665713 125.942496,32.461024 124.327662,33.3907991 C121.821985,34.8343974 119.420859,36.8594648 117.843263,39.3119985 C116.818506,40.9052819 115.914056,43.2405143 116.993238,45.0403344 C118.801422,48.0592249 123.720399,46.3695098 125.825054,44.6481305 C128.839887,42.1812039 130.067304,37.8827932 131.058404,34.2766762 C131.31334,33.3512189 131.542496,32.4149671 131.762343,31.4722384 C134.280194,30.8576657 136.832419,30.3503194 139.048072,28.9434228 C139.538609,28.6318186 139.266486,28.5037227 138.897688,28.3799446" id="Fill-1"></path>
                            <path d="M33.3351816,8.22807651 C34.2231611,6.49158476 35.2608082,4.49386362 36.8076113,3.24816647 C37.02889,3.0696957 37.258046,2.88618746 37.5237238,2.77896107 C37.5545166,2.76600755 37.5781483,2.75881114 37.6010639,2.75233438 C37.86889,2.97182464 37.9755908,3.32588761 38.0364604,3.65980065 C38.2591714,4.88894608 37.6569207,6.34333888 37.1864348,7.44294907 C35.4978414,11.3865773 32.7644399,14.9725443 29.9515499,18.167027 C29.7016266,18.4512849 29.4423939,18.7420195 29.176,19.0377917 C29.5290435,17.8885263 29.9028542,16.7536537 30.2823939,15.6374918 C31.1431611,13.1079566 32.1185064,10.6079266 33.3351816,8.22807651 M37.639734,2.7401005 C37.7815243,2.70339885 37.7514476,2.76456826 37.639734,2.7401005 M37.8423939,10.797192 C38.9967673,8.87287411 42.170578,3.88001054 39.9083785,1.71173468 C38.562087,0.422139479 36.1158465,1.64696707 34.9435703,2.61056527 C33.064491,4.15635237 31.7998363,6.44552779 30.7378414,8.59653228 C28.5701688,12.9863374 26.9202455,17.751075 25.7751816,22.5647482 C20.4981483,27.6252579 13.5375345,32.2273569 6.74592327,28.9076567 C-2.13387212,24.5667872 5.0558977,12.8049881 9.68842967,8.13524293 C12.8858721,4.91341384 17.5076624,1.46561774 22.3192225,2.08450829 C24.4661279,2.36085012 25.7708849,3.80156976 24.8385064,5.94177966 C24.4847468,6.75353378 22.939376,9.18951579 21.8637749,8.19785162 C21.1727263,7.56097006 18.8002455,8.53968071 19.534977,9.21614248 C22.5541074,11.9997107 27.4931355,7.49980065 27.6965115,4.28156976 C28.0395294,-1.14955467 19.0988645,0.542319389 16.2165115,1.70957576 C11.1743632,3.75119495 6.86837852,7.79341384 3.83850639,12.2645383 C1.33712532,15.9555728 -1.12988235,21.2305353 0.552265985,25.7441185 C2.24014322,30.2720945 7.97334015,32.0524843 12.38889,31.5544933 C17.1474578,31.0176417 21.4992737,28.2642984 25.1908338,25.2374918 C25.1163581,25.6109851 25.0454629,25.9859176 24.9767161,26.3594108 C24.7833657,27.4223194 24.6222404,28.4902654 24.5470486,29.5682864 C24.4868951,30.4217797 25.8632634,30.2166822 26.3194271,29.9957527 C28.4448491,28.9681065 30.0210128,26.8149431 31.6544655,25.1720045 C32.2832123,24.5394408 36.2275601,20.2237587 37.1764092,21.7832189 C37.8531355,22.8943434 35.6947724,25.577162 35.3180972,26.6199206 C34.5583018,28.7227092 36.0506803,29.517192 37.9856164,29.5639686 C39.0003478,29.589156 40.6380972,28.0779116 38.9401944,28.0361725 C36.2898619,27.9721245 38.4704246,25.1403404 39.0934425,23.8622594 C39.9012174,22.2056477 40.2470997,20.295003 37.8996829,19.9538936 C35.3138005,19.5782414 32.904798,21.5925143 31.1331355,23.2138636 C29.971601,24.2767722 28.8909872,25.4245982 27.7931867,26.5529941 C27.6356419,26.7149131 27.4716522,26.8955428 27.304798,27.0812099 C27.5110384,25.5886762 27.8125217,24.099021 28.1777391,22.6208801 C31.8907826,19.1478966 35.234312,15.1445383 37.8423939,10.797192" id="Fill-4"></path>
                        </g>
                        <g id="Group-2" transform="translate(151.000000, 0.000000)" fill="#10D078">
                            <path d="M45.7698671,21.4486384 C42.8915441,24.4843891 39.5742149,26.6241594 35.6557304,28.0774818 C34.4151839,28.5381709 33.7680037,28.787211 32.4842646,28.6870306 C31.1559168,28.5826171 29.7348112,28.4612718 28.5190472,27.8764153 C29.5691217,26.6615507 30.6191963,25.4459805 31.6692708,24.2311159 C32.0282646,23.8162841 32.4644385,23.4078017 32.7738671,22.9541676 C33.7092335,21.5777443 33.5385876,19.4922972 34.0505255,17.8950535 C34.160277,17.7694752 34.2339168,17.6382529 34.2431217,17.5035031 C34.2756932,16.9990732 33.9018298,16.9997787 33.4614075,17.1669814 C31.4752584,17.9183349 29.5606248,17.6551848 27.8463764,18.6337082 C26.2539168,19.5423874 24.6621652,20.4503612 23.0704137,21.3590404 C23.0661652,21.3491635 23.0654571,21.3392865 23.0590845,21.3301151 C20.5156807,17.6481298 25.1117925,12.8105416 27.4392335,10.3949223 C30.7501901,6.95844977 34.4307615,4.76435625 39.0679416,3.63556216 C43.9933081,2.43762942 49.2918298,2.04819546 54.3637677,2.422814 C52.8095441,9.34726027 50.7823267,16.1637656 45.7698671,21.4486384 M38.1991342,33.8978263 C36.6505752,34.6005006 35.0949354,35.294709 33.5159292,35.9247172 C34.3344634,34.4579904 35.3604634,32.8917886 35.6302398,31.2903119 C35.7640658,30.4888681 35.5006621,29.9491635 35.0212957,29.563257 C36.9373453,28.8500002 38.7471839,28.0019937 40.4571839,26.9931339 C39.4333081,29.1837 38.7401031,31.5499346 38.1991342,33.8978263 M20.6098547,29.0736425 C23.2679665,27.550476 25.5366373,25.6230601 27.7486621,23.4247336 C28.0814571,23.0938558 28.1954571,22.7453407 27.7359168,22.576727 C27.2756683,22.4074079 26.4429727,23.1199592 26.1654075,23.3965138 C24.3074199,25.2427976 22.4430596,26.8238148 20.2133329,28.0803037 C20.3882273,26.686243 20.5631217,25.2914768 20.7380161,23.8981216 C22.5818422,22.8455211 24.4256683,21.7929206 26.2694944,20.7410256 C26.7913453,20.4433062 27.3139043,20.1448813 27.8357553,19.8471618 C27.9348857,19.7907221 28.0113578,19.7462759 28.0793329,19.7067681 C28.7937801,19.6397459 30.6411466,19.2171536 31.8335441,18.9180232 C31.5595193,19.7801397 31.3994944,20.6408452 31.2677925,21.5445859 C31.1778671,22.1654227 31.2472584,22.67338 30.9753578,23.1742824 C30.503072,24.0441594 29.5089354,24.871001 28.8660037,25.6145941 C27.7203391,26.9409272 26.5739665,28.2665548 25.4275938,29.5928878 C23.8216807,29.4200412 22.2157677,29.2464891 20.6098547,29.0736425 M20.2359913,15.2395654 C18.5840534,15.028622 16.7628857,15.5662102 15.0960783,15.996563 C16.1036683,14.6384826 17.240836,13.3608288 18.3765876,12.1050453 C20.6063143,11.9999264 22.8686124,11.7614686 25.0409851,11.2457508 C24.5878174,11.7600576 24.1488112,12.2814194 23.7282149,12.8098362 C23.0385503,13.6754801 22.2249727,14.7196147 21.5423888,15.8505252 C21.2414571,15.5330519 20.8215689,15.3150535 20.2359913,15.2395654 M56.3067242,0.783946076 C51.839482,0.418498989 47.2164634,0.700697512 42.8101155,1.46898299 C39.4403888,2.05666142 36.0678298,3.0161364 33.0493081,4.65077134 C30.7261155,5.90937676 28.5962273,7.59621843 26.6950472,9.48765403 C24.7910348,9.98009046 22.8282522,10.2248977 20.8690099,10.3716409 C19.8288484,10.4492455 18.7454944,10.3194342 17.8681901,10.9769567 C17.0192087,11.6126089 16.3529106,12.5805498 15.6660783,13.3749387 C14.5855565,14.6250782 13.4837925,15.8843891 12.5562149,17.2537574 C12.2878547,17.6495408 12.4641652,17.9761856 12.9661901,17.8661282 C14.6273329,17.5013866 16.4435441,16.8558575 18.1592087,16.8784334 C19.5944758,16.8981873 19.9591342,17.8322644 20.0164882,19.1402545 C20.0214447,19.246079 20.0766745,19.3088681 20.1595193,19.344143 C19.9980783,20.4503612 20.1531466,21.5558739 20.8159043,22.5971864 C19.8430099,23.0994998 18.789395,23.7153981 18.5656435,24.6572357 C18.1776186,26.2925761 18.1025627,28.0683103 17.9198795,29.7572685 C17.8837677,29.8581544 17.8738547,29.9477525 17.8901404,30.0204186 C17.8795193,30.1071946 17.8710224,30.1946762 17.8604012,30.2814522 C17.8469478,30.3872767 17.9043019,30.4430109 18.0041404,30.4634703 C18.0183019,30.5664727 18.1011466,30.6377279 18.2817056,30.6574818 C20.1496062,30.8592537 22.0182149,31.0603202 23.8875317,31.2620921 C25.3624509,31.4215343 26.113718,30.6525433 26.9846497,29.6507385 C28.213159,30.137531 29.6413453,30.2532324 30.9265006,30.3541183 C31.1573329,30.3717558 31.3718795,30.3766942 31.5800534,30.3759887 C31.5913826,30.4338394 31.6289106,30.4782857 31.7039665,30.5008616 C32.9763764,30.8846516 33.7212708,31.3947254 33.2928857,32.7838476 C32.7844882,34.429065 31.7032584,35.9917393 30.9420783,37.5268993 C30.6772584,38.06096 31.480923,37.9537246 31.7230845,37.8641266 C33.409718,37.2411733 35.0545752,36.4989912 36.6980161,35.7716245 C37.6617056,35.3447992 39.0537801,34.9715917 39.8149602,34.1969567 C40.5244509,33.4759395 40.5881776,32.0945777 40.8494571,31.1633226 C41.4109602,29.1632406 42.0439789,27.1165958 43.0480286,25.2851274 C44.0131342,24.5775146 44.9449602,23.8085236 45.8435068,22.968983 C52.1616559,17.0675064 54.7758671,9.44391326 56.599159,1.22064829 C56.6579292,0.955381679 56.6048236,0.807932951 56.3067242,0.783946076" id="Fill-7"></path>
                            <path d="M25.5890348,36.2881183 C25.1231217,36.1195047 24.3024634,36.832056 24.0185255,37.1071996 C18.5429851,42.4217033 10.0227242,41.9807681 3.15935776,40.0286598 C5.29137019,38.2402266 6.89374286,36.0919904 7.76750683,33.3454932 C8.7722646,30.1869863 9.21764348,27.1893325 11.9989602,25.0100544 C12.263072,24.8026384 12.7835068,24.2749272 12.3898174,23.9793243 C12.015954,23.6985367 11.1181155,24.3588813 10.8695814,24.5528928 C8.50036398,26.409759 7.13519627,28.7322529 6.33507205,31.5979789 C5.35934534,35.0915966 4.34892298,37.9961249 1.23551925,40.1986844 C1.13072422,40.2727615 -0.0510521739,41.2449354 0.569929193,41.4340084 C9.20773043,44.0549272 18.8283391,43.709234 25.6017801,37.1361249 C25.9374075,36.8094801 26.0464509,36.4532045 25.5890348,36.2881183" id="Fill-10"></path>
                            <path d="M38.9912571,10.9811897 C39.0054186,8.75534887 40.7940149,7.41208389 42.9253193,8.18389686 C44.5984994,8.78991818 45.5515677,10.3130847 45.6386609,12.0366122 C45.3901267,16.9355786 38.9650584,15.0653078 38.9912571,10.9811897 M36.9406733,12.0366122 C36.9293441,15.0519034 39.8274932,17.0689174 42.6810335,16.5009928 C45.3433938,15.9718706 47.5504621,13.7044055 47.6885366,10.9811897 C47.3373317,4.05815444 36.9654559,5.91431523 36.9406733,12.0366122" id="Fill-12"></path>
                        </g>
                    </g>
                </g>
            </g>
        </g>
    </g>
</svg>