<?xml version="1.0" encoding="utf-8"?>
<!-- Generator: Adobe Illustrator 21.1.0, SVG Export Plug-In . SVG Version: 6.00 Build 0)  -->
<svg version="1.1" id="Слой_1" xmlns="http://www.w3.org/2000/svg" xmlns:xlink="http://www.w3.org/1999/xlink" x="0px" y="0px"
	 width="14.7px" height="80.3px" viewBox="0 0 14.7 80.3" enable-background="new 0 0 14.7 80.3" xml:space="preserve">
<path id="Path-3_1_" fill="none" stroke="#082044" stroke-miterlimit="10" d="M0.5,37.3V3.7l0,0c0-1,0.8-1.9,1.9-1.9h8.9"/>
<path id="Path-3_2_" fill="none" stroke="#082044" stroke-miterlimit="10" d="M0.5,80.3v-8.6"/>
<path id="Path-3_4_" opacity="0.2" fill="none" stroke="#808285" stroke-miterlimit="10" enable-background="new    " d="M0.5,3.9
	c0-1,0.8-1.9,1.9-1.9h8.9"/>
<path id="Path-3_3_" opacity="0.2" fill="none" stroke="#808285" stroke-miterlimit="10" enable-background="new    " d="M0.5,9.5
	V3.9"/>
<path id="XMLID_111_" opacity="0.2" fill="none" stroke="#808285" stroke-miterlimit="10" enable-background="new    " d="M12.7,0.5
	L12.7,0.5c-0.8,0-1.5,0.7-1.5,1.5v0c0,0.8,0.7,1.5,1.5,1.5h0c0.8,0,1.5-0.7,1.5-1.5v0C14.2,1.2,13.5,0.5,12.7,0.5z"/>
</svg>
