<?xml version="1.0" encoding="UTF-8" standalone="no"?>
<svg width="364px" height="233px" viewBox="0 0 364 233" version="1.1" xmlns="http://www.w3.org/2000/svg" xmlns:xlink="http://www.w3.org/1999/xlink">
    <!-- Generator: Sketch 47 (45396) - http://www.bohemiancoding.com/sketch -->
    <title>diagram-fork-3</title>
    <desc>Created with Sketch.</desc>
    <defs></defs>
    <g id="Page-1" stroke="none" stroke-width="1" fill="none" fill-rule="evenodd">
        <g id="diagram-fork-3" transform="translate(1.000000, 1.000000)" stroke-width="2">
            <polyline id="Path-2" stroke="#35A8FF" points="0.5 0.5 0.5 0.5 322.5 0.5 356 0.5"></polyline>
            <path d="M0.5,102 L363,102" id="Path-2-Copy-4" stroke="#7EAC0E" transform="translate(181.750000, 102.500000) scale(-1, 1) rotate(-180.000000) translate(-181.750000, -102.500000) "></path>
            <path d="M0.5,150.447639 C0.5,150.447639 0.5,150.447639 0.5,150.447639 C0.5,151.012157 0.5,147.012157 0.5,138.447639 L0.5,104.447639 L0.5,104.447639 C0.5,101.686216 2.73857625,99.4476393 5.5,99.4476393 L363,99.4476393" id="Path-2-Copy-2" stroke="#7EAC0E" transform="translate(181.750000, 124.973821) scale(-1, 1) rotate(-180.000000) translate(-181.750000, -124.973821) "></path>
            <path d="M0.5,230.459269 C0.5,230.459269 0.5,230.459269 0.5,230.459269 C0.5,230.896105 0.5,227.819174 0.5,221.228478 L0.5,102.359649 L0.5,102.359649 C0.5,100.228024 2.73857625,98.4999999 5.5,98.4999999 L363,98.4999999" id="Path-2-Copy-3" stroke="#7EAC0E" transform="translate(181.750000, 164.500000) scale(-1, 1) rotate(-180.000000) translate(-181.750000, -164.500000) "></path>
        </g>
    </g>
</svg>