<?xml version="1.0" encoding="UTF-8"?>
<svg width="363px" height="270px" viewBox="0 0 363 270" version="1.1" xmlns="http://www.w3.org/2000/svg" xmlns:xlink="http://www.w3.org/1999/xlink">
    <!-- Generator: Sketch 46.2 (44496) - http://www.bohemiancoding.com/sketch -->
    <title>diagram-fork-3</title>
    <desc>Created with Sketch.</desc>
    <defs></defs>
    <g id="Symbols" stroke="none" stroke-width="1" fill="none" fill-rule="evenodd">
        <g id="diag" transform="translate(-792.000000, -200.000000)">
            <g id="diagram-fork-3" transform="translate(792.000000, 200.000000)">
                <path d="M0.5,0.5 L0.5,0.5 L322.5,0.5 L356,0.5" id="Path-2" stroke="#35A8FF"></path>
                <path d="M0.5,103.5 L363,103.5" id="Path-2-Copy-4" stroke="#7EAC0E" transform="translate(181.750000, 103.500000) scale(1, -1) translate(-181.750000, -103.500000) "></path>
                <path d="M0.5,150.447637 C0.5,150.447637 0.5,150.447637 0.5,150.447637 C0.5,151.012155 0.5,147.012155 0.5,138.447637 L0.5,104.447637 L0.5,104.447637 C0.5,101.686214 2.73857625,99.4476373 5.5,99.4476373 L363,99.4476373" id="Path-2-Copy-2" stroke="#7EAC0E" transform="translate(181.750000, 124.973819) scale(1, -1) translate(-181.750000, -124.973819) "></path>
                <path d="M0.5,269.447235 C0.5,269.447235 0.5,269.447235 0.5,269.447235 C0.5,270.013136 0.5,266.027112 0.5,257.489165 L0.5,103.5 L0.5,103.5 C0.5,100.738576 2.73857625,98.5 5.5,98.5 L363,98.5" id="Path-2-Copy-3" stroke="#7EAC0E" transform="translate(181.750000, 184.000000) scale(1, -1) translate(-181.750000, -184.000000) "></path>
            </g>
        </g>
    </g>
</svg>