<?xml version="1.0" encoding="UTF-8"?>
<svg width="30px" height="30px" viewBox="0 0 30 30" version="1.1" xmlns="http://www.w3.org/2000/svg" xmlns:xlink="http://www.w3.org/1999/xlink">
    <!-- Generator: Sketch 46.2 (44496) - http://www.bohemiancoding.com/sketch -->
    <title>diagram-contract</title>
    <desc>Created with Sketch.</desc>
    <defs></defs>
    <g id="Symbols" stroke="none" stroke-width="1" fill="none" fill-rule="evenodd">
        <g id="diag" transform="translate(-419.000000, -491.000000)">
            <g id="Group-14" transform="translate(419.000000, 491.000000)">
                <g id="diagram-contract">
                    <g id="Group-6-Copy-2">
                        <circle id="Oval-2-Copy-2" stroke-opacity="0.5" stroke="#FFFFFF" cx="15" cy="15" r="14.5"></circle>
                        <g id="Group-11" transform="translate(9.000000, 7.000000)">
                            <path d="M8.5,0.5 L0.5,0.5 L0.5,15.5 L12.5,15.5 L12.5,4.5 L8.5,4.5 L8.5,0.5 Z" id="Combined-Shape" stroke="#FFFFFF"></path>
                            <path d="M0.5,0.5 L0.5,15.5 L12.5,15.5 L12.5,4.20710678 L8.79289322,0.5 L0.5,0.5 Z" id="Rectangle-3" stroke="#FFFFFF"></path>
                            <rect id="Rectangle-6" fill="#FFFFFF" x="2" y="6" width="2" height="2"></rect>
                            <rect id="Rectangle-6-Copy-3" fill="#FFFFFF" x="2" y="10" width="2" height="2"></rect>
                            <rect id="Rectangle-6-Copy" fill="#FFFFFF" x="5" y="6" width="5" height="1"></rect>
                            <rect id="Rectangle-6-Copy-2" fill="#FFFFFF" x="5" y="8" width="3" height="1"></rect>
                            <rect id="Rectangle-6-Copy-4" fill="#FFFFFF" x="5" y="10" width="5" height="1"></rect>
                            <rect id="Rectangle-6-Copy-5" fill="#FFFFFF" x="5" y="12" width="4" height="1"></rect>
                        </g>
                    </g>
                </g>
            </g>
        </g>
    </g>
</svg>