<?xml version="1.0" encoding="UTF-8"?>
<svg width="170px" height="90px" viewBox="0 0 170 90" version="1.1" xmlns="http://www.w3.org/2000/svg" xmlns:xlink="http://www.w3.org/1999/xlink">
    <!-- Generator: Sketch 46.2 (44496) - http://www.bohemiancoding.com/sketch -->
    <title>Rectangle 11</title>
    <desc>Created with Sketch.</desc>
    <defs></defs>
    <g id="Symbols" stroke="none" stroke-width="1" fill="none" fill-rule="evenodd" opacity="0.501868207">
        <g id="diag" transform="translate(-111.000000, -151.000000)" fill="#30363D">
            <g id="Group-5" transform="translate(111.000000, 151.000000)">
                <path d="M3,0 L147.430441,0 L147.430441,-2.22044605e-15 C148.61439,-1.40050677e-14 149.687606,0.69631958 150.170061,1.77750926 L168.911571,43.7775093 L168.911571,43.7775093 C169.258745,44.5555306 169.258745,45.4444694 168.911571,46.2224907 L150.170061,88.2224907 L150.170061,88.2224907 C149.687606,89.3036804 148.61439,90 147.430441,90 L3,90 L3,90 C1.34314575,90 6.46995335e-16,88.6568542 4.4408921e-16,87 L0,3 L4.4408921e-16,3 C2.41183085e-16,1.34314575 1.34314575,7.48448398e-16 3,4.4408921e-16 Z" id="Rectangle-11"></path>
            </g>
        </g>
    </g>
</svg>