<?xml version="1.0" encoding="UTF-8"?>
<svg width="90px" height="136px" viewBox="0 0 90 136" version="1.1" xmlns="http://www.w3.org/2000/svg" xmlns:xlink="http://www.w3.org/1999/xlink">
    <!-- Generator: Sketch 46.2 (44496) - http://www.bohemiancoding.com/sketch -->
    <title>Rectangle 11</title>
    <desc>Created with Sketch.</desc>
    <defs></defs>
    <g id="Oxygen" stroke="none" stroke-width="1" fill="none" fill-rule="evenodd" opacity="0.501868207">
        <g id="Oxygen-768" transform="translate(-201.000000, -1639.000000)" fill="#051938">
            <g id="Group-18" transform="translate(24.000000, 1639.000000)">
                <g id="Group-6" transform="translate(8.000000, 0.000000)">
                    <g id="Group-5" transform="translate(214.000000, 68.000000) rotate(90.000000) translate(-214.000000, -68.000000) translate(146.000000, 23.000000)">
                        <path d="M3,0 L113.430441,0 L113.430441,-3.10862447e-15 C114.61439,-3.3261123e-15 115.687606,0.69631958 116.170061,1.77750926 L134.911571,43.7775093 L134.911571,43.7775093 C135.258745,44.5555306 135.258745,45.4444694 134.911571,46.2224907 L116.170061,88.2224907 L116.170061,88.2224907 C115.687606,89.3036804 114.61439,90 113.430441,90 L3,90 L3,90 C1.34314575,90 -6.90252123e-15,88.6568542 -7.10542736e-15,87 L5.86214898e-17,3 L4.4408921e-16,3 C2.41183085e-16,1.34314575 1.34314575,7.48448398e-16 3,4.4408921e-16 Z" id="Rectangle-11"></path>
                    </g>
                </g>
            </g>
        </g>
    </g>
</svg>