<?xml version="1.0" encoding="UTF-8"?>
<svg width="358px" height="153px" viewBox="0 0 358 153" version="1.1" xmlns="http://www.w3.org/2000/svg" xmlns:xlink="http://www.w3.org/1999/xlink">
    <!-- Generator: Sketch 46.2 (44496) - http://www.bohemiancoding.com/sketch -->
    <title>diagram-fork-1</title>
    <desc>Created with Sketch.</desc>
    <defs></defs>
    <g id="Symbols" stroke="none" stroke-width="1" fill="none" fill-rule="evenodd">
        <g id="diag" transform="translate(-305.000000, -176.000000)" stroke="#082044">
            <g id="diagram-fork-1" transform="translate(305.000000, 176.000000)">
                <path d="M0,0.5 L286.5,0.5 L286.5,0.5 C289.261424,0.5 291.5,2.73857625 291.5,5.5 L291.5,71.5 L291.5,71.5 C291.5,74.2614237 293.738576,76.5 296.5,76.5 L357,76.5" id="Path-2"></path>
                <path d="M0,76.5 L0,76.5 L286.5,76.5 L286.5,76.5 C289.261424,76.5 291.5,78.7385763 291.5,81.5 L291.5,147.5 L291.5,147.5 C291.5,150.261424 293.738576,152.5 296.5,152.5 L357.5,152.5" id="Path-2-Copy" transform="translate(178.750000, 114.500000) scale(1, -1) translate(-178.750000, -114.500000) "></path>
            </g>
        </g>
    </g>
</svg>