<?xml version="1.0" encoding="UTF-8" standalone="no"?>
<svg width="358px" height="155px" viewBox="0 0 358 155" version="1.1" xmlns="http://www.w3.org/2000/svg" xmlns:xlink="http://www.w3.org/1999/xlink">
    <!-- Generator: Sketch 47 (45396) - http://www.bohemiancoding.com/sketch -->
    <title>diagram-fork-1</title>
    <desc>Created with Sketch.</desc>
    <defs></defs>
    <g id="Page-1" stroke="none" stroke-width="1" fill="none" fill-rule="evenodd">
        <g id="diagram-fork-1" transform="translate(0.000000, 1.000000)" stroke="#082044" stroke-width="2">
            <path d="M0,0.5 L286.5,0.5 L286.5,0.5 C289.261424,0.5 291.5,2.73857625 291.5,5.5 L291.5,71.5 L291.5,71.5 C291.5,74.2614237 293.738576,76.5 296.5,76.5 L357,76.5" id="Path-2"></path>
            <path d="M0,76.5 L0,76.5 L286.5,76.5 L286.5,76.5 C289.261424,76.5 291.5,78.7385763 291.5,81.5 L291.5,147.5 L291.5,147.5 C291.5,150.261424 293.738576,152.5 296.5,152.5 L357.5,152.5" id="Path-2-Copy" transform="translate(178.750000, 114.500000) scale(-1, 1) rotate(-180.000000) translate(-178.750000, -114.500000) "></path>
        </g>
    </g>
</svg>