<?xml version="1.0" encoding="UTF-8"?>
<svg width="190px" height="395px" viewBox="0 0 190 395" version="1.1" xmlns="http://www.w3.org/2000/svg" xmlns:xlink="http://www.w3.org/1999/xlink">
    <!-- Generator: Sketch 46.2 (44496) - http://www.bohemiancoding.com/sketch -->
    <title>Path 2</title>
    <desc>Created with Sketch.</desc>
    <defs></defs>
    <g id="Oxygen" stroke="none" stroke-width="1" fill="none" fill-rule="evenodd">
        <g id="diag-320" transform="translate(-74.000000, -666.000000)">
            <g id="Group-6" transform="translate(52.000000, 19.000000)">
                <g id="Path-2" transform="translate(22.000000, 647.000000)">
                    <path d="M-37.8416044,154.705271 L-37.8416044,154.705271 L-30.2098888,117.158396 L218.137767,117.158396 L277.137767,117.158396 L277.137767,117.158396 C279.899191,117.158396 282.137767,119.396972 282.137767,122.158396 L282.137767,215.862233" stroke="#35A8FF" transform="translate(122.148082, 166.510314) rotate(90.000000) translate(-122.148082, -166.510314) "></path>
                    <path d="M-81.5,144.5 L206.5,144.5" id="Path-2-Copy-4" stroke="#7EAC0E" transform="translate(62.500000, 144.500000) scale(1, -1) rotate(-90.000000) translate(-62.500000, -144.500000) "></path>
                    <g id="Path-2-Copy-3" stroke="#7EAC0E">
                        <path d="M-102.043471,198.990706 C-102.043471,198.990706 -102.043471,198.990706 -102.043471,198.990706 C-102.043471,199.556607 -102.043471,198.903917 -102.043471,197.032636 L-102.043471,108.043471 L-102.043471,108.043471 C-102.043471,105.282047 -99.8048946,103.043471 -97.0434709,103.043471 L286.956529,103.043471 L286.956529,103.043471 C289.717953,103.043471 291.956529,105.282047 291.956529,108.043471 L291.956529,291.956529" transform="translate(94.956529, 197.500000) scale(1, -1) rotate(-90.000000) translate(-94.956529, -197.500000) "></path>
                        <path d="M-117.229994,180.856947 L-117.229994,180.856947 L-69.8569474,180.856947 L182.143053,180.856947 L182.143053,180.856947 C184.904476,180.856947 187.143053,183.095524 187.143053,185.856947 L187.143053,249.770006" transform="translate(34.956529, 215.313477) scale(1, -1) rotate(-90.000000) translate(-34.956529, -215.313477) "></path>
                    </g>
                </g>
            </g>
        </g>
    </g>
</svg>