<?xml version="1.0" encoding="UTF-8"?>
<svg width="30px" height="30px" viewBox="0 0 30 30" version="1.1" xmlns="http://www.w3.org/2000/svg" xmlns:xlink="http://www.w3.org/1999/xlink">
    <!-- Generator: Sketch 46.2 (44496) - http://www.bohemiancoding.com/sketch -->
    <title>diagram-management</title>
    <desc>Created with Sketch.</desc>
    <defs></defs>
    <g id="Symbols" stroke="none" stroke-width="1" fill="none" fill-rule="evenodd">
        <g id="diag" transform="translate(-171.000000, -491.000000)" stroke="#FFFFFF">
            <g id="diagram-management" transform="translate(171.000000, 491.000000)">
                <g>
                    <g id="Group-6-Copy" fill-rule="evenodd" stroke-opacity="0.5">
                        <circle id="Oval-2-Copy-2" cx="15" cy="15" r="14.5"></circle>
                    </g>
                    <rect id="Rectangle-2" x="8.5" y="14.5" width="13" height="6"></rect>
                </g>
                <g id="Group-7" fill-rule="evenodd" transform="translate(7.000000, 7.000000)">
                    <path d="M0.5,7.5 L15.5,7.5 L15.5,5 C15.5,4.17157288 14.8284271,3.5 14,3.5 L2,3.5 C1.17157288,3.5 0.5,4.17157288 0.5,5 L0.5,7.5 Z" id="Rectangle-7"></path>
                    <rect id="Rectangle" x="4.5" y="6.5" width="1" height="2"></rect>
                    <rect id="Rectangle-Copy" x="10.5" y="6.5" width="1" height="2"></rect>
                    <path d="M4.5,3.51000977 L4.5,1.5 L4.5,1.5 C4.5,0.94771525 4.94771525,0.5 5.5,0.5 L10.5,0.5 L10.5,0.5 C11.0522847,0.5 11.5,0.94771525 11.5,1.5 L11.5,3.51000977" id="Path-5"></path>
                </g>
            </g>
        </g>
    </g>
</svg>