<?xml version="1.0" encoding="UTF-8"?>
<svg width="226px" height="395px" viewBox="0 0 226 395" version="1.1" xmlns="http://www.w3.org/2000/svg" xmlns:xlink="http://www.w3.org/1999/xlink">
    <!-- Generator: Sketch 46.2 (44496) - http://www.bohemiancoding.com/sketch -->
    <title>diagram-fork-3-tablet</title>
    <desc>Created with Sketch.</desc>
    <defs></defs>
    <g id="Oxygen" stroke="none" stroke-width="1" fill="none" fill-rule="evenodd">
        <g id="Oxygen-768" transform="translate(-34.000000, -2286.000000)">
            <g id="Group-18" transform="translate(24.000000, 1639.000000)">
                <g id="Group-6" transform="translate(8.000000, 0.000000)">
                    <g id="diagram-fork-3-tablet" transform="translate(2.000000, 647.000000)">
                        <path d="M16.1583956,154.705271 L16.1583956,154.705271 L23.7901112,117.158396 L272.137767,117.158396 L331.137767,117.158396 L331.137767,117.158396 C333.899191,117.158396 336.137767,119.396972 336.137767,122.158396 L336.137767,215.862233" id="Path-2" stroke="#35A8FF" transform="translate(176.148082, 166.510314) rotate(90.000000) translate(-176.148082, -166.510314) "></path>
                        <path d="M-59.5,144.5 L228.5,144.5" id="Path-2-Copy-4" stroke="#36CD98" transform="translate(84.500000, 144.500000) scale(1, -1) rotate(-90.000000) translate(-84.500000, -144.500000) "></path>
                        <path d="M-102.043471,218.990706 C-102.043471,218.990706 -102.043471,218.990706 -102.043471,218.990706 C-102.043471,219.556607 -102.043471,218.903917 -102.043471,217.032636 L-102.043471,108.043471 L-102.043471,108.043471 C-102.043471,105.282047 -99.8048946,103.043471 -97.0434709,103.043471 L286.956529,103.043471 L286.956529,103.043471 C289.717953,103.043471 291.956529,105.282047 291.956529,108.043471 L291.956529,291.956529" id="Path-2-Copy-3" stroke="#36CD98" transform="translate(94.956529, 197.500000) scale(1, -1) rotate(-90.000000) translate(-94.956529, -197.500000) "></path>
                        <path d="M-117.229994,180.856947 L-117.229994,180.856947 L-69.8569474,180.856947 L182.143053,180.856947 L182.143053,180.856947 C184.904476,180.856947 187.143053,183.095524 187.143053,185.856947 L187.143053,249.770006" id="Path-2-Copy-3" stroke="#36CD98" transform="translate(34.956529, 215.313477) scale(1, -1) rotate(-90.000000) translate(-34.956529, -215.313477) "></path>
                    </g>
                </g>
            </g>
        </g>
    </g>
</svg>