<?xml version="1.0" encoding="UTF-8"?>
<svg width="30px" height="30px" viewBox="0 0 30 30" version="1.1" xmlns="http://www.w3.org/2000/svg" xmlns:xlink="http://www.w3.org/1999/xlink">
    <!-- Generator: Sketch 46.2 (44496) - http://www.bohemiancoding.com/sketch -->
    <title>diagram-system</title>
    <desc>Created with Sketch.</desc>
    <defs></defs>
    <g id="Symbols" stroke="none" stroke-width="1" fill="none" fill-rule="evenodd">
        <g id="diag" transform="translate(-867.000000, -491.000000)" stroke="#FFFFFF">
            <g id="diagram-system" transform="translate(867.000000, 491.000000)">
                <g id="Group-15">
                    <g id="Group-6-Copy-3" stroke-opacity="0.5">
                        <circle id="Oval-2-Copy-2" cx="15" cy="15" r="14.5"></circle>
                    </g>
                    <g id="Group-9" transform="translate(8.000000, 8.000000)">
                        <path d="M0.5,12.5 L3.5,12.5 L3.5,8 C3.5,7.72385763 3.27614237,7.5 3,7.5 L1,7.5 C0.723857625,7.5 0.5,7.72385763 0.5,8 L0.5,12.5 Z" id="Rectangle-10"></path>
                        <path d="M5.5,12.5 L8.5,12.5 L8.5,4 C8.5,3.72385763 8.27614237,3.5 8,3.5 L6,3.5 C5.72385763,3.5 5.5,3.72385763 5.5,4 L5.5,12.5 Z" id="Rectangle-10-Copy"></path>
                        <path d="M10.5,12.5 L13.5,12.5 L13.5,1 C13.5,0.723857625 13.2761424,0.5 13,0.5 L11,0.5 C10.7238576,0.5 10.5,0.723857625 10.5,1 L10.5,12.5 Z" id="Rectangle-10-Copy-2"></path>
                    </g>
                </g>
            </g>
        </g>
    </g>
</svg>