<?xml version="1.0" encoding="UTF-8"?>
<svg width="143px" height="37px" viewBox="0 0 143 37" version="1.1" xmlns="http://www.w3.org/2000/svg" xmlns:xlink="http://www.w3.org/1999/xlink">
    <!-- Generator: Sketch 46.2 (44496) - http://www.bohemiancoding.com/sketch -->
    <title>ethereum-logo</title>
    <desc>Created with Sketch.</desc>
    <defs></defs>
    <g id="Symbols" stroke="none" stroke-width="1" fill="none" fill-rule="evenodd" opacity="0.498584692">
        <g id="diag" transform="translate(-650.000000, -710.000000)">
            <g id="ethereum-logo" transform="translate(650.000000, 710.000000)">
                <g id="eth">
                    <path d="M142.615385,18.8360864 L142.615385,24.3047014 C142.615385,24.5524778 142.398252,24.7301144 142.189529,24.7301144 C141.941814,24.7301144 141.762909,24.5448539 141.762909,24.3047014 L141.762909,18.8360864 C141.762909,17.0048285 140.725411,15.2055909 138.672589,15.2055909 C136.100635,15.2055909 135.116656,17.9555273 135.116656,20.0871665 L135.116656,24.2978399 C135.116656,24.5448539 134.900288,24.7224905 134.690801,24.7224905 C134.443086,24.7224905 134.264945,24.53723 134.264945,24.2978399 L134.264945,18.8284625 C134.264945,16.9972046 133.226683,15.197967 131.17386,15.197967 C128.57056,15.197967 127.501716,17.2449809 127.594991,19.9636595 C127.594991,20.025413 127.625573,20.1489199 127.594991,20.1801779 L127.594991,24.290216 C127.594991,24.4983482 127.455078,24.6912325 127.246355,24.7224905 C126.959648,24.7689962 126.73487,24.5753494 126.73487,24.3047014 L126.73487,14.9654384 C126.73487,14.7573062 126.874783,14.5644219 127.083506,14.5331639 C127.370213,14.4866582 127.594991,14.6795426 127.594991,14.950953 L127.594991,16.5108005 C128.33049,15.197967 129.647049,14.3402795 131.17386,14.3402795 C132.917039,14.3402795 134.264945,15.4373571 134.814658,17.0589581 C135.519575,15.468615 136.898827,14.3402795 138.672589,14.3402795 C141.174968,14.3479034 142.615385,16.5184244 142.615385,18.8360864 L142.615385,18.8360864 Z M120.971675,15.0355781 L120.971675,24.3595934 C120.971675,24.6066074 120.754542,24.784244 120.545055,24.784244 C120.29734,24.784244 120.119199,24.5989835 120.119199,24.3595934 L120.119199,22.5900889 C119.414282,23.9959339 118.158887,25 116.563267,25 C114.02266,25 112.612061,22.7989835 112.612061,20.4813215 L112.612061,15.0127065 C112.612061,14.7961881 112.797847,14.5872935 113.038681,14.5872935 C113.286396,14.5872935 113.464537,14.8030496 113.464537,15.0127065 L113.464537,20.4813215 C113.464537,22.311817 114.502799,24.1423126 116.555621,24.1423126 C119.437219,24.1423126 120.111554,21.454892 120.111554,18.496061 L120.111554,15.0127065 C120.111554,14.7656925 120.359269,14.5179161 120.662031,14.6033037 C120.847818,14.6650572 120.971675,14.8419314 120.971675,15.0355781 L120.971675,15.0355781 Z M106.23646,19.1989835 C106.050673,17.090216 104.432116,15.166709 102.192743,15.166709 C99.9548984,15.166709 98.3661588,17.090216 98.149026,19.1989835 L106.23646,19.1989835 Z M107.15851,19.6243964 C107.15851,19.8630241 106.957432,20.0642948 106.717363,20.0642948 L98.1574361,20.0642948 C98.3738043,22.1730623 99.9617794,24.0965693 102.201153,24.0965693 C103.734845,24.0965693 104.865617,23.5171537 105.725739,22.2973316 C105.850361,22.1265565 106.036147,22.0182973 106.267806,22.1189327 C106.391664,22.1730623 106.484939,22.2889454 106.50864,22.4277001 C106.531577,22.5672173 106.492585,22.6449809 106.454357,22.7212198 C105.594236,24.2200762 103.881639,24.9542567 102.201153,24.9542567 C99.3195555,24.9542567 97.2743782,22.3895807 97.2743782,19.6388818 C97.2743782,16.8897078 99.3264364,14.3250318 102.201153,14.3250318 C105.075105,14.3174079 107.151629,16.8736976 107.15851,19.6243964 L107.15851,19.6243964 Z M93.1068039,14.9273189 C93.1068039,15.2055909 92.9508353,15.3519695 92.7115304,15.3832274 C90.2015054,15.7461245 89.0699681,17.7931385 89.0699681,20.1801779 L89.0699681,24.2589581 C89.0699681,24.4670902 88.9315841,24.660737 88.7213322,24.6912325 C88.4353897,24.7377382 88.2106113,24.5448539 88.2106113,24.2742058 L88.2106113,14.9654384 C88.2106113,14.7573062 88.3497599,14.5644219 88.5592472,14.5331639 C88.8451897,14.4866582 89.0699681,14.6795426 89.0699681,14.950953 L89.0699681,16.843202 C89.7748852,15.6538755 91.1854841,14.52554 92.6496017,14.52554 C92.8583244,14.5331639 93.1068039,14.6795426 93.1068039,14.9273189 L93.1068039,14.9273189 Z M81.6798061,19.1989835 C81.4940199,17.090216 79.8754628,15.166709 77.6360892,15.166709 C75.3974803,15.166709 73.8095052,17.090216 73.5923724,19.1989835 L81.6798061,19.1989835 Z M82.6018561,19.6243964 C82.6018561,19.8630241 82.4007788,20.0642948 82.1599449,20.0642948 L73.6000179,20.0642948 C73.8171508,22.1730623 75.4051258,24.0965693 77.6437347,24.0965693 C79.1781911,24.0965693 80.3089639,23.5171537 81.1683206,22.2973316 C81.2921781,22.1265565 81.4787288,22.0182973 81.7111527,22.1189327 C81.8350102,22.1730623 81.927521,22.2889454 81.9512221,22.4277001 C81.9741587,22.5672173 81.9351665,22.6449809 81.8969389,22.7212198 C81.0368176,24.2200762 79.3249851,24.9542567 77.6437347,24.9542567 C74.7621373,24.9542567 72.7177246,22.3895807 72.7177246,19.6388818 C72.7177246,16.8897078 74.7697829,14.3250318 77.6437347,14.3250318 C80.5184512,14.3174079 82.5942105,16.8736976 82.6018561,19.6243964 L82.6018561,19.6243964 Z M67.2634089,18.8673443 L67.2634089,24.3047014 C67.2634089,24.5524778 67.0470406,24.7301144 66.8375533,24.7301144 C66.5898384,24.7301144 66.4116977,24.5448539 66.4116977,24.3047014 L66.4116977,18.8673443 C66.4116977,17.0360864 65.3734358,15.2055909 63.320613,15.2055909 C60.6867305,15.2055909 59.5559577,17.4919949 59.7103973,19.8485388 C59.7103973,19.9102922 59.7417439,20.1801779 59.7417439,20.2106734 L59.7417439,24.290216 C59.7417439,24.4983482 59.6018308,24.6912325 59.3931081,24.7224905 C59.106401,24.7689962 58.8816226,24.5753494 58.8816226,24.3047014 L58.8816226,6.44574333 C58.8816226,6.2292249 59.0674088,6.02033037 59.3082428,6.02033037 C59.5559577,6.02033037 59.7333338,6.23684879 59.7333338,6.44574333 L59.7333338,16.5496823 C60.4695976,15.2360864 61.7869212,14.3479034 63.3129674,14.3479034 C65.8222279,14.3479034 67.2634089,16.5496823 67.2634089,18.8673443 L67.2634089,18.8673443 Z M53.2652218,14.5331639 C53.5129368,14.5331639 53.6910774,14.7496823 53.6910774,14.9585769 C53.6910774,15.2055909 53.5052912,15.3832274 53.2652218,15.3832274 L50.9723296,15.3832274 L50.9723296,24.3595934 C50.9723296,24.5753494 50.7865435,24.784244 50.546474,24.784244 C50.2979946,24.784244 50.1198539,24.5677255 50.1198539,24.3595934 L50.1198539,15.3832274 L47.911827,15.3832274 C47.6641121,15.3832274 47.486736,15.197967 47.486736,14.9585769 C47.486736,14.7412961 47.6725222,14.5331639 47.911827,14.5331639 L50.1198539,14.5331639 L50.1198539,11.2503177 C50.1198539,11.0421855 50.259767,10.8485388 50.4684897,10.8180432 C50.7551968,10.7707751 50.9799752,10.9644219 50.9799752,11.2350699 L50.9799752,14.5331639 L53.2652218,14.5331639 Z M41.9704915,19.1989835 C41.7847053,17.090216 40.1653836,15.166709 37.9267747,15.166709 C35.6881657,15.166709 34.1001907,17.090216 33.8830578,19.1989835 L41.9704915,19.1989835 Z M42.884896,19.6243964 C42.884896,19.8630241 42.6830542,20.0642948 42.4429848,20.0642948 L33.8830578,20.0642948 C34.1001907,22.1730623 35.6881657,24.0965693 37.9267747,24.0965693 C39.461231,24.0965693 40.5912393,23.5171537 41.4513605,22.2973316 C41.575218,22.1265565 41.7610042,22.0182973 41.9934281,22.1189327 C42.1172855,22.1730623 42.2105609,22.2889454 42.2334975,22.4277001 C42.2571986,22.5672173 42.2182064,22.6449809 42.1792143,22.7212198 C41.3198575,24.2200762 39.6080251,24.9542567 37.9267747,24.9542567 C35.0451773,24.9542567 33,22.3895807 33,19.6388818 C33,16.8897078 35.0528228,14.3250318 37.9267747,14.3250318 C40.8007266,14.3174079 42.884896,16.8736976 42.884896,19.6243964 L42.884896,19.6243964 Z" id="Fill-1" fill="#FFFFFF" fill-rule="nonzero"></path>
                    <polygon id="Path" fill="#EBEBEB" fill-rule="nonzero" points="11.4401482 37.0735959 22.8864128 21 11.4401482 27.7352478 0 21"></polygon>
                    <polygon id="Path" fill="#EBEBEB" fill-rule="nonzero" points="11.4401482 25.6711563 22.8802963 18.9298094 11.4401482 0 0 18.9298094"></polygon>
                </g>
            </g>
        </g>
    </g>
</svg>