<?xml version="1.0" encoding="UTF-8"?>
<svg width="276px" height="296px" viewBox="0 0 276 296" version="1.1" xmlns="http://www.w3.org/2000/svg" xmlns:xlink="http://www.w3.org/1999/xlink">
    <!-- Generator: Sketch 46.2 (44496) - http://www.bohemiancoding.com/sketch -->
    <title>info-block-bg</title>
    <desc>Created with Sketch.</desc>
    <defs>
        <polygon id="path-1" points="119 119 119 0 0 0 4.40405576e-15 119 119 119"></polygon>
        <polygon id="path-3" points="99 99 99 0 0 0 3.66387832e-15 99 99 99"></polygon>
        <polygon id="path-5" points="56 56 56 0 0 0 2.07249683e-15 56 56 56"></polygon>
        <polygon id="path-7" points="81 81 81 0 0 0 2.99771863e-15 81 81 81"></polygon>
        <polygon id="path-9" points="81 81 81 0 0 0 2.99771863e-15 81 81 81"></polygon>
        <polygon id="path-11" points="81 81 81 0 0 0 2.99771863e-15 81 81 81"></polygon>
        <polygon id="path-13" points="52 52 52 0 0 0 1.92446134e-15 52 52 52"></polygon>
    </defs>
    <g id="Symbols" stroke="none" stroke-width="1" fill="none" fill-rule="evenodd" opacity="0.1">
        <g id="info-block-bg">
            <g id="Group-3" transform="translate(100.000000, 9.000000)">
                <mask id="mask-2" fill="white">
                    <use xlink:href="#path-1"></use>
                </mask>
                <g id="Clip-2"></g>
                <path d="M119,59.5 C119,92.3613542 92.3613542,119 59.5,119 C26.6386458,119 0,92.3613542 0,59.5 C0,26.6386458 26.6386458,0 59.5,0 C92.3613542,0 119,26.6386458 119,59.5" id="Fill-1" fill="#FFFFFF" mask="url(#mask-2)"></path>
            </g>
            <g id="Group-3-Copy-2" transform="translate(55.000000, 78.000000)">
                <mask id="mask-4" fill="white">
                    <use xlink:href="#path-3"></use>
                </mask>
                <g id="Clip-2"></g>
                <path d="M99,49.5 C99,76.8384375 76.8384375,99 49.5,99 C22.1615625,99 0,76.8384375 0,49.5 C0,22.1615625 22.1615625,0 49.5,0 C76.8384375,0 99,22.1615625 99,49.5" id="Fill-1" fill="#FFFFFF" mask="url(#mask-4)"></path>
            </g>
            <g id="Group-3-Copy-5" transform="translate(30.000000, 124.000000)">
                <mask id="mask-6" fill="white">
                    <use xlink:href="#path-5"></use>
                </mask>
                <g id="Clip-2"></g>
                <path d="M56,28 C56,43.4641667 43.4641667,56 28,56 C12.5358333,56 0,43.4641667 0,28 C0,12.5358333 12.5358333,0 28,0 C43.4641667,0 56,12.5358333 56,28" id="Fill-1" fill="#FFFFFF" mask="url(#mask-6)"></path>
            </g>
            <g id="Group-3-Copy-3">
                <mask id="mask-8" fill="white">
                    <use xlink:href="#path-7"></use>
                </mask>
                <g id="Clip-2"></g>
                <path d="M81,40.5 C81,62.8678125 62.8678125,81 40.5,81 C18.1321875,81 0,62.8678125 0,40.5 C0,18.1321875 18.1321875,0 40.5,0 C62.8678125,0 81,18.1321875 81,40.5" id="Fill-1" fill="#FFFFFF" mask="url(#mask-8)"></path>
            </g>
            <g id="Group-3-Copy-4" transform="translate(195.000000, 152.000000)">
                <mask id="mask-10" fill="white">
                    <use xlink:href="#path-9"></use>
                </mask>
                <g id="Clip-2"></g>
                <path d="M81,40.5 C81,62.8678125 62.8678125,81 40.5,81 C18.1321875,81 0,62.8678125 0,40.5 C0,18.1321875 18.1321875,0 40.5,0 C62.8678125,0 81,18.1321875 81,40.5" id="Fill-1" fill="#FFFFFF" mask="url(#mask-10)"></path>
            </g>
            <g id="Group-3-Copy-6" transform="translate(42.000000, 215.000000)">
                <mask id="mask-12" fill="white">
                    <use xlink:href="#path-11"></use>
                </mask>
                <g id="Clip-2"></g>
                <path d="M81,40.5 C81,62.8678125 62.8678125,81 40.5,81 C18.1321875,81 0,62.8678125 0,40.5 C0,18.1321875 18.1321875,0 40.5,0 C62.8678125,0 81,18.1321875 81,40.5" id="Fill-1" fill="#FFFFFF" mask="url(#mask-12)"></path>
            </g>
            <g id="Group-3-Copy-7" transform="translate(6.000000, 233.000000)">
                <mask id="mask-14" fill="white">
                    <use xlink:href="#path-13"></use>
                </mask>
                <g id="Clip-2"></g>
                <path d="M52,26 C52,40.3595833 40.3595833,52 26,52 C11.6404167,52 0,40.3595833 0,26 C0,11.6404167 11.6404167,0 26,0 C40.3595833,0 52,11.6404167 52,26" id="Fill-1" fill="#FFFFFF" mask="url(#mask-14)"></path>
            </g>
        </g>
    </g>
</svg>