<?xml version="1.0" encoding="UTF-8" standalone="no"?>
<svg width="60px" height="60px" viewBox="0 0 60 60" version="1.1" xmlns="http://www.w3.org/2000/svg" xmlns:xlink="http://www.w3.org/1999/xlink">
    <!-- Generator: Sketch 46.2 (44496) - http://www.bohemiancoding.com/sketch -->
    <title>kf-coins-x3</title>
    <desc>Created with Sketch.</desc>
    <defs>
        <path d="M8,27 L20,27 L20,0 L0,0 L0,11.0750136 C4.56448064,11.4224663 8,12.9357816 8,14.75 C8,15.9388692 8,20.0222025 8,27 Z" id="path-1"></path>
    </defs>
    <g id="Oxygen" stroke="none" stroke-width="1" fill="none" fill-rule="evenodd">
        <g transform="translate(-439.000000, -3302.000000)" id="kf-coins">
            <g transform="translate(439.000000, 3302.000000)">
                <g id="Group-6-Copy-8" stroke="#36CD98" opacity="0.298913043">
                    <circle id="Oval-2-Copy-2" cx="30" cy="30" r="29.5"></circle>
                </g>
                <g id="Group-27" transform="translate(15.000000, 15.000000)">
                    <g id="Group" transform="translate(10.000000, 0.000000)">
                        <g id="Combined-Shape-+-Combined-Shape-Copy-4-+-Combined-Shape-Copy-5-+-Combined-Shape-Copy-6-+-Combined-Shape-Copy-7-+-Combined-Shape-Copy-8-+-Oval-8-Mask">
                            <mask id="mask-2" fill="white">
                                <use xlink:href="#path-1"></use>
                            </mask>
                            <g id="Mask"></g>
                            <path d="M3,4.42268132 L3,4.42905465 L3.45521522,4 L3.45521522,5 L3,5 L3,4 L4,4 L4,4.45350269 C3.78649183,4.30921422 3.60378679,4.15763036 3.45521522,4 L3,4 L3,4.42268132 Z M18.5447848,5 L18.5447848,4 L19,4.42905465 L19,4.94582369 C18.9789607,4.96398508 18.9576028,4.9820441 18.9359296,5 L18.5447848,5 Z M18.9359296,5 L19,5 L19,4 L18.5447848,4 C18.3962132,4.15763036 18.2135082,4.30921422 18,4.45350269 C18,4.96155652 18,5.24987028 18,5.61416374 C18.3553275,5.42595086 18.6694557,5.2207693 18.9359296,5 Z M11,7 C8.20736941,7 5.65616655,6.49141046 4,5.61416274 C4,5.95207852 4,6.32661823 4,7 C4,7.83702029 7.10127922,9 11,9 C14.8987208,9 18,7.83702029 18,7 C18,6.3322273 18,5.94236115 18,5.61416374 C16.3438334,6.49141046 13.7926306,7 11,7 Z M3.45521522,4 C4.55344564,5.16519237 7.5167498,6 11,6 C14.4832502,6 17.4465544,5.16519237 18.5447848,4 L19,4 L19,7 C19,8.65685425 15.418278,10 11,10 C6.581722,10 3,8.65685425 3,7 L3,4 L3.45521522,4 Z" id="Combined-Shape" fill-opacity="0.503425045" fill="#36CD98" fill-rule="nonzero" mask="url(#mask-2)"></path>
                            <path d="M3,7.42268132 L3,7.42905465 L3.45521522,7 L3.45521522,8 L3,8 L3,7 L4,7 L4,7.45350269 C3.78649183,7.30921422 3.60378679,7.15763036 3.45521522,7 L3,7 L3,7.42268132 Z M18.5447848,8 L18.5447848,7 L19,7.42905465 L19,7.94582369 C18.9789607,7.96398508 18.9576028,7.9820441 18.9359296,8 L18.5447848,8 Z M11,10 C8.20736941,10 5.65616655,9.49141046 4,8.61416274 C4,8.95207852 4,9.32661823 4,10 C4,10.8370203 7.10127922,12 11,12 C14.8987208,12 18,10.8370203 18,10 C18,9.3322273 18,8.94236115 18,8.61416374 C16.3438334,9.49141046 13.7926306,10 11,10 Z M18.9359296,8 L19,8 L19,7 L18.5447848,7 C18.3962132,7.15763036 18.2135082,7.30921422 18,7.45350269 C18,7.96155652 18,8.24987028 18,8.61416374 C18.3553275,8.42595086 18.6694557,8.2207693 18.9359296,8 Z M3.45521522,7 C4.55344564,8.16519237 7.5167498,9 11,9 C14.4832502,9 17.4465544,8.16519237 18.5447848,7 L19,7 L19,10 C19,11.6568542 15.418278,13 11,13 C6.581722,13 3,11.6568542 3,10 L3,7 L3.45521522,7 Z" id="Combined-Shape-Copy-4" fill-opacity="0.503425045" fill="#36CD98" fill-rule="nonzero" mask="url(#mask-2)"></path>
                            <path d="M3,10.4226813 L3,10.4290546 L3.45521522,10 L3.45521522,11 L3,11 L3,10 L4,10 L4,10.4535027 C3.78649183,10.3092142 3.60378679,10.1576304 3.45521522,10 L3,10 L3,10.4226813 Z M18.9359296,11 L18.5447848,11 L18.5447848,10 L19,10.4290546 L19,10.9458237 C18.9789607,10.9639851 18.9576028,10.9820441 18.9359296,11 Z M18,10.4535027 C18.2135082,10.3092142 18.3962132,10.1576304 18.5447848,10 L19,10 L19,11 L18.9359296,11 C18.6694557,11.2207693 18.3553275,11.4259509 18,11.6141628 C18,11.2498703 18,10.9615565 18,10.4535027 Z M11,13 C8.20736941,13 5.65616655,12.4914105 4,11.6141627 C4,11.9520785 4,12.3266182 4,13 C4,13.8370203 7.10127922,15 11,15 C14.8987208,15 18,13.8370203 18,13 C18,12.3322273 18,11.9423612 18,11.6141637 C16.3438334,12.4914105 13.7926306,13 11,13 Z M3.45521522,10 C4.55344564,11.1651924 7.5167498,12 11,12 C14.4832502,12 17.4465544,11.1651924 18.5447848,10 L19,10 L19,13 C19,14.6568542 15.418278,16 11,16 C6.581722,16 3,14.6568542 3,13 L3,10 L3.45521522,10 Z" id="Combined-Shape-Copy-5" fill-opacity="0.503425045" fill="#36CD98" fill-rule="nonzero" mask="url(#mask-2)"></path>
                            <path d="M3,13.4226813 L3,13.4290546 L3.45521522,13 L3.45521522,14 L3,14 L3,13 L4,13 L4,13.4535027 C3.78649183,13.3092142 3.60378679,13.1576304 3.45521522,13 L3,13 L3,13.4226813 Z M19,13.9458237 L19,13.4290546 L18.5447848,13 L18.5447848,14 L18.9359296,14 C18.9576028,13.9820441 18.9789607,13.9639851 19,13.9458237 Z M11,16 C8.20736941,16 5.65616655,15.4914105 4,14.6141627 C4,14.9520785 4,15.3266182 4,16 C4,16.8370203 7.10127922,18 11,18 C14.8987208,18 18,16.8370203 18,16 C18,15.3322273 18,14.9423612 18,14.6141637 C16.3438334,15.4914105 13.7926306,16 11,16 Z M3.45521522,13 C4.55344564,14.1651924 7.5167498,15 11,15 C14.4832502,15 17.4465544,14.1651924 18.5447848,13 L19,13 L19,16 C19,17.6568542 15.418278,19 11,19 C6.581722,19 3,17.6568542 3,16 L3,13 L3.45521522,13 Z" id="Combined-Shape-Copy-6" fill-opacity="0.503425045" fill="#36CD98" fill-rule="nonzero" mask="url(#mask-2)"></path>
                            <path d="M3,16.4226813 L3,16.4290546 L3.45521522,16 L3.45521522,17 L3,17 L3,16 L4,16 L4,16.4535027 C3.78649183,16.3092142 3.60378679,16.1576304 3.45521522,16 L3,16 L3,16.4226813 Z M19,16.9458237 L19,16.4290546 L18.5447848,16 L18.5447848,17 L18.9359296,17 C18.9576028,16.9820441 18.9789607,16.9639851 19,16.9458237 Z M11,19 C8.20736941,19 5.65616655,18.4914105 4,17.6141627 C4,17.9520785 4,18.3266182 4,19 C4,19.8370203 7.10127922,21 11,21 C14.8987208,21 18,19.8370203 18,19 C18,18.3322273 18,17.9423612 18,17.6141637 C16.3438334,18.4914105 13.7926306,19 11,19 Z M3.45521522,16 C4.55344564,17.1651924 7.5167498,18 11,18 C14.4832502,18 17.4465544,17.1651924 18.5447848,16 L19,16 L19,19 C19,20.6568542 15.418278,22 11,22 C6.581722,22 3,20.6568542 3,19 L3,16 L3.45521522,16 Z" id="Combined-Shape-Copy-7" fill-opacity="0.503425045" fill="#36CD98" fill-rule="nonzero" mask="url(#mask-2)"></path>
                            <path d="M3,19.4226813 L3,19.4290546 L3.45521522,19 L3.45521522,20 L3,20 L3,19 L4,19 L4,19.4535027 C3.78649183,19.3092142 3.60378679,19.1576304 3.45521522,19 L3,19 L3,19.4226813 Z M18.5447848,20 L18.5447848,19 L19,19.4290546 L19,19.9458237 C18.9789607,19.9639851 18.9576028,19.9820441 18.9359296,20 L18.5447848,20 Z M18,19.4535027 C18.2135082,19.3092142 18.3962132,19.1576304 18.5447848,19 L19,19 L19,20 L18.9359296,20 C18.6694557,20.2207693 18.3553275,20.4259509 18,20.6141628 C18,20.2498703 18,19.9615565 18,19.4535027 Z M11,22 C8.20736941,22 5.65616655,21.4914105 4,20.6141627 C4,20.9520785 4,21.3266182 4,22 C4,22.8370203 7.10127922,24 11,24 C14.8987208,24 18,22.8370203 18,22 C18,21.3322273 18,20.9423612 18,20.6141637 C16.3438334,21.4914105 13.7926306,22 11,22 Z M3.45521522,19 C4.55344564,20.1651924 7.5167498,21 11,21 C14.4832502,21 17.4465544,20.1651924 18.5447848,19 L19,19 L19,22 C19,23.6568542 15.418278,25 11,25 C6.581722,25 3,23.6568542 3,22 L3,19 L3.45521522,19 Z" id="Combined-Shape-Copy-8" fill-opacity="0.503425045" fill="#36CD98" fill-rule="nonzero" mask="url(#mask-2)"></path>
                            <path d="M11,6 C14.8987208,6 18,4.83702029 18,4 C18,3.16297971 14.8987208,2 11,2 C7.10127922,2 4,3.16297971 4,4 C4,4.83702029 7.10127922,6 11,6 Z M11,7 C6.581722,7 3,5.65685425 3,4 C3,2.34314575 6.581722,1 11,1 C15.418278,1 19,2.34314575 19,4 C19,5.65685425 15.418278,7 11,7 Z" id="Oval-8" fill="#36CD98" fill-rule="nonzero" mask="url(#mask-2)"></path>
                        </g>
                    </g>
                    <g id="Group-11-Copy-48" transform="translate(0.000000, 16.000000)" fill-opacity="0.503425045" fill-rule="nonzero" fill="#36CD98">
                        <path d="M1.70530257e-13,0.422681324 L-5.22959454e-12,0.429054648 L0.455215221,-1.13686838e-13 L0.455215221,1 L8.07793567e-28,1 L8.07793567e-28,-1.13686838e-13 L1,-4.54747351e-13 L1,0.45350269 C0.786491835,0.309214221 0.603786791,0.157630363 0.455215221,-1.13686838e-13 L8.07793567e-28,-1.13686838e-13 L1.70530257e-13,0.422681324 Z M16,0.945823687 L16,0.429054648 L15.5447848,-1.13686838e-13 L15.5447848,1 L15.9359296,1 C15.9576028,0.982044096 15.9789607,0.963985077 16,0.945823687 Z M8,3 C5.20736941,3 2.65616655,2.49141046 1,1.61416274 C1,1.95207852 1,2.32661823 1,3 C1,3.83702029 4.10127922,5 8,5 C11.8987208,5 15,3.83702029 15,3 C15,2.3322273 15,1.94236115 15,1.61416374 C13.3438334,2.49141046 10.7926306,3 8,3 Z M0.455215221,-1.13686838e-13 C1.55344564,1.16519237 4.5167498,2 8,2 C11.4832502,2 14.4465544,1.16519237 15.5447848,-1.13686838e-13 L16,-1.13686838e-13 L16,3 C16,4.65685425 12.418278,6 8,6 C3.581722,6 3.97903932e-13,4.65685425 3.97903932e-13,3 L-1.61558713e-27,-1.13686838e-13 L0.455215221,-1.13686838e-13 Z" id="Combined-Shape-Copy-7"></path>
                    </g>
                    <g id="Group-11-Copy-49" transform="translate(0.000000, 19.000000)" fill-opacity="0.503425045" fill-rule="nonzero" fill="#36CD98">
                        <path d="M1.70530257e-13,0.422681324 L-5.22959454e-12,0.429054648 L0.455215221,-1.13686838e-13 L0.455215221,1 L8.07793567e-28,1 L8.07793567e-28,-1.13686838e-13 L1,-4.54747351e-13 L1,0.45350269 C0.786491835,0.309214221 0.603786791,0.157630363 0.455215221,-1.13686838e-13 L8.07793567e-28,-1.13686838e-13 L1.70530257e-13,0.422681324 Z M16,0.945823687 L16,0.429054648 L15.5447848,-1.13686838e-13 L15.5447848,1 L15.9359296,1 C15.9576028,0.982044096 15.9789607,0.963985077 16,0.945823687 Z M8,3 C5.20736941,3 2.65616655,2.49141046 1,1.61416274 C1,1.95207852 1,2.32661823 1,3 C1,3.83702029 4.10127922,5 8,5 C11.8987208,5 15,3.83702029 15,3 C15,2.3322273 15,1.94236115 15,1.61416374 C13.3438334,2.49141046 10.7926306,3 8,3 Z M0.455215221,-1.13686838e-13 C1.55344564,1.16519237 4.5167498,2 8,2 C11.4832502,2 14.4465544,1.16519237 15.5447848,-1.13686838e-13 L16,-1.13686838e-13 L16,3 C16,4.65685425 12.418278,6 8,6 C3.581722,6 3.97903932e-13,4.65685425 3.97903932e-13,3 L-1.61558713e-27,-1.13686838e-13 L0.455215221,-1.13686838e-13 Z" id="Combined-Shape-Copy-7"></path>
                    </g>
                    <g id="Group-11-Copy-54" transform="translate(0.000000, 22.000000)" fill-opacity="0.503425045" fill-rule="nonzero" fill="#36CD98">
                        <path d="M1.70530257e-13,0.422681324 L-5.22959454e-12,0.429054648 L0.455215221,-1.13686838e-13 L0.455215221,1 L8.07793567e-28,1 L8.07793567e-28,-1.13686838e-13 L1,-4.54747351e-13 L1,0.45350269 C0.786491835,0.309214221 0.603786791,0.157630363 0.455215221,-1.13686838e-13 L8.07793567e-28,-1.13686838e-13 L1.70530257e-13,0.422681324 Z M16,0.945823687 L16,0.429054648 L15.5447848,-1.13686838e-13 L15.5447848,1 L15.9359296,1 C15.9576028,0.982044096 15.9789607,0.963985077 16,0.945823687 Z M8,3 C5.20736941,3 2.65616655,2.49141046 1,1.61416274 C1,1.95207852 1,2.32661823 1,3 C1,3.83702029 4.10127922,5 8,5 C11.8987208,5 15,3.83702029 15,3 C15,2.3322273 15,1.94236115 15,1.61416374 C13.3438334,2.49141046 10.7926306,3 8,3 Z M0.455215221,-1.13686838e-13 C1.55344564,1.16519237 4.5167498,2 8,2 C11.4832502,2 14.4465544,1.16519237 15.5447848,-1.13686838e-13 L16,-1.13686838e-13 L16,3 C16,4.65685425 12.418278,6 8,6 C3.581722,6 3.97903932e-13,4.65685425 3.97903932e-13,3 L-1.61558713e-27,-1.13686838e-13 L0.455215221,-1.13686838e-13 Z" id="Combined-Shape-Copy-7"></path>
                    </g>
                    <g id="Group-11-Copy-50" transform="translate(0.000000, 13.000000)" fill="#36CD98">
                        <ellipse id="Oval-8" cx="8" cy="3" rx="8" ry="3"></ellipse>
                    </g>
                </g>
            </g>
        </g>
    </g>
</svg>