<?xml version="1.0" encoding="UTF-8" standalone="no"?>
<svg width="60px" height="60px" viewBox="0 0 60 60" version="1.1" xmlns="http://www.w3.org/2000/svg" xmlns:xlink="http://www.w3.org/1999/xlink">
    <!-- Generator: Sketch 46.2 (44496) - http://www.bohemiancoding.com/sketch -->
    <title>kf-clouds-x3</title>
    <desc>Created with Sketch.</desc>
    <defs></defs>
    <g id="Oxygen" stroke="none" stroke-width="1" fill="none" fill-rule="evenodd">
        <g transform="translate(-941.000000, -3571.000000)" id="kf-clouds">
            <g transform="translate(941.000000, 3571.000000)">
                <g id="Group-11">
                    <g id="Group-6-Copy-12" stroke="#36CD98" opacity="0.298913043">
                        <circle id="Oval-2-Copy-2" cx="30" cy="30" r="29.5"></circle>
                    </g>
                    <g id="Group-29" transform="translate(10.000000, 16.000000)">
                        <path d="M16,21.5 L33.9374969,21.503922 C36.7925643,21.1441993 38.5,18.6780844 38.5,15.2307692 C38.5,12.19692 36.3537179,9.6145858 33.4405842,9.06724409 L33.1650149,9.01546803 L33.0654779,8.75333905 C32.152681,6.34950174 29.863753,4.73076923 27.2757202,4.73076923 C26.3696688,4.73076923 25.4920077,4.92712601 24.6875179,5.30143844 L24.2608674,5.49995006 L24.0368714,5.08611032 C22.5184807,2.28083485 19.6085794,0.5 16.3888889,0.5 C11.8143286,0.5 8.02568113,4.0779766 7.69963143,8.66699135 L7.67344165,9.03560157 L7.31337539,9.11873811 C4.51789568,9.76419298 2.5,12.290289 2.5,15.2307692 C2.5,18.6943206 5.27681438,21.5 8.69958848,21.5 C8.72345989,21.4999702 8.72345989,21.4999702 8.74855223,21.4998761 C8.80057285,21.4996756 8.80057285,21.4996756 8.85185185,21.5 L16,21.5 Z" id="Combined-Shape" stroke="#36CD98"></path>
                        <path d="M8.97309071,21.4967532 C9.07073614,21.4936382 9.16805799,21.4882853 9.26500809,21.480709 C12.5129768,21.226892 15.0384615,18.5087066 15.0384615,15.2307692 C15.0384615,11.7683687 12.2316313,8.96153846 8.76923077,8.96153846 C5.37504184,8.96153846 2.61084733,11.6588652 2.50325168,15.0269141 L8.97309071,21.4967532 Z" id="Oval-Copy" stroke="#36CD98" transform="translate(8.769231, 15.230769) rotate(-105.000000) translate(-8.769231, -15.230769) "></path>
                        <path d="M28.2501007,3.6607505 C25.8743047,4.18362285 24.0038726,6.05405501 23.4810002,8.42985096 L28.2501036,3.66074852 Z" id="Oval-Copy-2" stroke="#36CD98" transform="translate(26.219104, 6.398855) rotate(29.000000) translate(-26.219104, -6.398855) "></path>
                        <g id="cog" transform="translate(18.000000, 13.000000)" fill-rule="nonzero" fill="#36CD98">
                            <path d="M7.00339089,3.06264356 C4.82873662,3.06264356 3.06558325,4.82541369 3.06558325,7.00032814 C3.06558325,9.17491445 4.82840847,10.9380127 7.00339089,10.9380127 C9.17837331,10.9380127 10.9411985,9.17491445 10.9411985,7.00032814 C10.9411985,4.82574183 9.17804516,3.06264356 7.00339089,3.06264356 Z M7.00207829,8.31420223 C6.27708415,8.31420223 5.68947574,7.72661218 5.68947574,7.0016407 C5.68947574,6.27666922 6.27708415,5.68907918 7.00207829,5.68907918 C7.72707243,5.68907918 8.31468083,6.27666922 8.31468083,7.0016407 C8.31468083,7.72661218 7.72707243,8.31420223 7.00207829,8.31420223 Z M12.1470427,5.57138616 C12.0286897,5.14327234 11.8569576,4.73769083 11.641472,4.36032939 C11.8867099,4.03065769 12.7309321,2.79772489 12.1225408,2.18891511 L11.8101414,1.8592434 C11.2896945,1.33903152 9.96046566,2.1515071 9.63756543,2.36195447 C9.25581686,2.14560058 8.84562856,1.97387378 8.41246972,1.85661828 C8.34312056,1.44381768 8.0396906,0 7.18321744,0 L6.84040941,0 C6.10513321,0 5.68313149,1.49281998 5.58884288,1.86690001 C5.16180952,1.98612435 4.75730916,2.15872619 4.380811,2.3744238 C4.08394406,2.1536947 2.81071959,1.2736222 2.18920228,1.89490132 L1.85952028,2.17228933 C1.31785296,2.71372096 2.21786077,4.14200666 2.38237362,4.39204963 C2.17410735,4.76350454 2.00718806,5.16142944 1.89211657,5.58101161 C1.53311977,5.6383268 0,5.93409066 0,6.81613201 L0,7.15871056 C0,7.92284013 1.60771935,8.34723503 1.90108602,8.41855087 C2.01768888,8.83507039 2.18548324,9.22993265 2.39440581,9.59854368 C2.22136104,9.86958764 1.35635597,11.2915293 1.89299164,11.8285857 L2.20517228,12.0884729 C2.91157122,12.7948498 4.38715525,11.6345454 4.38715525,11.6345454 L4.31846238,11.5614794 C4.70983671,11.7929278 5.13358856,11.9762489 5.5814048,12.1018173 C5.65469177,12.4034877 6.07909993,14 6.84040941,14 L7.18321744,14 C8.18210798,14 8.42953356,12.1359439 8.42953356,12.1359439 L8.33808891,12.1331 C8.79071802,12.0173758 9.21993906,11.8432427 9.61809516,11.6201072 C9.93005704,11.8277107 11.2371904,12.6456553 11.7589499,12.1241308 L12.1061333,11.7767395 C12.8024689,11.0804256 11.6692554,9.65564011 11.6375342,9.6160445 C11.852801,9.23933934 12.0254082,8.83485163 12.1441988,8.4073941 C12.5336042,8.30851446 14,7.88805725 14,7.15892932 L14,6.81635077 C14,5.84877416 12.2559887,5.58691814 12.1470427,5.57138616 Z M7.00207829,10.9393253 C4.82731463,10.9393253 3.06427065,9.17633639 3.06427065,7.0016407 C3.06427065,4.82694501 4.82731463,3.06395612 7.00207829,3.06395612 C9.17684194,3.06395612 10.9398859,4.82694501 10.9398859,7.0016407 C10.9398859,9.17633639 9.17684194,10.9393253 7.00207829,10.9393253 Z" id="Shape"></path>
                        </g>
                    </g>
                </g>
            </g>
        </g>
    </g>
</svg>