<?xml version="1.0" encoding="UTF-8" standalone="no"?>
<svg width="60px" height="60px" viewBox="0 0 60 60" version="1.1" xmlns="http://www.w3.org/2000/svg" xmlns:xlink="http://www.w3.org/1999/xlink">
    <!-- Generator: Sketch 46.2 (44496) - http://www.bohemiancoding.com/sketch -->
    <title>kf-ppl-x3</title>
    <desc>Created with Sketch.</desc>
    <defs></defs>
    <g id="Oxygen" stroke="none" stroke-width="1" fill="none" fill-rule="evenodd">
        <g transform="translate(-941.000000, -3031.000000)" id="kf-ppl">
            <g transform="translate(941.000000, 3031.000000)">
                <circle id="Oval-2-Copy-2" stroke="#36CD98" opacity="0.298913043" cx="30" cy="30" r="29.5"></circle>
                <g id="Group-11-Copy" transform="translate(13.000000, 15.000000)" fill="#36CD98">
                    <path d="M22.971375,18.0163125 C20.8985625,16.9880625 21.6961875,17.7744375 19.152,16.723125 C16.60725,15.6729375 16.0048125,15.32925 16.0048125,15.32925 L15.9823125,12.920625 C15.9823125,12.920625 16.9351875,12.1995 17.23275,9.921375 C17.8273125,10.0929375 18.02925,9.226125 18.0613125,8.672625 C18.09675,8.1376875 18.4134375,6.469875 17.685,6.6189375 C17.8340625,5.50575 17.9505,4.498875 17.897625,3.9661875 C17.7159375,2.095875 16.41825,0.1423125 13.1428125,0 C10.3584375,0.142875 8.5505625,2.097 8.3683125,3.967875 C8.316,4.5005625 8.422875,5.5063125 8.571375,6.62175 C7.8440625,6.471 8.1568125,8.141625 8.188875,8.676 C8.22375,9.2295 8.420625,10.099125 9.0174375,9.9275625 C9.3133125,12.2056875 10.26675,12.9324375 10.26675,12.9324375 L10.243125,15.3534375 C10.243125,15.3534375 9.640125,15.719625 7.095375,16.770375 C4.550625,17.8228125 5.3488125,16.988625 3.276,18.0163125 C0,19.641375 0,24.1093125 0,24.1093125 C0.0005625,24.78825 0.55125,25.3378125 1.23075,25.3378125 L25.016625,25.3378125 C25.6955625,25.3378125 26.2468125,24.78825 26.2468125,24.1115625 C26.2468125,24.1081875 26.2468125,19.6408125 22.971375,18.0163125 Z" id="Shape" fill-rule="nonzero"></path>
                    <path d="M35.9443125,24.2195625 C35.9443125,24.2195625 35.9443125,20.1549375 32.96475,18.6766875 C31.078125,17.74125 31.804875,18.45675 29.4890625,17.4999375 C27.1738125,16.54425 26.6259375,16.2320625 26.6259375,16.2320625 L26.6056875,14.0405625 C26.6056875,14.0405625 27.4725,13.3846875 27.7425,11.3124375 C28.2841875,11.46825 28.4675625,10.6801875 28.4968125,10.1761875 C28.528875,9.689625 28.816875,8.1725625 28.1548125,8.3075625 C28.290375,7.2945 28.3966875,6.37875 28.3483125,5.893875 C28.1835,4.1923125 27.00225,2.415375 24.02325,2.2854375 C21.48975,2.415375 19.845,4.1934375 19.6790625,5.895 C19.6318125,6.379875 19.729125,7.2950625 19.8646875,8.3098125 C19.2020625,8.1725625 19.4878125,9.6924375 19.5165,10.179 C19.549125,10.683 19.7274375,11.473875 20.2708125,11.3175 C20.54025,13.3903125 21.407625,14.05125 21.407625,14.05125 L21.3856875,16.2455625 C22.1731875,16.43175 22.2789375,16.281 23.8663125,17.0690625 C27.5810625,18.91125 27.5810625,23.9776875 27.5810625,23.9776875 L27.5799375,23.9776875 C27.5799375,23.9788125 27.5799375,23.9799375 27.5799375,23.9810625 C27.5799375,24.645375 27.1125,25.198875 26.4875625,25.3366875 L34.8249375,25.3366875 C35.443125,25.3366875 35.9443125,24.8371875 35.9443125,24.22125 C35.9443125,24.2206875 35.9443125,24.2206875 35.9443125,24.2195625 L35.9443125,24.2195625 L35.9443125,24.2195625 Z" id="Path" opacity="0.498075181"></path>
                </g>
            </g>
        </g>
    </g>
</svg>