<?xml version="1.0" encoding="UTF-8" standalone="no"?>
<svg width="60px" height="60px" viewBox="0 0 60 60" version="1.1" xmlns="http://www.w3.org/2000/svg" xmlns:xlink="http://www.w3.org/1999/xlink">
    <!-- Generator: Sketch 46.2 (44496) - http://www.bohemiancoding.com/sketch -->
    <title>kf-robo-x3</title>
    <desc>Created with Sketch.</desc>
    <defs></defs>
    <g id="Oxygen" stroke="none" stroke-width="1" fill="none" fill-rule="evenodd">
        <g transform="translate(-941.000000, -3302.000000)" id="kf-robo">
            <g transform="translate(941.000000, 3302.000000)">
                <g id="Group-6-Copy-11" stroke="#36CD98" opacity="0.298913043">
                    <circle id="Oval-2-Copy-2" cx="30" cy="30" r="29.5"></circle>
                </g>
                <g id="Group-26" transform="translate(11.000000, 11.000000)">
                    <g id="Group-27-Copy" transform="translate(4.000000, 11.000000)" stroke="#36CD98">
                        <rect id="Rectangle-18" x="0.5" y="0.5" width="29" height="21" rx="3"></rect>
                        <circle id="Oval-3" cx="7.5" cy="7.5" r="2"></circle>
                        <circle id="Oval-3-Copy" cx="22.5" cy="7.5" r="2"></circle>
                    </g>
                    <rect id="Rectangle-35" stroke="#36CD98" x="14.5" y="27.5" width="9" height="1"></rect>
                    <path d="M34,18 C36.209139,18 38,19.790861 38,22 C38,24.209139 36.209139,26 34,26 L34,18 Z" id="Combined-Shape" fill="#36CD98"></path>
                    <path d="M0,18 C2.209139,18 4,19.790861 4,22 C4,24.209139 2.209139,26 0,26 L0,18 Z" id="Combined-Shape-Copy-3" fill="#36CD98" transform="translate(2.000000, 22.000000) scale(-1, 1) translate(-2.000000, -22.000000) "></path>
                    <circle id="Oval-4" stroke="#36CD98" cx="19" cy="3" r="2.5"></circle>
                    <rect id="Rectangle-9" fill="#36CD98" x="18" y="6" width="2" height="5"></rect>
                </g>
            </g>
        </g>
    </g>
</svg>