<?xml version="1.0" encoding="UTF-8" standalone="no"?>
<svg width="60px" height="60px" viewBox="0 0 60 60" version="1.1" xmlns="http://www.w3.org/2000/svg" xmlns:xlink="http://www.w3.org/1999/xlink">
    <!-- Generator: Sketch 46.2 (44496) - http://www.bohemiancoding.com/sketch -->
    <title>kf-stars-x3</title>
    <desc>Created with Sketch.</desc>
    <defs></defs>
    <g id="Oxygen" stroke="none" stroke-width="1" fill="none" fill-rule="evenodd">
        <g transform="translate(-439.000000, -3031.000000)" id="kf-stars">
            <g transform="translate(439.000000, 3031.000000)">
                <g id="Group-6-Copy-7" stroke="#36CD98" opacity="0.298913043">
                    <circle id="Oval-2-Copy-2" cx="30" cy="30" r="29.5"></circle>
                </g>
                <path d="M30.5345894,39.7623617 L24.6172265,42.8733035 L24.6172265,42.8733035 C24.1283819,43.1303043 23.5237548,42.9423578 23.266754,42.4535132 C23.1644149,42.2588527 23.1291002,42.0358846 23.1662771,41.819127 L24.2963928,35.2300466 L24.2963928,35.2300466 C24.3520308,34.9056526 24.2444823,34.5746524 24.0087962,34.3449152 L19.2215491,29.6785025 L19.2215491,29.6785025 C18.8260655,29.2930013 18.8179732,28.6598881 19.2034744,28.2644045 C19.356983,28.1069209 19.5581254,28.0044337 19.7757624,27.9728092 L26.3915752,27.0114753 L26.3915752,27.0114753 C26.7172854,26.9641468 26.998851,26.7595775 27.144513,26.464434 L30.1031944,20.4694906 L30.1031944,20.4694906 C30.3476167,19.9742369 30.9472426,19.7708979 31.4424962,20.0153202 C31.6397088,20.1126505 31.7993364,20.272278 31.8966666,20.4694906 L34.855348,26.464434 L34.855348,26.464434 C35.0010101,26.7595775 35.2825756,26.9641468 35.6082858,27.0114753 L42.2240986,27.9728092 L42.2240986,27.9728092 C42.7706435,28.0522268 43.1493249,28.5596696 43.0699073,29.1062145 C43.0382828,29.3238515 42.9357956,29.5249939 42.778312,29.6785025 L37.9910649,34.3449152 L37.9910649,34.3449152 C37.7553788,34.5746524 37.6478303,34.9056526 37.7034682,35.2300466 L38.833584,41.819127 L38.833584,41.819127 C38.926945,42.3634635 38.5613572,42.8804194 38.0170207,42.9737804 C37.8002631,43.0109572 37.577295,42.9756426 37.3826345,42.8733035 L31.4652717,39.7623617 L31.4652717,39.7623617 C31.1739476,39.6092036 30.8259134,39.6092036 30.5345894,39.7623617 Z" id="Star" fill="#36CD98"></path>
                <path d="M49.6976618,33.6115276 L53.4103048,23.0875863 C53.4505991,22.9635731 53.440853,22.828725 53.3831446,22.711795 L50.9123236,17.7053647 C50.8636584,17.6067584 50.7838447,17.5269446 50.6852384,17.4782795 C50.4376115,17.3560684 50.1377986,17.4577379 50.0155875,17.7053647 L47.5974251,22.6050969 C47.378932,23.0478121 46.9565837,23.3546662 46.4680184,23.4256589 L41.0608429,24.2113675 C40.9520243,24.2271797 40.8514531,24.2784233 40.7746988,24.3571652 C40.5819482,24.5549069 40.5859944,24.8714636 40.7837362,25.0642142 L44.6964052,28.8781238 C45.0499343,29.2227296 45.211257,29.7192299 45.1278001,30.205821 L44.2041443,35.5911478 C44.1855558,35.6995267 44.2032132,35.8110107 44.2543827,35.9083409 C44.3828831,36.1527632 44.6851967,36.2467365 44.929619,36.1182361 L49.6976618,33.6115276 Z" id="Star-Copy" stroke="#36CD98" opacity="0.501754982" transform="translate(47.126501, 26.838473) rotate(-215.000000) translate(-47.126501, -26.838473) "></path>
                <path d="M17.6976618,33.6115276 L21.4103048,23.0875863 C21.4505991,22.9635731 21.440853,22.828725 21.3831446,22.711795 L18.9123236,17.7053647 C18.8636584,17.6067584 18.7838447,17.5269446 18.6852384,17.4782795 C18.4376115,17.3560684 18.1377986,17.4577379 18.0155875,17.7053647 L15.5974251,22.6050969 C15.378932,23.0478121 14.9565837,23.3546662 14.4680184,23.4256589 L9.06084286,24.2113675 C8.95202434,24.2271797 8.85145313,24.2784233 8.77469883,24.3571652 C8.58194823,24.5549069 8.58599438,24.8714636 8.78373617,25.0642142 L12.6964052,28.8781238 C13.0499343,29.2227296 13.211257,29.7192299 13.1278001,30.205821 L12.2041443,35.5911478 C12.1855558,35.6995267 12.2032132,35.8110107 12.2543827,35.9083409 C12.3828831,36.1527632 12.6851967,36.2467365 12.929619,36.1182361 L17.6976618,33.6115276 Z" id="Star-Copy-2" stroke="#36CD98" opacity="0.501754982" transform="translate(15.126501, 26.838473) scale(-1, 1) rotate(-215.000000) translate(-15.126501, -26.838473) "></path>
            </g>
        </g>
    </g>
</svg>