<?xml version="1.0" encoding="UTF-8" standalone="no"?>
<svg width="616px" height="375px" viewBox="0 0 616 375" version="1.1" xmlns="http://www.w3.org/2000/svg" xmlns:xlink="http://www.w3.org/1999/xlink">
    <!-- Generator: Sketch 47 (45396) - http://www.bohemiancoding.com/sketch -->
    <title>Page 1</title>
    <desc>Created with Sketch.</desc>
    <defs>
        <polygon id="path-1" points="0 365 616.373 365 616.373 0.243 0 0.243"></polygon>
    </defs>
    <g id="Page-1" stroke="none" stroke-width="1" fill="none" fill-rule="evenodd">
        <g transform="translate(0.000000, 1.000000)">
            <g id="Group-27" transform="translate(0.000000, 0.757000)">
                <polyline id="Stroke-1" stroke="#082044" stroke-width="2" points="15.0519 7.44799786 8.0869 0.482997864 1.1229 7.44799786"></polyline>
                <g id="Group-22" transform="translate(0.000000, 8.000000)">
                    <polygon id="Fill-3" fill-opacity="0.2" fill="#FFFFFF" points="58.9732 363.6542 63.6612 363.6542 63.6612 364.8092 57.6502 364.8092 57.6502 354.2762 58.9732 354.2762"></polygon>
                    <path d="M70.7613,360.7987 C70.7613,359.8447 70.5613,359.0967 70.1583,358.5547 C69.7573,358.0137 69.1683,357.7427 68.3923,357.7427 C67.6153,357.7427 67.0223,358.0137 66.6093,358.5547 C66.1963,359.0967 65.9893,359.8447 65.9893,360.7987 C65.9893,361.7537 66.1843,362.5017 66.5753,363.0427 C66.9663,363.5847 67.5493,363.8557 68.3243,363.8557 C69.1013,363.8557 69.7003,363.5847 70.1253,363.0427 C70.5493,362.5017 70.7613,361.7537 70.7613,360.7987 M68.3663,356.6047 C69.4833,356.6047 70.3853,356.9667 71.0723,357.6927 C71.7583,358.4177 72.1013,359.4567 72.1013,360.8077 C72.1013,362.1467 71.7583,363.1797 71.0723,363.9047 C70.3853,364.6307 69.4833,364.9937 68.3663,364.9937 C67.2503,364.9937 66.3493,364.6307 65.6623,363.9047 C64.9763,363.1797 64.6323,362.1467 64.6323,360.8077 C64.6323,359.4567 64.9763,358.4177 65.6623,357.6927 C66.3493,356.9667 67.2503,356.6047 68.3663,356.6047" id="Fill-5" fill-opacity="0.2" fill="#FFFFFF"></path>
                    <path d="M79.5865,361.4774 C78.7935,361.2534 78.1015,361.1424 77.5095,361.1424 C76.9175,361.1424 76.4385,361.2484 76.0695,361.4594 C75.7005,361.6724 75.5175,362.0074 75.5175,362.4644 C75.5175,363.4694 76.0865,363.9724 77.2255,363.9724 C77.8725,363.9724 78.4285,363.7404 78.8915,363.2774 C79.3545,362.8144 79.5865,362.2134 79.5865,361.4774 L79.5865,361.4774 Z M79.5865,359.6184 C79.5865,358.8924 79.4355,358.3734 79.1345,358.0604 C78.8325,357.7484 78.3945,357.5914 77.8195,357.5914 C77.2445,357.5914 76.7805,357.7064 76.4295,357.9354 C76.0775,358.1644 75.9015,358.5244 75.9015,359.0154 L74.4445,359.0154 C74.4445,357.7874 75.1045,357.0284 76.4215,356.7384 C76.8225,356.6484 77.2585,356.6044 77.7275,356.6044 C78.7215,356.6044 79.4965,356.8554 80.0555,357.3574 C80.6125,357.8604 80.8925,358.6244 80.8925,359.6514 L80.8925,364.8094 L79.7535,364.8094 L79.6195,363.4694 C79.1285,364.4864 78.2405,364.9944 76.9565,364.9944 C76.0975,364.9944 75.4075,364.7534 74.8895,364.2734 C74.3695,363.7934 74.1095,363.1964 74.1095,362.4814 C74.1095,361.7674 74.3985,361.2084 74.9725,360.8074 C75.5475,360.4054 76.2655,360.2044 77.1245,360.2044 C77.9835,360.2044 78.8045,360.3494 79.5865,360.6394 L79.5865,359.6184 Z" id="Fill-7" fill-opacity="0.2" fill="#FFFFFF"></path>
                    <path d="M85.2798,358.3456 C85.8038,357.1846 86.7038,356.6046 87.9758,356.6046 C88.9248,356.6046 89.6648,356.9166 90.1948,357.5416 C90.7248,358.1666 90.9908,359.0216 90.9908,360.1036 L90.9908,364.8096 L89.6838,364.8096 L89.6838,360.1036 C89.6838,359.3336 89.5028,358.7526 89.1398,358.3626 C88.7768,357.9716 88.2598,357.7766 87.5918,357.7766 C86.9218,357.7766 86.3798,358.0496 85.9668,358.5966 C85.5528,359.1436 85.3358,359.9036 85.3128,360.8736 L85.3128,364.8096 L83.9908,364.8096 L83.9908,356.8046 L85.1298,356.8046 L85.2798,358.3456 Z" id="Fill-9" fill-opacity="0.2" fill="#FFFFFF"></path>
                    <polygon id="Fill-11" fill-opacity="0.2" fill="#FFFFFF" points="101.4732 356.5868 101.4732 360.1378 104.9222 360.1378 104.9222 361.2598 101.4732 361.2598 101.4732 364.8098 100.1502 364.8098 100.1502 361.2598 96.7012 361.2598 96.7012 360.1378 100.1502 360.1378 100.1502 356.5868"></polygon>
                    <mask id="mask-2" fill="white">
                        <use xlink:href="#path-1"></use>
                    </mask>
                    <g id="Clip-14"></g>
                    <polygon id="Fill-13" fill-opacity="0.2" fill="#FFFFFF" mask="url(#mask-2)" points="110.901 364.809 112.224 364.809 112.224 354.276 110.901 354.276"></polygon>
                    <path d="M116.8619,358.3456 C117.3859,357.1846 118.2859,356.6046 119.5579,356.6046 C120.5069,356.6046 121.2469,356.9166 121.7769,357.5416 C122.3069,358.1666 122.5729,359.0216 122.5729,360.1036 L122.5729,364.8096 L121.2659,364.8096 L121.2659,360.1036 C121.2659,359.3336 121.0849,358.7526 120.7219,358.3626 C120.3589,357.9716 119.8419,357.7766 119.1739,357.7766 C118.5039,357.7766 117.9619,358.0496 117.5489,358.5966 C117.1349,359.1436 116.9179,359.9036 116.8949,360.8736 L116.8949,364.8096 L115.5729,364.8096 L115.5729,356.8046 L116.7119,356.8046 L116.8619,358.3456 Z" id="Fill-15" fill-opacity="0.2" fill="#FFFFFF" mask="url(#mask-2)"></path>
                    <path d="M129.8746,364.5751 C128.9146,365.0211 128.0376,365.1161 127.2456,364.8591 C126.6766,364.6811 126.2736,364.3071 126.0396,363.7381 C125.9166,363.4591 125.8546,363.1241 125.8546,362.7331 L125.8546,357.8091 L124.5656,357.8091 L124.5656,356.8041 L125.8546,356.8041 L125.8546,354.5781 L127.1616,354.5781 L127.1616,356.8041 L129.6736,356.8041 L129.6736,357.8091 L127.1616,357.8091 L127.1616,362.7171 C127.1616,363.5311 127.5406,363.9381 128.3006,363.9381 C128.7136,363.9381 129.1766,363.8381 129.6896,363.6381 L129.8746,364.5751 Z" id="Fill-16" fill-opacity="0.2" fill="#FFFFFF" mask="url(#mask-2)"></path>
                    <path d="M135.7183,357.8602 C135.4613,357.7252 135.1493,357.6592 134.7813,357.6592 C134.0993,357.6592 133.5613,357.8902 133.1643,358.3542 C132.7683,358.8172 132.5363,359.3952 132.4693,360.0872 L136.7393,360.0872 C136.7393,358.9702 136.3993,358.2282 135.7183,357.8602 M134.7463,363.9222 C135.8523,363.9222 136.4833,363.4362 136.6393,362.4642 L137.9953,362.4642 C137.8723,363.2682 137.5183,363.8912 136.9323,364.3322 C136.3463,364.7732 135.6173,364.9942 134.7463,364.9942 C133.6753,364.9942 132.8043,364.6112 132.1343,363.8462 C131.4643,363.0822 131.1293,362.0632 131.1293,360.7912 C131.1293,359.5172 131.4673,358.5022 132.1433,357.7432 C132.8183,356.9832 133.7173,356.6042 134.8393,356.6042 C135.9613,356.6042 136.7983,357.0392 137.3513,357.9102 C137.9043,358.7812 138.0963,359.8412 137.9283,361.0912 L132.4523,361.0912 C132.4523,361.9182 132.6543,362.5962 133.0553,363.1272 C133.4573,363.6572 134.0213,363.9222 134.7463,363.9222" id="Fill-17" fill-opacity="0.2" fill="#FFFFFF" mask="url(#mask-2)"></path>
                    <path d="M143.8736,357.9267 C142.6116,357.9267 141.9586,358.9207 141.9136,360.9077 L141.9136,364.8097 L140.5916,364.8097 L140.5916,356.7877 L141.9136,356.7877 L141.9136,358.3287 C142.3156,357.2127 143.0246,356.6547 144.0406,356.6547 C144.3646,356.6547 144.6716,356.7037 144.9616,356.8047 L144.8946,358.0947 C144.5606,357.9837 144.2196,357.9267 143.8736,357.9267" id="Fill-18" fill-opacity="0.2" fill="#FFFFFF" mask="url(#mask-2)"></path>
                    <path d="M150.7222,357.8602 C150.4652,357.7252 150.1532,357.6592 149.7852,357.6592 C149.1032,357.6592 148.5652,357.8902 148.1682,358.3542 C147.7722,358.8172 147.5402,359.3952 147.4732,360.0872 L151.7432,360.0872 C151.7432,358.9702 151.4032,358.2282 150.7222,357.8602 M149.7502,363.9222 C150.8562,363.9222 151.4872,363.4362 151.6432,362.4642 L152.9992,362.4642 C152.8762,363.2682 152.5222,363.8912 151.9362,364.3322 C151.3502,364.7732 150.6212,364.9942 149.7502,364.9942 C148.6792,364.9942 147.8082,364.6112 147.1382,363.8462 C146.4682,363.0822 146.1332,362.0632 146.1332,360.7912 C146.1332,359.5172 146.4712,358.5022 147.1472,357.7432 C147.8222,356.9832 148.7212,356.6042 149.8432,356.6042 C150.9652,356.6042 151.8022,357.0392 152.3552,357.9102 C152.9082,358.7812 153.1002,359.8412 152.9322,361.0912 L147.4562,361.0912 C147.4562,361.9182 147.6582,362.5962 148.0592,363.1272 C148.4612,363.6572 149.0252,363.9222 149.7502,363.9222" id="Fill-19" fill-opacity="0.2" fill="#FFFFFF" mask="url(#mask-2)"></path>
                    <path d="M156.0396,357.1903 C156.6026,356.7993 157.3656,356.6043 158.3256,356.6043 C159.2856,356.6043 160.0366,356.8043 160.5776,357.2073 C161.1196,357.6083 161.4006,358.1173 161.4236,358.7303 L160.1346,358.7303 C160.0336,358.0043 159.4196,357.6423 158.2926,357.6423 C157.7446,357.6423 157.3236,357.7653 157.0276,358.0103 C156.7316,358.2563 156.5846,358.5213 156.5846,358.8063 C156.5846,359.0903 156.6956,359.3313 156.9186,359.5263 C157.1426,359.7213 157.4996,359.8913 157.9906,360.0373 L159.5986,360.5733 C160.2786,360.7853 160.8016,361.0553 161.1636,361.3843 C161.5266,361.7143 161.7086,362.1673 161.7086,362.7413 C161.7086,363.3163 161.4126,363.8363 160.8206,364.2983 C160.2286,364.7623 159.4026,364.9943 158.3426,364.9943 C157.2816,364.9943 156.4556,364.7563 155.8636,364.2823 C155.2716,363.8073 154.9596,363.1963 154.9266,362.4483 L156.1986,362.4483 C156.2216,362.9513 156.4256,363.3273 156.8106,363.5793 C157.1946,363.8303 157.6786,363.9553 158.2586,363.9553 C158.8396,363.9553 159.3186,363.8333 159.6986,363.5863 C160.0786,363.3413 160.2686,363.0483 160.2686,362.7083 C160.2686,362.3673 160.1566,362.1083 159.9336,361.9293 C159.7096,361.7513 159.3476,361.5943 158.8446,361.4603 L157.2876,360.9413 C155.8926,360.5283 155.1936,359.8023 155.1936,358.7643 C155.1936,358.1053 155.4766,357.5813 156.0396,357.1903" id="Fill-20" fill-opacity="0.2" fill="#FFFFFF" mask="url(#mask-2)"></path>
                    <path d="M168.607,364.5751 C167.647,365.0211 166.77,365.1161 165.978,364.8591 C165.409,364.6811 165.006,364.3071 164.772,363.7381 C164.649,363.4591 164.587,363.1241 164.587,362.7331 L164.587,357.8091 L163.298,357.8091 L163.298,356.8041 L164.587,356.8041 L164.587,354.5781 L165.894,354.5781 L165.894,356.8041 L168.406,356.8041 L168.406,357.8091 L165.894,357.8091 L165.894,362.7171 C165.894,363.5311 166.273,363.9381 167.033,363.9381 C167.446,363.9381 167.909,363.8381 168.422,363.6381 L168.607,364.5751 Z" id="Fill-21" fill-opacity="0.2" fill="#FFFFFF" mask="url(#mask-2)"></path>
                </g>
                <path d="M190.3726,369.192997 L610.0126,369.192997 C613.7446,369.192997 614.8726,365.944144 614.8726,361.764969 L614.8726,95.9468057 C614.8726,91.7687499 613.7446,88.1929969 610.0126,88.1929969 L584.3726,88.1929969" id="Stroke-23" stroke-opacity="0.2" stroke="#808285" stroke-width="2"></path>
                <path d="M7.8726,344.6962 L7.8726,361.8662 C7.8726,365.5832 13.0586,368.1962 16.7766,368.1962 L44.3726,368.1962" id="Stroke-25" stroke-opacity="0.2" stroke="#808285" stroke-width="2"></path>
            </g>
            <path d="M7.8726,9.45 L7.8726,349.4532" id="Stroke-28" stroke="#082044" stroke-width="2"></path>
        </g>
    </g>
</svg>