<?xml version="1.0" encoding="UTF-8" standalone="no"?>
<svg width="694px" height="329px" viewBox="0 0 694 329" version="1.1" xmlns="http://www.w3.org/2000/svg" xmlns:xlink="http://www.w3.org/1999/xlink">
    <!-- Generator: Sketch 47 (45396) - http://www.bohemiancoding.com/sketch -->
    <title>Page 1</title>
    <desc>Created with Sketch.</desc>
    <defs>
        <polygon id="path-1" points="6.8394 0.294 0.8284 0.294 0.8284 10.8268 6.8394 10.8268 6.8394 0.294"></polygon>
    </defs>
    <g id="Page-1" stroke="none" stroke-width="1" fill="none" fill-rule="evenodd">
        <g transform="translate(1.000000, -1.000000)">
            <path d="M0.5,69.4525 L0.5,44.4525" id="Stroke-1" stroke="#051A38" stroke-width="2"></path>
            <path d="M143,5.9525 L686.448,5.9525 C690.542,5.9525 691.5,9.23971918 691.5,12.7737603 L691.5,315.10213 C691.5,318.635308 690.542,320.9525 686.448,320.9525 L681,320.9525" id="Stroke-3" stroke-opacity="0.2" stroke="#808285" stroke-width="2"></path>
            <path d="M0.5,46.4525 L0.5,11.5725 C0.5,7.3635 3.911,7.9525 8.12,7.9525 L80,7.9525" id="Stroke-5" stroke-opacity="0.2" stroke="#808285" stroke-width="2"></path>
            <polyline id="Stroke-7" stroke-opacity="0.2" stroke="#808285" stroke-width="2" points="682.4091 314.589996 675.4171 321.581996 682.4091 328.573996"></polyline>
            <g id="Group-18" transform="translate(92.000000, 0.706000)">
                <g id="Group-11">
                    <mask id="mask-2" fill="white">
                        <use xlink:href="#path-1"></use>
                    </mask>
                    <g id="Clip-10"></g>
                    <polygon id="Fill-9" fill-opacity="0.2" fill="#FFFFFF" mask="url(#mask-2)" points="2.1514 9.6718 6.8394 9.6718 6.8394 10.8268 0.8284 10.8268 0.8284 0.2938 2.1514 0.2938"></polygon>
                </g>
                <path d="M13.9395,6.8163 C13.9395,5.8613 13.7395,5.1143 13.3365,4.5723 C12.9355,4.0313 12.3465,3.7603 11.5705,3.7603 C10.7935,3.7603 10.2005,4.0313 9.7875,4.5723 C9.3745,5.1143 9.1675,5.8613 9.1675,6.8163 C9.1675,7.7713 9.3625,8.5193 9.7535,9.0603 C10.1445,9.6023 10.7275,9.8723 11.5025,9.8723 C12.2795,9.8723 12.8785,9.6023 13.3035,9.0603 C13.7275,8.5193 13.9395,7.7713 13.9395,6.8163 M11.5445,2.6213 C12.6615,2.6213 13.5635,2.9843 14.2505,3.7103 C14.9365,4.4363 15.2795,5.4743 15.2795,6.8243 C15.2795,8.1643 14.9365,9.1973 14.2505,9.9223 C13.5635,10.6493 12.6615,11.0113 11.5445,11.0113 C10.4285,11.0113 9.5275,10.6493 8.8405,9.9223 C8.1545,9.1973 7.8105,8.1643 7.8105,6.8243 C7.8105,5.4743 8.1545,4.4363 8.8405,3.7103 C9.5275,2.9843 10.4285,2.6213 11.5445,2.6213" id="Fill-12" fill-opacity="0.2" fill="#FFFFFF"></path>
                <path d="M22.7646,7.4945 C21.9716,7.2715 21.2796,7.1595 20.6876,7.1595 C20.0956,7.1595 19.6166,7.2655 19.2476,7.4775 C18.8786,7.6895 18.6956,8.0245 18.6956,8.4825 C18.6956,9.4875 19.2646,9.9895 20.4036,9.9895 C21.0506,9.9895 21.6066,9.7585 22.0696,9.2945 C22.5326,8.8315 22.7646,8.2315 22.7646,7.4945 L22.7646,7.4945 Z M22.7646,5.6355 C22.7646,4.9105 22.6136,4.3905 22.3126,4.0785 C22.0106,3.7655 21.5726,3.6095 20.9976,3.6095 C20.4226,3.6095 19.9586,3.7235 19.6076,3.9525 C19.2556,4.1815 19.0796,4.5415 19.0796,5.0335 L17.6226,5.0335 C17.6226,3.8055 18.2826,3.0455 19.5996,2.7555 C20.0006,2.6665 20.4366,2.6215 20.9056,2.6215 C21.8996,2.6215 22.6746,2.8725 23.2336,3.3745 C23.7906,3.8775 24.0706,4.6425 24.0706,5.6695 L24.0706,10.8275 L22.9316,10.8275 L22.7976,9.4875 C22.3066,10.5035 21.4186,11.0115 20.1346,11.0115 C19.2756,11.0115 18.5856,10.7715 18.0676,10.2915 C17.5476,9.8115 17.2876,9.2135 17.2876,8.4995 C17.2876,7.7855 17.5766,7.2265 18.1506,6.8245 C18.7256,6.4225 19.4436,6.2225 20.3026,6.2225 C21.1616,6.2225 21.9826,6.3675 22.7646,6.6575 L22.7646,5.6355 Z" id="Fill-14" fill-opacity="0.2" fill="#FFFFFF"></path>
                <path d="M28.458,4.3632 C28.982,3.2022 29.882,2.6212 31.154,2.6212 C32.103,2.6212 32.843,2.9342 33.373,3.5592 C33.903,4.1842 34.169,5.0382 34.169,6.1212 L34.169,10.8272 L32.862,10.8272 L32.862,6.1212 C32.862,5.3512 32.681,4.7712 32.318,4.3802 C31.955,3.9892 31.438,3.7942 30.77,3.7942 C30.1,3.7942 29.558,4.0672 29.145,4.6142 C28.731,5.1612 28.514,5.9202 28.491,6.8922 L28.491,10.8272 L27.169,10.8272 L27.169,2.8222 L28.308,2.8222 L28.458,4.3632 Z" id="Fill-16" fill-opacity="0.2" fill="#FFFFFF"></path>
            </g>
        </g>
    </g>
</svg>