<?xml version="1.0" encoding="UTF-8" standalone="no"?>
<svg width="127px" height="24px" viewBox="0 0 127 24" version="1.1" xmlns="http://www.w3.org/2000/svg" xmlns:xlink="http://www.w3.org/1999/xlink">
    <!-- Generator: Sketch 46.2 (44496) - http://www.bohemiancoding.com/sketch -->
    <title>logo-miner-white</title>
    <desc>Created with Sketch.</desc>
    <defs></defs>
    <g id="Oxygen" stroke="none" stroke-width="1" fill="none" fill-rule="evenodd">
        <g transform="translate(-851.000000, -675.000000)" id="Group-16">
            <g transform="translate(462.000000, 669.000000)">
                <g id="logo-miner-white" transform="translate(389.000000, 6.000000)">
                    <polygon id="Path-16" fill="#666666" points="0 24 10.9411765 5.29411765 15.8823529 9.52941176 17.6470588 7.76470588 19.7647059 9.88235294 13.4117647 24"></polygon>
                    <polygon id="Path-15" fill="#B2B2B2" points="5.64705882 24 12 13.0588235 15.1764706 15.8823529 24.7058824 0 38.8235294 24 28.5882353 24 25.4117647 19.7647059 18.7058824 19.7647059 14.8235294 24"></polygon>
                    <polygon id="Path-14" fill="#FFFFFF" points="14.8235294 24 19.7647059 15.1764706 22.2352941 19.0588235 24.7058824 16.5882353 28.9411765 24 28 24 24.3529412 20.8235294 22.2352941 22.5882353 20.4705882 20.4705882 16 24"></polygon>
                    <g id="Page-1" transform="translate(45.000000, 6.000000)" fill="#FFFFFF">
                        <polygon id="Fill-1" points="7.32857143 0.778571429 4.60285714 5.97285714 1.90285714 0.778571429 0 0.778571429 0 9.90714286 1.77428571 9.90714286 1.77428571 3.86428571 4.12714286 8.36428571 5.09142857 8.36428571 7.44428571 3.86428571 7.44428571 9.90714286 9.21857143 9.90714286 9.21857143 0.778571429"></polygon>
                        <polygon id="Fill-2" points="12.955 9.90714286 14.8064286 9.90714286 14.8064286 2.66857143 12.955 2.66857143"></polygon>
                        <polygon id="Fill-3" points="23.4739286 2.66857143 23.4739286 6.60285714 19.6810714 2.66857143 18.2289286 2.66857143 18.2289286 9.90714286 20.0796429 9.90714286 20.0796429 6.08928571 23.8339286 9.90714286 25.3132143 9.90714286 25.3132143 2.66857143"></polygon>
                        <polygon id="Fill-4" points="28.746 2.66857143 28.746 9.90714286 34.4288571 9.90714286 34.4288571 8.3 30.5967143 8.3 30.5967143 6.97642857 33.811 6.97642857 33.811 5.47142857 30.5967143 5.47142857 30.5967143 4.27571429 34.326 4.27571429 34.326 2.66857143"></polygon>
                        <path d="M39.4207143,6.02471429 L41.1564286,6.02471429 C41.3792857,6.02471429 41.57,5.94757143 41.7285714,5.79328571 C41.8871429,5.639 41.9664286,5.42471429 41.9664286,5.14971429 C41.9664286,4.87614286 41.8764286,4.66185714 41.6964286,4.50757143 C41.5164286,4.35257143 41.315,4.27614286 41.0921429,4.27614286 L39.4207143,4.27614286 L39.4207143,6.02471429 Z M37.5692857,9.90757143 L37.5692857,2.669 L41.2078571,2.669 C41.5935714,2.669 41.9471429,2.74114286 42.2685714,2.88685714 C42.59,3.03328571 42.8685714,3.22114286 43.1042857,3.45257143 C43.34,3.68471429 43.5221429,3.94828571 43.6507143,4.244 C43.7792857,4.53971429 43.8435714,4.84185714 43.8435714,5.14971429 C43.8435714,5.58757143 43.7257143,5.99042857 43.49,6.359 C43.2542857,6.72685714 42.9307143,7.019 42.5192857,7.23257143 L44.3835714,9.90757143 L42.2878571,9.90757143 L40.6678571,7.64471429 L39.4207143,7.64471429 L39.4207143,9.90757143 L37.5692857,9.90757143 Z" id="Fill-5"></path>
                        <path d="M53.4375,8.87835714 C52.7346429,9.60764286 51.9246429,9.97121429 51.0075,9.97121429 C50.4246429,9.97121429 49.8760714,9.84335714 49.3617857,9.5855 C48.8475,9.32907143 48.3996429,8.98335714 48.0182143,8.5505 C47.6367857,8.11835714 47.3367857,7.61835714 47.1182143,7.05264286 C46.8996429,6.48692857 46.7903571,5.9005 46.7903571,5.29192857 C46.7903571,4.66621429 46.8996429,4.07621429 47.1182143,3.52407143 C47.3367857,2.9705 47.6410714,2.48692857 48.0310714,2.07121429 C48.4210714,1.6555 48.8796429,1.3255 49.4067857,1.0805 C49.9339286,0.836214286 50.5060714,0.714071429 51.1232143,0.714071429 C51.9546429,0.714071429 52.6660714,0.894071429 53.2575,1.25407143 C53.8489286,1.61407143 54.2946429,2.09907143 54.5946429,2.70692857 L53.2703571,3.68478571 C53.0475,3.2305 52.7410714,2.88264286 52.3510714,2.64335714 C51.9610714,2.40335714 51.5303571,2.28335714 51.0589286,2.28335714 C50.6817857,2.28335714 50.3410714,2.36478571 50.0367857,2.52692857 C49.7325,2.6905 49.4732143,2.91264286 49.2589286,3.1955 C49.0446429,3.47835714 48.8775,3.80407143 48.7575,4.17264286 C48.6375,4.54192857 48.5775,4.93192857 48.5775,5.34335714 C48.5775,5.77121429 48.6417857,6.17264286 48.7703571,6.54478571 C48.8989286,6.91835714 49.0789286,7.24192857 49.3103571,7.51621429 C49.5417857,7.7905 49.8139286,8.00621429 50.1267857,8.16478571 C50.4396429,8.32407143 50.7846429,8.40264286 51.1617857,8.40264286 C52.0017857,8.40264286 52.7603571,7.98764286 53.4375,7.15621429 L53.4375,6.51264286 L51.5989286,6.51264286 L51.5989286,5.21407143 L54.9032143,5.21407143 L54.9032143,9.90692857 L53.4375,9.90692857 L53.4375,8.87835714 Z" id="Fill-7"></path>
                        <path d="M61.3818571,4.90585714 L60.5075714,6.783 L62.2304286,6.783 L61.3818571,4.90585714 Z M57.5118571,9.90728571 L60.6361429,2.66871429 L62.1404286,2.66871429 L65.239,9.90728571 L63.2847143,9.90728571 L62.6418571,8.39014286 L60.109,8.39014286 L59.4918571,9.90728571 L57.5118571,9.90728571 Z" id="Fill-10"></path>
                        <polygon id="Fill-12" points="73.2181429 4.276 70.7624286 4.276 70.7624286 9.90742857 68.911 9.90742857 68.911 4.276 66.4295714 4.276 66.4295714 2.66885714 73.2181429 2.66885714"></polygon>
                        <polygon id="Fill-14" points="81.6678571 8.30014286 81.6678571 9.90728571 75.985 9.90728571 75.985 2.66871429 81.565 2.66871429 81.565 4.27585714 77.8364286 4.27585714 77.8364286 5.47157143 81.0507143 5.47157143 81.0507143 6.97585714 77.8364286 6.97585714 77.8364286 8.30014286"></polygon>
                    </g>
                </g>
            </g>
        </g>
    </g>
</svg>