<?xml version="1.0" encoding="UTF-8" standalone="no"?>
<svg width="68px" height="70px" viewBox="0 0 68 70" version="1.1" xmlns="http://www.w3.org/2000/svg" xmlns:xlink="http://www.w3.org/1999/xlink">
    <!-- Generator: Sketch 47 (45396) - http://www.bohemiancoding.com/sketch -->
    <title>logo-big</title>
    <desc>Created with Sketch.</desc>
    <defs></defs>
    <g id="Page-1" stroke="none" stroke-width="1" fill="none" fill-rule="evenodd">
        <g id="landing" transform="translate(-174.000000, -176.000000)" fill="#FFFFFF">
            <g id="first---1" transform="translate(-331.000000, -450.000000)">
                <g id="logo-big" transform="translate(505.000000, 626.000000)">
                    <path d="M33.3077932,24 C27.6011579,24 22.6283414,19.0845332 13.6260347,10.1849739 L11.679678,8.26213682 C10.7732598,7.365099 10.7732598,5.91331412 11.6807635,5.01734932 C12.5882673,4.1203115 14.0569904,4.12138451 14.9634086,5.01734932 L16.9086798,6.94018635 C25.1923651,15.1272659 29.6940613,19.4107288 33.3121354,19.4107288 L33.3403592,19.4107288 C36.9812294,19.3871225 41.5491429,15.039279 49.9761183,6.70948883 L52.0364557,4.67183954 C52.9439595,3.77587473 54.4137682,3.77587473 55.3201864,4.67291255 C56.2266045,5.56887735 56.2266045,7.02280826 55.3201864,7.91877306 L53.2598489,9.95427633 C44.1207653,18.9879622 39.0860736,23.9645906 33.3696685,24 L33.3077932,24 Z" id="Fill-1"></path>
                    <path d="M13.3219573,66 C12.7281702,66 12.1332976,65.7757511 11.6806299,65.3272532 C10.7731234,64.4313305 10.7731234,62.9785408 11.6806299,62.082618 L13.7409735,60.0450644 C22.8800847,51.0128755 27.9137061,46.0375536 33.6301284,46.001073 C33.6301284,46.001073 33.6724642,46 33.6920038,46 C39.3986564,46 44.3725734,50.916309 53.3738217,59.8154506 L55.3201843,61.7371245 C56.2266052,62.6330472 56.2266052,64.0869099 55.3201843,64.9828326 C54.4137634,65.8798283 52.9439503,65.8798283 52.0375293,64.9839056 L50.0922523,63.0611588 C41.8074564,54.8733906 37.3057467,50.5901288 33.6887472,50.5901288 L33.6692076,50.5901288 C30.0185566,50.6126609 25.4517148,54.9613734 17.0236285,63.2918455 L14.9632848,65.3272532 C14.5106171,65.7757511 13.9157445,66 13.3219573,66" id="Fill-3"></path>
                    <path d="M61.7048343,59 C61.1178985,59 60.5298897,58.768081 60.082445,58.3053526 L58.0458744,56.1992172 C49.0122137,46.8569865 44.0355991,41.7114913 44.0001898,35.8669101 C43.9647805,30.0079034 48.8845257,24.9201105 57.8151775,15.6844072 L59.7380092,13.6958958 C60.6339715,12.7682198 62.0868254,12.7682198 62.9827877,13.6947862 C63.879823,14.6213526 63.879823,16.1238327 62.9838607,17.0515088 L61.059956,19.0400202 C52.850366,27.5311414 48.5669151,32.1340126 48.5905213,35.8369493 C48.6119814,39.5587502 52.9608859,44.2270914 61.2906529,52.8424946 L63.3272235,54.9497396 C64.2242588,55.876306 64.2242588,57.3787862 63.3272235,58.3053526 C62.8797789,58.768081 62.2917701,59 61.7048343,59" id="Fill-5"></path>
                    <path d="M5.63890143,59 C5.05086931,59 4.46391025,58.768081 4.0153748,58.3053526 C3.11937696,57.3776765 3.11937696,55.876306 4.01644785,54.9497396 L5.93935579,52.9612282 C14.1492714,44.470107 18.4328922,39.8672358 18.4103581,36.1631895 C18.387824,32.4413886 14.0398201,27.7719377 5.70864976,19.1587539 L3.67199838,17.0515088 C2.77600054,16.1238327 2.77600054,14.6224622 3.67199838,13.6947862 C4.56799622,12.7682198 6.02090769,12.7682198 6.91797859,13.6958958 L8.95355692,15.8009216 C17.9875759,25.1431523 22.9643878,30.2897571 22.9997985,36.1343383 C23.0362823,41.9933451 18.116342,47.0811379 9.18426295,56.3168412 L7.26135501,58.3053526 C6.81281956,58.7691906 6.22586049,59 5.63890143,59" id="Fill-7"></path>
                    <path d="M68,34.9993583 C68,32.7904701 66.6561848,31 64.9995187,31 C63.3428526,31 62,32.7904701 62,34.9993583 C62,37.2095299 63.3428526,39 64.9995187,39 C66.6561848,39 68,37.2095299 68,34.9993583" id="Fill-9"></path>
                    <path d="M36,4.00064175 C36,1.79047008 34.6571474,0 33.0004813,0 C31.3438152,0 30,1.79047008 30,4.00064175 C30,6.20952992 31.3438152,8 33.0004813,8 C34.6571474,8 36,6.20952992 36,4.00064175" id="Fill-11"></path>
                    <path d="M0,37 C0,39.2105263 1.34381518,41 3.00048131,41 C4.65714744,41 6,39.2105263 6,37 C6,34.7907574 4.65714744,33 3.00048131,33 C1.34381518,33 0,34.7907574 0,37" id="Fill-13"></path>
                    <path d="M30,66.5 C30,68.4330873 31.3438152,70 33.0004813,70 C34.6571474,70 36,68.4330873 36,66.5 C36,64.5657895 34.6571474,63 33.0004813,63 C31.3438152,63 30,64.5657895 30,66.5" id="Fill-15"></path>
                </g>
            </g>
        </g>
    </g>
</svg>