<?xml version="1.0" encoding="UTF-8" standalone="no"?>
<svg width="108px" height="35px" viewBox="0 0 108 35" version="1.1" xmlns="http://www.w3.org/2000/svg" xmlns:xlink="http://www.w3.org/1999/xlink">
    <!-- Generator: Sketch 46.2 (44496) - http://www.bohemiancoding.com/sketch -->
    <title>logo-chan-white</title>
    <desc>Created with Sketch.</desc>
    <defs></defs>
    <g id="Oxygen" stroke="none" stroke-width="1" fill="none" fill-rule="evenodd">
        <g transform="translate(-679.000000, -669.000000)" id="Group-16" fill="#FFFFFF">
            <g transform="translate(462.000000, 669.000000)">
                <g id="logo-chan-white" transform="translate(217.000000, 0.000000)">
                    <path d="M67.0636902,31.5159402 C66.6958098,32.2448533 66.2335815,33.0000163 65.5556467,33.4797446 C64.7917337,34.0203424 63.7896685,33.8833859 63.3879293,32.9775707 C62.9713533,32.0382772 63.462875,30.9350163 64.0030924,30.1574076 C64.9024402,28.8624076 66.236625,27.7876793 67.660212,27.1207772 C67.9809185,26.9708859 68.3111359,26.847625 68.6462989,26.7376793 C68.2658641,28.3800163 67.8276033,30.0021902 67.0636902,31.5159402 M61.9457011,16.6846902 C62.4783098,14.6261576 63.3217337,12.7943641 64.7091793,11.1950163 C64.7133641,11.1900707 64.7160272,11.1866467 64.720212,11.182462 C64.798962,11.2277337 64.8902663,11.2802337 64.9070054,11.2981141 C65.052712,11.4533315 65.0820054,11.6100707 65.096462,11.8162663 C65.1326033,12.3241467 64.9431467,12.8723533 64.790212,13.3482772 C64.0369511,15.6989837 62.8347772,18.0664293 61.3993967,20.1938207 C61.4412446,18.9528424 61.6820598,17.7042554 61.9457011,16.6846902 M64.6665707,11.1512663 C64.6387989,11.1543098 64.6148315,11.1436576 64.6015163,11.1086576 C64.603038,11.1128424 64.6304293,11.1295815 64.6665707,11.1512663 M57.5280924,13.611538 C57.7510272,12.9400707 58.0043967,12.2720272 58.3429837,11.6492554 C58.4905924,11.3780054 58.6534185,11.0995272 58.8592337,10.8670815 C58.8919511,10.8301793 58.971462,10.7324076 59.0498315,10.657462 C59.0825489,10.7050163 59.2449946,10.7518098 59.3401033,10.8172446 C60.0511359,11.3061033 59.7608641,12.0897989 59.5710272,12.8092011 C58.9197228,15.2767011 57.755212,17.6780054 56.4137989,19.8453424 C56.4248315,19.6692011 56.4373859,19.4930598 56.451462,19.3176793 C56.6093424,17.3858315 56.9148315,15.4539837 57.5280924,13.611538 M42.0984185,30.9814293 C41.6209728,32.1052337 40.9354293,33.3351793 39.8325489,33.9507228 C38.711788,34.576538 37.4982011,33.7764837 37.5118967,32.523712 C37.5377663,30.1790924 40.3484185,28.7098533 42.1022228,27.6956141 C42.477712,27.4783859 42.8570054,27.2680054 43.2359185,27.0568641 C42.9407011,28.387625 42.6359728,29.7157228 42.0984185,30.9814293 M49.9018967,20.7477337 C50.7091793,20.0633315 52.035375,20.6705054 51.5537446,21.7775707 C51.2969511,22.3680054 50.7213533,22.6472446 50.1765707,22.9143098 C49.7462989,23.1246902 49.3164076,23.3358315 48.8865163,23.5481141 C48.6993424,22.5650707 49.1718424,21.3667011 49.9018967,20.7477337 M41.9397772,21.454962 C42.3514076,21.0615924 43.2458098,20.2706685 43.7654837,20.9436576 C43.9640707,21.2004511 43.8202663,21.5211576 43.6798859,21.7672989 C43.151462,22.6963207 42.0554293,23.3841467 41.1518967,23.8935489 C41.0255924,23.9643098 40.8947228,24.0365924 40.7596685,24.1073533 C40.4541793,23.175288 41.2823859,22.0826793 41.9397772,21.454962 M25.0332554,23.8581685 C24.7076033,24.199038 24.2221685,24.8358859 23.7846685,24.2758859 C23.5971141,24.0358315 23.5545054,23.6397989 23.5750489,23.3457228 C23.6305924,22.5639293 24.1761359,21.8281685 24.7680924,21.3537663 C25.5407554,20.7344185 26.3058098,20.7720815 27.0545054,21.4172989 C27.0708641,21.4317554 27.0914076,21.442788 27.1138533,21.4519185 C27.1028207,21.4595272 27.091788,21.4675163 27.0853207,21.4739837 C26.3484185,22.2234402 25.7579837,23.0984402 25.0332554,23.8581685 M73.7893967,24.7282228 C73.5390707,24.6445272 73.0540163,24.8492011 72.8440163,24.9815924 C72.0310272,25.4951793 71.0502663,25.6694185 70.1109728,25.8775163 C70.4860815,24.2309946 70.8311359,22.5643098 71.4177663,20.991212 C71.5170598,20.766375 71.6068424,20.5407772 71.6859728,20.3170815 C71.778038,20.0561033 70.5058641,20.226538 70.3670054,20.550288 C70.2631467,20.7914837 70.1676576,21.0345815 70.0771141,21.279962 C69.7141793,22.1055054 69.2393967,22.8800707 68.6181467,23.540125 C68.2346685,23.9471902 67.522875,24.7346902 66.9058098,24.7305054 C66.3168967,24.7263207 66.1498859,24.0392554 66.1571141,23.5732228 C66.1768967,22.3531685 66.9293967,21.1243641 67.5365707,20.1173533 C67.6351033,19.9533859 66.420375,20.0142554 66.2172228,20.3509402 C65.5389076,21.4789293 64.8168424,22.6092011 63.9068424,23.5671359 C63.666788,23.820125 63.2513533,24.339038 62.8857554,24.4467011 C62.9390163,24.4223533 62.7229293,24.4086576 62.637712,24.353875 C62.4368424,24.2233859 62.2911359,24.053712 62.1655924,23.8497989 C61.776788,23.2182772 61.5591793,22.4741467 61.4598859,21.6855054 C62.4360815,20.404962 63.2859728,19.019038 64.060538,17.6171359 C64.9716793,15.9683315 65.9326576,14.174962 66.3298315,12.3161576 C66.4218967,11.8862663 66.5459185,11.3509946 66.2754293,10.966375 C65.8729293,10.3942011 65.0519511,10.5235489 64.4843424,10.7194728 C62.561625,11.3818098 61.5861902,13.9345272 60.9972772,15.6734946 C60.3756467,17.5102337 59.8574946,19.8495272 60.1257011,21.9403967 C59.9069511,22.2181141 59.6859185,22.4908859 59.461462,22.755288 C59.0060815,23.2905598 58.5168424,23.8292554 57.9515163,24.2519185 C57.8267337,24.345125 57.6243424,24.5170815 57.4702663,24.5653967 C57.565375,24.5220272 57.197875,24.4242554 57.0845054,24.316212 C56.5762446,23.8322989 56.4834185,22.9135489 56.421788,22.259962 C56.4020054,22.0476793 56.3890707,21.8350163 56.3807011,21.6215924 C57.6026576,20.060288 58.5750489,18.2692011 59.3865163,16.5367011 C59.9841793,15.2618641 60.5301033,13.9398533 60.8899946,12.5759946 C61.0729837,11.8839837 61.386462,11.0211576 60.765212,10.4915924 C59.9723859,9.81555978 58.7972228,10.0247989 58.0131467,10.625125 C56.888962,11.4860489 56.407712,13.1504511 56.0219511,14.4397446 C55.3961359,16.5294728 55.1016793,18.7793641 55.042712,20.9558315 C55.0362446,21.201212 55.0255924,21.5089837 55.0271141,21.845288 C54.5093424,22.5026793 53.945538,23.1224076 53.3204837,23.6805054 C52.3697772,24.5303967 51.136788,25.494038 49.8265707,24.8240924 C49.4590707,24.6361576 49.2072228,24.362625 49.0501033,24.0434402 C49.9958641,23.6051793 50.9796685,23.1863207 51.8432554,22.6305054 C52.5405924,22.181212 53.4517337,21.1780054 52.7593424,20.3448533 C52.1160272,19.570288 50.708038,19.8457228 49.8992337,20.1382772 C48.3896685,20.6838207 47.0269511,22.5304511 47.6211902,24.1754511 C46.6974946,24.6361576 45.7772228,25.1033315 44.8626576,25.5803967 C45.0136902,24.9001793 45.1723315,24.2211033 45.3933641,23.560288 C45.4934185,23.2612663 44.2296141,23.5309946 44.0740163,23.793875 C43.448962,24.8514837 42.2133098,25.7405598 41.126788,24.6806685 C41.080375,24.6353967 41.0400489,24.5893641 41.001625,24.5425707 C41.6369511,24.257625 42.2486902,23.9194185 42.8239076,23.542788 C43.6407011,23.0071359 44.9010815,22.1895815 45.1616793,21.1719185 C45.4458641,20.0595272 43.8061902,20.0629511 43.116462,20.2105598 C41.5798859,20.5396359 39.7933641,21.9247989 39.4182554,23.5055054 C39.3140163,23.9460489 39.3684185,24.3283859 39.5297228,24.6475707 C38.9526033,24.8404511 38.3534185,24.940125 37.7808641,24.8400707 C36.3926576,24.5973533 37.1797772,23.3464837 37.5552663,22.5156141 C37.8721685,21.8133315 38.2963533,20.6830598 37.2547228,20.4087663 C36.4014076,20.1839293 35.3982011,20.5594185 34.6749946,20.9980598 C34.1340163,21.3256141 33.6333641,21.7364837 33.1680924,22.1960489 C33.2555924,21.5964837 33.2339076,21.0007228 33.0334185,20.4559402 C32.9147228,20.1340924 31.8993424,20.5149076 31.758962,20.6830598 C31.3245054,21.2057772 30.9649946,21.7775707 30.5933098,22.3455598 C30.1961359,22.9515924 29.725538,23.8037663 29.0647228,24.1621359 C28.223962,24.6182772 27.9367337,23.5983315 27.9770598,22.980125 C28.013962,22.4033859 28.2429837,21.8703967 28.3502663,21.3092554 C28.3677663,21.2179511 28.3129837,21.1726793 28.2190163,21.1567011 C28.3213533,21.0806141 28.369288,21.0083315 28.3137446,20.9600163 C26.383038,19.2952337 22.5988533,21.1099076 22.2595054,23.5218641 C22.0399946,25.0770815 23.4365707,25.3186576 24.630375,24.884962 C25.4407011,24.5908859 26.0630924,24.0168098 26.6257554,23.3689293 C26.6185272,23.5245272 26.625375,23.6808859 26.6539076,23.837625 C26.8315707,24.8119185 27.7571685,24.9481141 28.5960272,24.797462 C30.206788,24.5075707 31.0490707,23.3529511 31.8658641,22.1355598 C31.7958641,23.2464293 31.2784728,24.4021902 30.7782011,25.3072446 C30.6716793,25.500125 31.9023859,25.3856141 32.0975489,25.0736576 C32.5399946,24.3660489 35.8676576,19.7631685 36.5410272,21.2662663 C37.0424402,22.3862663 35.3175489,23.5321359 35.637875,24.6772446 C35.9365163,25.7470272 37.9684185,25.4343098 38.7304293,25.2828967 C39.085375,25.2125163 39.4368967,25.1200707 39.7838533,25.0105054 C40.1859728,25.4468641 40.8273859,25.6975707 41.4923859,25.718875 C42.2623859,25.7432228 43.008038,25.5579511 43.6646685,25.2083315 C43.5676576,25.5906685 43.4786359,25.9745272 43.3918967,26.3591467 C42.6416793,26.7646902 41.8960272,27.1789837 41.1568424,27.6046902 C39.7210815,28.4328967 38.2061902,29.2763207 37.1569511,30.5918641 C36.1221685,31.8895272 35.538962,34.2896902 37.7519511,34.7047446 C39.6031467,35.0520815 41.5079837,33.847625 42.530212,32.3909402 C43.7829837,30.6044185 44.247875,28.3492011 44.7135272,26.2530054 C45.7509728,25.7002337 46.7960272,25.1626793 47.8448859,24.633875 C48.9664076,26.4150707 51.9159185,25.4529511 53.301462,24.5406685 C53.9512446,24.1130598 54.5489076,23.6131685 55.1035815,23.0638207 C55.246625,24.0951793 55.6399946,25.0455054 56.6633641,25.1082772 C58.1394511,25.1992011 59.4169511,24.0578967 60.3474946,23.0292011 C60.4418424,23.3567554 60.560538,23.674038 60.7081467,23.977625 C61.610538,25.8349076 63.7348859,24.7871902 64.8841793,23.7052337 C64.7742337,24.6681141 65.1086359,25.4061576 66.4774402,25.2646359 C67.543038,25.1543098 68.4823315,24.6738207 69.2743967,23.9882772 C69.0933098,24.7324076 68.9301033,25.4833859 68.7615707,26.2317011 C67.8199946,26.5185489 66.9069511,26.8856685 66.0490707,27.3771902 C64.7179293,28.1403424 63.4423315,29.2108859 62.6042337,30.5074076 C62.0598315,31.3496902 61.5793424,32.5842011 62.1526576,33.5356685 C63.1132554,35.1315924 65.726462,34.2383315 66.8445598,33.3283315 C68.4461902,32.0242011 69.0982554,29.7518641 69.6247772,27.8455054 C69.760212,27.3562663 69.8819511,26.8613207 69.9987446,26.3629511 C71.3363533,26.0380598 72.6922228,25.7698533 73.869288,25.0261033 C74.1298859,24.861375 73.9853207,24.7936576 73.7893967,24.7282228" id="Fill-1"></path>
                    <path d="M17.7093152,14.0750217 C18.1810543,13.1570326 18.7323043,12.1009457 19.5540435,11.442413 C19.6715978,11.3480652 19.793337,11.2510543 19.9344783,11.1943696 C19.950837,11.1875217 19.9633913,11.1837174 19.9755652,11.1802935 C20.1178478,11.2963261 20.1745326,11.4835 20.2068696,11.6600217 C20.3251848,12.3098043 20.0052391,13.078663 19.7552935,13.6599674 C18.8582283,15.74475 17.4061087,17.6404565 15.9117609,19.3292065 C15.7789891,19.4794783 15.6412717,19.6331739 15.49975,19.7895326 C15.6873043,19.1819783 15.8858913,18.5820326 16.0875217,17.9919783 C16.5448043,16.65475 17.0629565,15.3331196 17.7093152,14.0750217 M19.9961087,11.1738261 C20.0714348,11.1544239 20.0554565,11.1867609 19.9961087,11.1738261 M20.1037717,15.4331739 C20.7170326,14.4158913 22.4031196,11.7764348 21.2013261,10.6301848 C20.4861087,9.94844565 19.1865435,10.5959457 18.5637717,11.1053478 C17.5655109,11.9225217 16.893663,13.1326848 16.3294783,14.2698043 C15.1779022,16.5904565 14.3013804,19.1093152 13.6930652,21.6540435 C10.8896413,24.3292609 7.19181522,26.7621413 3.58377174,25.0071957 C-1.13361957,22.712413 2.68594565,16.494587 5.14697826,14.0259457 C6.84561957,12.3227391 9.30094565,10.5000761 11.857087,10.82725 C12.9976304,10.973337 13.6907826,11.7349674 13.1954565,12.8663804 C13.0075217,13.2955109 12.1865435,14.5832826 11.6151304,14.0590435 C11.2480109,13.7223587 9.98763043,14.23975 10.3779565,14.5973587 C11.9818696,16.0688804 14.6057283,13.6900217 14.7137717,11.9887174 C14.896,9.11757609 10.1462717,10.0119783 8.61502174,10.6290435 C5.93638043,11.708337 3.64882609,13.8452391 2.03920652,16.2088804 C0.710347826,18.1601304 -0.60025,20.9487174 0.293391304,23.3348043 C1.19007609,25.7285 4.23583696,26.6696957 6.58159783,26.4064348 C9.10958696,26.1226304 11.4214891,24.667087 13.3826304,23.0669783 C13.3430652,23.2644239 13.3054022,23.4626304 13.2688804,23.6600761 C13.166163,24.2219783 13.0805652,24.7865435 13.0406196,25.3564348 C13.008663,25.8076304 13.7398587,25.6992065 13.9821957,25.582413 C15.1113261,25.0391522 15.948663,23.9008913 16.8164348,23.0323587 C17.1504565,22.6979565 19.2458913,20.4164891 19.7499674,21.2408913 C20.1094783,21.8282826 18.9628478,23.2465435 18.7627391,23.7977935 C18.3590978,24.9094239 19.1519239,25.3294239 20.1798587,25.3541522 C20.7189348,25.3674674 21.5889891,24.5685543 20.6869783,24.5464891 C19.2789891,24.5126304 20.437413,23.0156196 20.7683913,22.3399674 C21.1975217,21.4642065 21.3812717,20.4541522 20.1342065,20.2738261 C18.7604565,20.0752391 17.4806739,21.1400761 16.5394783,21.9971957 C15.922413,22.5590978 15.348337,23.1658913 14.7651304,23.762413 C14.6814348,23.8480109 14.5943152,23.9435 14.5056739,24.0416522 C14.6152391,23.2526304 14.7754022,22.4651304 14.9694239,21.6837174 C16.9419783,19.8477391 18.7182283,17.7313804 20.1037717,15.4331739" id="Fill-4"></path>
                    <path d="M102.028766,11.228837 C100.482299,12.8658478 98.699962,14.0197065 96.5946359,14.8034022 C95.9281141,15.0518261 95.5803967,15.1861196 94.8906685,15.1320978 C94.1769728,15.0757935 93.4134402,15.0103587 92.7602337,14.6949783 C93.3244185,14.0398696 93.8886033,13.3843804 94.452788,12.7292717 C94.6456685,12.5055761 94.8800163,12.2853043 95.0462663,12.0406848 C95.5488207,11.2984565 95.4571359,10.1738913 95.7321902,9.31258696 C95.7911576,9.24486957 95.8307228,9.1741087 95.8356685,9.10144565 C95.8531685,8.82943478 95.6522989,8.82981522 95.4156685,8.91997826 C94.3485489,9.3251413 93.3198533,9.18323913 92.3988207,9.71090217 C91.5432228,10.2009022 90.6880054,10.6905217 89.832788,11.1805217 C89.8305054,11.1751957 89.830125,11.1698696 89.8267011,11.1649239 C88.4601793,9.17943478 90.9295815,6.57079348 92.1800707,5.26818478 C93.9589837,3.41508696 95.9364837,2.23193478 98.4279511,1.62323913 C101.074255,0.97726087 103.921049,0.76726087 106.646103,0.969271739 C105.811049,4.70323913 104.721864,8.379 102.028766,11.228837 M97.9611576,17.9419891 C97.1291467,18.3209022 96.2933315,18.69525 95.444962,19.0349783 C95.8847446,18.2440543 96.4359946,17.3994891 96.5809402,16.5359022 C96.6528424,16.1037283 96.5113207,15.8126957 96.2537663,15.6045978 C97.2832228,15.2199783 98.2556141,14.7626957 99.1743641,14.2186739 C98.6242554,15.3999239 98.2518098,16.6759022 97.9611576,17.9419891 M88.5107772,15.3405761 C89.9389293,14.5192174 91.1578424,13.4798696 92.3463207,12.2944348 C92.525125,12.1160109 92.586375,11.9280761 92.3394728,11.8371522 C92.0921902,11.7458478 91.6447989,12.130087 91.4956685,12.2792174 C90.4974076,13.2748152 89.4957228,14.1273696 88.2977337,14.8049239 C88.3917011,14.0531848 88.4856685,13.3010652 88.5796359,12.5497065 C89.570288,11.9820978 90.5609402,11.4144891 91.5515924,10.8472609 C91.8319728,10.6867174 92.1127337,10.5257935 92.3931141,10.36525 C92.446375,10.3348152 92.487462,10.3108478 92.5239837,10.2895435 C92.9078424,10.2534022 93.9003967,10.0255217 94.5410489,9.86421739 C94.3938207,10.3291087 94.3078424,10.7932391 94.2370815,11.2805761 C94.1887663,11.6153587 94.2260489,11.8892717 94.079962,12.1593804 C93.826212,12.6284565 93.2920815,13.0743261 92.9466467,13.4753043 C92.3311033,14.1905217 91.7151793,14.9053587 91.0992554,15.6205761 C90.2364293,15.5273696 89.3736033,15.4337826 88.5107772,15.3405761 M88.3099076,7.88063043 C87.4223533,7.76688043 86.443875,8.05677174 85.5483315,8.28883696 C86.0896902,7.5565 86.7006685,6.86753261 87.3108859,6.1903587 C88.508875,6.13367391 89.7243641,6.00508696 90.891538,5.72698913 C90.6480598,6.00432609 90.4121902,6.28546739 90.186212,6.57041304 C89.8156685,7.03720652 89.3785489,7.60025 89.0118098,8.21008696 C88.850125,8.0388913 88.6245272,7.92133696 88.3099076,7.88063043 M107.690016,0.0855217391 C105.289853,-0.111543478 102.805995,0.0406304348 100.438549,0.454923913 C98.6280598,0.771826087 96.8160489,1.28921739 95.1942554,2.17068478 C93.9460489,2.84938043 92.8017011,3.759 91.7802337,4.77894565 C90.7572446,5.04448913 89.7026793,5.1765 88.6500163,5.25563043 C88.0911576,5.29747826 87.5090924,5.22747826 87.0377337,5.58204348 C86.5815924,5.92481522 86.2236033,6.44677174 85.8545815,6.8751413 C85.274038,7.54927174 84.6820815,8.22834783 84.183712,8.96677174 C84.0395272,9.18019565 84.1342554,9.35633696 84.4039837,9.29698913 C85.2964837,9.10030435 86.2722989,8.75220652 87.1940924,8.76438043 C87.9652337,8.77503261 88.1611576,9.27872826 88.1919728,9.98405435 C88.1946359,10.0411196 88.2243098,10.0749783 88.2688207,10.094 C88.1820815,10.6905217 88.2653967,11.286663 88.6214837,11.8481848 C88.0987663,12.1190543 87.5326793,12.4511739 87.412462,12.9590543 C87.2039837,13.8409022 87.1636576,14.7984565 87.0655054,15.7092174 C87.0461033,15.7636196 87.0407772,15.8119348 87.0495272,15.8511196 C87.0438207,15.897913 87.0392554,15.945087 87.0335489,15.9918804 C87.0263207,16.0489457 87.0571359,16.079 87.1107772,16.0900326 C87.1183859,16.1455761 87.1628967,16.184 87.2599076,16.1946522 C88.2634946,16.3034565 89.267462,16.4118804 90.2718098,16.5206848 C91.0642554,16.606663 91.4678967,16.1919891 91.9358315,15.6517717 C92.5958859,15.9142717 93.3632228,15.976663 94.053712,16.0310652 C94.1777337,16.0405761 94.2930054,16.0432391 94.4048533,16.0428587 C94.4109402,16.0740543 94.4311033,16.0980217 94.4714293,16.1101957 C95.1550707,16.3171522 95.555288,16.5922065 95.325125,17.3412826 C95.0519728,18.2284565 94.4710489,19.0711196 94.0620815,19.8989457 C93.9197989,20.1869348 94.3515924,20.1291087 94.4817011,20.0807935 C95.3878967,19.7448696 96.2716467,19.3446522 97.1546359,18.9524239 C97.6724076,18.7222609 98.4203424,18.5210109 98.8293098,18.1032935 C99.2105054,17.7144891 99.2447446,16.9695978 99.385125,16.4674239 C99.6868098,15.3888913 100.026918,14.28525 100.566375,13.2976413 C101.084908,12.9160652 101.58556,12.5013913 102.068332,12.0486739 C105.462951,8.86633696 106.867516,4.7553587 107.847136,0.32101087 C107.878712,0.177967391 107.850179,0.0984565217 107.690016,0.0855217391" id="Fill-7"></path>
                    <path d="M91.1859946,19.2309402 C90.9356685,19.1400163 90.4947446,19.5242554 90.3421902,19.672625 C87.400288,22.5384402 82.8225163,22.3006685 79.134962,21.2480054 C80.2804511,20.2836033 81.141375,19.1251793 81.6108315,17.6441467 C82.1506685,15.9409402 82.389962,14.3244728 83.8843098,13.1493098 C84.026212,13.037462 84.3058315,12.7528967 84.0943098,12.5934946 C83.8934402,12.4420815 83.4110489,12.7981685 83.2775163,12.902788 C82.0045815,13.9040924 81.2711033,15.1564837 80.841212,16.7018098 C80.3169728,18.5857228 79.7740924,20.1519728 78.1013207,21.3396902 C78.0450163,21.3796359 77.4100707,21.903875 77.743712,22.0058315 C82.3846359,23.4191467 87.5536033,23.2327337 91.1928424,19.6882228 C91.3731685,19.5120815 91.4317554,19.319962 91.1859946,19.2309402" id="Fill-10"></path>
                    <path d="M98.38675,5.58432609 C98.3943587,4.38405435 99.355337,3.65970652 100.500446,4.07590217 C101.399413,4.40269565 101.911478,5.22405435 101.958272,6.15345652 C101.824739,8.79519565 98.3726739,7.78666304 98.38675,5.58432609 M97.2850109,6.15345652 C97.2789239,7.77943478 98.8360435,8.86709783 100.369196,8.56084783 C101.79963,8.27552174 102.985446,7.05280435 103.05963,5.58432609 C102.870935,1.85111957 97.2983261,2.85204348 97.2850109,6.15345652" id="Fill-12"></path>
                </g>
            </g>
        </g>
    </g>
</svg>