<?xml version="1.0" encoding="UTF-8" standalone="no"?>
<svg width="97px" height="100px" viewBox="0 0 97 100" version="1.1" xmlns="http://www.w3.org/2000/svg" xmlns:xlink="http://www.w3.org/1999/xlink">
    <!-- Generator: Sketch 47 (45396) - http://www.bohemiancoding.com/sketch -->
    <title>logo-big</title>
    <desc>Created with Sketch.</desc>
    <defs></defs>
    <g id="Page-1" stroke="none" stroke-width="1" fill="none" fill-rule="evenodd">
        <g id="landing" transform="translate(-671.000000, -72.000000)" fill="#FFFFFF">
            <g id="logo-big" transform="translate(671.000000, 72.000000)">
                <path d="M47.5125874,34.2857143 C39.37224,34.2857143 32.2786635,27.2636189 19.4371377,14.5499626 L16.6607172,11.8030526 C15.3677383,10.52157 15.3677383,8.4475916 16.6622657,7.16764188 C17.956793,5.88615929 20.0518834,5.88769216 21.3448623,7.16764188 L24.1197344,9.91455193 C35.9361679,21.6103799 42.3577051,27.7296126 47.5187813,27.7296126 L47.5590417,27.7296126 C52.752636,27.6958893 59.2686303,21.4846842 71.2894629,9.58498404 L74.2284736,6.67405648 C75.523001,5.39410676 77.6196399,5.39410676 78.9126188,6.67558935 C80.2055977,7.95553907 80.2055977,10.0325832 78.9126188,11.3125329 L75.973608,14.2203948 C62.9369741,27.1256602 55.7551344,34.2351294 47.6008506,34.2857143 L47.5125874,34.2857143 Z" id="Fill-1"></path>
                <path d="M19.0033803,94.2857143 C18.1563604,94.2857143 17.3077921,93.9653587 16.6620749,93.3246475 C15.3675436,92.0447578 15.3675436,89.969344 16.6620749,88.6894543 L19.6010945,85.7786634 C32.6377678,72.8755365 39.8180807,65.7679338 47.972389,65.7158185 C47.972389,65.7158185 48.0327798,65.7142857 48.0606525,65.7142857 C56.2010245,65.7142857 63.2961708,72.7375843 76.1361869,85.4506438 L78.9126158,88.1958921 C80.2055986,89.4757817 80.2055986,91.5527284 78.9126158,92.832618 C77.619633,94.1140405 75.5229879,94.1140405 74.2300051,92.8341508 L71.4551246,90.0873697 C59.6371069,78.3905579 53.2155504,72.2716125 48.0560071,72.2716125 L48.0281344,72.2716125 C42.8205881,72.3038013 36.3061226,78.5162477 24.2837053,90.4169221 L21.3446857,93.3246475 C20.6989685,93.9653587 19.8504002,94.2857143 19.0033803,94.2857143" id="Fill-3"></path>
                <path d="M88.0201312,84.2857143 C87.1828846,84.2857143 86.3441073,83.9544014 85.7058407,83.2933609 L82.8007326,80.284596 C69.9144813,66.9385521 62.815487,59.5878448 62.7649767,51.2384431 C62.7144663,42.8684334 69.7323381,35.6001579 82.4716503,22.406296 L85.2145132,19.5655655 C86.492577,18.2403139 88.5650303,18.2403139 89.8430942,19.5639802 C91.1226887,20.8876465 91.1226887,23.0340468 89.8446248,24.3592983 L87.1002314,27.2000289 C75.3894927,39.330202 69.2792759,45.9057323 69.3129495,51.1956419 C69.3435618,56.5125003 75.5471461,63.1815592 87.4293137,75.489278 L90.3344218,78.499628 C91.6140163,79.8232943 91.6140163,81.9696946 90.3344218,83.2933609 C89.6961551,83.9544014 88.8573779,84.2857143 88.0201312,84.2857143" id="Fill-5"></path>
                <path d="M8.04372704,84.2857143 C7.20491652,84.2857143 6.36763668,83.9544014 5.72781405,83.2933609 C4.44969948,81.9681093 4.44969948,79.8232943 5.72934473,78.499628 L8.47231635,75.6588975 C20.1835194,63.5287243 26.2939785,56.953194 26.2618343,51.6616992 C26.2296901,46.3448408 20.0273905,39.6741967 8.14322099,27.3696484 L5.23799769,24.3592983 C3.95988312,23.0340468 3.95988312,20.8892318 5.23799769,19.5639802 C6.51611226,18.2403139 8.58864774,18.2403139 9.86829299,19.5655655 L12.7719856,22.5727451 C25.6587479,35.918789 32.7580238,43.2710816 32.8085361,51.6204833 C32.8605791,59.990493 25.8424291,67.2587684 13.101081,80.4526303 L10.3581093,83.2933609 C9.71828672,83.9559866 8.88100688,84.2857143 8.04372704,84.2857143" id="Fill-7"></path>
                <path d="M97,49.9990832 C97,46.8435287 95.0830872,44.2857143 92.7199017,44.2857143 C90.3567162,44.2857143 88.4411765,46.8435287 88.4411765,49.9990832 C88.4411765,53.1564713 90.3567162,55.7142857 92.7199017,55.7142857 C95.0830872,55.7142857 97,53.1564713 97,49.9990832" id="Fill-9"></path>
                <path d="M51.3529412,5.71520249 C51.3529412,2.5578144 49.4374015,0 47.074216,0 C44.7110305,0 42.7941176,2.5578144 42.7941176,5.71520249 C42.7941176,8.87075703 44.7110305,11.4285714 47.074216,11.4285714 C49.4374015,11.4285714 51.3529412,8.87075703 51.3529412,5.71520249" id="Fill-11"></path>
                <path d="M0,52.8571429 C0,56.0150376 1.91691283,58.5714286 4.28009834,58.5714286 C6.64328385,58.5714286 8.55882353,56.0150376 8.55882353,52.8571429 C8.55882353,49.701082 6.64328385,47.1428571 4.28009834,47.1428571 C1.91691283,47.1428571 0,49.701082 0,52.8571429" id="Fill-13"></path>
                <path d="M42.7941176,95 C42.7941176,97.7615533 44.7110305,100 47.074216,100 C49.4374015,100 51.3529412,97.7615533 51.3529412,95 C51.3529412,92.2368421 49.4374015,90 47.074216,90 C44.7110305,90 42.7941176,92.2368421 42.7941176,95" id="Fill-15"></path>
            </g>
        </g>
    </g>
</svg>