<?xml version="1.0" encoding="UTF-8" standalone="no"?>
<svg width="137px" height="125px" viewBox="0 0 137 125" version="1.1" xmlns="http://www.w3.org/2000/svg" xmlns:xlink="http://www.w3.org/1999/xlink">
    <!-- Generator: Sketch 46.2 (44496) - http://www.bohemiancoding.com/sketch -->
    <title>Group</title>
    <desc>Created with Sketch.</desc>
    <defs></defs>
    <g id="Page-1" stroke="none" stroke-width="1" fill="none" fill-rule="evenodd">
        <g id="Group" fill="#FFFFFF">
            <g id="logo-big" transform="translate(40.000000, 0.000000)">
                <path d="M31.1367,22.1834 C25.8797,22.1834 21.2987,17.6024 13.0057,9.3084 L11.2127,7.5164 C10.3777,6.6804 10.3777,5.3274 11.2137,4.4924 C12.0497,3.6564 13.4027,3.6574 14.2377,4.4924 L16.0297,6.2844 C23.6607,13.9144 27.8077,17.9064 31.1407,17.9064 L31.1667,17.9064 C34.5207,17.8844 38.7287,13.8324 46.4917,6.0694 L48.3897,4.1704 C49.2257,3.3354 50.5797,3.3354 51.4147,4.1714 C52.2497,5.0064 52.2497,6.3614 51.4147,7.1964 L49.5167,9.0934 C41.0977,17.5124 36.4597,22.1504 31.1937,22.1834 L31.1367,22.1834 Z" id="Fill-1"></path>
                <path d="M12.7256,59.9978 C12.1786,59.9978 11.6306,59.7888 11.2136,59.3708 C10.3776,58.5358 10.3776,57.1818 11.2136,56.3468 L13.1116,54.4478 C21.5306,46.0298 26.1676,41.3928 31.4336,41.3588 C31.4336,41.3588 31.4726,41.3578 31.4906,41.3578 C36.7476,41.3578 41.3296,45.9398 49.6216,54.2338 L51.4146,56.0248 C52.2496,56.8598 52.2496,58.2148 51.4146,59.0498 C50.5796,59.8858 49.2256,59.8858 48.3906,59.0508 L46.5986,57.2588 C38.9666,49.6278 34.8196,45.6358 31.4876,45.6358 L31.4696,45.6358 C28.1066,45.6568 23.8996,49.7098 16.1356,57.4738 L14.2376,59.3708 C13.8206,59.7888 13.2726,59.9978 12.7256,59.9978" id="Fill-3"></path>
                <path d="M57.4014,52.4978 C56.8544,52.4978 56.3064,52.2888 55.8894,51.8718 L53.9914,49.9738 C45.5724,41.5548 40.9344,36.9178 40.9014,31.6508 C40.8684,26.3708 45.4534,21.7858 53.7764,13.4628 L55.5684,11.6708 C56.4034,10.8348 57.7574,10.8348 58.5924,11.6698 C59.4284,12.5048 59.4284,13.8588 58.5934,14.6948 L56.8004,16.4868 C49.1494,24.1388 45.1574,28.2868 45.1794,31.6238 C45.1994,34.9778 49.2524,39.1848 57.0154,46.9488 L58.9134,48.8478 C59.7494,49.6828 59.7494,51.0368 58.9134,51.8718 C58.4964,52.2888 57.9484,52.4978 57.4014,52.4978" id="Fill-5"></path>
                <path d="M5.5469,52.4978 C4.9989,52.4978 4.4519,52.2888 4.0339,51.8718 C3.1989,51.0358 3.1989,49.6828 4.0349,48.8478 L5.8269,47.0558 C13.4779,39.4038 17.4699,35.2558 17.4489,31.9178 C17.4279,28.5638 13.3759,24.3558 5.6119,16.5938 L3.7139,14.6948 C2.8789,13.8588 2.8789,12.5058 3.7139,11.6698 C4.5489,10.8348 5.9029,10.8348 6.7389,11.6708 L8.6359,13.5678 C17.0549,21.9868 21.6929,26.6248 21.7259,31.8918 C21.7599,37.1718 17.1749,41.7568 8.8509,50.0798 L7.0589,51.8718 C6.6409,52.2898 6.0939,52.4978 5.5469,52.4978" id="Fill-7"></path>
                <path d="M62.6269,31.3504 C62.6269,29.6294 61.2309,28.2344 59.5099,28.2344 C57.7889,28.2344 56.3939,29.6294 56.3939,31.3504 C56.3939,33.0724 57.7889,34.4674 59.5099,34.4674 C61.2309,34.4674 62.6269,33.0724 62.6269,31.3504" id="Fill-9"></path>
                <path d="M34.4302,3.117 C34.4302,1.395 33.0352,0 31.3142,0 C29.5932,0 28.1972,1.395 28.1972,3.117 C28.1972,4.838 29.5932,6.233 31.3142,6.233 C33.0352,6.233 34.4302,4.838 34.4302,3.117" id="Fill-11"></path>
                <path d="M0,32.6492 C0,34.3712 1.396,35.7652 3.117,35.7652 C4.838,35.7652 6.233,34.3712 6.233,32.6492 C6.233,30.9282 4.838,29.5332 3.117,29.5332 C1.396,29.5332 0,30.9282 0,32.6492" id="Fill-13"></path>
                <path d="M28.1963,60.8836 C28.1963,62.6046 29.5923,63.9996 31.3133,63.9996 C33.0343,63.9996 34.4293,62.6046 34.4293,60.8836 C34.4293,59.1616 33.0343,57.7676 31.3133,57.7676 C29.5923,57.7676 28.1963,59.1616 28.1963,60.8836" id="Fill-15"></path>
            </g>
            <path d="M10.112,102.816 C11.4986736,102.816 12.7679942,103.045331 13.92,103.504 C15.0720058,103.962669 16.0639958,104.639996 16.896,105.536 C18.6453421,107.413343 19.52,110.101316 19.52,113.6 C19.52,117.120018 18.6453421,119.83999 16.896,121.76 C15.2319917,123.552009 12.9600144,124.448 10.08,124.448 C7.22131904,124.448 4.96000832,123.530676 3.296,121.696 C1.54665792,119.797324 0.672,117.098684 0.672,113.6 C0.672,110.058649 1.54665792,107.349343 3.296,105.472 C4.93867488,103.701324 7.21065216,102.816 10.112,102.816 Z M14.128,108.144 C13.135995,106.853327 11.7973418,106.208 10.112,106.208 C8.42665824,106.208 7.08267168,106.853327 6.08,108.144 C5.07732832,109.434673 4.576,111.269321 4.576,113.648 C4.576,116.026679 5.07732832,117.85066 6.08,119.12 C7.08267168,120.38934 8.42665824,121.024 10.112,121.024 C11.7973418,121.024 13.135995,120.38934 14.128,119.12 C15.120005,117.85066 15.616,116.026679 15.616,113.648 C15.616,111.269321 15.120005,109.434673 14.128,108.144 Z M44.024,124 L39.288,124 L33.816,116.64 L28.952,124 L24.344,124 L31.672,113.664 L24.312,103.232 L28.952,103.232 L34.2,110.72 L38.744,103.232 L43.32,103.232 L36.312,113.6 L44.024,124 Z M53.136,103.232 L57.712,111.52 L62.512,103.232 L66.96,103.232 L59.568,115.424 L59.568,124 L55.792,124 L55.792,115.424 L48.656,103.232 L53.136,103.232 Z M86.184,120.704 C85.2879955,123.200012 83.5706794,124.448 81.032,124.448 C78.4293203,124.448 76.2853418,123.466676 74.6,121.504 C72.8506579,119.477323 71.976,116.885349 71.976,113.728 C71.976,110.399983 72.9146573,107.733343 74.792,105.728 C76.6053424,103.786657 78.941319,102.816 81.8,102.816 C83.741343,102.816 85.3679934,103.237329 86.68,104.08 C87.9920066,104.922671 89.0213296,106.250658 89.768,108.064 L85.896,108.96 C84.7653277,107.146658 83.3360086,106.24 81.608,106.24 C80.0293254,106.24 78.7173386,106.911993 77.672,108.256 C76.5839946,109.62134 76.04,111.445322 76.04,113.728 C76.04,115.882677 76.5306618,117.631993 77.512,118.976 C78.4720048,120.298673 79.751992,120.96 81.352,120.96 C82.7173402,120.96 83.837329,120.522671 84.712,119.648 C85.6080045,118.751996 86.056,117.525341 86.056,115.968 L86.056,115.84 L81.384,115.744 L81.384,113.312 L89.672,113.312 L89.672,124 L86.6,124 L86.184,120.704 Z M98.08,103.232 L111.456,103.232 L111.456,106.496 L101.856,106.496 L101.856,111.968 L110.848,111.968 L110.848,115.232 L101.856,115.232 L101.856,120.704 L111.456,120.704 L111.456,124 L98.08,124 L98.08,103.232 Z M123.928,103.232 L133.08,117.952 L133.08,103.232 L136.856,103.232 L136.856,124 L133.016,124 L123.576,108.768 L123.576,124 L119.8,124 L119.8,103.232 L123.928,103.232 Z" id="OXYGEN"></path>
        </g>
    </g>
</svg>