<?xml version="1.0" encoding="UTF-8"?>
<svg width="48px" height="48px" viewBox="0 0 48 48" version="1.1" xmlns="http://www.w3.org/2000/svg" xmlns:xlink="http://www.w3.org/1999/xlink">
    <!-- Generator: Sketch 46.2 (44496) - http://www.bohemiancoding.com/sketch -->
    <title>logo-full</title>
    <desc>Created with Sketch.</desc>
    <defs></defs>
    <g id="Oxygen" stroke="none" stroke-width="1" fill="none" fill-rule="evenodd">
        <g transform="translate(-696.000000, -9244.000000)" id="token">
            <g transform="translate(696.000000, 9244.000000)">
                <g id="logo-full">
                    <path d="M48.0004,23.9998 C48.0004,37.2548 37.2554,47.9998 24.0004,47.9998 C10.7454,47.9998 0.0004,37.2548 0.0004,23.9998 C0.0004,10.7448 10.7454,-0.0002 24.0004,-0.0002 C37.2554,-0.0002 48.0004,10.7448 48.0004,23.9998" id="Fill-1" fill="#FFFFFF"></path>
                    <g id="logo" transform="translate(8.000000, 7.000000)" fill="#000000">
                        <path d="M15.9096,11.9842 C13.2236,11.9842 10.8836,9.6432 6.6446,5.4052 L5.7296,4.4902 C5.3036,4.0622 5.3036,3.3712 5.7296,2.9442 C6.1566,2.5172 6.8476,2.5172 7.2746,2.9442 L8.1906,3.8602 C12.0896,7.7592 14.2086,9.7982 15.9116,9.7982 L15.9256,9.7982 C17.6386,9.7882 19.7886,7.7162 23.7566,3.7502 L24.7256,2.7802 C25.1526,2.3532 25.8446,2.3532 26.2706,2.7812 C26.6976,3.2082 26.6976,3.8992 26.2706,4.3262 L25.3016,5.2962 C20.9996,9.5972 18.6296,11.9662 15.9386,11.9842 L15.9096,11.9842 Z" id="Fill-4"></path>
                        <path d="M6.5023,31.3055 C6.2233,31.3055 5.9423,31.1995 5.7303,30.9855 C5.3033,30.5585 5.3033,29.8675 5.7303,29.4405 L6.6993,28.4705 C11.0013,24.1685 13.3703,21.7985 16.0623,21.7825 L16.0903,21.7825 C18.7763,21.7825 21.1173,24.1225 25.3553,28.3605 L26.2713,29.2765 C26.6973,29.7025 26.6973,30.3945 26.2713,30.8215 C25.8443,31.2485 25.1523,31.2485 24.7263,30.8225 L23.8103,29.9065 C19.9103,26.0065 17.7913,23.9675 16.0883,23.9675 L16.0793,23.9675 C14.3613,23.9785 12.2113,26.0485 8.2443,30.0155 L7.2743,30.9855 C7.0623,31.1995 6.7813,31.3055 6.5023,31.3055" id="Fill-6"></path>
                        <path d="M29.3305,27.4734 C29.0505,27.4734 28.7705,27.3674 28.5575,27.1544 L27.5875,26.1844 C23.2855,21.8824 20.9165,19.5124 20.8985,16.8224 C20.8825,14.1234 23.2255,11.7814 27.4775,7.5284 L28.3935,6.6124 C28.8195,6.1854 29.5125,6.1854 29.9385,6.6124 C30.3655,7.0384 30.3655,7.7304 29.9385,8.1584 L29.0225,9.0734 C25.1135,12.9834 23.0735,15.1024 23.0845,16.8084 C23.0955,18.5224 25.1665,20.6714 29.1335,24.6384 L30.1025,25.6084 C30.5295,26.0354 30.5295,26.7274 30.1025,27.1544 C29.8895,27.3674 29.6095,27.4734 29.3305,27.4734" id="Fill-8"></path>
                        <path d="M2.8344,27.4734 C2.5544,27.4734 2.2744,27.3674 2.0614,27.1544 C1.6354,26.7264 1.6354,26.0354 2.0624,25.6084 L2.9774,24.6924 C6.8874,20.7834 8.9264,18.6634 8.9154,16.9574 C8.9044,15.2444 6.8344,13.0944 2.8674,9.1274 L1.8974,8.1584 C1.4714,7.7314 1.4714,7.0384 1.8974,6.6124 C2.3244,6.1854 3.0164,6.1854 3.4424,6.6124 L4.4124,7.5814 C8.7144,11.8834 11.0844,14.2534 11.1014,16.9444 C11.1184,19.6424 8.7754,21.9854 4.5224,26.2384 L3.6064,27.1544 C3.3934,27.3674 3.1134,27.4734 2.8344,27.4734" id="Fill-10"></path>
                        <path d="M32.0004,16.6678 C32.0004,15.7888 31.2874,15.0758 30.4074,15.0758 C29.5274,15.0758 28.8144,15.7888 28.8144,16.6678 C28.8144,17.5478 29.5274,18.2608 30.4074,18.2608 C31.2874,18.2608 32.0004,17.5478 32.0004,16.6678" id="Fill-12"></path>
                        <path d="M17.5932,2.242 C17.5932,1.362 16.8792,0.649 16.0002,0.649 C15.1202,0.649 14.4072,1.362 14.4072,2.242 C14.4072,3.121 15.1202,3.834 16.0002,3.834 C16.8792,3.834 17.5932,3.121 17.5932,2.242" id="Fill-14"></path>
                        <path d="M0.0004,17.3318 C0.0004,18.2108 0.7134,18.9248 1.5924,18.9248 C2.4724,18.9248 3.1854,18.2108 3.1854,17.3318 C3.1854,16.4518 2.4724,15.7388 1.5924,15.7388 C0.7134,15.7388 0.0004,16.4518 0.0004,17.3318" id="Fill-16"></path>
                        <path d="M14.4076,31.7586 C14.4076,32.6376 15.1206,33.3506 15.9996,33.3506 C16.8796,33.3506 17.5926,32.6376 17.5926,31.7586 C17.5926,30.8786 16.8796,30.1656 15.9996,30.1656 C15.1206,30.1656 14.4076,30.8786 14.4076,31.7586" id="Fill-18"></path>
                    </g>
                </g>
            </g>
        </g>
    </g>
</svg>