<?xml version="1.0" encoding="UTF-8" standalone="no"?>
<svg width="136px" height="31px" viewBox="0 0 136 31" version="1.1" xmlns="http://www.w3.org/2000/svg" xmlns:xlink="http://www.w3.org/1999/xlink">
    <!-- Generator: Sketch 47 (45396) - http://www.bohemiancoding.com/sketch -->
    <title>Group 3</title>
    <desc>Created with Sketch.</desc>
    <defs></defs>
    <g id="Page-1" stroke="none" stroke-width="1" fill="none" fill-rule="evenodd">
        <g id="landing-copy" transform="translate(-135.000000, -13.000000)" fill="#FFFFFF">
            <g id="Group-3" transform="translate(135.000000, 13.000000)">
                <g id="logo-big-copy">
                    <path d="M14.9145748,11 C12.3782924,11 10.1681518,8.78803995 6.16712654,4.78323823 L5.30207912,3.91796157 C4.89922659,3.51429455 4.89922659,2.86099135 5.30256158,2.45780719 C5.70589657,2.05414018 6.35866241,2.05462303 6.76151494,2.45780719 L7.6260799,3.32308386 C11.3077178,7.00726967 13.3084717,8.93482796 14.9165046,8.93482796 L14.9290485,8.93482796 C16.5472131,8.92420514 18.5773968,6.96767553 22.3227193,3.21926997 L23.2384248,2.30232779 C23.6417598,1.89914363 24.2950081,1.89914363 24.6978606,2.30281065 C25.1007131,2.70599481 25.1007131,3.36026372 24.6978606,3.76344788 L23.7821551,4.67942435 C19.7203401,8.74458297 17.4826994,10.9840658 14.9420749,11 L14.9145748,11 Z" id="Fill-1"></path>
                    <path d="M6.03198104,29 C5.76807565,29 5.5036878,28.899088 5.30250216,28.6972639 C4.89916595,28.2940987 4.89916595,27.6403433 5.30250216,27.2371781 L6.21821044,26.320279 C10.2800376,22.255794 12.5172027,20.0168991 15.0578348,20.0004828 C15.0578348,20.0004828 15.0766508,20 15.085335,20 C17.621625,20 19.8322548,22.2123391 23.8328097,26.2169528 L24.6978597,27.081706 C25.1007134,27.4848712 25.1007134,28.1391094 24.6978597,28.5422747 C24.2950059,28.9459227 23.6417557,28.9459227 23.2389019,28.5427575 L22.3743344,27.6775215 C18.6922029,23.9930258 16.691443,22.0655579 15.0838877,22.0655579 L15.0752034,22.0655579 C13.4526918,22.0756974 11.4229844,24.032618 7.6771682,27.7813305 L6.76145992,28.6972639 C6.56027428,28.899088 6.29588643,29 6.03198104,29" id="Fill-3"></path>
                    <path d="M26.9671754,26 C26.7030543,26 26.4384504,25.8991656 26.2371003,25.6979794 L25.3206435,24.7822684 C21.2554962,20.7204289 19.0160196,18.4832571 19.0000854,15.9421348 C18.9841512,13.3947406 21.1980366,11.1826568 25.2168299,7.16713357 L26.0821042,6.3025634 C26.4852872,5.89922598 27.1390714,5.89922598 27.5422545,6.30208094 C27.9459204,6.7049359 27.9459204,7.35818814 27.5427373,7.76152557 L26.6769802,8.62609574 C22.9826647,12.3178876 21.0551118,14.3191359 21.0657346,15.9291084 C21.0753917,17.5472827 23.0323987,19.5769963 26.7807938,23.3228237 L27.6972506,24.2390172 C28.1009165,24.6418722 28.1009165,25.2951244 27.6972506,25.6979794 C27.4959005,25.8991656 27.2312965,26 26.9671754,26" id="Fill-5"></path>
                    <path d="M2.18750564,26 C1.92289119,26 1.65875961,25.8991656 1.45691866,25.6979794 C1.05371963,25.294642 1.05371963,24.6418722 1.45740153,24.2390172 L2.32271011,23.3744471 C6.01717211,19.6826552 7.94480148,17.6814069 7.93466114,16.0709519 C7.92452081,14.4527776 5.96791905,12.4225816 2.21889239,8.67771907 L1.30239927,7.76152557 C0.899200243,7.35818814 0.899200243,6.70541837 1.30239927,6.30208094 C1.7055983,5.89922598 2.35940846,5.89922598 2.76309036,6.3025634 L3.67910061,7.21779198 C7.74440915,11.2796314 9.98397453,13.5172857 9.99990934,16.058408 C10.016327,18.6058022 7.80235392,20.817886 3.78291833,24.8334092 L2.91760975,25.6979794 C2.7157688,25.8996481 2.45163722,26 2.18750564,26" id="Fill-7"></path>
                    <path d="M30,15.9996791 C30,14.895235 29.3280924,14 28.4997593,14 C27.6714263,14 27,14.895235 27,15.9996791 C27,17.104765 27.6714263,18 28.4997593,18 C29.3280924,18 30,17.104765 30,15.9996791" id="Fill-9"></path>
                    <path d="M16,2.00032087 C16,0.895235039 15.3285737,0 14.5002407,0 C13.6719076,0 13,0.895235039 13,2.00032087 C13,3.10476496 13.6719076,4 14.5002407,4 C15.3285737,4 16,3.10476496 16,2.00032087" id="Fill-11"></path>
                    <path d="M0,17 C0,18.1052632 0.671907589,19 1.50024065,19 C2.32857372,19 3,18.1052632 3,17 C3,15.8953787 2.32857372,15 1.50024065,15 C0.671907589,15 0,15.8953787 0,17" id="Fill-13"></path>
                    <path d="M13,29.5 C13,30.328466 13.6719076,31 14.5002407,31 C15.3285737,31 16,30.328466 16,29.5 C16,28.6710526 15.3285737,28 14.5002407,28 C13.6719076,28 13,28.6710526 13,29.5" id="Fill-15"></path>
                </g>
                <path d="M52.84,8.76 C53.706671,8.76 54.4999964,8.9033319 55.22,9.19 C55.9400036,9.4766681 56.5599974,9.8999972 57.08,10.46 C58.1733388,11.6333392 58.72,13.3133224 58.72,15.5 C58.72,17.700011 58.1733388,19.399994 57.08,20.6 C56.0399948,21.7200056 54.620009,22.28 52.82,22.28 C51.0333244,22.28 49.6200052,21.7066724 48.58,20.56 C47.4866612,19.3733274 46.94,17.6866776 46.94,15.5 C46.94,13.2866556 47.4866612,11.5933392 48.58,10.42 C49.6066718,9.3133278 51.0266576,8.76 52.84,8.76 Z M55.35,12.09 C54.7299969,11.2833293 53.8933386,10.88 52.84,10.88 C51.7866614,10.88 50.9466698,11.2833293 50.32,12.09 C49.6933302,12.8966707 49.38,14.0433259 49.38,15.53 C49.38,17.0166741 49.6933302,18.1566627 50.32,18.95 C50.9466698,19.7433373 51.7866614,20.14 52.84,20.14 C53.8933386,20.14 54.7299969,19.7433373 55.35,18.95 C55.9700031,18.1566627 56.28,17.0166741 56.28,15.53 C56.28,14.0433259 55.9700031,12.8966707 55.35,12.09 Z M74.66,22 L71.7,22 L68.28,17.4 L65.24,22 L62.36,22 L66.94,15.54 L62.34,9.02 L65.24,9.02 L68.52,13.7 L71.36,9.02 L74.22,9.02 L69.84,15.5 L74.66,22 Z M80.98,9.02 L83.84,14.2 L86.84,9.02 L89.62,9.02 L85,16.64 L85,22 L82.64,22 L82.64,16.64 L78.18,9.02 L80.98,9.02 Z M102.26,19.94 C101.699997,21.5000078 100.626675,22.28 99.04,22.28 C97.4133252,22.28 96.0733386,21.6666728 95.02,20.44 C93.9266612,19.173327 93.38,17.5533432 93.38,15.58 C93.38,13.4999896 93.9666608,11.8333396 95.14,10.58 C96.273339,9.3666606 97.7333244,8.76 99.52,8.76 C100.733339,8.76 101.749996,9.0233307 102.57,9.55 C103.390004,10.0766693 104.033331,10.906661 104.5,12.04 L102.08,12.6 C101.37333,11.466661 100.480005,10.9 99.4,10.9 C98.4133284,10.9 97.5933366,11.3199958 96.94,12.16 C96.2599966,13.0133376 95.92,14.1533262 95.92,15.58 C95.92,16.9266734 96.2266636,18.0199958 96.84,18.86 C97.440003,19.6866708 98.239995,20.1 99.24,20.1 C100.093338,20.1 100.793331,19.8266694 101.34,19.28 C101.900003,18.7199972 102.18,17.9533382 102.18,16.98 L102.18,16.9 L99.26,16.84 L99.26,15.32 L104.44,15.32 L104.44,22 L102.52,22 L102.26,19.94 Z M110.32,9.02 L118.68,9.02 L118.68,11.06 L112.68,11.06 L112.68,14.48 L118.3,14.48 L118.3,16.52 L112.68,16.52 L112.68,19.94 L118.68,19.94 L118.68,22 L110.32,22 L110.32,9.02 Z M127.1,9.02 L132.82,18.22 L132.82,9.02 L135.18,9.02 L135.18,22 L132.78,22 L126.88,12.48 L126.88,22 L124.52,22 L124.52,9.02 L127.1,9.02 Z" id="OXYGEN"></path>
            </g>
        </g>
    </g>
</svg>