<?xml version="1.0" encoding="UTF-8" standalone="no"?>
<svg width="95px" height="21px" viewBox="0 0 95 21" version="1.1" xmlns="http://www.w3.org/2000/svg" xmlns:xlink="http://www.w3.org/1999/xlink">
    <!-- Generator: Sketch 46.2 (44496) - http://www.bohemiancoding.com/sketch -->
    <title>Group</title>
    <desc>Created with Sketch.</desc>
    <defs>
        <polygon id="path-1" points="2.833 2.0588 2.833 0.0848 0.8591 0.0848 0.8591 2.0588 2.833 2.0588"></polygon>
    </defs>
    <g id="Page-1" stroke="none" stroke-width="1" fill="none" fill-rule="evenodd">
        <g id="Group">
            <g id="logo">
                <path d="M9.9727,7.0252 C11.6367,7.0252 13.0877,5.5742 15.7137,2.9482 L16.2827,2.3802 C16.5457,2.1162 16.5457,1.6872 16.2817,1.4222 C16.0167,1.1582 15.5877,1.1582 15.3247,1.4222 L14.7567,1.9902 C12.3397,4.4072 11.0267,5.6712 9.9707,5.6712 L9.9627,5.6712 C8.9007,5.6642 7.5687,4.3802 5.1097,1.9212 L4.5087,1.3212 C4.2437,1.0562 3.8157,1.0562 3.5507,1.3212 C3.2857,1.5862 3.2857,2.0142 3.5507,2.2792 L4.1517,2.8792 C6.8177,5.5462 8.2857,7.0142 9.9537,7.0252 L9.9727,7.0252 Z" id="Fill-1" fill="#FFFFFF"></path>
                <path d="M9.9727,7.0252 C11.6367,7.0252 13.0877,5.5742 15.7137,2.9482 L16.2827,2.3802 C16.5457,2.1162 16.5457,1.6872 16.2817,1.4222 C16.0167,1.1582 15.5877,1.1582 15.3247,1.4222 L14.7567,1.9902 C12.3397,4.4072 11.0267,5.6712 9.9707,5.6712 L9.9627,5.6712 C8.9007,5.6642 7.5687,4.3802 5.1097,1.9212 L4.5087,1.3212 C4.2437,1.0562 3.8157,1.0562 3.5507,1.3212 C3.2857,1.5862 3.2857,2.0142 3.5507,2.2792 L4.1517,2.8792 C6.8177,5.5462 8.2857,7.0142 9.9537,7.0252 L9.9727,7.0252 Z" id="Stroke-3" stroke="#2828F3" stroke-width="0.1"></path>
                <path d="M15.8028,18.9998 C15.9768,18.9998 16.1498,18.9348 16.2818,18.8018 C16.5458,18.5378 16.5458,18.1078 16.2818,17.8448 L15.6808,17.2428 C13.0148,14.5768 11.5458,13.1078 9.8778,13.0978 L9.8608,13.0978 C8.1958,13.0978 6.7438,14.5488 4.1178,17.1748 L3.5508,17.7418 C3.2858,18.0068 3.2858,18.4358 3.5508,18.6998 C3.8158,18.9648 4.2438,18.9648 4.5088,18.6998 L5.0758,18.1328 C7.4918,15.7168 8.8058,14.4518 9.8618,14.4518 L9.8668,14.4518 C10.9318,14.4588 12.2648,15.7418 14.7228,18.2008 L15.3238,18.8018 C15.4558,18.9348 15.6298,18.9998 15.8028,18.9998" id="Fill-5" fill="#FFFFFF"></path>
                <path d="M15.8028,18.9998 C15.9768,18.9998 16.1498,18.9348 16.2818,18.8018 C16.5458,18.5378 16.5458,18.1078 16.2818,17.8448 L15.6808,17.2428 C13.0148,14.5768 11.5458,13.1078 9.8778,13.0978 L9.8608,13.0978 C8.1958,13.0978 6.7438,14.5488 4.1178,17.1748 L3.5508,17.7418 C3.2858,18.0068 3.2858,18.4358 3.5508,18.6998 C3.8158,18.9648 4.2438,18.9648 4.5088,18.6998 L5.0758,18.1328 C7.4918,15.7168 8.8058,14.4518 9.8618,14.4518 L9.8668,14.4518 C10.9318,14.4588 12.2648,15.7418 14.7228,18.2008 L15.3238,18.8018 C15.4558,18.9348 15.6298,18.9998 15.8028,18.9998 Z" id="Stroke-7" stroke="#2828F3" stroke-width="0.1"></path>
                <path d="M1.6544,16.6258 C1.8284,16.6258 2.0014,16.5598 2.1334,16.4268 L2.7344,15.8258 C5.4004,13.1598 6.8694,11.6908 6.8804,10.0228 C6.8904,8.3518 5.4384,6.8988 2.8024,4.2638 L2.2354,3.6958 C1.9704,3.4318 1.5424,3.4318 1.2774,3.6958 C1.0124,3.9598 1.0124,4.3898 1.2774,4.6528 L1.8444,5.2218 C4.2674,7.6448 5.5324,8.9578 5.5254,10.0148 C5.5184,11.0768 4.2354,12.4098 1.7774,14.8678 L1.1754,15.4698 C0.9114,15.7328 0.9114,16.1628 1.1754,16.4268 C1.3074,16.5598 1.4814,16.6258 1.6544,16.6258" id="Fill-9" fill="#FFFFFF"></path>
                <path d="M1.6544,16.6258 C1.8284,16.6258 2.0014,16.5598 2.1334,16.4268 L2.7344,15.8258 C5.4004,13.1598 6.8694,11.6908 6.8804,10.0228 C6.8904,8.3518 5.4384,6.8988 2.8024,4.2638 L2.2354,3.6958 C1.9704,3.4318 1.5424,3.4318 1.2774,3.6958 C1.0124,3.9598 1.0124,4.3898 1.2774,4.6528 L1.8444,5.2218 C4.2674,7.6448 5.5324,8.9578 5.5254,10.0148 C5.5184,11.0768 4.2354,12.4098 1.7774,14.8678 L1.1754,15.4698 C0.9114,15.7328 0.9114,16.1628 1.1754,16.4268 C1.3074,16.5598 1.4814,16.6258 1.6544,16.6258 Z" id="Stroke-11" stroke="#2828F3" stroke-width="0.1"></path>
                <path d="M18.0763,16.6258 C18.2503,16.6258 18.4233,16.5598 18.5553,16.4268 C18.8193,16.1618 18.8193,15.7328 18.5553,15.4698 L17.9873,14.9008 C15.5643,12.4788 14.3003,11.1648 14.3063,10.1078 C14.3133,9.0458 15.5973,7.7138 18.0553,5.2548 L18.6573,4.6528 C18.9213,4.3898 18.9213,3.9598 18.6563,3.6958 C18.3923,3.4318 17.9643,3.4318 17.6993,3.6958 L17.0973,4.2968 C14.4313,6.9628 12.9633,8.4318 12.9523,10.0998 C12.9413,11.7718 14.3933,13.2238 17.0293,15.8588 L17.5973,16.4278 C17.7293,16.5598 17.9033,16.6258 18.0763,16.6258" id="Fill-13" fill="#FFFFFF"></path>
                <path d="M18.0763,16.6258 C18.2503,16.6258 18.4233,16.5598 18.5553,16.4268 C18.8193,16.1618 18.8193,15.7328 18.5553,15.4698 L17.9873,14.9008 C15.5643,12.4788 14.3003,11.1648 14.3063,10.1078 C14.3133,9.0458 15.5973,7.7138 18.0553,5.2548 L18.6573,4.6528 C18.9213,4.3898 18.9213,3.9598 18.6563,3.6958 C18.3923,3.4318 17.9643,3.4318 17.6993,3.6958 L17.0973,4.2968 C14.4313,6.9628 12.9633,8.4318 12.9523,10.0998 C12.9413,11.7718 14.3933,13.2238 17.0293,15.8588 L17.5973,16.4278 C17.7293,16.5598 17.9033,16.6258 18.0763,16.6258 Z" id="Stroke-15" stroke="#2828F3" stroke-width="0.1"></path>
                <path d="M0.0001,9.9285 C0.0001,9.3835 0.4411,8.9415 0.9871,8.9415 C1.5321,8.9415 1.9741,9.3835 1.9741,9.9285 C1.9741,10.4735 1.5321,10.9145 0.9871,10.9145 C0.4411,10.9145 0.0001,10.4735 0.0001,9.9285" id="Fill-17" fill="#FFFFFF"></path>
                <path d="M8.9298,0.9871 C8.9298,0.4421 9.3708,0.0001 9.9158,0.0001 C10.4608,0.0001 10.9038,0.4421 10.9038,0.9871 C10.9038,1.5321 10.4608,1.9741 9.9158,1.9741 C9.3708,1.9741 8.9298,1.5321 8.9298,0.9871" id="Fill-19" fill="#FFFFFF"></path>
                <g id="Group-23" transform="translate(17.000000, 9.267800)">
                    <mask id="mask-2" fill="white">
                        <use xlink:href="#path-1"></use>
                    </mask>
                    <g id="Clip-22"></g>
                    <path d="M2.8331,1.0718 C2.8331,1.6168 2.3911,2.0588 1.8461,2.0588 C1.3011,2.0588 0.8591,1.6168 0.8591,1.0718 C0.8591,0.5268 1.3011,0.0848 1.8461,0.0848 C2.3911,0.0848 2.8331,0.5268 2.8331,1.0718" id="Fill-21" fill="#FFFFFF" mask="url(#mask-2)"></path>
                </g>
                <path d="M10.9034,19.281 C10.9034,19.826 10.4624,20.267 9.9174,20.267 C9.3714,20.267 8.9294,19.826 8.9294,19.281 C8.9294,18.736 9.3714,18.294 9.9174,18.294 C10.4624,18.294 10.9034,18.736 10.9034,19.281" id="Fill-24" fill="#FFFFFF"></path>
            </g>
            <path d="M34.446,6.394 C35.0093362,6.394 35.5249977,6.48716574 35.993,6.6735 C36.4610023,6.85983427 36.8639983,7.13499818 37.202,7.499 C37.9126702,8.26167048 38.268,9.35365956 38.268,10.775 C38.268,12.2050072 37.9126702,13.3099961 37.202,14.09 C36.5259966,14.8180036 35.6030058,15.182 34.433,15.182 C33.2716609,15.182 32.3530034,14.8093371 31.677,14.064 C30.9663298,13.2926628 30.611,12.1963404 30.611,10.775 C30.611,9.33632614 30.9663298,8.23567048 31.677,7.473 C32.3443367,6.75366307 33.2673274,6.394 34.446,6.394 Z M36.0775,8.5585 C35.674498,8.03416405 35.1306701,7.772 34.446,7.772 C33.7613299,7.772 33.2153354,8.03416405 32.808,8.5585 C32.4006646,9.08283596 32.197,9.82816184 32.197,10.7945 C32.197,11.7608382 32.4006646,12.5018308 32.808,13.0175 C33.2153354,13.5331692 33.7613299,13.791 34.446,13.791 C35.1306701,13.791 35.674498,13.5331692 36.0775,13.0175 C36.480502,12.5018308 36.682,11.7608382 36.682,10.7945 C36.682,9.82816184 36.480502,9.08283596 36.0775,8.5585 Z M50.004,15 L48.08,15 L45.857,12.01 L43.881,15 L42.009,15 L44.986,10.801 L41.996,6.563 L43.881,6.563 L46.013,9.605 L47.859,6.563 L49.718,6.563 L46.871,10.775 L50.004,15 Z M55.487,6.563 L57.346,9.93 L59.296,6.563 L61.103,6.563 L58.1,11.516 L58.1,15 L56.566,15 L56.566,11.516 L53.667,6.563 L55.487,6.563 Z M70.694,13.661 C70.3299982,14.6750051 69.6323385,15.182 68.601,15.182 C67.5436614,15.182 66.6726701,14.7833373 65.988,13.986 C65.2773298,13.1626625 64.922,12.1096731 64.922,10.827 C64.922,9.47499324 65.3033295,8.39167074 66.066,7.577 C66.8026703,6.78832939 67.7516609,6.394 68.913,6.394 C69.7016706,6.394 70.3624973,6.56516496 70.8955,6.9075 C71.4285027,7.24983504 71.8466651,7.78932965 72.15,8.526 L70.577,8.89 C70.1176644,8.15332965 69.5370035,7.785 68.835,7.785 C68.1936635,7.785 67.6606688,8.05799727 67.236,8.604 C66.7939978,9.15866944 66.573,9.89966203 66.573,10.827 C66.573,11.7023377 66.7723313,12.4129973 67.171,12.959 C67.5610019,13.496336 68.0809967,13.765 68.731,13.765 C69.2856694,13.765 69.7406649,13.5873351 70.096,13.232 C70.4600018,12.8679982 70.642,12.3696698 70.642,11.737 L70.642,11.685 L68.744,11.646 L68.744,10.658 L72.111,10.658 L72.111,15 L70.863,15 L70.694,13.661 Z M77.308,6.563 L82.742,6.563 L82.742,7.889 L78.842,7.889 L78.842,10.112 L82.495,10.112 L82.495,11.438 L78.842,11.438 L78.842,13.661 L82.742,13.661 L82.742,15 L77.308,15 L77.308,6.563 Z M89.59,6.563 L93.308,12.543 L93.308,6.563 L94.842,6.563 L94.842,15 L93.282,15 L89.447,8.812 L89.447,15 L87.913,15 L87.913,6.563 L89.59,6.563 Z" id="OXYGEN" fill="#FFFFFF"></path>
        </g>
    </g>
</svg>