<?xml version="1.0" encoding="UTF-8" standalone="no"?>
<svg width="95px" height="59px" viewBox="0 0 95 59" version="1.1" xmlns="http://www.w3.org/2000/svg" xmlns:xlink="http://www.w3.org/1999/xlink">
    <!-- Generator: Sketch 47 (45396) - http://www.bohemiancoding.com/sketch -->
    <title>Group 16</title>
    <desc>Created with Sketch.</desc>
    <defs></defs>
    <g id="Page-1" stroke="none" stroke-width="1" fill="none" fill-rule="evenodd">
        <g id="landing" transform="translate(-850.000000, -816.000000)" fill="#FFFFFF">
            <g id="Group-6" transform="translate(818.000000, 768.000000)">
                <g id="Group-16" transform="translate(32.000000, 48.000000)">
                    <g id="logo-chan-white">
                        <path d="M86.1230514,55.2294459 C85.6529439,56.0753498 85.0622712,56.951717 84.1959513,57.5084419 C83.2197613,58.135806 81.9392412,57.9768679 81.4258664,56.9256688 C80.8935317,55.8356182 81.521638,54.5552833 82.2119715,53.652868 C83.361231,52.1500198 85.0661604,50.902797 86.8853352,50.1288567 C87.2951599,49.9549077 87.7171385,49.8118634 88.1454369,49.6842714 C87.6592866,51.5902044 87.0992413,53.4727381 86.1230514,55.2294459 M79.5828703,38.0177719 C80.2634808,35.6288436 81.3412762,33.5030463 83.1142667,31.6470022 C83.1196143,31.6412628 83.1230174,31.6372893 83.128365,31.6324329 C83.2289981,31.6849708 83.3456742,31.745897 83.3670649,31.7666473 C83.5532604,31.9467772 83.590694,32.128673 83.6091677,32.3679632 C83.655352,32.9573587 83.4132491,33.5935527 83.2178167,34.1458627 C82.2552389,36.8738589 80.7190037,39.6212809 78.8847583,42.0901197 C78.9382349,40.6499638 79.2459681,39.2009779 79.5828703,38.0177719 M83.0598178,31.5962303 C83.0243288,31.5997623 82.9937014,31.5874004 82.9766861,31.5467829 C82.9786307,31.5516393 83.0136335,31.5710651 83.0598178,31.5962303 M73.9376921,34.4513771 C74.2225762,33.6721388 74.5463523,32.8968739 74.9790262,32.174147 C75.1676525,31.8593612 75.3757249,31.536187 75.6387323,31.2664337 C75.6805412,31.2236087 75.7821466,31.1101446 75.8822936,31.0231701 C75.9241025,31.0783569 76.1316887,31.1326608 76.2532263,31.2085979 C77.1618414,31.7759187 76.7909087,32.6853979 76.5483196,33.5202646 C75.7160302,36.3837997 74.2279238,39.1705148 72.5137576,41.6857105 C72.527856,41.4812984 72.5438989,41.2768863 72.5618865,41.0733572 C72.7636389,38.8314468 73.1540177,36.5895363 73.9376921,34.4513771 M54.2204049,54.6091457 C53.6102862,55.9133213 52.7342432,57.3406739 51.3248933,58.0550124 C49.8926942,58.7812713 48.3418745,57.8528078 48.3593759,56.3989655 C48.3924342,53.6780332 51.9841132,51.9729804 54.2252664,50.7959553 C54.7050969,50.5438618 55.1897888,50.2997151 55.6739946,50.0546855 C55.2967419,51.5990343 54.9073354,53.1402926 54.2204049,54.6091457 M64.1923215,42.7329361 C65.2239326,41.938687 66.9186529,42.6433127 66.3031865,43.9280625 C65.975035,44.6132624 65.2394895,44.9373196 64.5433221,45.2472489 C63.993486,45.4913955 63.4441361,45.7364251 62.8947862,45.9827792 C62.6556002,44.8419567 63.259399,43.4512481 64.1923215,42.7329361 M54.0176802,43.5536749 C54.5436949,43.0971693 55.6866345,42.1793017 56.3507159,42.9603059 C56.6044864,43.2583149 56.4207215,43.630495 56.2413321,43.9161421 C55.5660692,44.9942724 54.1654699,45.7924949 53.0108628,46.3836565 C52.8494609,46.4657745 52.6822251,46.5496585 52.5096417,46.6317765 C52.119263,45.5501143 53.1776124,44.2821413 54.0176802,43.5536749 M32.4131573,46.3425974 C31.9970126,46.7381768 31.3766847,47.477239 30.8176117,46.8273587 C30.5779396,46.5487755 30.5234908,46.0891794 30.5497429,45.747904 C30.6207208,44.8406322 31.3178605,43.9867813 32.0743105,43.4362373 C33.0616819,42.7174838 34.0393303,42.7611918 34.9960743,43.5099669 C35.0169787,43.5267437 35.0432309,43.5395471 35.0719137,43.550143 C35.0578154,43.5589729 35.043717,43.5682442 35.0354524,43.5757497 C34.0937792,44.4454944 33.3392738,45.4609324 32.4131573,46.3425974 M94.7177039,47.352296 C94.397817,47.2551671 93.7779753,47.4926913 93.5096202,47.6463315 C92.4707169,48.2423495 91.2174212,48.4445541 90.0171159,48.6860517 C90.4964602,46.7752623 90.9373986,44.8410737 91.6870425,43.0154928 C91.8139277,42.7545694 91.9286592,42.492763 92.0297785,42.233164 C92.1474269,41.9302986 90.52174,42.1280883 90.3442951,42.5038003 C90.2115761,42.783708 90.0895523,43.0658232 89.9738485,43.3505873 C89.5100611,44.308631 88.9033454,45.2075144 88.1094618,45.9735078 C87.6194222,46.4459072 86.7098349,47.3598014 85.921299,47.354945 C85.1687382,47.3500885 84.9553181,46.552749 84.964555,46.0119178 C84.9898348,44.5960441 85.9514403,43.170016 86.7273363,42.0013793 C86.8532492,41.811095 85.3009711,41.8817342 85.0413668,42.2724571 C84.1745606,43.5814891 83.2518472,44.8931701 82.0889755,46.0048539 C81.7822146,46.298448 81.2513384,46.9006468 80.7841479,47.0255899 C80.8522089,46.9973342 80.5760755,46.9814404 80.4671778,46.9178651 C80.2104904,46.7664324 80.0242948,46.5695258 79.8638652,46.3328846 C79.3670195,45.6000032 79.0889415,44.7364394 78.9620563,43.8212208 C80.2095181,42.3351493 81.2955781,40.7267838 82.2853803,39.0998756 C83.4497104,37.1864372 84.6777263,35.1052308 85.1852673,32.9480873 C85.3029157,32.4491982 85.4614007,31.8280151 85.1157478,31.3816639 C84.6014007,30.7176557 83.5522881,30.8677639 82.8269518,31.0951337 C80.3699478,31.8637762 79.1234582,34.8262061 78.3708974,36.8442788 C77.5765277,38.9758156 76.9143908,41.690567 77.2571269,44.1170223 C76.9775904,44.4393134 76.695137,44.7558652 76.4083083,45.0627041 C75.8263863,45.6838872 75.2011969,46.3090438 74.4787774,46.7995445 C74.3193201,46.9077108 74.0606881,47.1072664 73.8637972,47.1633362 C73.9853348,47.1130058 73.5157135,46.9995417 73.3708407,46.8741572 C72.7213438,46.3125758 72.6027231,45.2463659 72.5239668,44.4878779 C72.4986869,44.2415238 72.4821578,43.9947282 72.4714625,43.7470496 C74.0329775,41.9351551 75.2755779,39.8565976 76.3125367,37.8460304 C77.0762789,36.3665814 77.7739047,34.8323871 78.233803,33.2496283 C78.4676413,32.4465493 78.8682292,31.4452391 78.0743457,30.8306784 C77.0612083,30.0461421 75.5594897,30.2889643 74.5575338,30.985643 C73.1209594,31.9847457 72.5059792,33.9162854 72.0130227,35.4125112 C71.2133053,37.837642 70.8370249,40.4486421 70.7616716,42.9744338 C70.7534071,43.2591979 70.7397949,43.6163672 70.7417395,44.0066486 C70.0800888,44.7695515 69.3596139,45.4887465 68.5608689,46.1364194 C67.3459791,47.1227187 65.7703657,48.241025 64.0960638,47.4635527 C63.6264425,47.2454543 63.3046109,46.9280195 63.1038308,46.5576054 C64.3124007,46.0490034 65.5695856,45.5629177 66.6731469,44.9178938 C67.5642606,44.3964885 68.7285907,43.2322667 67.843797,42.2653932 C67.0217168,41.3665098 65.2224742,41.686152 64.1889185,42.0256615 C62.2598738,42.658765 60.5184831,44.8017807 61.27785,46.7108041 C60.0974769,47.2454543 58.9214791,47.7876099 57.7527736,48.3412443 C57.9457753,47.5518516 58.1485,46.7637835 58.4309534,45.996907 C58.5588109,45.6498921 56.9438194,45.9629119 56.7449839,46.2679848 C55.9462388,47.4953403 54.3672223,48.5271136 52.9787769,47.2971092 C52.9194665,47.2445713 52.8679346,47.1911504 52.8188334,47.1368465 C53.6307045,46.806167 54.4124343,46.4136781 55.1474937,45.9765983 C56.1912586,45.3549736 57.8018748,44.4062013 58.1348878,43.2252028 C58.4980421,41.9342721 56.402734,41.9382455 55.5213433,42.1095455 C53.557782,42.4914385 51.2748198,44.098921 50.7954755,45.9333318 C50.6622703,46.4445827 50.7317898,46.888285 50.9379176,47.2586991 C50.2004274,47.482537 49.4347406,47.5982086 48.7030843,47.4820955 C46.9291215,47.2004218 47.9349667,45.748787 48.4147971,44.7845624 C48.8197603,43.969563 49.361818,42.657882 48.0307383,42.3395643 C46.940303,42.0786409 45.6583244,42.5143962 44.7341525,43.0234397 C44.0428467,43.4035667 43.4030728,43.8803811 42.8085109,44.4137067 C42.9203255,43.717911 42.8926149,43.0265302 42.6364137,42.3943096 C42.4847347,42.020805 41.1871994,42.4627413 41.0078099,42.657882 C40.4526261,43.2644958 39.993214,43.9280625 39.5182451,44.5872142 C39.0107041,45.2905154 38.4093361,46.2794637 37.5648929,46.6953518 C36.4905005,47.224704 36.123457,46.0410565 36.1749889,45.3236275 C36.2221455,44.6543214 36.5148081,44.0357872 36.6519025,43.3845824 C36.6742654,43.2786237 36.6042597,43.2260858 36.4841806,43.207543 C36.614955,43.1192441 36.67621,43.03536 36.605232,42.9792902 C34.1380188,41.0473091 29.302281,43.1532392 28.8686349,45.9523161 C28.5881261,47.7571467 30.3727841,48.0374959 31.898324,47.5341918 C32.9338244,47.1929164 33.7291664,46.5267008 34.4481828,45.7748352 C34.4389459,45.9554065 34.4476966,46.1368609 34.4841579,46.3187567 C34.7111901,47.4494249 35.893994,47.60748 36.9659556,47.432648 C39.0243163,47.096229 40.1006533,45.7562924 41.1444181,44.3435091 C41.0549665,45.6326738 40.3938019,46.973935 39.7545142,48.0242511 C39.6183921,48.2480889 41.1910886,48.115199 41.4404837,47.7531733 C42.0058766,46.931993 46.258234,41.5903476 47.1187202,43.3346935 C47.7594664,44.6344541 45.5552605,45.9642364 45.9645992,47.2931357 C46.3462272,48.534619 48.9427564,48.1717103 49.9165156,47.9959954 C50.3700939,47.9143189 50.8192969,47.8070356 51.262666,47.6798851 C51.776527,48.1862796 52.5961765,48.4772247 53.4459674,48.5019484 C54.4299357,48.5302041 55.3827905,48.3151961 56.221886,47.9094624 C56.0979177,48.3531647 55.9841585,48.7986329 55.8733162,49.2449841 C54.9146277,49.7156176 53.9617729,50.1964054 53.0171827,50.690438 C51.1824512,51.6515722 49.2466004,52.6303661 47.9057976,54.157055 C46.5834686,55.6629937 45.8382001,58.4483843 48.6661368,58.9300551 C51.0317446,59.3331398 53.4658995,57.9353674 54.7721856,56.2448838 C56.3730788,54.1716244 56.9671546,51.5544433 57.5622026,49.1218071 C58.8879347,48.4803152 60.2233898,47.856483 61.5637064,47.2428053 C62.9968777,49.3098839 66.7660017,48.1933436 68.5365613,47.1346391 C69.3669062,46.6383989 70.1306484,46.0582748 70.8394557,45.4207563 C71.0222482,46.6176487 71.5249277,47.7205026 72.8326723,47.7933493 C74.7189357,47.8988665 76.3514287,46.5743822 77.5405525,45.3805803 C77.6611178,45.7607073 77.8127968,46.128914 78.0014231,46.4812268 C79.1545718,48.6366043 81.8692355,47.4207277 83.3378958,46.1651165 C83.1973984,47.2825398 83.6247246,48.1390397 85.3738936,47.9748036 C86.7356008,47.8467702 87.9359061,47.2891622 88.9480712,46.4935887 C88.7166636,47.3571524 88.5081051,48.2286631 88.2927405,49.0970834 C87.0895183,49.4299704 85.9227574,49.8560129 84.8264883,50.4264241 C83.1254481,51.3120627 81.4953859,52.554429 80.4243966,54.0590432 C79.7287154,55.0365126 79.1147075,56.4691632 79.8473361,57.5733416 C81.0748658,59.4254122 84.4142328,58.3887825 85.8430287,57.332727 C87.8897218,55.8192829 88.7229836,53.1822346 89.3958157,50.9699042 C89.5688853,50.4021419 89.7244534,49.8277572 89.8737015,49.2493991 C91.5830063,48.8723625 93.3156462,48.5611087 94.8197955,47.6979864 C95.1528085,47.5068192 94.9680714,47.4282331 94.7177039,47.352296" id="Fill-1"></path>
                        <path d="M22.2300078,34.9409148 C22.8221683,33.9064138 23.5141364,32.7162875 24.5456416,31.9741735 C24.6932042,31.867851 24.8460198,31.7585274 25.0231904,31.6946482 C25.043725,31.6869312 25.0594841,31.682644 25.0747656,31.6787855 C25.2533689,31.8095451 25.3245236,32.0204752 25.3651153,32.2194012 C25.5136329,32.9516547 25.1120144,33.8180975 24.7982649,34.4731814 C23.672205,36.8225661 21.8494015,38.9588771 19.97359,40.8619644 C19.8069255,41.0313088 19.6340529,41.2045116 19.4564048,41.3807154 C19.6918363,40.6960498 19.9411167,40.0199587 20.1942176,39.3550142 C20.7682311,37.848064 21.4186525,36.3586913 22.2300078,34.9409148 M25.1005533,31.6714973 C25.1951079,31.6496326 25.1750509,31.6860738 25.1005533,31.6714973 M25.2356996,36.4714446 C26.0055081,35.3250477 28.1220041,32.3505895 26.6134277,31.0588566 C25.715636,30.2905907 24.0843296,31.0202719 23.3025823,31.5943277 C22.0494944,32.5152179 21.2061433,33.8789757 20.4979386,35.1604193 C19.0523985,37.7756103 17.9521262,40.6141644 17.1885258,43.4818713 C13.6694692,46.4966292 9.02769546,49.2382926 4.49862325,47.260608 C-1.42298108,44.6745699 3.37160823,37.6675729 6.46087101,34.8856099 C8.59312611,32.9662312 11.6752257,30.9122345 14.8838756,31.2809335 C16.3155667,31.4455619 17.1856605,32.303859 16.5638921,33.5788718 C16.327983,34.0624678 15.2974328,35.5136845 14.5801546,34.9229085 C14.1193201,34.5434915 12.5372011,35.1265505 13.0271661,35.5295471 C15.0405116,37.1878354 18.3341652,34.5070503 18.4697891,32.5898152 C18.6985349,29.3542666 12.7363389,30.3621869 10.8142053,31.0575705 C7.45178463,32.2738487 4.58028408,34.681968 2.55977538,37.3456043 C0.891697644,39.5445084 -0.753457752,42.6870248 0.368304229,45.3759556 C1.4938866,48.0734608 5.31714178,49.1341137 8.26170729,48.8374395 C11.4350186,48.5176145 14.3370823,46.8773325 16.798846,45.0741368 C16.749181,45.2966424 16.7019037,45.5200055 16.656059,45.742511 C16.5271208,46.3757302 16.4196723,47.0119505 16.3695297,47.6541728 C16.3294156,48.1626345 17.2472643,48.0404494 17.5514629,47.9088324 C18.9688275,47.2966205 20.0199123,46.0138907 21.1092009,45.0351233 C21.5284887,44.6582786 24.1588272,42.0872457 24.7915792,43.0162816 C25.2428628,43.678225 23.8035309,45.2764926 23.5523403,45.8977076 C23.0456611,47.150427 24.0408726,47.6237337 25.3312093,47.6516005 C26.0078959,47.6666057 27.1000498,46.766294 25.9677818,46.7414283 C24.2003739,46.7032722 25.6545098,45.0162596 26.0699772,44.2548532 C26.6086522,43.2679401 26.8393082,42.129689 25.2739035,41.9264758 C23.549475,41.702684 21.943001,42.9026708 20.7615455,43.8685766 C19.9869614,44.5017958 19.2663404,45.185604 18.5342582,45.8578367 C18.4291974,45.9542986 18.3198388,46.0619073 18.2085699,46.172517 C18.346104,45.2833521 18.547152,44.395902 18.7907018,43.5153115 C21.266792,41.4463096 23.4964671,39.0613411 25.2356996,36.4714446" id="Fill-4"></path>
                        <path d="M70.5377784,13.1705794 C68.5487879,15.0906793 66.2564334,16.4440753 63.5486662,17.3632957 C62.6914186,17.6546797 62.2442016,17.8121966 61.3571069,17.7488329 C60.4391865,17.6827918 59.4571683,17.6060413 58.6170461,17.236122 C59.3426729,16.4677251 60.0682997,15.698882 60.7939265,14.930485 C61.0419999,14.6681056 61.3434066,14.4097422 61.5572292,14.1228205 C62.20359,13.2522383 62.0856695,11.9332016 62.4394309,10.9229515 C62.5152719,10.8435237 62.5661587,10.7605261 62.5725196,10.6752974 C62.5950272,10.3562476 62.3366786,10.3566938 62.0323362,10.4624488 C60.6598593,10.9376769 59.3368014,10.7712355 58.1522144,11.3901475 C57.0517864,11.9648835 55.9518477,12.5391731 54.851909,13.113909 C54.8489732,13.1076619 54.8484839,13.1014148 54.8440803,13.0956139 C53.086527,10.7667733 56.262551,7.70701851 57.8708688,6.17914914 C60.1588196,4.00559431 62.7021832,2.61783913 65.9065864,1.90388148 C69.3101333,1.14619392 72.9715396,0.899878532 76.4763709,1.13682323 C75.4023649,5.51650719 74.0015088,9.82791896 70.5377784,13.1705794 M65.3062195,21.0446399 C64.2361279,21.4890785 63.1611433,21.9281625 62.070012,22.3266401 C62.6356388,21.3989414 63.3446296,20.4083251 63.5310515,19.3953977 C63.6235286,18.8884878 63.4415103,18.5471268 63.1102565,18.3030425 C64.434293,17.8519105 65.684935,17.3155498 66.8665863,16.6774502 C66.1590634,18.0629742 65.6800421,19.559608 65.3062195,21.0446399 M53.1516034,17.9933634 C54.9884227,17.0299668 56.556129,15.8108841 58.0846914,14.4204515 C58.3146608,14.2111727 58.3934376,13.9907383 58.0758841,13.8840909 C57.7578413,13.7769972 57.1824286,14.227683 56.9906243,14.4026026 C55.7067101,15.5703696 54.4183922,16.5703565 52.8775973,17.3650806 C52.9984536,16.4833429 53.1193099,15.601159 53.2401661,14.7198675 C54.5142944,14.054102 55.7884226,13.3883365 57.0625509,12.7230172 C57.4231625,12.5347109 57.7842633,12.3459583 58.1448749,12.157652 C58.2133764,12.1219541 58.2662205,12.0938421 58.3131929,12.0688535 C58.8068932,12.0264623 60.0834679,11.7591744 60.9074433,11.5699756 C60.7180856,12.1152608 60.6075045,12.6596535 60.5164954,13.2312658 C60.4543547,13.6239425 60.5023058,13.9452235 60.3144159,14.2620422 C59.9880551,14.8122358 59.3010827,15.3352098 58.8568014,15.8055294 C58.0651196,16.6444296 57.2729484,17.4828836 56.4807773,18.3217839 C55.3710527,18.2124591 54.261328,18.1026881 53.1516034,17.9933634 M52.8932548,9.24336613 C51.7517259,9.1099453 50.4932552,9.44996763 49.341451,9.72216398 C50.0377201,8.86318368 50.8235304,8.05507287 51.608362,7.26079498 C53.1491569,7.19430767 54.7124595,7.04348412 56.2136214,6.71729472 C55.9004716,7.04259167 55.5971077,7.37235086 55.3064655,7.70657229 C54.8298907,8.25408856 54.2676889,8.91449939 53.796007,9.62979571 C53.588056,9.42899512 53.2979031,9.29111205 52.8932548,9.24336613 M77.8190007,0.100245963 C74.7320286,-0.130897827 71.5374113,0.047591586 68.4925188,0.533529012 C66.1639564,0.905233214 63.8334368,1.51209722 61.7475656,2.54599714 C60.1421835,3.34205992 58.6703794,4.40898039 57.3566181,5.60530568 C56.0408997,5.9167697 54.6845696,6.07160927 53.330686,6.16442376 C52.6119093,6.21350835 51.8632856,6.13140322 51.2570471,6.54728355 C50.6703805,6.94933095 50.2099525,7.56154964 49.7353348,8.06399734 C48.9886682,8.85470544 48.2273228,9.65121444 47.5863443,10.5173343 C47.4009009,10.7676657 47.5227357,10.9742672 47.869647,10.9046563 C49.0175367,10.6739588 50.2725824,10.2656642 51.458148,10.2799434 C52.4499521,10.2924377 52.7019399,10.8832376 52.7415729,11.710536 C52.744998,11.7774696 52.7831631,11.8171835 52.8404108,11.8394946 C52.7288512,12.5391731 52.8360071,13.2384054 53.2939887,13.8970313 C52.6216952,14.2147425 51.8936219,14.6042956 51.7390042,15.2000041 C51.4708697,16.2343502 51.4190043,17.3574948 51.2927658,18.425754 C51.2678116,18.4895639 51.2609615,18.5462343 51.2722153,18.5921953 C51.2648759,18.6470808 51.2590043,18.7024126 51.2516649,18.7572981 C51.2423682,18.8242316 51.2820012,18.8594832 51.3509921,18.8724237 C51.360778,18.9375724 51.4180257,18.9826409 51.5427963,18.9951352 C52.8335607,19.1227551 54.1248143,19.2499288 55.4165572,19.3775488 C56.435762,19.4783953 56.9549057,18.9920116 57.5567404,18.3583742 C58.40567,18.6662685 59.3925812,18.7394491 60.2806544,18.8032591 C60.4401651,18.8144147 60.588422,18.8175382 60.7322752,18.817092 C60.7401039,18.8536823 60.7660366,18.8817944 60.8179021,18.8960736 C61.697168,19.1388192 62.211908,19.4614388 61.9158836,20.3400529 C61.5645686,21.3806462 60.8174128,22.3690313 60.291419,23.3400137 C60.108422,23.6778049 60.6637737,23.609979 60.8311131,23.5533086 C61.9966175,23.1592932 63.1332534,22.689866 64.2689108,22.2298096 C64.9348434,21.9598443 65.8968005,21.7237921 66.4227943,21.2338387 C66.9130694,20.7777982 66.9571061,19.9040925 67.1376566,19.3150775 C67.5256687,18.0500338 67.9630999,16.7555393 68.6569224,15.597143 C69.3238336,15.1495808 69.9677479,14.6631971 70.5886653,14.1321911 C74.9546585,10.3995313 76.7611415,5.57763982 78.0210801,0.376458329 C78.0616918,0.208678281 78.0249945,0.115417563 77.8190007,0.100245963" id="Fill-7"></path>
                        <path d="M55.7793629,22.8386417 C55.4694479,22.7341928 54.9235643,23.1755875 54.7346952,23.3460271 C51.0924882,26.6381326 45.4250013,26.3649922 40.8596434,25.1557455 C42.2778104,24.0478884 43.3436729,22.7171489 43.9248811,21.0158125 C44.5932235,19.0592539 44.8894796,17.2023368 46.7395493,15.8523682 C46.9152305,15.723883 47.2614121,15.3969887 46.9995387,15.2138754 C46.7508532,15.0399397 46.1536311,15.4489946 45.9883117,15.5691763 C44.4123613,16.7194248 43.5042823,18.1581094 42.9720575,19.9333029 C42.323026,22.0974481 41.6509156,23.8966779 39.5799491,25.2610684 C39.5102418,25.306956 38.7241506,25.9091757 39.1372135,26.0262983 C44.8828856,27.6498442 51.2822993,27.4357022 55.7878408,23.3639451 C56.0110926,23.1616028 56.0836258,22.9409054 55.7793629,22.8386417" id="Fill-10"></path>
                        <path d="M65.7589484,6.34286994 C65.7678893,4.84800433 66.8971245,3.94587306 68.2427295,4.46421949 C69.2990964,4.87122094 69.9008187,5.89417335 69.9558052,7.05168736 C69.7988925,10.3418131 65.7424078,9.08574698 65.7589484,6.34286994 M64.4643066,7.05168736 C64.4571539,9.07674462 66.2869084,10.4313629 68.088499,10.0499471 C69.7693875,9.69459082 71.1628263,8.1717705 71.25,6.34286994 C71.0282658,1.69338776 64.4799532,2.93997775 64.4643066,7.05168736" id="Fill-12"></path>
                    </g>
                </g>
            </g>
        </g>
    </g>
</svg>