<?xml version="1.0" encoding="UTF-8"?>
<svg width="72px" height="45px" viewBox="0 0 72 45" version="1.1" xmlns="http://www.w3.org/2000/svg" xmlns:xlink="http://www.w3.org/1999/xlink">
    <!-- Generator: Sketch 46.2 (44496) - http://www.bohemiancoding.com/sketch -->
    <title>sm-info_changelly</title>
    <desc>Created with Sketch.</desc>
    <defs></defs>
    <g id="Page-1" stroke="none" stroke-width="1" fill="none" fill-rule="evenodd">
        <g id="landing" transform="translate(-1234.000000, -819.000000)" fill="#FFFFFF">
            <g id="first---1" transform="translate(-331.000000, -450.000000)">
                <g id="sm-info_changelly" transform="translate(1565.000000, 1269.000000)">
                    <g id="Group-16">
                        <g id="logo-chan-white">
                            <path d="M65.2722073,42.1241536 C64.9159154,42.7693346 64.4682477,43.4377502 63.8116683,43.8623709 C63.0718191,44.340869 62.1013196,44.219645 61.7122356,43.417883 C61.3087819,42.5864884 61.7848204,41.6099619 62.3080205,40.921679 C63.1790383,39.7754388 64.4711953,38.8241672 65.8499382,38.2338737 C66.1605423,38.1012008 66.4803576,37.9920992 66.8049627,37.8947833 C66.4365119,39.348461 66.0120566,40.7842918 65.2722073,42.1241536 M60.3154385,28.9966057 C60.8312697,27.1745418 61.6481251,25.5531709 62.9918653,24.1375441 C62.9959182,24.1331665 62.9984974,24.1301359 63.0025503,24.1264319 C63.0788196,24.1665031 63.1672478,24.2129723 63.1834597,24.2287988 C63.3245763,24.366186 63.3529471,24.5049201 63.3669482,24.6874296 C63.401951,25.1369685 63.2184625,25.6222012 63.0703453,26.0434546 C62.3408127,28.1241297 61.1765081,30.219621 59.7863432,32.1026337 C59.8268728,31.0042096 60.0601021,29.8990509 60.3154385,28.9966057 M62.9505988,24.0988197 C62.9237019,24.1015136 62.9004895,24.0920851 62.8875937,24.0611056 C62.8890675,24.0648097 62.9155959,24.0796259 62.9505988,24.0988197 M56.0369877,26.276474 C56.2528999,25.6821397 56.4982881,25.0908361 56.8262093,24.5396036 C56.9691682,24.2995128 57.1268652,24.053024 57.3261971,23.84728 C57.3578838,23.8146168 57.4348901,23.7280764 57.5107909,23.6617399 C57.5424777,23.7038316 57.6998062,23.7452498 57.7919189,23.8031679 C58.4805535,24.2358702 58.1994255,24.9295408 58.0155685,25.5663035 C57.3847808,27.7503557 56.2569528,29.8758163 54.9577952,31.794186 C54.9684803,31.6382785 54.9806392,31.4823709 54.9942719,31.3271369 C55.147179,29.6172052 55.443045,27.9072734 56.0369877,26.276474 M41.0933595,41.6510433 C40.6309537,42.6457535 39.9670054,43.7344123 38.8988665,44.2792468 C37.8134104,44.8331731 36.6380523,44.1250229 36.6513165,43.0161601 C36.6763712,40.9408728 39.3984858,39.6404087 41.097044,38.7426778 C41.460705,38.550403 41.8280504,38.3641895 42.1950275,38.1773025 C41.9091096,39.3551956 41.6139805,40.5307316 41.0933595,41.6510433 M48.6510226,32.5929174 C49.4328753,31.9871342 50.7172948,32.5245605 50.2508361,33.5044544 C50.0021318,34.0270645 49.4446657,34.2742268 48.9170441,34.5106136 C48.5003263,34.6968271 48.0839768,34.8837141 47.6676274,35.0716112 C47.4863496,34.2014924 47.9439655,33.1407825 48.6510226,32.5929174 M40.9397155,33.2189046 C41.3383793,32.8707224 42.2046072,32.1706538 42.707911,32.766335 C42.9002423,32.99363 42.7609679,33.2774962 42.6250096,33.4953626 C42.1132314,34.3176654 41.0517246,34.9264792 40.1766539,35.3773651 C40.0543282,35.4399975 39.9275811,35.5039768 39.7967811,35.5666092 C39.5009151,34.7416126 40.3030325,33.7745146 40.9397155,33.2189046 M24.5657613,35.3460489 C24.2503674,35.6477619 23.7802242,36.2114535 23.3565057,35.7157821 C23.1748595,35.5033033 23.133593,35.152764 23.1534893,34.8924691 C23.2072832,34.2004822 23.7356416,33.54924 24.3089511,33.1293335 C25.0572747,32.5811317 25.7982293,32.6144683 26.5233405,33.185568 C26.5391839,33.1983639 26.5590802,33.2081291 26.5808188,33.2162107 C26.5701338,33.2229454 26.5594487,33.2300168 26.553185,33.2357413 C25.8394958,33.8991059 25.2676601,34.6735925 24.5657613,35.3460489 M71.7860493,36.116158 C71.5436087,36.0420766 71.0738339,36.2232392 70.870449,36.3404223 C70.0830696,36.7950123 69.1332034,36.9492362 68.2234984,37.1334293 C68.5867909,35.6760475 68.9209758,34.2008189 69.4891269,32.8084267 C69.5852926,32.6094173 69.672247,32.4097345 69.7488847,32.2117353 C69.8380498,31.9807362 68.6059503,32.1315928 68.4714658,32.4181528 C68.3708787,32.6316417 68.2783975,32.8468143 68.1907063,33.0640073 C67.8392042,33.7947186 67.3793776,34.4803076 66.7776974,35.0645399 C66.406299,35.4248445 65.7169275,36.1218824 65.1193003,36.1181784 C64.5489384,36.1144743 64.3871885,35.5063339 64.3941891,35.0938356 C64.4133485,34.0139319 65.1421442,32.9262834 65.7301917,32.0349503 C65.8256205,31.8898182 64.649157,31.9436956 64.4524043,32.2417045 C63.7954565,33.2401188 63.0961368,34.2405535 62.2148025,35.0884479 C61.98231,35.3123756 61.5799617,35.7716798 61.2258805,35.8669753 C61.2774636,35.8454244 61.0681836,35.833302 60.9856506,35.7848124 C60.7911085,35.6693129 60.6499919,35.5191298 60.5284031,35.3386408 C60.1518464,34.7796635 59.9410925,34.1210131 59.8449268,33.422965 C60.7903716,32.2895207 61.6134908,31.0628012 62.3636566,29.821939 C63.2460963,28.3625369 64.1768031,26.7751761 64.5614657,25.1298971 C64.6506308,24.7493885 64.7707458,24.2756047 64.5087773,23.9351673 C64.1189563,23.4287205 63.3238394,23.5432098 62.7741108,23.7166274 C60.9119604,24.3028801 59.9672525,26.5623606 59.3968907,28.1015685 C58.794842,29.7273169 58.293012,31.79789 58.5527698,33.6485763 C58.3409106,33.8943916 58.1268407,34.1358294 57.9094547,34.369859 C57.4684191,34.8436428 56.9945913,35.3204572 56.4470734,35.6945679 C56.3262216,35.7770675 56.1302057,35.929271 55.9809831,35.9720361 C56.0730959,35.9336485 55.7171724,35.8471081 55.607374,35.7514758 C55.1151237,35.323151 55.0252217,34.5099401 54.9655327,33.9314323 C54.9463733,33.7435351 54.9338459,33.5553012 54.92574,33.3663938 C56.109204,31.9844403 57.0509643,30.3990999 57.8368699,28.8656164 C58.4157061,27.7372231 58.9444331,26.5670749 59.2929875,25.359886 C59.4702124,24.7473681 59.7738158,23.9836569 59.1721357,23.5149242 C58.4042842,22.9165491 57.2661396,23.1017524 56.5067625,23.6331176 C55.4179903,24.395145 54.9519,25.8683533 54.5782909,27.0095424 C53.9721893,28.8592185 53.6870084,30.8506593 53.6298985,32.7771105 C53.6236348,32.9943035 53.6133182,33.2667207 53.614792,33.564393 C53.1133305,34.1462681 52.5672863,34.6948067 51.9619217,35.1887944 C51.0411631,35.9410566 49.847014,36.7940021 48.5780694,36.2010148 C48.2221459,36.0346685 47.9782314,35.7925573 47.8260613,35.510038 C48.74203,35.1221212 49.6948438,34.7513779 50.5312271,34.2594105 C51.2065975,33.8617285 52.0890372,32.9737628 51.4184567,32.2363168 C50.7954064,31.5507278 49.4317699,31.7945227 48.6484435,32.0534706 C47.1864306,32.5363462 45.8666398,34.1708497 46.44216,35.6268845 C45.5475614,36.0346685 44.6562789,36.448177 43.7705231,36.8704406 C43.9167981,36.2683614 44.0704421,35.6672925 44.284512,35.0823867 C44.3814146,34.8177143 43.157421,35.0564583 43.0067246,35.289141 C42.4013599,36.2252596 41.2046317,37.0122053 40.1523361,36.0740663 C40.1073851,36.033995 40.0683294,35.9932503 40.0311158,35.9518321 C40.6464287,35.6996189 41.2388976,35.400263 41.7959952,35.066897 C42.5870591,34.5927765 43.8077367,33.8691366 44.0601255,32.968375 C44.3353582,31.9837668 42.7473352,31.9867974 42.0793339,32.11745 C40.5911611,32.4087243 38.860916,33.6347702 38.4976235,35.0338971 C38.396668,35.4238343 38.4493565,35.7622513 38.6055796,36.0447705 C38.0466397,36.2154943 37.4663297,36.3037184 36.9118112,36.2151576 C35.5673342,36.0003217 36.3296589,34.8931426 36.6933199,34.1577171 C37.0002394,33.5361074 37.4110621,32.5356727 36.4022437,32.292888 C35.5758086,32.0938786 34.6042038,32.4262344 33.9037788,32.8144879 C33.3798417,33.1044153 32.8949604,33.4680872 32.4443451,33.8748611 C32.5290888,33.3441694 32.5080871,32.816845 32.3139135,32.3346429 C32.1989569,32.0497666 31.2155616,32.3868366 31.0796033,32.5356727 C30.6588324,32.9983443 30.3106464,33.5044544 29.95067,34.0071973 C29.5660073,34.5436134 29.1102337,35.297896 28.4702346,35.6150988 C27.6559583,36.018842 27.3777779,35.11606 27.4168337,34.5688684 C27.4525735,34.0583807 27.6743808,33.5866174 27.778284,33.0899357 C27.7952327,33.0091197 27.7421758,32.9690485 27.6511684,32.9549057 C27.7502817,32.887559 27.7967065,32.8235797 27.7429127,32.7808146 C25.8730248,31.3072696 22.2080446,32.9134875 21.8793864,35.0483767 C21.6667903,36.4249424 23.0193732,36.6387681 24.1755719,36.2548921 C24.9603721,35.9945972 25.5631577,35.4864667 26.1080964,34.9130099 C26.1010959,35.0507338 26.107728,35.1891312 26.1353618,35.3278653 C26.3074283,36.1902393 27.2038692,36.3107898 28.0163032,36.1774434 C29.576324,35.9208526 30.3920741,34.8988671 31.183138,33.8213205 C31.115343,34.8045817 30.6142499,35.8275775 30.1297371,36.6286661 C30.0265708,36.7993898 31.2185092,36.6980331 31.4075245,36.4219118 C31.8360328,35.7955879 35.0588721,31.7214516 35.71103,33.0518849 C36.1966482,34.0432277 34.5260922,35.0574685 34.8363278,36.0710357 C35.1255617,37.0179298 37.0934575,36.741135 37.8314645,36.6071151 C38.1752291,36.5448195 38.5156776,36.4629933 38.8517048,36.3660141 C39.2411573,36.7522472 39.8623653,36.9741544 40.5064174,36.9930115 C41.2521618,37.0145624 41.9743254,36.8505733 42.6102715,36.5411154 C42.5163166,36.8795324 42.4300991,37.2192963 42.3460923,37.5597336 C41.6195073,37.9186914 40.8973437,38.2853939 40.1814438,38.6621985 C38.7909104,39.3952669 37.3237392,40.1418046 36.3075519,41.3062284 C35.3053657,42.4548257 34.7405306,44.5792761 36.883809,44.9466522 C38.6766906,45.2540897 40.5215239,44.187992 41.5115512,42.8986402 C42.7248597,41.3173406 43.1751066,39.3211856 43.6260904,37.4657851 C44.6308558,36.9765116 45.6429902,36.5007074 46.6588091,36.0326481 C47.7450021,37.6092334 50.6016013,36.7576349 51.9434991,35.9501484 C52.5728131,35.5716602 53.1516493,35.1291926 53.6888506,34.6429498 C53.8273881,35.5558337 54.2083663,36.3969935 55.199499,36.4525545 C56.6290881,36.5330338 57.866346,35.5228339 58.7675767,34.612307 C58.8589525,34.9022344 58.9739091,35.18307 59.116868,35.4517832 C59.9908334,37.0957152 62.0482627,36.1683516 63.1613526,35.2106821 C63.0548703,36.0629541 63.3787386,36.7162167 64.7044246,36.5909519 C65.7364554,36.4932993 66.6461604,36.0680051 67.413275,35.4612117 C67.2378924,36.119862 67.079827,36.7845736 66.9166033,37.446928 C66.0046876,37.7008249 65.1204056,38.0257725 64.289549,38.460832 C63.0003396,39.136319 61.764924,40.0838865 60.9532269,41.2314736 C60.4259738,41.9770012 59.9606204,43.0697007 60.5158758,43.9118707 C61.4462141,45.324467 63.9771027,44.5338172 65.0599797,43.7283511 C66.6111576,42.5740293 67.2426823,40.5627213 67.7526182,38.8753507 C67.8837867,38.4423116 68.001691,38.0042216 68.1148054,37.563101 C69.4102785,37.2755307 70.7234372,37.0381338 71.863424,36.3798201 C72.1158128,36.2340146 71.9758015,36.1740761 71.7860493,36.116158" id="Fill-1"></path>
                            <path d="M16.8480059,26.6498502 C17.2968012,25.8608241 17.8212402,24.9531007 18.6030126,24.3870815 C18.7148495,24.305988 18.8306676,24.2226057 18.9649443,24.1738842 C18.9805073,24.1679984 18.9924511,24.1647285 19.0040329,24.1617856 C19.1393954,24.2615174 19.1933232,24.4223964 19.2240874,24.5741196 C19.3366481,25.132618 19.0322636,25.7934642 18.7944745,26.2931045 C17.9410396,28.0850081 16.5595464,29.7143978 15.1378788,31.1659051 C15.0115646,31.295066 14.8805453,31.4271698 14.7459068,31.5615626 C14.9243391,31.0393601 15.1132674,30.5236973 15.3050912,30.0165363 C15.7401331,28.8671674 16.233084,27.7312052 16.8480059,26.6498502 M19.0235772,24.1562267 C19.0952397,24.1395503 19.0800386,24.1673444 19.0235772,24.1562267 M19.1260039,27.8172035 C19.7094377,26.942833 21.3135189,24.6741784 20.1701768,23.6889585 C19.4897452,23.1029929 18.2533866,23.6595294 17.6609045,24.0973686 C16.7111958,24.7997425 16.0720244,25.8398967 15.5352797,26.817269 C14.4397126,28.8119062 13.605822,30.976905 13.0270932,33.1641392 C10.3600187,35.4635308 6.84204288,37.5546299 3.40948288,36.0462264 C-1.07846987,34.0738245 2.55532413,28.7295048 4.89666013,26.6076686 C6.51268505,25.1437357 8.84859208,23.577128 11.280411,23.8583391 C12.3654821,23.9839032 13.0249217,24.6385366 12.5536866,25.6110039 C12.3748924,25.9798483 11.5938438,27.0867085 11.0502224,26.6361167 C10.7009584,26.3467308 9.50187875,26.7914368 9.87322064,27.0988071 C11.3991246,28.3636033 13.8953673,26.3189367 13.9981559,24.8566387 C14.1715212,22.3888474 9.65280425,23.1576002 8.19602927,23.6879775 C5.64766835,24.6156473 3.4713732,26.4523485 1.94004029,28.4839355 C0.675812951,30.1610657 -0.571041665,32.5579002 0.279135837,34.6087797 C1.13220879,36.6661989 4.02983377,37.4751714 6.26150447,37.2488946 C8.66654044,37.0049602 10.8659992,35.7538976 12.731757,34.3785789 C12.6941161,34.5482866 12.6582849,34.7186482 12.6235394,34.8883559 C12.5258179,35.3713197 12.4443833,35.8565724 12.4063804,36.346403 C12.3759782,36.7342128 13.0716108,36.6410207 13.3021613,36.5406349 C14.3763745,36.0736936 15.1729861,35.0953404 15.9985523,34.3488229 C16.3163283,34.0613989 18.309848,32.1004416 18.7894074,32.8090283 C19.1314329,33.3139004 18.0405708,34.5329181 17.8501947,35.0067262 C17.4661852,35.9621901 18.2204508,36.3231867 19.1983902,36.344441 C19.7112474,36.3558857 20.5389851,35.6692073 19.6808451,35.6502419 C18.341336,35.6211398 19.443418,34.3344353 19.7582985,33.7537016 C20.1665574,33.0009713 20.3413704,32.1328136 19.1549584,31.9778205 C17.8480231,31.8071319 16.630485,32.7223761 15.735066,33.4590839 C15.1480129,33.9420477 14.601858,34.4635963 14.0470167,34.9763161 C13.9673917,35.0498888 13.8845094,35.1319632 13.8001793,35.2163266 C13.9044156,34.5381499 14.0567889,33.8612812 14.241374,33.1896444 C16.1179897,31.611592 17.8078487,29.7925483 19.1260039,27.8172035" id="Fill-4"></path>
                            <path d="M53.460211,10.0453572 C51.9527655,11.5098401 50.2154022,12.5420913 48.1631997,13.2431917 C47.5134962,13.4654337 47.1745528,13.5855737 46.5022284,13.5372454 C45.8065414,13.4868751 45.0622749,13.4283366 44.4255507,13.1461948 C44.9754995,12.5601293 45.5254482,11.9737235 46.075397,11.3876581 C46.2634105,11.1875382 46.491845,10.9904813 46.6539,10.7716427 C47.1437734,10.1076394 47.0544021,9.10159443 47.3225161,8.33106471 C47.3799955,8.27048419 47.4185624,8.20718095 47.4233833,8.14217602 C47.4404417,7.89883293 47.2446406,7.89917327 47.0139811,7.97983385 C45.9737881,8.34229593 44.9710495,8.21534911 44.0732572,8.68740067 C43.2392486,9.12575857 42.4056109,9.56377612 41.5719731,10.002134 C41.5697481,9.99736926 41.5693773,9.9926045 41.5660398,9.98818008 C40.2339994,8.21194571 42.6410913,5.87823446 43.8600269,4.71291036 C45.5940527,3.05511431 47.5216546,1.99665696 49.9502549,1.45211299 C52.5297853,0.874215703 55.3047458,0.686348033 57.961039,0.867068563 C57.1470555,4.20750549 56.0853541,7.49587039 53.460211,10.0453572 M49.49524,16.0509965 C48.6842233,16.3899751 47.8694981,16.7248697 47.0425354,17.0287933 C47.471221,16.3212265 48.0085613,15.5656717 48.1498496,14.7930999 C48.2199375,14.4064737 48.0819867,14.1461136 47.8309312,13.9599477 C48.8344115,13.6158639 49.7822666,13.2067753 50.6778338,12.7200891 C50.141606,13.7768448 49.7785582,14.9183451 49.49524,16.0509965 M40.2833205,13.7237517 C41.6754362,12.9889577 42.8635925,12.0591489 44.0220819,10.9986495 C44.1963745,10.83903 44.256079,10.6709021 44.0154069,10.5895608 C43.774364,10.5078792 43.3382616,10.8516226 43.1928942,10.9850359 C42.2198224,11.8757056 41.2434131,12.6384075 40.0756527,13.244553 C40.167249,12.5720412 40.2588454,11.8991891 40.3504417,11.2270176 C41.3160968,10.7192304 42.2817519,10.2114431 43.247407,9.70399619 C43.5207126,9.56037272 43.7943891,9.41640891 44.0676947,9.27278544 C44.1196116,9.24555824 44.1596618,9.22411682 44.195262,9.20505778 C44.5694348,9.17272548 45.5369441,8.96886183 46.1614307,8.82455768 C46.0179175,9.24045314 45.9341087,9.65566792 45.8651333,10.0916434 C45.8180373,10.3911426 45.8543791,10.6361874 45.7119784,10.8778288 C45.4646312,11.297468 44.9439785,11.6963464 44.60726,12.0550648 C44.0072485,12.694904 43.4068662,13.3344028 42.8064838,13.9742419 C41.9654294,13.8908587 41.1243749,13.807135 40.2833205,13.7237517 M40.0875195,7.05002502 C39.2223607,6.94826336 38.2685723,7.20760243 37.3956261,7.41520982 C37.9233247,6.76005535 38.5188862,6.14369964 39.113706,5.53789448 C40.2814663,5.48718382 41.4662851,5.3721489 42.6040078,5.12336038 C42.3666732,5.37146822 42.1367553,5.62297947 41.9164791,5.87789412 C41.5552856,6.29549128 41.1291958,6.79919445 40.7717106,7.34475944 C40.6141056,7.19160645 40.3942002,7.08644139 40.0875195,7.05002502 M58.978611,0.0764587852 C56.6390112,-0.0998373255 54.2178275,0.0362986673 51.9101195,0.406928908 C50.1453143,0.690432113 48.3790258,1.15329449 46.7981549,1.94186223 C45.5814443,2.54902875 44.4659718,3.36278165 43.470279,4.27523314 C42.4731029,4.51279045 41.4451475,4.63088842 40.4190462,4.70167914 C39.8742892,4.73911654 39.3069112,4.67649398 38.8474462,4.99369084 C38.4028147,5.30033717 38.0538587,5.76728362 37.6941485,6.15050644 C37.1282538,6.75358889 36.5512341,7.36109576 36.0654399,8.02169566 C35.9248933,8.21262639 36.0172313,8.37020381 36.2801535,8.31711077 C37.1501331,8.141155 38.1013256,7.82974391 38.9998595,7.84063479 C39.7515427,7.85016431 39.9425229,8.30077445 39.9725605,8.93176478 C39.9751564,8.98281577 40.0040815,9.01310603 40.0474692,9.03012303 C39.9629188,9.56377612 40.0441317,10.0970889 40.3912336,10.5994307 C39.8817059,10.8417528 39.329903,11.1388696 39.212719,11.5932234 C39.0095013,12.3821315 38.9701927,13.2387672 38.8745172,14.0535412 C38.8556046,14.1022098 38.8504129,14.145433 38.8589421,14.180488 C38.8533796,14.2223498 38.8489296,14.264552 38.843367,14.3064138 C38.8363212,14.3574648 38.8663588,14.3843516 38.9186466,14.3942215 C38.9260633,14.4439111 38.969451,14.4782855 39.064014,14.487815 C40.0422776,14.5851522 41.0209119,14.6821491 41.9999171,14.7794863 C42.772367,14.8564032 43.1658232,14.4854326 43.6219506,14.0021498 C44.2653499,14.2369844 45.0133247,14.2928002 45.6863907,14.3414688 C45.807283,14.3499773 45.9196461,14.3523597 46.0286717,14.3520193 C46.0346051,14.3799272 46.0542593,14.4013686 46.0935679,14.4122595 C46.7599589,14.5974045 47.1500776,14.8434703 46.9257223,15.5135997 C46.6594625,16.3072725 46.0931971,17.0611256 45.6945491,17.8017054 C45.5558567,18.0593428 45.9767548,18.0076111 46.1035804,17.9643879 C46.9869101,17.6638677 47.8483605,17.30583 48.7090692,16.9549395 C49.2137761,16.7490338 49.9428382,16.568994 50.3414862,16.1953007 C50.7130632,15.8474732 50.7464383,15.1810875 50.8832766,14.7318387 C51.1773489,13.7669749 51.5088757,12.7796486 52.0347201,11.896126 C52.5401686,11.554765 53.0281879,11.1837944 53.4987779,10.7787899 C56.8077412,7.93184591 58.1768651,4.25413206 59.131766,0.287129234 C59.1625453,0.159161401 59.1347327,0.0880303446 58.978611,0.0764587852" id="Fill-7"></path>
                            <path d="M42.2748855,17.419303 C42.0400026,17.3396386 41.6262803,17.6762956 41.4831374,17.8062918 C38.7227279,20.3172197 34.4273694,20.1088924 30.9673087,19.1865855 C32.04213,18.3416098 32.8499415,17.326639 33.2904362,16.0290095 C33.7969694,14.5367191 34.0215003,13.1204264 35.4236584,12.0907893 C35.5568063,11.9927921 35.8191755,11.7434659 35.620703,11.6038033 C35.4322256,11.4711404 34.9795941,11.7831315 34.8542994,11.8747955 C33.6598949,12.7521036 32.9716666,13.8494055 32.5682962,15.2033666 C32.0763986,16.8539859 31.5670097,18.2262798 29.9974351,19.2669166 C29.9446043,19.3019156 29.3488299,19.7612357 29.6618881,19.8505665 C34.0165028,21.0888643 38.8665848,20.9255356 42.2813109,17.8199581 C42.4505123,17.6656292 42.5054849,17.4973007 42.2748855,17.419303" id="Fill-10"></path>
                            <path d="M49.8383609,4.83778216 C49.8451372,3.69763042 50.7009786,3.0095642 51.7208055,3.40491317 C52.5214204,3.715338 52.9774626,4.49555595 53.0191366,5.37840561 C52.9002133,7.88782358 49.8258248,6.92980702 49.8383609,4.83778216 M48.8571587,5.37840561 C48.8517377,6.92294081 50.238499,7.95612427 51.603915,7.66521392 C52.8778516,7.39417944 53.9339315,6.23270632 54,4.83778216 C53.8319488,1.29156693 48.8690172,2.24235591 48.8571587,5.37840561" id="Fill-12"></path>
                        </g>
                    </g>
                </g>
            </g>
        </g>
    </g>
</svg>