<svg width="209" height="121" viewBox="0 0 209 121" xmlns="http://www.w3.org/2000/svg">
    <title>
        changelly-logo
    </title>
    <defs>
        <linearGradient x1="99.698%" y1="-1.835%" x2="0%" y2="0%" id="a">
            <stop stop-color="#FFF" stop-opacity="0" offset="0%"/>
            <stop stop-color="#36CD98" stop-opacity=".59" offset="28.755%"/>
            <stop stop-color="#36CD98" offset="48.56%"/>
            <stop stop-color="#F3FCF8" stop-opacity="0" offset="100%"/>
        </linearGradient>
    </defs>
    <g fill="none" fill-rule="evenodd">
        <g fill="#000">
            <path d="M160.238 96.22c-.693 1.379-1.563 2.807-2.84 3.715-1.437 1.022-3.323.763-4.08-.95-.784-1.777.142-3.864 1.158-5.335 1.693-2.45 4.205-4.483 6.884-5.744a16.5 16.5 0 0 1 1.857-.725c-.717 3.107-1.542 6.175-2.98 9.039m-9.633-28.055c1.002-3.894 2.59-7.36 5.202-10.385.007-.01.012-.016.02-.024.149.086.32.185.352.22.274.293.33.59.357.98.068.96-.29 1.997-.577 2.897-1.418 4.447-3.68 8.925-6.383 12.95.08-2.348.532-4.71 1.029-6.638m5.121-10.468c-.052.006-.097-.014-.122-.08.003.008.054.04.122.08m-13.437 4.654c.42-1.27.897-2.534 1.534-3.712.278-.513.584-1.04.972-1.48.061-.069.211-.254.359-.396.061.09.367.179.546.303 1.338.924.792 2.407.435 3.768-1.226 4.667-3.418 9.21-5.943 13.31.02-.334.044-.667.07-.999.298-3.654.873-7.308 2.027-10.794M113.244 95.21c-.899 2.125-2.19 4.452-4.265 5.616-2.11 1.184-4.394-.33-4.368-2.699.048-4.435 5.339-7.214 8.64-9.133.707-.41 1.421-.809 2.134-1.208-.555 2.517-1.13 5.03-2.14 7.424m14.688-19.359c1.52-1.294 4.016-.146 3.11 1.948-.484 1.117-1.568 1.646-2.593 2.15-.81.399-1.62.798-2.428 1.2-.353-1.86.537-4.127 1.911-5.298m-14.988 1.338c.775-.744 2.459-2.24 3.437-.967.374.486.103 1.092-.161 1.558-.995 1.757-3.058 3.058-4.759 4.022-.237.134-.484.27-.738.404-.575-1.763.984-3.83 2.221-5.017m-31.824 4.546c-.613.645-1.526 1.85-2.35.79-.353-.454-.433-1.203-.394-1.76.104-1.478 1.131-2.87 2.245-3.767 1.455-1.172 2.895-1.1 4.304.12.03.027.07.048.112.065a.43.43 0 0 0-.054.042c-1.387 1.418-2.498 3.073-3.863 4.51m91.777 1.646c-.472-.158-1.385.229-1.78.48-1.53.97-3.376 1.3-5.144 1.694.706-3.115 1.355-6.267 2.46-9.243.186-.425.355-.852.504-1.275.174-.494-2.221-.172-2.482.44-.196.457-.376.917-.546 1.381-.683 1.562-1.577 3.027-2.746 4.276-.722.77-2.062 2.26-3.224 2.251-1.108-.008-1.423-1.307-1.409-2.189.037-2.308 1.454-4.632 2.597-6.537.185-.31-2.101-.195-2.484.442-1.277 2.133-2.636 4.272-4.349 6.084-.452.478-1.234 1.46-1.922 1.663.1-.046-.306-.072-.467-.175-.378-.247-.652-.568-.888-.954-.732-1.194-1.142-2.602-1.329-4.094 1.838-2.422 3.438-5.044 4.896-7.696 1.715-3.118 3.524-6.51 4.271-10.027.173-.813.407-1.826-.102-2.553-.758-1.083-2.303-.838-3.372-.467-3.619 1.253-5.455 6.081-6.564 9.37-1.17 3.475-2.145 7.9-1.64 11.855a54.244 54.244 0 0 1-1.25 1.542c-.858 1.012-1.779 2.031-2.843 2.831-.235.176-.616.502-.906.593.18-.082-.512-.267-.726-.471-.957-.916-1.131-2.654-1.247-3.89a22.622 22.622 0 0 1-.078-1.208c2.3-2.953 4.13-6.341 5.658-9.618 1.125-2.412 2.153-4.913 2.83-7.493.345-1.309.935-2.94-.234-3.942-1.493-1.28-3.705-.883-5.18.252-2.117 1.629-3.023 4.777-3.749 7.216-1.178 3.953-1.732 8.209-1.843 12.326-.012.464-.032 1.046-.03 1.683a27.091 27.091 0 0 1-3.212 3.471c-1.79 1.608-4.11 3.43-6.577 2.163a3.236 3.236 0 0 1-1.461-1.476c1.78-.83 3.632-1.622 5.257-2.673 1.313-.85 3.028-2.748 1.725-4.324-1.211-1.465-3.862-.944-5.384-.39-2.842 1.031-5.407 4.525-4.288 7.636a320.608 320.608 0 0 0-5.193 2.658c.285-1.287.583-2.571 1-3.821.188-.566-2.191-.056-2.484.442-1.177 2-3.503 3.682-5.548 1.677a3.152 3.152 0 0 1-.235-.261 24.804 24.804 0 0 0 3.43-1.891c1.537-1.014 3.91-2.56 4.4-4.485.535-2.104-2.551-2.098-3.85-1.819-2.892.623-6.255 3.243-6.96 6.233-.197.833-.095 1.557.209 2.16-1.086.365-2.214.554-3.292.365-2.613-.46-1.132-2.826-.425-4.397.597-1.329 1.395-3.467-.565-3.986-1.607-.425-3.495.285-4.856 1.115-1.019.62-1.961 1.397-2.837 2.266.165-1.134.124-2.261-.253-3.292-.224-.608-2.135.112-2.4.43-.817.989-1.494 2.07-2.194 3.145-.747 1.146-1.633 2.758-2.877 3.436-1.583.863-2.123-1.066-2.047-2.236.07-1.09.5-2.099.702-3.16.033-.173-.07-.259-.247-.289.193-.144.283-.28.178-.372-3.634-3.15-10.757.283-11.396 4.846-.413 2.942 2.216 3.399 4.463 2.578 1.525-.556 2.697-1.642 3.756-2.867-.014.294 0 .59.053.886.334 1.843 2.077 2.1 3.656 1.816 3.032-.548 4.617-2.733 6.155-5.035-.132 2.1-1.106 4.287-2.048 6-.2.364 2.117.147 2.484-.443.833-1.338 7.097-10.045 8.364-7.202.944 2.119-2.303 4.286-1.7 6.453.562 2.023 4.387 1.432 5.821 1.145a18.54 18.54 0 0 0 1.983-.515c.757.825 1.965 1.3 3.216 1.34a8.116 8.116 0 0 0 4.09-.966 84.18 84.18 0 0 0-.514 2.177c-1.412.767-2.816 1.55-4.207 2.356-2.703 1.567-5.554 3.162-7.53 5.65-1.947 2.455-3.045 6.996 1.12 7.78 3.485.658 7.07-1.62 8.995-4.376 2.358-3.38 3.233-7.646 4.11-11.61a293.37 293.37 0 0 1 5.894-3.064c2.111 3.37 7.663 1.55 10.271-.176a22.132 22.132 0 0 0 3.392-2.793c.27 1.95 1.01 3.748 2.936 3.867 2.779.172 5.184-1.987 6.935-3.933.178.62.401 1.22.68 1.794 1.698 3.513 5.697 1.531 7.86-.515-.207 1.821.422 3.217 2.999 2.95 2.006-.21 3.774-1.118 5.265-2.415-.341 1.408-.648 2.828-.965 4.244-1.773.543-3.492 1.237-5.106 2.167-2.506 1.443-4.907 3.468-6.485 5.921-1.024 1.593-1.929 3.929-.85 5.728 1.808 3.02 6.727 1.33 8.832-.392 3.015-2.467 4.242-6.765 5.233-10.371.255-.926.484-1.862.704-2.805 2.518-.614 5.07-1.122 7.286-2.529.49-.311.218-.44-.15-.563"/>
            <path d="M67.335 63.228c.888-1.736 1.926-3.734 3.473-4.98.22-.178.45-.362.716-.469a.622.622 0 0 1 .077-.027c.268.22.375.574.435.908.223 1.229-.38 2.683-.85 3.783-1.688 3.944-4.422 7.53-7.234 10.724-.25.284-.51.575-.776.87.353-1.148.727-2.283 1.106-3.4.861-2.529 1.837-5.03 3.053-7.409m4.305-5.488c.142-.037.111.025 0 0m.202 8.057c1.155-1.924 4.329-6.917 2.066-9.085-1.346-1.29-3.792-.065-4.964.899-1.88 1.545-3.144 3.835-4.206 5.986-2.168 4.39-3.818 9.154-4.963 13.968-5.277 5.06-12.237 9.662-19.03 6.343-8.879-4.341-1.69-16.103 2.943-20.773 3.198-3.222 7.82-6.67 12.631-6.05 2.147.276 3.452 1.717 2.52 3.857-.354.812-1.9 3.248-2.975 2.256-.691-.637-3.064.342-2.329 1.018 3.02 2.784 7.958-1.716 8.162-4.934.343-5.432-8.598-3.74-11.48-2.572-5.043 2.041-9.349 6.083-12.378 10.555-2.502 3.69-4.969 8.966-3.287 13.48 1.688 4.527 7.421 6.307 11.837 5.81 4.758-.537 9.11-3.29 12.802-6.318-.075.374-.146.749-.214 1.122-.194 1.063-.355 2.131-.43 3.21-.06.853 1.316.648 1.772.427 2.126-1.028 3.702-3.181 5.335-4.824.63-.633 4.574-4.948 5.522-3.389.677 1.111-1.481 3.794-1.858 4.837-.76 2.103.733 2.897 2.668 2.944 1.014.025 2.652-1.486.954-1.528-2.65-.064-.47-2.896.153-4.174.808-1.656 1.154-3.567-1.193-3.908-2.586-.376-4.995 1.639-6.767 3.26-1.161 1.063-2.242 2.21-3.34 3.339-.157.162-.321.343-.488.528.206-1.492.508-2.982.873-4.46 3.713-3.473 7.056-7.476 9.664-11.824"/>
        </g>
        <g fill="#10D078">
            <path d="M128.77 21.449c-2.878 3.035-6.196 5.175-10.114 6.628-1.24.461-1.888.71-3.172.61-1.328-.104-2.75-.226-3.965-.81l3.15-3.646c.36-.415.795-.823 1.105-1.277.935-1.376.765-3.462 1.277-5.059.11-.126.183-.257.192-.391.033-.505-.341-.504-.782-.337-1.986.751-3.9.488-5.615 1.467l-4.776 2.725c-.004-.01-.005-.02-.01-.029-2.544-3.682 2.052-8.52 4.38-10.935 3.31-3.437 6.99-5.63 11.628-6.76 4.925-1.197 10.224-1.587 15.296-1.212-1.554 6.924-3.582 13.74-8.594 19.026m-7.57 12.449c-1.55.703-3.105 1.397-4.684 2.027.818-1.467 1.844-3.033 2.114-4.635.134-.801-.13-1.34-.609-1.727a33.983 33.983 0 0 0 5.436-2.57c-1.024 2.19-1.717 4.557-2.258 6.905m-17.59-4.824c2.659-1.524 4.928-3.45 7.14-5.65.332-.33.446-.679-.013-.847-.46-.17-1.293.543-1.57.82-1.859 1.846-3.723 3.427-5.953 4.683l.525-4.182 5.531-3.157 1.567-.894.243-.14c.715-.067 2.562-.49 3.755-.789-.274.862-.435 1.723-.566 2.627-.09.62-.02 1.128-.293 1.63-.472.87-1.466 1.696-2.109 2.44l-3.438 3.978-4.818-.52m-.374-13.833c-1.652-.211-3.473.326-5.14.757 1.008-1.359 2.145-2.636 3.28-3.892 2.23-.105 4.493-.344 6.665-.86a40.862 40.862 0 0 0-1.313 1.565c-.69.865-1.503 1.91-2.186 3.04-.3-.317-.72-.535-1.306-.61M139.306.784c-4.467-.366-9.09-.083-13.496.685-3.37.588-6.742 1.547-9.76 3.182-2.324 1.258-4.454 2.945-6.355 4.837-1.904.492-3.867.737-5.826.884-1.04.077-2.124-.053-3 .605-.85.636-1.516 1.604-2.203 2.398-1.08 1.25-2.182 2.51-3.11 3.879-.268.396-.092.722.41.612 1.661-.365 3.478-1.01 5.193-.988 1.435.02 1.8.954 1.857 2.262.005.106.06.169.144.204-.162 1.106-.007 2.212.656 3.253-.973.502-2.027 1.118-2.25 2.06-.388 1.636-.463 3.411-.646 5.1a.483.483 0 0 0-.03.263c-.01.087-.019.175-.03.261-.013.106.044.162.144.182.014.103.097.175.278.194l5.606.605c1.474.16 2.226-.61 3.097-1.611 1.228.487 2.656.602 3.942.703.23.018.445.023.653.022.011.058.049.102.124.125 1.272.384 2.017.894 1.589 2.283-.509 1.645-1.59 3.208-2.35 4.743-.266.534.538.427.78.337 1.687-.623 3.332-1.365 4.975-2.092.964-.427 2.356-.8 3.117-1.575.71-.721.773-2.102 1.034-3.034.562-2 1.195-4.046 2.199-5.878a30.522 30.522 0 0 0 2.796-2.316c6.318-5.901 8.932-13.525 10.755-21.748.059-.266.006-.413-.292-.437"/>
            <path d="M108.589 36.288c-.466-.168-1.287.544-1.57.82-5.476 5.314-13.996 4.873-20.86 2.92 2.132-1.788 3.735-3.936 4.609-6.683 1.004-3.158 1.45-6.156 4.231-8.335.264-.207.785-.735.39-1.03-.373-.281-1.27.379-1.52.573-2.369 1.857-3.734 4.18-4.534 7.045-.976 3.494-1.986 6.398-5.1 8.6-.104.075-1.286 1.047-.665 1.236 8.638 2.62 18.258 2.275 25.032-4.298.335-.327.444-.683-.013-.848"/>
            <path d="M121.991 10.981c.014-2.226 1.803-3.569 3.934-2.797 1.673.606 2.627 2.13 2.714 3.853-.249 4.899-6.674 3.028-6.648-1.056m-2.05 1.056c-.012 3.015 2.886 5.032 5.74 4.464 2.662-.53 4.87-2.797 5.008-5.52-.352-6.923-10.724-5.067-10.748 1.056"/>
        </g>
        <path fill="url(#a)" transform="matrix(-1 0 0 1 209 0)" d="M0 121v-2h210v2z"/>
    </g>
</svg>
