<svg width="230" height="135" viewBox="0 0 230 135" xmlns="http://www.w3.org/2000/svg" xmlns:xlink="http://www.w3.org/1999/xlink">
    <title>
        convert
    </title>
    <defs>
        <path d="M0 0l111.02 59.518L222.043 0v122.068a5 5 0 0 1-5 5H5a5 5 0 0 1-5-5V0z" id="b"/>
        <filter x="-2.9%" y="-5.9%" width="105.9%" height="110.2%" filterUnits="objectBoundingBox" id="a">
            <feOffset dy="-1" in="SourceAlpha" result="shadowOffsetOuter1"/>
            <feGaussianBlur stdDeviation="2" in="shadowOffsetOuter1" result="shadowBlurOuter1"/>
            <feColorMatrix values="0 0 0 0 0 0 0 0 0 0 0 0 0 0 0 0 0 0 0.108554121 0" in="shadowBlurOuter1"/>
        </filter>
        <path d="M0 0l111.02 59.518L222.043 0v122.068a5 5 0 0 1-5 5H5a5 5 0 0 1-5-5V0z" id="c"/>
    </defs>
    <g fill="none" fill-rule="evenodd">
        <g transform="translate(4 5)">
            <use fill="#000" filter="url(#a)" xlink:href="#b"/>
            <use fill="#FBFBFB" xlink:href="#b"/>
        </g>
        <g transform="translate(4 5)">
            <mask id="d" fill="#fff">
                <use xlink:href="#c"/>
            </mask>
            <use fill="#FDFDFD" xlink:href="#c"/>
            <path fill-opacity=".35" fill="#E5E5E5" opacity=".499" mask="url(#d)" d="M228.463 128.511l-8.011 2.656L112 60l48.807 28.001z"/>
            <path fill-opacity=".35" fill="#E5E5E5" opacity=".5" mask="url(#d)" transform="matrix(-1 0 0 1 102.463 0)" d="M109.463 128.511l-8.011 2.656L-7 60l48.807 28.001z"/>
        </g>
    </g>
</svg>
