<?xml version="1.0" encoding="UTF-8"?>
<svg width="30px" height="30px" viewBox="0 0 30 30" version="1.1" xmlns="http://www.w3.org/2000/svg" xmlns:xlink="http://www.w3.org/1999/xlink">
    <!-- Generator: Sketch 46.2 (44496) - http://www.bohemiancoding.com/sketch -->
    <title>diagram-exchange</title>
    <desc>Created with Sketch.</desc>
    <defs></defs>
    <g id="Symbols" stroke="none" stroke-width="1" fill="none" fill-rule="evenodd">
        <g id="diag" transform="translate(-295.000000, -491.000000)">
            <g id="diagram-exchange" transform="translate(295.000000, 491.000000)">
                <g id="Group-13">
                    <g id="Group-6" stroke-opacity="0.5" stroke="#FFFFFF">
                        <circle id="Oval-2-Copy-2" cx="15" cy="15" r="14.5"></circle>
                    </g>
                    <path d="M15,22 C11.1340068,22 8,18.8659932 8,15 C8,11.1340068 11.1340068,8 15,8 C18.8659932,8 22,11.1340068 22,15 C22,18.8659932 18.8659932,22 15,22 Z M15,21.1764706 C18.4111705,21.1764706 21.1764706,18.4111705 21.1764706,15 C21.1764706,11.5888295 18.4111705,8.82352941 15,8.82352941 C11.5888295,8.82352941 8.82352941,11.5888295 8.82352941,15 C8.82352941,18.4111705 11.5888295,21.1764706 15,21.1764706 Z" id="Oval-3" fill="#FFFFFF" fill-rule="nonzero"></path>
                    <rect id="Rectangle-9" fill="#000000" transform="translate(13.500000, 8.500000) rotate(-360.000000) translate(-13.500000, -8.500000) " x="12" y="5" width="3" height="7"></rect>
                    <rect id="Rectangle-9-Copy" fill="#000000" transform="translate(16.500000, 22.500000) rotate(-360.000000) translate(-16.500000, -22.500000) " x="15" y="19" width="3" height="7"></rect>
                    <polygon id="Rectangle-8" fill="#FFFFFF" points="9 8 13 8 13 12"></polygon>
                    <polygon id="Rectangle-8-Copy" fill="#FFFFFF" transform="translate(19.000000, 20.000000) rotate(-180.000000) translate(-19.000000, -20.000000) " points="17 18 21 18 21 22"></polygon>
                </g>
            </g>
        </g>
    </g>
</svg>