<svg width="143" height="37" viewBox="0 0 143 37" xmlns="http://www.w3.org/2000/svg">
    <title>
        ethereum-logo
    </title>
    <g fill-rule="nonzero" fill="none" opacity=".499">
        <path d="M142.615 18.836v5.469a.434.434 0 0 1-.425.425.415.415 0 0 1-.427-.425v-5.469c0-1.831-1.038-3.63-3.09-3.63-2.572 0-3.556 2.75-3.556 4.881v4.21a.434.434 0 0 1-.426.425.415.415 0 0 1-.426-.424v-5.47c0-1.83-1.038-3.63-3.091-3.63-2.603 0-3.672 2.047-3.579 4.766 0 .061.03.185 0 .216v4.11c0 .208-.14.401-.349.432-.286.047-.511-.147-.511-.417v-9.34c0-.208.14-.4.349-.432.286-.046.511.147.511.418v1.56c.735-1.313 2.052-2.17 3.579-2.17 1.743 0 3.09 1.096 3.64 2.718.706-1.59 2.085-2.719 3.859-2.719 2.502.008 3.942 2.178 3.942 4.496zm-21.643-3.8v9.324a.434.434 0 0 1-.427.424.415.415 0 0 1-.426-.424v-1.77c-.705 1.406-1.96 2.41-3.556 2.41-2.54 0-3.95-2.201-3.95-4.519v-5.468c0-.217.185-.426.426-.426.247 0 .426.216.426.426v5.468c0 1.83 1.038 3.661 3.09 3.661 2.882 0 3.557-2.687 3.557-5.646v-3.483c0-.247.247-.495.55-.41.186.062.31.239.31.433zm-14.736 4.163c-.185-2.109-1.804-4.032-4.043-4.032-2.238 0-3.827 1.923-4.044 4.032h8.087zm.923.425c0 .239-.202.44-.442.44h-8.56c.217 2.11 1.805 4.033 4.044 4.033 1.534 0 2.665-.58 3.525-1.8.124-.17.31-.279.542-.178a.422.422 0 0 1 .187.602c-.86 1.5-2.573 2.233-4.254 2.233-2.881 0-4.927-2.564-4.927-5.315 0-2.75 2.052-5.314 4.927-5.314 2.874-.008 4.95 2.549 4.958 5.3zm-14.052-4.697c0 .279-.156.425-.395.456-2.51.363-3.642 2.41-3.642 4.797v4.079c0 .208-.138.402-.349.432-.286.047-.51-.146-.51-.417v-9.309c0-.208.139-.4.348-.432.286-.046.511.147.511.418v1.892c.705-1.19 2.115-2.317 3.58-2.317.208.007.457.154.457.401zM81.68 19.2c-.186-2.109-1.805-4.032-4.044-4.032s-3.826 1.923-4.044 4.032h8.088zm.922.425c0 .239-.201.44-.442.44H73.6c.217 2.11 1.805 4.033 4.044 4.033 1.534 0 2.665-.58 3.524-1.8.124-.17.31-.279.543-.178.124.054.217.17.24.309.023.14-.016.217-.054.293-.86 1.5-2.572 2.233-4.253 2.233-2.882 0-4.926-2.564-4.926-5.315 0-2.75 2.052-5.314 4.926-5.314 2.874-.008 4.95 2.549 4.958 5.3zm-15.339-.757v5.438a.434.434 0 0 1-.425.425.415.415 0 0 1-.426-.425v-5.438c0-1.83-1.039-3.661-3.091-3.661-2.634 0-3.765 2.286-3.61 4.643 0 .061.03.331.03.362v4.08c0 .207-.14.4-.348.431-.287.047-.511-.147-.511-.417V6.445c0-.216.185-.425.426-.425.248 0 .425.217.425.426V16.55c.737-1.314 2.054-2.202 3.58-2.202 2.51 0 3.95 2.202 3.95 4.52zm-13.998-4.334c.248 0 .426.217.426.426a.415.415 0 0 1-.426.424h-2.293v8.977a.434.434 0 0 1-.426.424.434.434 0 0 1-.426-.424v-8.977h-2.208a.414.414 0 0 1-.425-.424c0-.218.186-.426.425-.426h2.208V11.25c0-.208.14-.401.348-.432.287-.047.512.146.512.417v3.298h2.285zM41.97 19.2c-.185-2.109-1.805-4.032-4.043-4.032-2.239 0-3.827 1.923-4.044 4.032h8.087zm.915.425c0 .239-.202.44-.442.44h-8.56c.217 2.11 1.805 4.033 4.044 4.033 1.534 0 2.664-.58 3.524-1.8.124-.17.31-.279.542-.178.124.054.218.17.24.309a.414.414 0 0 1-.054.293c-.86 1.5-2.571 2.233-4.252 2.233-2.882 0-4.927-2.564-4.927-5.315 0-2.75 2.053-5.314 4.927-5.314 2.874-.008 4.958 2.549 4.958 5.3z" fill="#FFF"/>
        <path fill="#EBEBEB" d="M11.44 37.074L22.886 21 11.44 27.735 0 21z"/>
        <path fill="#EBEBEB" d="M11.44 25.671l11.44-6.741L11.44 0 0 18.93z"/>
    </g>
</svg>
