<svg width="276" height="296" viewBox="0 0 276 296" xmlns="http://www.w3.org/2000/svg" xmlns:xlink="http://www.w3.org/1999/xlink">
    <title>
        info-block-bg
    </title>
    <defs>
        <path id="a" d="M119 119V0H0v119h119z"/>
        <path id="c" d="M99 99V0H0v99h99z"/>
        <path id="e" d="M56 56V0H0v56h56z"/>
        <path id="g" d="M81 81V0H0v81h81z"/>
        <path id="i" d="M81 81V0H0v81h81z"/>
        <path id="k" d="M81 81V0H0v81h81z"/>
        <path id="m" d="M52 52V0H0v52h52z"/>
    </defs>
    <g fill="none" fill-rule="evenodd" opacity=".1">
        <g transform="translate(100 9)">
            <mask id="b" fill="#fff">
                <use xlink:href="#a"/>
            </mask>
            <path d="M119 59.5c0 32.861-26.639 59.5-59.5 59.5C26.639 119 0 92.361 0 59.5 0 26.639 26.639 0 59.5 0 92.361 0 119 26.639 119 59.5" fill="#FFF" mask="url(#b)"/>
        </g>
        <g transform="translate(55 78)">
            <mask id="d" fill="#fff">
                <use xlink:href="#c"/>
            </mask>
            <path d="M99 49.5C99 76.838 76.838 99 49.5 99S0 76.838 0 49.5 22.162 0 49.5 0 99 22.162 99 49.5" fill="#FFF" mask="url(#d)"/>
        </g>
        <g transform="translate(30 124)">
            <mask id="f" fill="#fff">
                <use xlink:href="#e"/>
            </mask>
            <path d="M56 28c0 15.464-12.536 28-28 28S0 43.464 0 28 12.536 0 28 0s28 12.536 28 28" fill="#FFF" mask="url(#f)"/>
        </g>
        <mask id="h" fill="#fff">
            <use xlink:href="#g"/>
        </mask>
        <path d="M81 40.5C81 62.868 62.868 81 40.5 81S0 62.868 0 40.5 18.132 0 40.5 0 81 18.132 81 40.5" fill="#FFF" mask="url(#h)"/>
        <g transform="translate(195 152)">
            <mask id="j" fill="#fff">
                <use xlink:href="#i"/>
            </mask>
            <path d="M81 40.5C81 62.868 62.868 81 40.5 81S0 62.868 0 40.5 18.132 0 40.5 0 81 18.132 81 40.5" fill="#FFF" mask="url(#j)"/>
        </g>
        <g transform="translate(42 215)">
            <mask id="l" fill="#fff">
                <use xlink:href="#k"/>
            </mask>
            <path d="M81 40.5C81 62.868 62.868 81 40.5 81S0 62.868 0 40.5 18.132 0 40.5 0 81 18.132 81 40.5" fill="#FFF" mask="url(#l)"/>
        </g>
        <g transform="translate(6 233)">
            <mask id="n" fill="#fff">
                <use xlink:href="#m"/>
            </mask>
            <path d="M52 26c0 14.36-11.64 26-26 26S0 40.36 0 26 11.64 0 26 0s26 11.64 26 26" fill="#FFF" mask="url(#n)"/>
        </g>
    </g>
</svg>
