<svg width="60" height="60" viewBox="0 0 60 60" xmlns="http://www.w3.org/2000/svg">
    <title>
        kf-clouds-x3
    </title>
    <g fill="none" fill-rule="evenodd">
        <circle cx="30" cy="30" r="29.5" stroke="#36CD98" opacity=".299"/>
        <path d="M26 37.5l17.937.004c2.856-.36 4.563-2.826 4.563-6.273 0-3.034-2.146-5.616-5.06-6.164l-.275-.052-.1-.262c-.912-2.403-3.201-4.022-5.79-4.022-.905 0-1.783.196-2.587.57l-.427.199-.224-.414c-1.519-2.805-4.428-4.586-7.648-4.586-4.575 0-8.363 3.578-8.69 8.167l-.026.369-.36.083c-2.795.645-4.813 3.171-4.813 6.112 0 3.463 2.777 6.269 6.2 6.269H26z" stroke="#36CD98"/>
        <path d="M24.769 29.412a6.27 6.27 0 1 0-4.575 7.924l4.575-7.924z" stroke="#36CD98"/>
        <path d="M39.323 20.989a6.278 6.278 0 0 0-6.483 1.859l6.483-1.86z" stroke="#36CD98"/>
        <path d="M35.003 32.063a3.938 3.938 0 1 0 0 7.875 3.938 3.938 0 0 0 0-7.875zm0 5.251a1.313 1.313 0 1 1-.001-2.625 1.313 1.313 0 0 1 0 2.625zm5.144-2.743a5.278 5.278 0 0 0-.506-1.21c.246-.33 1.09-1.563.482-2.172l-.313-.33c-.52-.52-1.85.293-2.172.503a5.284 5.284 0 0 0-1.226-.505C36.343 30.444 36.04 29 35.183 29h-.343c-.735 0-1.157 1.493-1.251 1.867-.427.12-.832.292-1.208.507-.297-.22-1.57-1.1-2.192-.48l-.33.278c-.541.542.359 1.97.523 2.22-.208.372-.375.77-.49 1.189-.359.057-1.892.353-1.892 1.235v.343c0 .764 1.608 1.188 1.901 1.26.117.416.284.81.493 1.18-.173.27-1.038 1.693-.501 2.23l.312.26c.707.706 2.182-.454 2.182-.454l-.069-.074c.392.232.816.415 1.263.54.074.302.498 1.899 1.26 1.899h.342c1 0 1.247-1.864 1.247-1.864l-.092-.003c.453-.116.882-.29 1.28-.513.312.208 1.62 1.026 2.14.504l.348-.347c.696-.697-.437-2.121-.468-2.161.215-.377.387-.781.506-1.209.39-.098 1.856-.519 1.856-1.248v-.343c0-.967-1.744-1.23-1.853-1.245zm-5.145 5.368a3.938 3.938 0 1 1 0-7.875 3.938 3.938 0 0 1 0 7.875z" fill-rule="nonzero" fill="#36CD98"/>
    </g>
</svg>
