<svg width="60" height="60" viewBox="0 0 60 60" xmlns="http://www.w3.org/2000/svg" xmlns:xlink="http://www.w3.org/1999/xlink">
    <title>
        kf-coins-x3
    </title>
    <defs>
        <path d="M8 27h12V0H0v11.075c4.564.347 8 1.86 8 3.675V27z" id="a"/>
    </defs>
    <g fill="none" fill-rule="evenodd">
        <circle cx="30" cy="30" r="29.5" stroke="#36CD98" opacity=".299"/>
        <g transform="translate(25 15)">
            <mask id="b" fill="#fff">
                <use xlink:href="#a"/>
            </mask>
            <path d="M3 4.423v.006L3.455 4v1H3V4h1v.454A3.237 3.237 0 0 1 3.455 4H3v.423zM18.545 5V4l.455.43v.516a4.145 4.145 0 0 1-.064.054h-.391zm.39 0H19V4h-.455c-.149.158-.331.31-.545.454v1.16c.355-.188.67-.393.936-.614zM11 7c-2.793 0-5.344-.509-7-1.386V7c0 .837 3.101 2 7 2s7-1.163 7-2V5.614C16.344 6.491 13.793 7 11 7zM3.455 4C4.553 5.165 7.517 6 11 6c3.483 0 6.447-.835 7.545-2H19v3c0 1.657-3.582 3-8 3S3 8.657 3 7V4h.455z" fill-opacity=".503" fill="#36CD98" fill-rule="nonzero" mask="url(#b)"/>
            <path d="M3 7.423v.006L3.455 7v1H3V7h1v.454A3.237 3.237 0 0 1 3.455 7H3v.423zM18.545 8V7l.455.43v.516a4.145 4.145 0 0 1-.064.054h-.391zM11 10c-2.793 0-5.344-.509-7-1.386V10c0 .837 3.101 2 7 2s7-1.163 7-2V8.614C16.344 9.491 13.793 10 11 10zm7.936-2H19V7h-.455c-.149.158-.331.31-.545.454v1.16c.355-.188.67-.393.936-.614zM3.456 7C4.552 8.165 7.515 9 11 9c3.483 0 6.447-.835 7.545-2H19v3c0 1.657-3.582 3-8 3s-8-1.343-8-3V7h.455z" fill-opacity=".503" fill="#36CD98" fill-rule="nonzero" mask="url(#b)"/>
            <path d="M3 10.423v.006L3.455 10v1H3v-1h1v.454A3.237 3.237 0 0 1 3.455 10H3v.423zM18.936 11h-.391v-1l.455.43v.516a4.145 4.145 0 0 1-.064.054zM18 10.454c.214-.145.396-.296.545-.454H19v1h-.064c-.267.22-.58.426-.936.614v-1.16zM11 13c-2.793 0-5.344-.509-7-1.386V13c0 .837 3.101 2 7 2s7-1.163 7-2v-1.386C16.344 12.491 13.793 13 11 13zm-7.545-3c1.098 1.165 4.062 2 7.545 2 3.483 0 6.447-.835 7.545-2H19v3c0 1.657-3.582 3-8 3s-8-1.343-8-3v-3h.455z" fill-opacity=".503" fill="#36CD98" fill-rule="nonzero" mask="url(#b)"/>
            <path d="M3 13.423v.006L3.455 13v1H3v-1h1v.454A3.237 3.237 0 0 1 3.455 13H3v.423zm16 .523v-.517L18.545 13v1h.39l.065-.054zM11 16c-2.793 0-5.344-.509-7-1.386V16c0 .837 3.101 2 7 2s7-1.163 7-2v-1.386C16.344 15.491 13.793 16 11 16zm-7.545-3c1.098 1.165 4.062 2 7.545 2 3.483 0 6.447-.835 7.545-2H19v3c0 1.657-3.582 3-8 3s-8-1.343-8-3v-3h.455z" fill-opacity=".503" fill="#36CD98" fill-rule="nonzero" mask="url(#b)"/>
            <path d="M3 16.423v.006L3.455 16v1H3v-1h1v.454A3.237 3.237 0 0 1 3.455 16H3v.423zm16 .523v-.517L18.545 16v1h.39l.065-.054zM11 19c-2.793 0-5.344-.509-7-1.386V19c0 .837 3.101 2 7 2s7-1.163 7-2v-1.386C16.344 18.491 13.793 19 11 19zm-7.545-3c1.098 1.165 4.062 2 7.545 2 3.483 0 6.447-.835 7.545-2H19v3c0 1.657-3.582 3-8 3s-8-1.343-8-3v-3h.455z" fill-opacity=".503" fill="#36CD98" fill-rule="nonzero" mask="url(#b)"/>
            <path d="M3 19.423v.006L3.455 19v1H3v-1h1v.454A3.237 3.237 0 0 1 3.455 19H3v.423zM18.545 20v-1l.455.43v.516a4.145 4.145 0 0 1-.064.054h-.391zM18 19.454c.214-.145.396-.296.545-.454H19v1h-.064c-.267.22-.58.426-.936.614v-1.16zM11 22c-2.793 0-5.344-.509-7-1.386V22c0 .837 3.101 2 7 2s7-1.163 7-2v-1.386C16.344 21.491 13.793 22 11 22zm-7.545-3c1.098 1.165 4.062 2 7.545 2 3.483 0 6.447-.835 7.545-2H19v3c0 1.657-3.582 3-8 3s-8-1.343-8-3v-3h.455z" fill-opacity=".503" fill="#36CD98" fill-rule="nonzero" mask="url(#b)"/>
            <path d="M11 6c3.899 0 7-1.163 7-2s-3.101-2-7-2-7 1.163-7 2 3.101 2 7 2zm0 1C6.582 7 3 5.657 3 4s3.582-3 8-3 8 1.343 8 3-3.582 3-8 3z" fill="#36CD98" fill-rule="nonzero" mask="url(#b)"/>
        </g>
        <path d="M15 31.423v.006l.455-.429v1H15v-1h1v.454a3.237 3.237 0 0 1-.545-.454H15v.423zm16 .523v-.517L30.545 31v1h.39l.065-.054zM23 34c-2.793 0-5.344-.509-7-1.386V34c0 .837 3.101 2 7 2s7-1.163 7-2v-1.386C28.344 33.491 25.793 34 23 34zm-7.545-3c1.098 1.165 4.062 2 7.545 2 3.483 0 6.447-.835 7.545-2H31v3c0 1.657-3.582 3-8 3s-8-1.343-8-3v-3h.455z" fill-opacity=".503" fill-rule="nonzero" fill="#36CD98"/>
        <path d="M15 34.423v.006l.455-.429v1H15v-1h1v.454a3.237 3.237 0 0 1-.545-.454H15v.423zm16 .523v-.517L30.545 34v1h.39l.065-.054zM23 37c-2.793 0-5.344-.509-7-1.386V37c0 .837 3.101 2 7 2s7-1.163 7-2v-1.386C28.344 36.491 25.793 37 23 37zm-7.545-3c1.098 1.165 4.062 2 7.545 2 3.483 0 6.447-.835 7.545-2H31v3c0 1.657-3.582 3-8 3s-8-1.343-8-3v-3h.455z" fill-opacity=".503" fill-rule="nonzero" fill="#36CD98"/>
        <path d="M15 37.423v.006l.455-.429v1H15v-1h1v.454a3.237 3.237 0 0 1-.545-.454H15v.423zm16 .523v-.517L30.545 37v1h.39l.065-.054zM23 40c-2.793 0-5.344-.509-7-1.386V40c0 .837 3.101 2 7 2s7-1.163 7-2v-1.386C28.344 39.491 25.793 40 23 40zm-7.545-3c1.098 1.165 4.062 2 7.545 2 3.483 0 6.447-.835 7.545-2H31v3c0 1.657-3.582 3-8 3s-8-1.343-8-3v-3h.455z" fill-opacity=".503" fill-rule="nonzero" fill="#36CD98"/>
        <ellipse cx="8" cy="3" rx="8" ry="3" transform="translate(15 28)" fill="#36CD98"/>
    </g>
</svg>
