<svg width="60" height="60" viewBox="0 0 60 60" xmlns="http://www.w3.org/2000/svg">
    <title>
        kf-net-x3
    </title>
    <g fill="none" fill-rule="evenodd">
        <circle cx="30" cy="30" r="29.5" stroke="#36CD98" opacity=".299"/>
        <g transform="translate(12 12)">
            <path d="M2.5 10.5l16-8" stroke="#36CD98" opacity=".497" stroke-linecap="square"/>
            <path d="M2.5 10.5l16 8" stroke="#36CD98" opacity=".497" stroke-linecap="square"/>
            <path d="M2.5 26.5l16 8" stroke="#36CD98" opacity=".497" stroke-linecap="square"/>
            <path d="M18.5 18.5l16 8" stroke="#36CD98" opacity=".497" stroke-linecap="square"/>
            <path d="M18.5 2.5l16 8" stroke="#36CD98" opacity=".497" stroke-linecap="square"/>
            <path d="M2.5 26.5l16-24" stroke="#36CD98" opacity=".497" stroke-linecap="square"/>
            <path d="M18.5 2.5l16 24" stroke="#36CD98" opacity=".497" stroke-linecap="square"/>
            <path d="M2.5 10.5l16 24" stroke="#36CD98" opacity=".497" stroke-linecap="square"/>
            <path d="M18.5 34.5l16-24" stroke="#36CD98" opacity=".497" stroke-linecap="square"/>
            <path d="M18.5 18.5l16-8" stroke="#36CD98" opacity=".497" stroke-linecap="square"/>
            <path d="M18.5 34.5l16-8" stroke="#36CD98" opacity=".497" stroke-linecap="square"/>
            <path d="M2.5 26.5l16-8" stroke="#36CD98" opacity=".497" stroke-linecap="square"/>
            <circle fill="#36CD98" cx="18.5" cy="18.5" r="2.5"/>
            <circle fill="#36CD98" cx="34.5" cy="10.5" r="2.5"/>
            <circle fill="#36CD98" cx="34.5" cy="26.5" r="2.5"/>
            <circle fill="#36CD98" cx="2.5" cy="10.5" r="2.5"/>
            <circle fill="#36CD98" cx="2.5" cy="26.5" r="2.5"/>
            <circle fill="#36CD98" cx="18.5" cy="2.5" r="2.5"/>
            <circle fill="#36CD98" cx="18.5" cy="34.5" r="2.5"/>
        </g>
    </g>
</svg>
