<svg width="60" height="60" viewBox="0 0 60 60" xmlns="http://www.w3.org/2000/svg">
    <title>
        kf-ppl-x3
    </title>
    <g fill="none" fill-rule="evenodd">
        <circle stroke="#36CD98" opacity=".299" cx="30" cy="30" r="29.5"/>
        <g fill="#36CD98">
            <path d="M35.971 33.016c-2.072-1.028-1.275-.242-3.819-1.293-2.545-1.05-3.147-1.394-3.147-1.394l-.023-2.408s.953-.722 1.25-3c.595.172.797-.695.83-1.248.035-.535.351-2.203-.377-2.054.15-1.113.265-2.12.213-2.653-.182-1.87-1.48-3.824-4.755-3.966-2.785.143-4.592 2.097-4.775 3.968-.052.533.055 1.538.203 2.654-.727-.151-.414 1.52-.382 2.054.035.553.232 1.423.828 1.252.296 2.278 1.25 3.004 1.25 3.004l-.024 2.421s-.603.367-3.148 1.417c-2.544 1.053-1.746.219-3.819 1.246C13 34.641 13 39.11 13 39.11a1.23 1.23 0 0 0 1.23 1.229h23.787c.679 0 1.23-.55 1.23-1.226 0-.004 0-4.471-3.276-6.096z" fill-rule="nonzero"/>
            <path d="M48.944 39.22s0-4.065-2.98-5.543c-1.886-.936-1.16-.22-3.475-1.177-2.315-.956-2.863-1.268-2.863-1.268l-.02-2.191s.867-.656 1.137-2.729c.541.156.725-.632.754-1.136.032-.486.32-2.003-.342-1.868.135-1.013.242-1.93.193-2.414-.164-1.702-1.346-3.479-4.325-3.609-2.533.13-4.178 1.908-4.344 3.61-.047.485.05 1.4.186 2.415-.663-.137-.377 1.382-.348 1.869.032.504.21 1.295.754 1.139.27 2.072 1.137 2.733 1.137 2.733l-.022 2.195c.787.186.893.035 2.48.823 3.715 1.842 3.715 6.909 3.715 6.909h-.001v.003a1.39 1.39 0 0 1-1.092 1.356h8.337c.618 0 1.12-.5 1.12-1.116v-.001z" opacity=".498"/>
        </g>
    </g>
</svg>
