<svg width="60" height="60" viewBox="0 0 60 60" xmlns="http://www.w3.org/2000/svg">
    <title>
        kf-stars-x3
    </title>
    <g fill="none" fill-rule="evenodd">
        <circle cx="30" cy="30" r="29.5" stroke="#36CD98" opacity=".299"/>
        <path d="M30.535 39.762l-5.918 3.111a1 1 0 0 1-1.45-1.054l1.13-6.589a1 1 0 0 0-.288-.885l-4.787-4.666a1 1 0 0 1 .554-1.706l6.616-.962a1 1 0 0 0 .753-.547l2.958-5.995a1 1 0 0 1 1.794 0l2.958 5.995a1 1 0 0 0 .753.547l6.616.962a1 1 0 0 1 .554 1.706l-4.787 4.666a1 1 0 0 0-.288.885l1.13 6.59a1 1 0 0 1-1.45 1.053l-5.918-3.11a1 1 0 0 0-.93 0z" fill="#36CD98"/>
        <path d="M41.135 22.765l2.996 10.75a.5.5 0 0 0 .237.293l4.896 2.683a.5.5 0 0 0 .734-.514l-.83-5.4a1.5 1.5 0 0 1 .455-1.32l3.979-3.746a.5.5 0 0 0-.262-.857l-5.393-.88a1.5 1.5 0 0 1-1.115-.84L44.5 17.993a.5.5 0 0 0-.897-.016l-2.468 4.788z" stroke="#36CD98" opacity=".502"/>
        <path d="M21.118 22.765l-2.996 10.75a.5.5 0 0 1-.237.293l-4.896 2.683a.5.5 0 0 1-.734-.514l.83-5.4a1.5 1.5 0 0 0-.455-1.32L8.65 25.51a.5.5 0 0 1 .262-.857l5.393-.88a1.5 1.5 0 0 0 1.115-.84l2.332-4.941a.5.5 0 0 1 .897-.016l2.468 4.788z" stroke="#36CD98" opacity=".502"/>
    </g>
</svg>
