<svg width="616" height="375" viewBox="0 0 616 375" xmlns="http://www.w3.org/2000/svg" xmlns:xlink="http://www.w3.org/1999/xlink">
    <title>
        Page 1
    </title>
    <defs>
        <path id="a" d="M0 365h616.373V.243H0z"/>
    </defs>
    <g fill="none" fill-rule="evenodd">
        <path stroke="#082044" stroke-width="2" d="M15.052 9.205L8.087 2.24 1.123 9.205"/>
        <g transform="translate(0 9.757)">
            <path fill-opacity=".2" fill="#FFF" d="M58.973 363.654h4.688v1.155h-6.01v-10.533h1.322z"/>
            <path d="M70.761 360.799c0-.954-.2-1.702-.603-2.244-.4-.541-.99-.812-1.766-.812-.777 0-1.37.27-1.783.812-.413.542-.62 1.29-.62 2.244 0 .955.195 1.703.586 2.244.391.542.974.813 1.75.813s1.375-.271 1.8-.813c.424-.541.636-1.29.636-2.244m-2.395-4.194c1.117 0 2.02.362 2.706 1.088.686.725 1.03 1.764 1.03 3.115 0 1.339-.344 2.372-1.03 3.097-.687.726-1.589 1.089-2.706 1.089-1.116 0-2.017-.363-2.704-1.09-.686-.724-1.03-1.757-1.03-3.096 0-1.351.344-2.39 1.03-3.115.687-.726 1.588-1.088 2.704-1.088" fill-opacity=".2" fill="#FFF"/>
            <path d="M79.587 361.477c-.794-.224-1.486-.335-2.078-.335-.591 0-1.07.106-1.44.317-.368.213-.552.548-.552 1.005 0 1.005.57 1.508 1.709 1.508.647 0 1.203-.232 1.665-.695.463-.463.695-1.064.695-1.8zm0-1.859c0-.726-.151-1.245-.453-1.558-.302-.312-.74-.469-1.314-.469-.575 0-1.04.115-1.39.344-.353.23-.529.59-.529 1.08h-1.456c0-1.228.66-1.987 1.977-2.277.4-.09.837-.134 1.306-.134.994 0 1.769.251 2.328.753.556.503.837 1.267.837 2.294v5.158h-1.14l-.133-1.34c-.492 1.017-1.38 1.525-2.663 1.525-.86 0-1.55-.24-2.067-.72a2.338 2.338 0 0 1-.78-1.793c0-.714.288-1.273.862-1.674.576-.402 1.294-.603 2.153-.603s1.68.145 2.462.435v-1.02z" fill-opacity=".2" fill="#FFF"/>
            <path d="M85.28 358.346c.524-1.161 1.424-1.741 2.696-1.741.949 0 1.689.312 2.219.937.53.625.796 1.48.796 2.562v4.706h-1.307v-4.706c0-.77-.181-1.351-.544-1.741-.363-.391-.88-.586-1.548-.586-.67 0-1.212.273-1.625.82-.414.547-.631 1.307-.654 2.277v3.936H83.99v-8.005h1.139l.15 1.54z" fill-opacity=".2" fill="#FFF"/>
            <path fill-opacity=".2" fill="#FFF" d="M101.473 356.587v3.55h3.45v1.123h-3.45v3.55h-1.323v-3.55h-3.449v-1.122h3.45v-3.551z"/>
            <mask id="b" fill="#fff">
                <use xlink:href="#a"/>
            </mask>
            <path fill-opacity=".2" fill="#FFF" mask="url(#b)" d="M110.901 364.809h1.323v-10.533h-1.323z"/>
            <path d="M116.862 358.346c.524-1.161 1.424-1.741 2.696-1.741.949 0 1.689.312 2.219.937.53.625.796 1.48.796 2.562v4.706h-1.307v-4.706c0-.77-.181-1.351-.544-1.741-.363-.391-.88-.586-1.548-.586-.67 0-1.212.273-1.625.82-.414.547-.631 1.307-.654 2.277v3.936h-1.322v-8.005h1.139l.15 1.54z" fill-opacity=".2" fill="#FFF" mask="url(#b)"/>
            <path d="M129.875 364.575c-.96.446-1.837.541-2.63.284-.568-.178-.971-.552-1.205-1.12-.123-.28-.185-.615-.185-1.006v-4.924h-1.29v-1.005h1.29v-2.226h1.307v2.226h2.512v1.005h-2.512v4.908c0 .814.379 1.221 1.139 1.221.413 0 .876-.1 1.389-.3l.185.937z" fill-opacity=".2" fill="#FFF" mask="url(#b)"/>
            <path d="M135.718 357.86c-.257-.135-.569-.2-.937-.2-.682 0-1.22.23-1.617.694-.396.463-.628 1.041-.695 1.733h4.27c0-1.117-.34-1.859-1.02-2.227m-.973 6.062c1.106 0 1.737-.486 1.893-1.458h1.356c-.123.804-.477 1.427-1.063 1.868-.586.441-1.315.662-2.186.662-1.07 0-1.942-.383-2.612-1.148-.67-.764-1.005-1.783-1.005-3.055 0-1.274.338-2.289 1.014-3.048.675-.76 1.574-1.139 2.696-1.139s1.96.435 2.512 1.306c.553.871.745 1.931.577 3.181h-5.476c0 .827.202 1.505.603 2.036.402.53.966.795 1.691.795" fill-opacity=".2" fill="#FFF" mask="url(#b)"/>
            <path d="M143.874 357.927c-1.262 0-1.915.994-1.96 2.98v3.903h-1.322v-8.022h1.322v1.54c.402-1.115 1.11-1.673 2.127-1.673.324 0 .63.049.92.15l-.066 1.29a3.222 3.222 0 0 0-1.021-.168" fill-opacity=".2" fill="#FFF" mask="url(#b)"/>
            <path d="M150.722 357.86c-.257-.135-.569-.2-.937-.2-.682 0-1.22.23-1.617.694-.396.463-.628 1.041-.695 1.733h4.27c0-1.117-.34-1.859-1.02-2.227m-.973 6.062c1.106 0 1.737-.486 1.893-1.458H153c-.123.804-.477 1.427-1.063 1.868-.586.441-1.315.662-2.186.662-1.07 0-1.942-.383-2.612-1.148-.67-.764-1.005-1.783-1.005-3.055 0-1.274.338-2.289 1.014-3.048.675-.76 1.574-1.139 2.696-1.139s1.96.435 2.512 1.306c.553.871.745 1.931.577 3.181h-5.476c0 .827.202 1.505.603 2.036.402.53.966.795 1.691.795" fill-opacity=".2" fill="#FFF" mask="url(#b)"/>
            <path d="M156.04 357.19c.563-.39 1.326-.586 2.286-.586s1.71.2 2.252.603c.542.401.823.91.846 1.523h-1.29c-.1-.726-.714-1.088-1.841-1.088-.548 0-.97.123-1.265.368-.296.246-.443.511-.443.796a.92.92 0 0 0 .334.72c.224.195.58.365 1.072.511l1.608.536c.68.212 1.203.482 1.565.811.363.33.545.783.545 1.357 0 .575-.296 1.095-.888 1.557-.592.464-1.418.696-2.478.696-1.061 0-1.887-.238-2.48-.712-.591-.475-.903-1.086-.936-1.834h1.272c.023.503.227.88.612 1.131.384.251.868.376 1.448.376s1.06-.122 1.44-.369c.38-.245.57-.538.57-.878 0-.34-.112-.6-.335-.779-.224-.178-.586-.335-1.09-.469l-1.556-.519c-1.395-.413-2.094-1.139-2.094-2.177 0-.659.283-1.183.846-1.574" fill-opacity=".2" fill="#FFF" mask="url(#b)"/>
            <path d="M168.607 364.575c-.96.446-1.837.541-2.629.284-.569-.178-.972-.552-1.206-1.12-.123-.28-.185-.615-.185-1.006v-4.924h-1.289v-1.005h1.289v-2.226h1.307v2.226h2.512v1.005h-2.512v4.908c0 .814.379 1.221 1.139 1.221.413 0 .876-.1 1.389-.3l.185.937z" fill-opacity=".2" fill="#FFF" mask="url(#b)"/>
        </g>
        <path d="M190.373 370.95h419.64c3.732 0 4.86-3.249 4.86-7.428V97.704c0-4.178-1.128-7.754-4.86-7.754h-25.64" stroke-opacity=".2" stroke="#808285" stroke-width="2"/>
        <path d="M7.873 346.453v17.17c0 3.717 5.186 6.33 8.904 6.33h27.596" stroke-opacity=".2" stroke="#808285" stroke-width="2"/>
        <path d="M7.873 10.45v340.003" stroke="#082044" stroke-width="2"/>
    </g>
</svg>
