<svg width="694" height="329" viewBox="0 0 694 329" xmlns="http://www.w3.org/2000/svg" xmlns:xlink="http://www.w3.org/1999/xlink">
    <title>
        Page 1
    </title>
    <defs>
        <path id="a" d="M6.84.294H.827v10.533H6.84V.294z"/>
    </defs>
    <g fill="none" fill-rule="evenodd">
        <path d="M1.5 68.453v-25" stroke="#051A38" stroke-width="2"/>
        <path d="M144 4.952h543.448c4.094 0 5.052 3.288 5.052 6.822v302.328c0 3.533-.958 5.85-5.052 5.85H682" stroke-opacity=".2" stroke="#808285" stroke-width="2"/>
        <path d="M1.5 45.453v-34.88c0-4.21 3.411-3.62 7.62-3.62H81" stroke-opacity=".2" stroke="#808285" stroke-width="2"/>
        <path stroke-opacity=".2" stroke="#808285" stroke-width="2" d="M683.41 313.59l-6.993 6.992 6.992 6.992"/>
        <g transform="translate(93 -.294)">
            <mask id="b" fill="#fff">
                <use xlink:href="#a"/>
            </mask>
            <path fill-opacity=".2" fill="#FFF" mask="url(#b)" d="M2.151 9.672H6.84v1.155H.83V.294H2.15z"/>
        </g>
        <path d="M106.94 6.522c0-.955-.2-1.702-.604-2.244-.4-.54-.99-.812-1.765-.812-.778 0-1.37.271-1.784.812-.413.542-.62 1.29-.62 2.244 0 .955.195 1.703.586 2.244.391.542.974.812 1.75.812s1.375-.27 1.8-.812c.424-.54.636-1.289.636-2.244m-2.395-4.195c1.117 0 2.02.363 2.706 1.09.686.725 1.03 1.763 1.03 3.113 0 1.34-.344 2.373-1.03 3.098-.687.727-1.589 1.09-2.706 1.09-1.116 0-2.017-.363-2.704-1.09-.686-.725-1.03-1.758-1.03-3.098 0-1.35.344-2.388 1.03-3.114.687-.726 1.588-1.089 2.704-1.089" fill-opacity=".2" fill="#FFF"/>
        <path d="M115.765 7.2c-.793-.223-1.485-.335-2.077-.335-.592 0-1.071.106-1.44.318-.37.212-.552.547-.552 1.005 0 1.005.569 1.507 1.708 1.507A2.27 2.27 0 0 0 115.07 9c.463-.463.695-1.063.695-1.8zm0-1.859c0-.725-.151-1.245-.452-1.557-.302-.313-.74-.469-1.315-.469s-1.04.114-1.39.343c-.352.23-.528.59-.528 1.081h-1.457c0-1.228.66-1.988 1.977-2.278a6.029 6.029 0 0 1 1.306-.134c.994 0 1.769.251 2.328.753.557.503.837 1.268.837 2.295v5.159h-1.14l-.133-1.34c-.491 1.015-1.38 1.523-2.663 1.523-.86 0-1.55-.24-2.067-.72a2.34 2.34 0 0 1-.78-1.792c0-.714.289-1.273.863-1.675.575-.402 1.293-.602 2.152-.602.859 0 1.68.145 2.462.435V5.341z" fill-opacity=".2" fill="#FFF"/>
        <path d="M121.458 4.07c.524-1.162 1.424-1.743 2.696-1.743.949 0 1.689.313 2.219.938.53.625.796 1.48.796 2.562v4.706h-1.307V5.827c0-.77-.181-1.35-.544-1.74-.363-.392-.88-.587-1.548-.587-.67 0-1.212.273-1.625.82-.414.547-.631 1.306-.654 2.278v3.935h-1.322V2.528h1.139l.15 1.541z" fill-opacity=".2" fill="#FFF"/>
    </g>
</svg>
