<svg width="68" height="70" viewBox="0 0 68 70" xmlns="http://www.w3.org/2000/svg">
    <title>
        logo-big
    </title>
    <g fill="#FFF" fill-rule="evenodd">
        <path d="M33.308 24c-5.707 0-10.68-4.915-19.682-13.815L11.68 8.262a2.275 2.275 0 0 1 0-3.245 2.34 2.34 0 0 1 3.283 0L16.91 6.94c8.283 8.187 12.785 12.47 16.403 12.47h.028c3.641-.023 8.21-4.37 16.636-12.7l2.06-2.038a2.34 2.34 0 0 1 3.284 0c.907.897.907 2.35 0 3.247l-2.06 2.035C44.12 18.988 39.086 23.964 33.37 24h-.062z"/>
        <path d="M13.322 66a2.326 2.326 0 0 1-1.641-.673 2.274 2.274 0 0 1 0-3.244l2.06-2.038c9.14-9.032 14.173-14.007 19.89-14.044l.061-.001c5.707 0 10.68 4.916 19.682 13.815l1.946 1.922c.907.896.907 2.35 0 3.246a2.34 2.34 0 0 1-3.282 0l-1.946-1.922c-8.285-8.188-12.786-12.47-16.403-12.47h-.02c-3.65.022-8.217 4.37-16.645 12.7l-2.06 2.036a2.326 2.326 0 0 1-1.642.673"/>
        <path d="M61.705 59a2.25 2.25 0 0 1-1.623-.695L58.046 56.2C49.012 46.857 44.036 41.711 44 35.867c-.035-5.86 4.885-10.947 13.815-20.183l1.923-1.988a2.24 2.24 0 0 1 3.245-.001 2.43 2.43 0 0 1 0 3.357L61.06 19.04c-8.21 8.491-12.493 13.094-12.47 16.797.022 3.722 4.37 8.39 12.7 17.005l2.037 2.108a2.428 2.428 0 0 1 0 3.355 2.25 2.25 0 0 1-1.622.695"/>
        <path d="M5.639 59a2.253 2.253 0 0 1-1.624-.695 2.43 2.43 0 0 1 .001-3.355L5.94 52.96c8.21-8.49 12.494-13.094 12.471-16.798-.022-3.722-4.37-8.391-12.701-17.004l-2.037-2.107a2.432 2.432 0 0 1 0-3.357 2.242 2.242 0 0 1 3.246 0l2.036 2.106C17.988 25.143 22.964 30.29 23 36.134c.036 5.86-4.884 10.947-13.816 20.183l-1.923 1.988A2.248 2.248 0 0 1 5.64 59"/>
        <path d="M68 35c0-2.21-1.344-4-3-4-1.657 0-3 1.79-3 4s1.343 4 3 4c1.656 0 3-1.79 3-4"/>
        <path d="M36 4c0-2.21-1.343-4-3-4-1.656 0-3 1.79-3 4s1.344 4 3 4c1.657 0 3-1.79 3-4"/>
        <path d="M0 37c0 2.21 1.344 4 3 4 1.657 0 3-1.79 3-4s-1.343-4-3-4c-1.656 0-3 1.79-3 4"/>
        <path d="M30 66.5c0 1.933 1.344 3.5 3 3.5 1.657 0 3-1.567 3-3.5 0-1.934-1.343-3.5-3-3.5-1.656 0-3 1.566-3 3.5"/>
    </g>
</svg>
