<svg width="95" height="21" viewBox="0 0 95 21" xmlns="http://www.w3.org/2000/svg" xmlns:xlink="http://www.w3.org/1999/xlink">
    <title>
        Group
    </title>
    <defs>
        <path id="a" d="M2.833 2.059V.085H.859v1.974h1.974z"/>
    </defs>
    <g fill="none" fill-rule="evenodd">
        <path d="M9.973 7.025c1.664 0 3.115-1.45 5.74-4.077l.57-.568a.677.677 0 1 0-.958-.958l-.568.568c-2.417 2.417-3.73 3.681-4.786 3.681h-.008C8.9 5.664 7.569 4.381 5.11 1.921l-.601-.6a.677.677 0 1 0-.958.958l.6.6c2.667 2.667 4.135 4.135 5.803 4.146h.019z" fill="#FFF"/>
        <path d="M9.973 7.025c1.664 0 3.115-1.45 5.74-4.077l.57-.568a.677.677 0 1 0-.958-.958l-.568.568c-2.417 2.417-3.73 3.681-4.786 3.681h-.008C8.9 5.664 7.569 4.381 5.11 1.921l-.601-.6a.677.677 0 1 0-.958.958l.6.6c2.667 2.667 4.135 4.135 5.803 4.146h.019z" stroke="#2828F3" stroke-width=".1"/>
        <path d="M15.803 19a.677.677 0 0 0 .479-1.155l-.601-.602c-2.666-2.666-4.135-4.135-5.803-4.145H9.86c-1.665 0-3.117 1.45-5.743 4.077l-.567.567a.677.677 0 1 0 .958.958l.567-.567c2.416-2.416 3.73-3.681 4.786-3.681h.005c1.065.007 2.398 1.29 4.856 3.749l.6.6a.672.672 0 0 0 .48.199" fill="#FFF"/>
        <path d="M15.803 19a.677.677 0 0 0 .479-1.155l-.601-.602c-2.666-2.666-4.135-4.135-5.803-4.145H9.86c-1.665 0-3.117 1.45-5.743 4.077l-.567.567a.677.677 0 1 0 .958.958l.567-.567c2.416-2.416 3.73-3.681 4.786-3.681h.005c1.065.007 2.398 1.29 4.856 3.749l.6.6a.672.672 0 0 0 .48.199z" stroke="#2828F3" stroke-width=".1"/>
        <path d="M1.654 16.626a.671.671 0 0 0 .48-.2l.6-.6C5.4 13.16 6.87 11.69 6.88 10.023c.01-1.671-1.442-3.124-4.078-5.76l-.567-.567a.678.678 0 0 0-.958 0 .675.675 0 0 0 0 .957l.567.569c2.423 2.423 3.688 3.736 3.681 4.793-.007 1.062-1.29 2.395-3.748 4.853l-.602.602a.677.677 0 0 0 .48 1.156" fill="#FFF"/>
        <path d="M1.654 16.626a.671.671 0 0 0 .48-.2l.6-.6C5.4 13.16 6.87 11.69 6.88 10.023c.01-1.671-1.442-3.124-4.078-5.76l-.567-.567a.678.678 0 0 0-.958 0 .675.675 0 0 0 0 .957l.567.569c2.423 2.423 3.688 3.736 3.681 4.793-.007 1.062-1.29 2.395-3.748 4.853l-.602.602a.677.677 0 0 0 .48 1.156z" stroke="#2828F3" stroke-width=".1"/>
        <path d="M18.076 16.626a.677.677 0 0 0 .479-1.156l-.568-.57c-2.423-2.421-3.687-3.735-3.68-4.792.006-1.062 1.29-2.394 3.748-4.853l.602-.602a.676.676 0 1 0-.958-.957l-.602.6c-2.666 2.667-4.134 4.136-4.145 5.804-.01 1.672 1.441 3.124 4.077 5.759l.568.569a.676.676 0 0 0 .48.198" fill="#FFF"/>
        <path d="M18.076 16.626a.677.677 0 0 0 .479-1.156l-.568-.57c-2.423-2.421-3.687-3.735-3.68-4.792.006-1.062 1.29-2.394 3.748-4.853l.602-.602a.676.676 0 1 0-.958-.957l-.602.6c-2.666 2.667-4.134 4.136-4.145 5.804-.01 1.672 1.441 3.124 4.077 5.759l.568.569a.676.676 0 0 0 .48.198z" stroke="#2828F3" stroke-width=".1"/>
        <path d="M0 9.928a.986.986 0 1 1 1.973 0 .986.986 0 0 1-1.973 0" fill="#FFF"/>
        <path d="M8.93.987a.986.986 0 1 1 1.972-.001.986.986 0 0 1-1.972.001" fill="#FFF"/>
        <g transform="translate(17 9.268)">
            <mask id="b" fill="#fff">
                <use xlink:href="#a"/>
            </mask>
            <path d="M2.833 1.072a.987.987 0 1 1-1.974 0 .987.987 0 0 1 1.974 0" fill="#FFF" mask="url(#b)"/>
        </g>
        <path d="M10.903 19.281a.986.986 0 1 1-.986-.987c.545 0 .986.442.986.987" fill="#FFF"/>
        <path d="M34.446 6.394c.563 0 1.079.093 1.547.28.468.186.871.461 1.209.825.71.763 1.066 1.855 1.066 3.276 0 1.43-.355 2.535-1.066 3.315-.676.728-1.599 1.092-2.769 1.092-1.161 0-2.08-.373-2.756-1.118-.71-.771-1.066-1.868-1.066-3.289 0-1.439.355-2.54 1.066-3.302.667-.72 1.59-1.079 2.769-1.079zm1.632 2.165c-.404-.525-.947-.787-1.632-.787-.685 0-1.23.262-1.638.787-.407.524-.611 1.27-.611 2.236 0 .966.204 1.707.611 2.223.407.515.953.773 1.638.773.685 0 1.228-.258 1.632-.774.403-.515.604-1.256.604-2.223 0-.966-.201-1.711-.605-2.236zM50.004 15H48.08l-2.223-2.99L43.881 15h-1.872l2.977-4.199-2.99-4.238h1.885l2.132 3.042 1.846-3.042h1.859l-2.847 4.212L50.004 15zm5.483-8.437l1.859 3.367 1.95-3.367h1.807L58.1 11.516V15h-1.534v-3.484l-2.899-4.953h1.82zm15.207 7.098c-.364 1.014-1.062 1.521-2.093 1.521-1.057 0-1.928-.399-2.613-1.196-.71-.823-1.066-1.876-1.066-3.159 0-1.352.381-2.435 1.144-3.25.737-.789 1.686-1.183 2.847-1.183.789 0 1.45.171 1.983.513.533.343.95.882 1.254 1.619l-1.573.364c-.46-.737-1.04-1.105-1.742-1.105-.641 0-1.174.273-1.599.819-.442.555-.663 1.296-.663 2.223 0 .875.2 1.586.598 2.132.39.537.91.806 1.56.806.555 0 1.01-.178 1.365-.533.364-.364.546-.862.546-1.495v-.052l-1.898-.039v-.988h3.367V15h-1.248l-.169-1.339zm6.614-7.098h5.434v1.326h-3.9v2.223h3.653v1.326h-3.653v2.223h3.9V15h-5.434V6.563zm12.282 0l3.718 5.98v-5.98h1.534V15h-1.56l-3.835-6.188V15h-1.534V6.563h1.677z" fill="#FFF"/>
    </g>
</svg>
