<svg width="63" height="64" viewBox="0 0 63 64" xmlns="http://www.w3.org/2000/svg">
    <title>
        logo-big
    </title>
    <g fill="#FFF" fill-rule="evenodd">
        <path d="M31.137 22.183c-5.257 0-9.838-4.58-18.131-12.875l-1.793-1.792a2.137 2.137 0 0 1 0-3.024 2.137 2.137 0 0 1 3.025 0l1.792 1.792c7.63 7.63 11.778 11.622 15.11 11.622h.027c3.354-.022 7.562-4.074 15.325-11.837L48.39 4.17a2.139 2.139 0 0 1 3.025 3.026l-1.898 1.897c-8.42 8.42-13.057 13.057-18.323 13.09h-.057z"/>
        <path d="M12.726 59.998a2.137 2.137 0 0 1-1.512-3.651l1.898-1.9C21.53 46.03 26.168 41.394 31.434 41.36l.057-.001c5.257 0 9.839 4.582 18.13 12.876l1.794 1.79a2.14 2.14 0 0 1-3.024 3.027l-1.792-1.792c-7.632-7.631-11.78-11.623-15.111-11.623h-.018c-3.363.02-7.57 4.074-15.334 11.838l-1.898 1.897a2.13 2.13 0 0 1-1.512.627"/>
        <path d="M57.401 52.498a2.133 2.133 0 0 1-1.512-.626l-1.898-1.898c-8.419-8.42-13.057-13.056-13.09-18.323-.033-5.28 4.552-9.865 12.875-18.188l1.792-1.792a2.137 2.137 0 1 1 3.025 3.024L56.8 16.487c-7.65 7.652-11.643 11.8-11.62 15.137.02 3.354 4.072 7.56 11.835 15.325l1.898 1.899a2.137 2.137 0 0 1-1.512 3.65"/>
        <path d="M5.547 52.498a2.137 2.137 0 0 1-1.512-3.65l1.792-1.792c7.65-7.652 11.643-11.8 11.622-15.138-.021-3.354-4.073-7.562-11.837-15.324l-1.898-1.9a2.14 2.14 0 0 1 3.025-3.023l1.897 1.897c8.419 8.419 13.057 13.057 13.09 18.324.034 5.28-4.551 9.865-12.875 18.188l-1.792 1.792a2.13 2.13 0 0 1-1.512.626"/>
        <path d="M62.627 31.35a3.117 3.117 0 1 0-6.234.002 3.117 3.117 0 0 0 6.234-.002"/>
        <path d="M34.43 3.117a3.116 3.116 0 1 0-6.232-.002 3.116 3.116 0 0 0 6.232.002"/>
        <path d="M0 32.65a3.116 3.116 0 1 0 6.232-.001 3.116 3.116 0 0 0-6.232 0"/>
        <path d="M28.196 60.884a3.117 3.117 0 1 0 6.234-.002 3.117 3.117 0 0 0-6.234.002"/>
    </g>
</svg>
