<svg width="137" height="125" viewBox="0 0 137 125" xmlns="http://www.w3.org/2000/svg">
    <title>
        Group
    </title>
    <g fill="#FFF" fill-rule="evenodd">
        <path d="M71.137 22.183c-5.257 0-9.838-4.58-18.131-12.875l-1.793-1.792a2.137 2.137 0 0 1 0-3.024 2.137 2.137 0 0 1 3.025 0l1.792 1.792c7.63 7.63 11.778 11.622 15.11 11.622h.027c3.354-.022 7.562-4.074 15.325-11.837L88.39 4.17a2.139 2.139 0 0 1 3.025 3.026l-1.898 1.897c-8.42 8.42-13.057 13.057-18.323 13.09h-.057z"/>
        <path d="M52.726 59.998a2.137 2.137 0 0 1-1.512-3.651l1.898-1.9C61.53 46.03 66.168 41.394 71.434 41.36l.057-.001c5.257 0 9.839 4.582 18.13 12.876l1.794 1.79a2.14 2.14 0 0 1-3.024 3.027l-1.792-1.792c-7.632-7.631-11.78-11.623-15.111-11.623h-.018c-3.363.02-7.57 4.074-15.334 11.838l-1.898 1.897a2.13 2.13 0 0 1-1.512.627"/>
        <path d="M97.401 52.498a2.133 2.133 0 0 1-1.512-.626l-1.898-1.898c-8.419-8.42-13.057-13.056-13.09-18.323-.033-5.28 4.552-9.865 12.875-18.188l1.792-1.792a2.137 2.137 0 1 1 3.025 3.024L96.8 16.487c-7.65 7.652-11.643 11.8-11.62 15.137.02 3.354 4.072 7.56 11.835 15.325l1.898 1.899a2.137 2.137 0 0 1-1.512 3.65"/>
        <path d="M45.547 52.498a2.137 2.137 0 0 1-1.512-3.65l1.792-1.792c7.65-7.652 11.643-11.8 11.622-15.138-.021-3.354-4.073-7.562-11.837-15.324l-1.898-1.9a2.14 2.14 0 0 1 3.025-3.023l1.897 1.897c8.419 8.419 13.057 13.057 13.09 18.324.034 5.28-4.551 9.865-12.875 18.188l-1.792 1.792a2.13 2.13 0 0 1-1.512.626"/>
        <path d="M102.627 31.35a3.117 3.117 0 1 0-6.234.002 3.117 3.117 0 0 0 6.234-.002"/>
        <path d="M74.43 3.117a3.116 3.116 0 1 0-6.232-.002 3.116 3.116 0 0 0 6.232.002"/>
        <path d="M40 32.65a3.116 3.116 0 1 0 6.232-.001 3.116 3.116 0 0 0-6.232 0"/>
        <path d="M68.196 60.884a3.117 3.117 0 1 0 6.234-.002 3.117 3.117 0 0 0-6.234.002"/>
        <path d="M10.112 102.816c1.387 0 2.656.23 3.808.688a8.093 8.093 0 0 1 2.976 2.032c1.75 1.877 2.624 4.565 2.624 8.064 0 3.52-.875 6.24-2.624 8.16-1.664 1.792-3.936 2.688-6.816 2.688-2.859 0-5.12-.917-6.784-2.752-1.75-1.899-2.624-4.597-2.624-8.096 0-3.541.875-6.25 2.624-8.128 1.643-1.77 3.915-2.656 6.816-2.656zm4.016 5.328c-.992-1.29-2.33-1.936-4.016-1.936-1.685 0-3.03.645-4.032 1.936-1.003 1.29-1.504 3.125-1.504 5.504 0 2.379.501 4.203 1.504 5.472 1.003 1.27 2.347 1.904 4.032 1.904s3.024-.635 4.016-1.904c.992-1.27 1.488-3.093 1.488-5.472 0-2.379-.496-4.213-1.488-5.504zM44.024 124h-4.736l-5.472-7.36-4.864 7.36h-4.608l7.328-10.336-7.36-10.432h4.64l5.248 7.488 4.544-7.488h4.576L36.312 113.6l7.712 10.4zm9.112-20.768l4.576 8.288 4.8-8.288h4.448l-7.392 12.192V124h-3.776v-8.576l-7.136-12.192h4.48zm33.048 17.472c-.896 2.496-2.613 3.744-5.152 3.744-2.603 0-4.747-.981-6.432-2.944-1.75-2.027-2.624-4.619-2.624-7.776 0-3.328.939-5.995 2.816-8 1.813-1.941 4.15-2.912 7.008-2.912 1.941 0 3.568.421 4.88 1.264 1.312.843 2.341 2.17 3.088 3.984l-3.872.896c-1.13-1.813-2.56-2.72-4.288-2.72-1.579 0-2.89.672-3.936 2.016-1.088 1.365-1.632 3.19-1.632 5.472 0 2.155.49 3.904 1.472 5.248.96 1.323 2.24 1.984 3.84 1.984 1.365 0 2.485-.437 3.36-1.312.896-.896 1.344-2.123 1.344-3.68v-.128l-4.672-.096v-2.432h8.288V124H86.6l-.416-3.296zm11.896-17.472h13.376v3.264h-9.6v5.472h8.992v3.264h-8.992v5.472h9.6V124H98.08v-20.768zm25.848 0l9.152 14.72v-14.72h3.776V124h-3.84l-9.44-15.232V124H119.8v-20.768h4.128z"/>
    </g>
</svg>
