<svg width="48" height="48" viewBox="0 0 48 48" xmlns="http://www.w3.org/2000/svg">
    <title>
        logo-full
    </title>
    <g fill="none" fill-rule="evenodd">
        <path d="M48 24c0 13.255-10.745 24-24 24S0 37.255 0 24 10.745 0 24 0s24 10.745 24 24" fill="#FFF"/>
        <g fill="#000">
            <path d="M23.91 18.984c-2.686 0-5.026-2.34-9.265-6.579l-.915-.915a1.092 1.092 0 1 1 1.545-1.546l.916.916c3.899 3.9 6.018 5.938 7.72 5.938h.015c1.713-.01 3.863-2.082 7.83-6.048l.97-.97a1.092 1.092 0 1 1 1.545 1.546l-.97.97c-4.301 4.301-6.671 6.67-9.362 6.688h-.03z"/>
            <path d="M14.502 38.305a1.092 1.092 0 0 1-.772-1.865l.97-.97C19 31.17 21.37 28.8 24.061 28.783h.028c2.686 0 5.027 2.34 9.265 6.578l.916.917a1.094 1.094 0 0 1-1.545 1.546l-.916-.916c-3.9-3.9-6.019-5.94-7.722-5.94h-.009c-1.718.012-3.868 2.082-7.835 6.049l-.97.97c-.212.214-.493.32-.772.32"/>
            <path d="M37.33 34.473c-.28 0-.56-.106-.772-.319l-.97-.97c-4.302-4.302-6.671-6.672-6.69-9.362-.015-2.699 2.328-5.04 6.58-9.294l.916-.916a1.092 1.092 0 1 1 1.545 1.546l-.916.915c-3.91 3.91-5.95 6.03-5.938 7.735.01 1.714 2.082 3.863 6.049 7.83l.969.97a1.093 1.093 0 0 1-.772 1.865"/>
            <path d="M10.834 34.473a1.094 1.094 0 0 1-.772-1.865l.915-.916c3.91-3.909 5.95-6.029 5.938-7.735-.01-1.713-2.08-3.863-6.048-7.83l-.97-.969a1.092 1.092 0 1 1 1.545-1.546l.97.97c4.302 4.301 6.672 6.671 6.69 9.362.016 2.698-2.327 5.041-6.58 9.294l-.916.916a1.089 1.089 0 0 1-.772.32"/>
            <path d="M40 23.668a1.593 1.593 0 1 0-3.185 0 1.593 1.593 0 0 0 3.185 0"/>
            <path d="M25.593 9.242a1.593 1.593 0 1 0-3.187 0 1.593 1.593 0 0 0 3.187 0"/>
            <path d="M8 24.332a1.593 1.593 0 1 0 3.187 0 1.593 1.593 0 0 0-3.187 0"/>
            <path d="M22.408 38.759a1.592 1.592 0 1 0 3.184-.001 1.592 1.592 0 0 0-3.184 0"/>
        </g>
    </g>
</svg>
