<svg width="136" height="31" viewBox="0 0 136 31" xmlns="http://www.w3.org/2000/svg">
    <title>
        Group 3
    </title>
    <g fill="#FFF" fill-rule="evenodd">
        <path d="M14.915 11c-2.537 0-4.747-2.212-8.748-6.217l-.865-.865a1.033 1.033 0 0 1 1.46-1.46l.864.865c3.682 3.684 5.682 5.612 7.29 5.612h.013c1.618-.01 3.648-1.967 7.394-5.716l.915-.917a1.034 1.034 0 0 1 1.46 1.461l-.916.916c-4.062 4.066-6.3 6.305-8.84 6.321h-.027z"/>
        <path d="M6.032 29a1.032 1.032 0 0 1-.73-1.763l.916-.917c4.062-4.064 6.3-6.303 8.84-6.32h.027c2.537 0 4.747 2.212 8.748 6.217l.865.865a1.034 1.034 0 0 1 0 1.46 1.03 1.03 0 0 1-1.46 0l-.864-.864c-3.682-3.685-5.683-5.612-7.29-5.612h-.009c-1.622.01-3.652 1.967-7.398 5.715l-.916.916a1.027 1.027 0 0 1-.729.303"/>
        <path d="M26.967 26c-.264 0-.529-.1-.73-.302l-.916-.916c-4.066-4.062-6.305-6.299-6.32-8.84-.017-2.547 2.197-4.76 6.216-8.775l.865-.864a1.033 1.033 0 0 1 1.46 1.459l-.865.864c-3.694 3.692-5.622 5.693-5.611 7.303.01 1.618 1.966 3.648 5.715 7.394l.916.916a1.03 1.03 0 0 1-.73 1.761"/>
        <path d="M2.188 26a1.032 1.032 0 0 1-.73-1.761l.865-.865c3.694-3.691 5.622-5.693 5.612-7.303-.01-1.618-1.967-3.648-5.716-7.393l-.917-.916a1.032 1.032 0 1 1 1.461-1.46l.916.916c4.065 4.062 6.305 6.3 6.32 8.84.017 2.548-2.197 4.76-6.216 8.775l-.865.865a1.03 1.03 0 0 1-.73.302"/>
        <path d="M30 16c0-1.105-.672-2-1.5-2-.829 0-1.5.895-1.5 2s.671 2 1.5 2c.828 0 1.5-.895 1.5-2"/>
        <path d="M16 2c0-1.105-.671-2-1.5-2-.828 0-1.5.895-1.5 2s.672 2 1.5 2c.829 0 1.5-.895 1.5-2"/>
        <path d="M0 17c0 1.105.672 2 1.5 2 .829 0 1.5-.895 1.5-2s-.671-2-1.5-2c-.828 0-1.5.895-1.5 2"/>
        <path d="M13 29.5a1.5 1.5 0 1 0 3 0 1.5 1.5 0 0 0-3 0"/>
        <path d="M52.84 8.76c.867 0 1.66.143 2.38.43.72.287 1.34.71 1.86 1.27 1.093 1.173 1.64 2.853 1.64 5.04 0 2.2-.547 3.9-1.64 5.1-1.04 1.12-2.46 1.68-4.26 1.68-1.787 0-3.2-.573-4.24-1.72-1.093-1.187-1.64-2.873-1.64-5.06 0-2.213.547-3.907 1.64-5.08 1.027-1.107 2.447-1.66 4.26-1.66zm2.51 3.33c-.62-.807-1.457-1.21-2.51-1.21-1.053 0-1.893.403-2.52 1.21-.627.807-.94 1.953-.94 3.44 0 1.487.313 2.627.94 3.42.627.793 1.467 1.19 2.52 1.19s1.89-.397 2.51-1.19c.62-.793.93-1.933.93-3.42 0-1.487-.31-2.633-.93-3.44zM74.66 22H71.7l-3.42-4.6-3.04 4.6h-2.88l4.58-6.46-4.6-6.52h2.9l3.28 4.68 2.84-4.68h2.86l-4.38 6.48 4.82 6.5zm6.32-12.98l2.86 5.18 3-5.18h2.78L85 16.64V22h-2.36v-5.36l-4.46-7.62h2.8zm21.28 10.92c-.56 1.56-1.633 2.34-3.22 2.34-1.627 0-2.967-.613-4.02-1.84-1.093-1.267-1.64-2.887-1.64-4.86 0-2.08.587-3.747 1.76-5 1.133-1.213 2.593-1.82 4.38-1.82 1.213 0 2.23.263 3.05.79.82.527 1.463 1.357 1.93 2.49l-2.42.56c-.707-1.133-1.6-1.7-2.68-1.7-.987 0-1.807.42-2.46 1.26-.68.853-1.02 1.993-1.02 3.42 0 1.347.307 2.44.92 3.28.6.827 1.4 1.24 2.4 1.24.853 0 1.553-.273 2.1-.82.56-.56.84-1.327.84-2.3v-.08l-2.92-.06v-1.52h5.18V22h-1.92l-.26-2.06zm8.06-10.92h8.36v2.04h-6v3.42h5.62v2.04h-5.62v3.42h6V22h-8.36V9.02zm16.78 0l5.72 9.2v-9.2h2.36V22h-2.4l-5.9-9.52V22h-2.36V9.02h2.58z"/>
    </g>
</svg>
