<svg width="127" height="24" viewBox="0 0 127 24" xmlns="http://www.w3.org/2000/svg">
    <title>
        logo-miner-white
    </title>
    <g fill="none" fill-rule="evenodd">
        <path fill="#666" d="M0 24L10.941 5.294l4.941 4.235 1.765-1.764 2.118 2.117L13.412 24z"/>
        <path fill="#B2B2B2" d="M5.647 24L12 13.059l3.176 2.823L24.706 0l14.118 24H28.588l-3.176-4.235h-6.706L14.824 24z"/>
        <path fill="#FFF" d="M14.824 24l4.94-8.824 2.471 3.883 2.47-2.47L28.942 24H28l-3.647-3.176-2.118 1.764-1.764-2.117L16 24z"/>
        <g fill="#FFF">
            <path d="M52.329 6.779l-2.726 5.194-2.7-5.194H45v9.128h1.774V9.864l2.353 4.5h.964l2.353-4.5v6.043h1.775V6.78z"/>
            <path d="M57.955 15.907h1.851V8.67h-1.851z"/>
            <path d="M68.474 8.669v3.934L64.68 8.669H63.23v7.238h1.85V12.09l3.755 3.818h1.48V8.67z"/>
            <path d="M73.746 8.669v7.238h5.683V14.3h-3.832v-1.324h3.214v-1.505h-3.214v-1.195h3.729V8.669z"/>
            <path d="M84.42 12.025h1.736a.791.791 0 0 0 .573-.232c.158-.154.237-.368.237-.643 0-.274-.09-.488-.27-.642a.902.902 0 0 0-.604-.232h-1.671v1.749zm-1.85 3.883V8.669h3.638c.386 0 .74.072 1.06.218.322.146.6.334.836.566.236.232.418.495.547.791.128.296.193.598.193.906a2.2 2.2 0 0 1-.354 1.209 2.49 2.49 0 0 1-.97.874l1.864 2.675h-2.096l-1.62-2.263H84.42v2.263h-1.852z"/>
            <path d="M98.438 14.878c-.703.73-1.513 1.093-2.43 1.093a3.62 3.62 0 0 1-1.646-.386 4.383 4.383 0 0 1-1.344-1.035 4.923 4.923 0 0 1-.9-1.497 4.842 4.842 0 0 1-.328-1.761c0-.626.11-1.216.328-1.768a4.532 4.532 0 0 1 .913-1.453c.39-.415.849-.745 1.376-.99a4.032 4.032 0 0 1 1.716-.367c.832 0 1.543.18 2.134.54.592.36 1.038.845 1.338 1.453l-1.325.978a2.452 2.452 0 0 0-.919-1.042c-.39-.24-.82-.36-1.292-.36a2.14 2.14 0 0 0-1.022.244 2.38 2.38 0 0 0-.778.668 3.29 3.29 0 0 0-.502.978c-.12.369-.18.759-.18 1.17 0 .428.065.83.193 1.202.129.373.309.697.54.971.232.274.504.49.817.649.313.16.658.238 1.035.238.84 0 1.598-.415 2.275-1.247v-.643H96.6v-1.299h3.304v4.693h-1.466v-1.029z"/>
            <path d="M106.382 10.906l-.874 1.877h1.722l-.848-1.877zm-3.87 5.001l3.124-7.238h1.504l3.099 7.238h-1.954l-.643-1.517h-2.533l-.617 1.517h-1.98z"/>
            <path d="M118.218 10.276h-2.456v5.631h-1.851v-5.631h-2.481V8.669h6.788z"/>
            <path d="M126.668 14.3v1.607h-5.683V8.67h5.58v1.607h-3.729v1.196h3.215v1.504h-3.215V14.3z"/>
        </g>
    </g>
</svg>
