<svg width="108" height="35" viewBox="0 0 108 35" xmlns="http://www.w3.org/2000/svg">
    <title>
        logo-chan-white
    </title>
    <g fill="#FFF" fill-rule="evenodd">
        <path d="M67.064 31.516c-.368.729-.83 1.484-1.508 1.964-.764.54-1.766.403-2.168-.502-.417-.94.075-2.043.615-2.82.9-1.296 2.234-2.37 3.657-3.037.32-.15.651-.273.986-.383-.38 1.642-.818 3.264-1.582 4.778m-5.118-14.831c.532-2.059 1.376-3.89 2.763-5.49l.011-.013c.079.046.17.098.187.116.146.155.175.312.19.518.036.508-.154 1.056-.307 1.532-.753 2.351-1.955 4.718-3.39 6.846.041-1.241.282-2.49.546-3.51m2.72-5.533c-.027.003-.051-.007-.064-.042.001.004.028.02.065.042m-7.139 2.46c.223-.67.476-1.339.815-1.962.148-.271.31-.55.516-.782.033-.037.112-.135.19-.21.034.048.196.095.291.16.711.49.42 1.273.231 1.992-.651 2.468-1.816 4.869-3.157 7.036.01-.176.023-.352.037-.527.158-1.932.464-3.864 1.077-5.706m-15.43 17.37c-.477 1.123-1.163 2.353-2.265 2.969-1.121.626-2.335-.175-2.321-1.427.026-2.345 2.836-3.814 4.59-4.828.376-.218.755-.428 1.134-.64-.295 1.332-.6 2.66-1.138 3.925m7.804-10.233c.807-.685 2.133-.077 1.652 1.03-.257.59-.833.87-1.377 1.136-.43.21-.86.422-1.29.634-.188-.983.285-2.181 1.015-2.8m-7.962.707c.411-.393 1.306-1.184 1.825-.511.2.256.055.577-.085.823-.529.93-1.625 1.617-2.528 2.127-.126.07-.257.143-.392.213-.306-.932.522-2.024 1.18-2.652m-16.907 2.403c-.325.341-.81.978-1.248.418-.188-.24-.23-.636-.21-.93.056-.782.601-1.518 1.193-1.992.773-.62 1.538-.582 2.287.063a.207.207 0 0 0 .059.035.228.228 0 0 0-.029.022c-.737.75-1.327 1.624-2.052 2.384m48.756.87c-.25-.083-.735.121-.945.254-.813.513-1.794.687-2.733.896.375-1.647.72-3.314 1.307-4.887.1-.225.189-.45.268-.674.092-.26-1.18-.09-1.319.233-.104.241-.2.485-.29.73-.363.826-.838 1.6-1.459 2.26-.383.407-1.095 1.195-1.712 1.19-.59-.004-.756-.69-.749-1.157.02-1.22.772-2.449 1.38-3.456.098-.164-1.117-.103-1.32.234-.678 1.128-1.4 2.258-2.31 3.216-.24.253-.656.772-1.021.88.053-.025-.163-.038-.248-.093-.201-.13-.347-.3-.472-.504-.39-.632-.607-1.376-.706-2.164.976-1.281 1.826-2.667 2.6-4.069.912-1.649 1.873-3.442 2.27-5.3.092-.43.216-.966-.055-1.35-.402-.573-1.223-.443-1.79-.248-1.923.663-2.899 3.216-3.488 4.954-.621 1.837-1.14 4.177-.871 6.267-.219.278-.44.55-.665.815-.455.536-.944 1.074-1.51 1.497-.124.093-.327.265-.48.313.094-.043-.273-.14-.386-.249-.509-.484-.602-1.402-.663-2.056-.02-.212-.033-.425-.041-.638 1.222-1.562 2.194-3.353 3.006-5.085.597-1.275 1.143-2.597 1.503-3.961.183-.692.496-1.555-.125-2.084-.793-.676-1.968-.467-2.752.133-1.124.861-1.605 2.525-1.991 3.815-.626 2.09-.92 4.34-.98 6.516-.006.245-.016.553-.015.89a14.349 14.349 0 0 1-1.707 1.835c-.95.85-2.183 1.813-3.493 1.143a1.715 1.715 0 0 1-.777-.78c.946-.439 1.93-.858 2.793-1.413.698-.45 1.609-1.453.916-2.286-.643-.775-2.051-.5-2.86-.207-1.51.546-2.872 2.392-2.278 4.037-.924.461-1.844.928-2.758 1.405.15-.68.31-1.359.53-2.02.1-.299-1.163-.029-1.319.234-.625 1.057-1.86 1.947-2.947.887a1.669 1.669 0 0 1-.125-.138 13.197 13.197 0 0 0 1.822-1c.817-.536 2.077-1.353 2.338-2.371.284-1.112-1.356-1.109-2.046-.961-1.536.329-3.323 1.714-3.698 3.295-.104.44-.05.822.112 1.142-.577.192-1.177.292-1.75.192-1.387-.243-.6-1.494-.225-2.324.317-.703.741-1.833-.3-2.107-.854-.225-1.857.15-2.58.59a8.238 8.238 0 0 0-1.507 1.197c.088-.6.066-1.195-.135-1.74-.118-.322-1.134.059-1.274.227-.434.523-.794 1.095-1.166 1.663-.397.606-.867 1.458-1.528 1.816-.841.456-1.128-.564-1.088-1.182.037-.577.266-1.11.373-1.67.018-.092-.037-.137-.131-.153.102-.076.15-.149.095-.197-1.931-1.665-5.715.15-6.054 2.562-.22 1.555 1.177 1.797 2.37 1.363.81-.294 1.433-.868 1.996-1.516-.007.156 0 .312.028.469.178.974 1.103 1.11 1.942.96 1.61-.29 2.453-1.445 3.27-2.662-.07 1.11-.588 2.266-1.088 3.171-.106.193 1.124.079 1.32-.233.442-.708 3.77-5.31 4.443-3.808.501 1.12-1.223 2.266-.903 3.411.299 1.07 2.33.757 3.092.606.355-.07.707-.163 1.054-.272.402.436 1.043.687 1.708.708.77.024 1.516-.161 2.173-.51-.097.382-.186.766-.273 1.15-.75.406-1.496.82-2.235 1.246-1.436.828-2.95 1.671-4 2.987-1.035 1.298-1.618 3.698.595 4.113 1.851.347 3.756-.857 4.778-2.314 1.253-1.787 1.718-4.042 2.184-6.138 1.037-.553 2.082-1.09 3.13-1.62 1.122 1.782 4.072.82 5.457-.092.65-.428 1.248-.928 1.803-1.477.143 1.031.536 1.982 1.56 2.044 1.475.091 2.753-1.05 3.683-2.079.095.328.214.645.361.949.903 1.857 3.027.81 4.176-.273-.11.963.225 1.701 1.593 1.56 1.066-.11 2.005-.591 2.797-1.277-.18.744-.344 1.495-.512 2.244-.942.287-1.855.654-2.713 1.145-1.331.763-2.607 1.834-3.445 3.13-.544.843-1.025 2.077-.451 3.029.96 1.596 3.573.702 4.692-.208 1.601-1.304 2.253-3.576 2.78-5.482.135-.49.257-.985.374-1.483 1.337-.325 2.693-.593 3.87-1.337.26-.165.116-.232-.08-.298"/>
        <path d="M17.71 14.075c.471-.918 1.022-1.974 1.844-2.633.118-.094.24-.19.38-.248a.332.332 0 0 1 .042-.014c.142.116.199.303.23.48.12.65-.2 1.419-.45 2-.898 2.085-2.35 3.98-3.844 5.67a51.7 51.7 0 0 1-.412.46c.187-.608.386-1.208.588-1.798.457-1.337.975-2.659 1.621-3.917m2.287-2.901c.075-.02.06.013 0 0m.108 4.26c.613-1.018 2.3-3.658 1.097-4.804-.715-.682-2.014-.034-2.637.475-.998.818-1.67 2.028-2.235 3.165-1.151 2.32-2.028 4.84-2.636 7.384-2.803 2.675-6.501 5.108-10.11 3.353-4.717-2.295-.897-8.512 1.564-10.981 1.699-1.703 4.154-3.526 6.71-3.199 1.14.146 1.834.908 1.338 2.04-.187.429-1.008 1.716-1.58 1.192-.367-.337-1.627.18-1.237.538 1.604 1.472 4.228-.907 4.336-2.608.182-2.871-4.568-1.977-6.099-1.36-2.679 1.08-4.966 3.216-6.576 5.58C.71 18.16-.6 20.949.293 23.335c.897 2.393 3.943 3.335 6.289 3.071 2.528-.283 4.84-1.739 6.8-3.339-.039.197-.077.396-.113.593a15.445 15.445 0 0 0-.228 1.696c-.032.452.699.343.941.226 1.13-.543 1.967-1.681 2.834-2.55.334-.334 2.43-2.616 2.934-1.791.36.587-.787 2.006-.987 2.557-.404 1.111.389 1.531 1.417 1.556.539.013 1.409-.785.507-.808-1.408-.033-.25-1.53.081-2.206.43-.876.613-1.886-.634-2.066-1.374-.199-2.653.866-3.595 1.723-.617.562-1.19 1.169-1.774 1.765-.084.086-.17.181-.26.28.11-.79.27-1.577.464-2.358 1.973-1.836 3.75-3.953 5.135-6.25"/>
        <path d="M102.029 11.229c-1.547 1.637-3.329 2.79-5.434 3.574-.667.249-1.015.383-1.704.33-.714-.057-1.478-.123-2.13-.438l1.692-1.966c.193-.223.427-.444.593-.688.503-.743.411-1.867.686-2.728a.372.372 0 0 0 .104-.212c.017-.272-.184-.271-.42-.181-1.067.405-2.096.263-3.017.79l-2.566 1.47-.006-.015C88.46 9.179 90.93 6.57 92.18 5.268c1.779-1.853 3.756-3.036 6.248-3.645 2.646-.646 5.493-.856 8.218-.654-.835 3.734-1.924 7.41-4.617 10.26m-4.068 6.713c-.832.379-1.668.753-2.516 1.093.44-.79.991-1.636 1.136-2.5.072-.431-.07-.722-.327-.93a18.229 18.229 0 0 0 2.92-1.386c-.55 1.18-.922 2.457-1.213 3.723m-9.45-2.601c1.428-.822 2.647-1.861 3.835-3.047.18-.178.24-.366-.007-.457-.247-.091-.694.293-.843.442-.999.996-2 1.848-3.198 2.526l.282-2.255c.99-.568 1.98-1.136 2.972-1.703l.841-.482.131-.075c.384-.037 1.376-.264 2.017-.426a8.816 8.816 0 0 0-.304 1.417c-.048.334-.011.608-.157.878-.254.47-.788.915-1.133 1.316l-1.848 2.146-2.588-.28m-.201-7.46c-.888-.114-1.866.176-2.762.408.542-.732 1.153-1.421 1.763-2.099 1.198-.056 2.413-.185 3.58-.463-.243.277-.479.558-.705.843-.37.467-.807 1.03-1.174 1.64-.162-.171-.387-.289-.702-.33M107.69.087c-2.4-.198-4.884-.045-7.251.369-1.81.317-3.623.834-5.245 1.716-1.248.678-2.392 1.588-3.414 2.608-1.023.265-2.077.397-3.13.477-.559.041-1.14-.029-1.612.326-.456.343-.814.865-1.183 1.293-.581.674-1.173 1.353-1.671 2.092-.144.213-.05.39.22.33.892-.197 1.868-.545 2.79-.533.771.011.967.515.998 1.22.003.057.032.091.077.11-.087.597-.004 1.193.352 1.754-.522.271-1.088.603-1.209 1.111-.208.882-.248 1.84-.346 2.75a.261.261 0 0 0-.016.142l-.016.14c-.008.058.023.088.077.099.007.056.052.094.149.105l3.012.326c.792.086 1.196-.329 1.664-.87.66.263 1.427.326 2.118.38.124.01.239.012.35.012.007.031.027.055.067.067.684.207 1.084.482.854 1.231-.273.887-.854 1.73-1.263 2.558-.142.288.29.23.42.182.906-.336 1.79-.736 2.673-1.129.517-.23 1.265-.431 1.674-.849.382-.389.416-1.133.556-1.636.302-1.078.642-2.182 1.181-3.17.519-.38 1.02-.796 1.502-1.248 3.395-3.183 4.8-7.294 5.78-11.728.03-.143.002-.223-.158-.235"/>
        <path d="M91.186 19.23c-.25-.09-.691.294-.844.443-2.942 2.865-7.52 2.628-11.207 1.575 1.145-.964 2.006-2.123 2.476-3.604.54-1.703.779-3.32 2.273-4.495.142-.112.422-.396.21-.556-.2-.15-.683.205-.816.31-1.273 1.001-2.007 2.253-2.437 3.799-.524 1.884-1.067 3.45-2.74 4.638-.056.04-.69.564-.357.666 4.64 1.413 9.81 1.227 13.449-2.318.18-.176.239-.368-.007-.457"/>
        <path d="M98.387 5.584c.007-1.2.968-1.924 2.113-1.508.9.327 1.411 1.148 1.458 2.077-.133 2.642-3.585 1.634-3.571-.569m-1.102.57c-.006 1.625 1.551 2.713 3.084 2.407 1.43-.285 2.616-1.508 2.69-2.977-.188-3.733-5.76-2.732-5.774.57"/>
    </g>
</svg>
