<svg width="97" height="100" viewBox="0 0 97 100" xmlns="http://www.w3.org/2000/svg">
    <title>
        logo-big
    </title>
    <g fill="#FFF" fill-rule="evenodd">
        <path d="M47.513 34.286c-8.14 0-15.234-7.022-28.076-19.736l-2.776-2.747a3.253 3.253 0 0 1 .001-4.635 3.334 3.334 0 0 1 4.683 0l2.775 2.747C35.936 21.61 42.358 27.73 47.519 27.73h.04c5.194-.034 11.71-6.245 23.73-18.145l2.94-2.91a3.336 3.336 0 0 1 4.684 0 3.256 3.256 0 0 1 0 4.638l-2.94 2.907C62.938 27.126 55.756 34.235 47.602 34.286h-.088z"/>
        <path d="M19.003 94.286c-.847 0-1.695-.32-2.34-.961a3.252 3.252 0 0 1 0-4.636l2.938-2.91c13.037-12.903 20.217-20.011 28.371-20.063l.089-.002c8.14 0 15.235 7.024 28.075 19.737l2.777 2.745a3.256 3.256 0 0 1 0 4.637 3.334 3.334 0 0 1-4.683.001l-2.775-2.747c-11.818-11.696-18.24-17.815-23.399-17.815h-.028c-5.207.032-11.722 6.244-23.744 18.145l-2.94 2.908a3.315 3.315 0 0 1-2.34.96"/>
        <path d="M88.02 84.286a3.208 3.208 0 0 1-2.314-.993L82.8 80.285C69.914 66.939 62.815 59.588 62.765 51.238c-.05-8.37 6.967-15.638 19.707-28.832l2.743-2.84a3.193 3.193 0 0 1 4.628-.002c1.28 1.324 1.28 3.47.002 4.795L87.1 27.2C75.39 39.33 69.28 45.906 69.313 51.196c.03 5.317 6.234 11.986 18.116 24.293l2.905 3.01c1.28 1.324 1.28 3.47 0 4.794a3.208 3.208 0 0 1-2.314.993"/>
        <path d="M8.044 84.286a3.212 3.212 0 0 1-2.316-.993c-1.278-1.325-1.278-3.47.001-4.793l2.743-2.841c11.712-12.13 17.822-18.706 17.79-23.997-.032-5.317-6.235-11.988-18.119-24.292l-2.905-3.01c-1.278-1.326-1.278-3.47 0-4.796a3.195 3.195 0 0 1 4.63.002l2.904 3.007C25.659 35.919 32.758 43.27 32.809 51.62c.052 8.37-6.967 15.639-19.708 28.833l-2.743 2.84a3.205 3.205 0 0 1-2.314.993"/>
        <path d="M97 50c0-3.156-1.917-5.714-4.28-5.714-2.363 0-4.279 2.558-4.279 5.713 0 3.157 1.916 5.715 4.279 5.715S97 53.156 97 50"/>
        <path d="M51.353 5.715C51.353 2.558 49.437 0 47.074 0s-4.28 2.558-4.28 5.715c0 3.156 1.917 5.714 4.28 5.714 2.363 0 4.279-2.558 4.279-5.714"/>
        <path d="M0 52.857c0 3.158 1.917 5.714 4.28 5.714 2.363 0 4.279-2.556 4.279-5.714 0-3.156-1.916-5.714-4.279-5.714S0 49.7 0 52.857"/>
        <path d="M42.794 95c0 2.762 1.917 5 4.28 5 2.363 0 4.279-2.238 4.279-5 0-2.763-1.916-5-4.279-5s-4.28 2.237-4.28 5"/>
    </g>
</svg>
