<svg width="72" height="45" viewBox="0 0 72 45" xmlns="http://www.w3.org/2000/svg">
    <title>
        sm-info_changelly
    </title>
    <g fill="#FFF" fill-rule="evenodd">
        <path d="M65.272 42.124c-.356.645-.804 1.314-1.46 1.738-.74.479-1.71.358-2.1-.444-.403-.832.073-1.808.596-2.496.871-1.147 2.163-2.098 3.542-2.688.31-.133.63-.242.955-.34-.368 1.454-.793 2.89-1.533 4.23m-4.957-13.127c.516-1.822 1.333-3.444 2.677-4.86l.01-.01c.077.04.165.086.181.102.142.137.17.276.184.458.035.45-.149.935-.297 1.356-.73 2.081-1.893 4.177-3.284 6.06.04-1.099.274-2.204.53-3.106m2.635-4.898c-.027.003-.05-.007-.063-.038a.394.394 0 0 0 .063.038m-6.914 2.177c.216-.594.461-1.185.79-1.736.142-.24.3-.487.5-.693.03-.032.108-.119.184-.185.031.042.189.083.28.141.69.433.408 1.127.225 1.763-.631 2.184-1.759 4.31-3.058 6.228.01-.156.023-.312.036-.467.153-1.71.449-3.42 1.043-5.05M41.093 41.65c-.462.995-1.126 2.083-2.194 2.628-1.086.554-2.26-.154-2.248-1.263.025-2.075 2.747-3.376 4.446-4.273.364-.193.731-.379 1.098-.566-.286 1.178-.581 2.354-1.102 3.474m7.558-9.058c.782-.606 2.066-.068 1.6.911-.249.523-.806.77-1.334 1.007l-1.25.56c-.18-.87.277-1.93.984-2.478m-7.711.626c.398-.348 1.265-1.048 1.768-.453.192.228.053.511-.083.73-.512.822-1.573 1.43-2.448 1.881-.123.063-.25.127-.38.19-.296-.825.506-1.792 1.143-2.348m-16.374 2.127c-.316.302-.786.865-1.21.37-.181-.213-.222-.563-.203-.824.054-.692.583-1.343 1.156-1.763.748-.548 1.49-.515 2.214.057a.205.205 0 0 0 .058.03.22.22 0 0 0-.028.02c-.714.663-1.285 1.438-1.987 2.11m47.22.77c-.242-.074-.712.107-.916.224-.787.455-1.737.61-2.647.793.364-1.457.698-2.932 1.266-4.325.096-.199.183-.398.26-.596.089-.231-1.143-.08-1.278.206-.1.214-.193.429-.28.646a6.976 6.976 0 0 1-1.413 2c-.372.36-1.061 1.058-1.659 1.054-.57-.004-.732-.612-.725-1.024.02-1.08.748-2.168 1.336-3.059.096-.145-1.08-.091-1.278.207-.657.998-1.356 1.999-2.237 2.846-.233.224-.635.684-.99.779.052-.022-.157-.034-.24-.082a1.414 1.414 0 0 1-.457-.446c-.376-.56-.587-1.218-.683-1.916.945-1.133 1.768-2.36 2.519-3.601.882-1.46 1.813-3.047 2.197-4.692.09-.38.21-.854-.052-1.195-.39-.506-1.185-.392-1.735-.218-1.862.586-2.807 2.845-3.377 4.385-.602 1.625-1.104 3.696-.844 5.547-.212.245-.426.487-.644.72-.44.475-.914.951-1.462 1.326-.12.082-.317.234-.466.277.092-.038-.264-.125-.374-.22-.492-.429-.582-1.242-.641-1.82a9.64 9.64 0 0 1-.04-.566c1.183-1.382 2.125-2.967 2.91-4.5.58-1.129 1.108-2.299 1.457-3.506.177-.613.48-1.376-.12-1.845-.769-.598-1.907-.413-2.666.118-1.089.762-1.555 2.235-1.929 3.377-.606 1.85-.891 3.84-.948 5.767-.006.217-.017.49-.015.787a13.236 13.236 0 0 1-1.653 1.625c-.92.752-2.115 1.605-3.384 1.012a1.594 1.594 0 0 1-.752-.691c.916-.388 1.869-.759 2.705-1.25.676-.398 1.558-1.286.887-2.024-.623-.685-1.986-.441-2.77-.183-1.462.483-2.781 2.118-2.206 3.574-.894.408-1.786.821-2.671 1.243.146-.602.3-1.203.514-1.788.096-.264-1.128-.026-1.278.207-.606.936-1.802 1.723-2.855.785a1.534 1.534 0 0 1-.12-.122 13.19 13.19 0 0 0 1.764-.885c.791-.474 2.012-1.198 2.264-2.099.275-.984-1.313-.981-1.98-.85-1.489.29-3.22 1.517-3.582 2.916-.101.39-.049.728.108 1.01-.56.171-1.14.26-1.694.171-1.345-.215-.582-1.322-.219-2.057.307-.622.718-1.622-.29-1.865-.827-.2-1.799.133-2.5.521a7.908 7.908 0 0 0-1.459 1.06c.085-.53.064-1.057-.13-1.54-.115-.284-1.098.053-1.234.202-.421.462-.77.968-1.13 1.471-.384.537-.84 1.29-1.48 1.608-.814.404-1.092-.499-1.053-1.046.036-.51.257-.982.361-1.48.017-.08-.036-.12-.127-.134.1-.067.146-.131.092-.174-1.87-1.474-5.535.132-5.864 2.267-.212 1.377 1.14 1.59 2.297 1.207.784-.26 1.387-.769 1.932-1.342-.007.138 0 .276.027.415.172.862 1.069.983 1.881.85 1.56-.257 2.376-1.28 3.167-2.357-.068.984-.569 2.007-1.053 2.808-.103.17 1.089.069 1.278-.207.428-.626 3.65-4.7 4.303-3.37.486.991-1.185 2.005-.875 3.019.29.947 2.257.67 2.995.536.344-.062.685-.144 1.02-.241.39.386 1.011.608 1.655.627a4.516 4.516 0 0 0 2.104-.452c-.094.339-.18.678-.264 1.019a94.79 94.79 0 0 0-2.165 1.102c-1.39.733-2.857 1.48-3.873 2.644-1.003 1.149-1.567 3.273.576 3.64 1.793.308 3.638-.758 4.628-2.047 1.213-1.582 1.663-3.578 2.114-5.433 1.005-.49 2.017-.965 3.033-1.433 1.086 1.576 3.943.725 5.284-.083a11.23 11.23 0 0 0 1.746-1.307c.138.913.52 1.754 1.51 1.81 1.43.08 2.667-.93 3.569-1.84.091.29.206.57.349.839.874 1.644 2.931.716 4.044-.241-.106.852.218 1.505 1.543 1.38 1.032-.098 1.942-.523 2.71-1.13-.176.659-.334 1.324-.497 1.986-.912.254-1.797.579-2.627 1.014-1.29.675-2.525 1.623-3.337 2.77-.527.746-.992 1.839-.437 2.68.93 1.413 3.461.623 4.544-.183 1.551-1.154 2.183-3.165 2.693-4.853.13-.433.249-.87.362-1.312 1.295-.287 2.608-.525 3.748-1.183.253-.146.113-.206-.077-.264"/>
        <path d="M16.848 26.65c.449-.79.973-1.697 1.755-2.263.112-.081.228-.164.362-.213a.34.34 0 0 1 .039-.012c.135.1.19.26.22.412.113.559-.192 1.22-.43 1.72-.853 1.791-2.234 3.42-3.656 4.872-.126.13-.257.261-.392.396.178-.523.367-1.038.56-1.545.434-1.15.927-2.286 1.542-3.367m2.176-2.494c.071-.016.056.011 0 0m.102 3.661c.583-.874 2.188-3.143 1.044-4.128-.68-.586-1.917-.03-2.51.408-.949.703-1.588 1.743-2.125 2.72-1.095 1.995-1.93 4.16-2.508 6.347-2.667 2.3-6.185 4.39-9.618 2.882-4.487-1.972-.854-7.316 1.488-9.438 1.616-1.464 3.952-3.03 6.383-2.75 1.085.126 1.745.78 1.274 1.753-.18.369-.96 1.476-1.504 1.025-.349-.29-1.548.155-1.177.463 1.526 1.265 4.022-.78 4.125-2.242.174-2.468-4.345-1.7-5.802-1.169-2.548.928-4.725 2.764-6.256 4.796C.676 30.16-.571 32.558.28 34.609c.852 2.057 3.75 2.866 5.982 2.64 2.405-.244 4.604-1.495 6.47-2.87-.038.17-.074.34-.108.51-.098.482-.18.968-.218 1.457-.03.388.666.295.896.195 1.074-.467 1.871-1.446 2.697-2.192.317-.288 2.31-2.249 2.79-1.54.342.505-.748 1.724-.939 2.198-.384.955.37 1.316 1.348 1.337.513.012 1.341-.675.483-.694-1.34-.029-.238-1.316.077-1.896.409-.753.583-1.621-.603-1.776-1.307-.17-2.525.744-3.42 1.481-.587.483-1.133 1.005-1.688 1.517-.08.074-.162.156-.247.24.104-.678.257-1.355.441-2.026 1.877-1.578 3.567-3.397 4.885-5.373"/>
        <path d="M53.46 10.045c-1.507 1.465-3.245 2.497-5.297 3.198-.65.222-.988.343-1.66.294-.696-.05-1.44-.109-2.077-.39l1.65-1.76c.187-.2.416-.397.578-.615.49-.664.4-1.67.669-2.44.057-.062.096-.125.1-.19.017-.243-.178-.243-.409-.162-1.04.362-2.043.235-2.94.707l-2.502 1.315c-.002-.005-.003-.01-.006-.014-1.332-1.776 1.075-4.11 2.294-5.275 1.734-1.658 3.662-2.716 6.09-3.26 2.58-.579 5.355-.767 8.011-.586-.814 3.34-1.876 6.629-4.5 9.178m-3.966 6.006a60.42 60.42 0 0 1-2.452.978c.428-.708.966-1.463 1.107-2.236.07-.387-.068-.647-.32-.833a18.52 18.52 0 0 0 2.848-1.24c-.536 1.057-.9 2.198-1.183 3.331m-9.212-2.327c1.392-.735 2.58-1.665 3.74-2.725.173-.16.233-.328-.008-.41-.24-.081-.677.263-.822.396-.973.89-1.95 1.653-3.117 2.26l.274-2.018 2.897-1.523.82-.431c.053-.027.093-.049.128-.068.374-.032 1.342-.236 1.966-.38a7.33 7.33 0 0 0-.296 1.267c-.047.3-.01.544-.153.786-.247.42-.768.818-1.105 1.177l-1.8 1.92-2.524-.251m-.195-6.674c-.866-.102-1.82.158-2.692.365.527-.655 1.123-1.271 1.718-1.877 1.167-.05 2.352-.166 3.49-.415-.237.248-.467.5-.688.755-.36.417-.787.921-1.144 1.467-.158-.153-.378-.259-.684-.295M58.978.076c-2.339-.176-4.76-.04-7.068.33-1.765.284-3.531.747-5.112 1.536-1.217.607-2.332 1.42-3.328 2.333-.997.238-2.025.356-3.051.427-.545.037-1.112-.026-1.572.292-.444.306-.793.773-1.153 1.157-.566.603-1.143 1.21-1.629 1.87-.14.192-.048.35.215.296.87-.176 1.821-.487 2.72-.476.752.01.943.46.973 1.09.002.052.031.082.074.1-.084.533-.003 1.066.344 1.568-.51.243-1.061.54-1.178.994-.203.79-.243 1.646-.338 2.46a.216.216 0 0 0-.016.127l-.016.126c-.007.051.023.078.076.088.007.05.05.084.145.094l2.936.291c.772.077 1.166-.294 1.622-.777.643.235 1.391.29 2.064.34.121.008.234.01.343.01.006.028.025.05.065.06.666.185 1.056.431.832 1.102-.267.793-.833 1.547-1.231 2.288-.14.257.282.206.409.162.883-.3 1.744-.658 2.605-1.01.505-.205 1.234-.385 1.632-.759.372-.348.405-1.014.542-1.463.294-.965.626-1.952 1.152-2.836.505-.341.993-.712 1.464-1.117 3.309-2.847 4.678-6.525 5.633-10.492.03-.128.003-.199-.153-.21"/>
        <path d="M42.275 17.42c-.235-.08-.649.256-.792.386-2.76 2.511-7.056 2.303-10.516 1.38 1.075-.844 1.883-1.86 2.323-3.157.507-1.492.732-2.909 2.134-3.938.133-.098.395-.348.197-.487-.189-.133-.641.18-.767.27-1.194.878-1.882 1.975-2.286 3.33-.492 1.65-1.001 3.022-2.57 4.063-.053.035-.65.494-.336.584 4.355 1.238 9.205 1.075 12.62-2.031.169-.154.223-.323-.007-.4"/>
        <path d="M49.838 4.838c.007-1.14.863-1.828 1.883-1.433.8.31 1.256 1.09 1.298 1.973-.119 2.51-3.193 1.552-3.18-.54m-.982.54c-.005 1.545 1.381 2.578 2.747 2.287 1.274-.27 2.33-1.432 2.396-2.827-.168-3.546-5.131-2.596-5.143.54"/>
    </g>
</svg>
