<svg width="95" height="59" viewBox="0 0 95 59" xmlns="http://www.w3.org/2000/svg">
    <title>
        Group 16
    </title>
    <g fill="#FFF" fill-rule="evenodd">
        <path d="M86.123 55.23c-.47.845-1.06 1.722-1.927 2.278-.976.628-2.257.469-2.77-.582-.532-1.09.096-2.37.786-3.273 1.15-1.503 2.854-2.75 4.673-3.524.41-.174.832-.317 1.26-.445-.486 1.906-1.046 3.789-2.022 5.545m-6.54-17.211c.68-2.39 1.758-4.515 3.531-6.371l.014-.015c.101.053.218.114.24.135.185.18.223.362.241.601.046.59-.196 1.226-.391 1.778-.963 2.728-2.499 5.475-4.333 7.944.053-1.44.361-2.889.698-4.072m3.477-6.422c-.036.004-.066-.009-.083-.05a.52.52 0 0 0 .083.05m-9.122 2.855c.285-.779.608-1.554 1.041-2.277.189-.315.397-.638.66-.908.042-.042.143-.156.243-.243.042.055.25.11.371.186.909.567.538 1.476.295 2.311-.832 2.864-2.32 5.65-4.034 8.166.014-.205.03-.41.048-.613.202-2.242.592-4.483 1.376-6.622M54.22 54.61c-.61 1.304-1.486 2.732-2.895 3.446-1.432.726-2.983-.202-2.966-1.656.033-2.721 3.625-4.426 5.866-5.603.48-.252.965-.496 1.449-.741-.377 1.544-.767 3.085-1.454 4.554m9.972-11.876c1.032-.794 2.727-.09 2.111 1.195-.328.685-1.064 1.01-1.76 1.32-.55.243-1.099.488-1.648.735-.24-1.141.364-2.532 1.297-3.25m-10.174.82c.526-.456 1.669-1.374 2.333-.593.253.298.07.67-.11.956-.675 1.078-2.076 1.876-3.23 2.468-.162.082-.329.166-.501.248-.39-1.082.668-2.35 1.508-3.078m-21.605 2.789c-.416.395-1.036 1.134-1.595.484-.24-.278-.295-.738-.268-1.08.07-.906.768-1.76 1.524-2.31.988-.72 1.965-.676 2.922.073.021.017.047.03.076.04a.29.29 0 0 0-.037.026c-.941.87-1.696 1.885-2.622 2.767m62.305 1.01c-.32-.098-.94.14-1.208.293-1.04.596-2.293.799-3.493 1.04.48-1.91.92-3.845 1.67-5.67.127-.261.242-.523.343-.783.117-.303-1.508-.105-1.686.27-.132.28-.254.563-.37.848-.464.958-1.07 1.857-1.865 2.623-.49.472-1.4 1.386-2.188 1.38-.752-.004-.966-.801-.956-1.342.025-1.416.986-2.842 1.762-4.01.126-.19-1.426-.12-1.686.27-.866 1.31-1.79 2.621-2.952 3.733-.307.293-.838.896-1.305 1.02.068-.028-.208-.044-.317-.107a1.86 1.86 0 0 1-.603-.585c-.497-.733-.775-1.597-.902-2.512 1.248-1.486 2.334-3.094 3.323-4.721 1.165-1.914 2.393-3.995 2.9-6.152.118-.499.276-1.12-.07-1.566-.514-.664-1.563-.514-2.288-.287-2.457.769-3.704 3.731-4.456 5.75-.794 2.13-1.457 4.846-1.114 7.272-.28.322-.562.639-.849.946-.582.62-1.207 1.246-1.93 1.737-.159.108-.417.307-.614.363.121-.05-.348-.163-.493-.289-.65-.561-.768-1.628-.847-2.386a12.56 12.56 0 0 1-.053-.741c1.562-1.812 2.805-3.89 3.842-5.901.763-1.48 1.46-3.014 1.92-4.596.235-.803.635-1.805-.159-2.42-1.013-.784-2.515-.541-3.516.156-1.437.999-2.052 2.93-2.545 4.427-.8 2.425-1.176 5.036-1.251 7.561-.009.285-.022.642-.02 1.033a17.412 17.412 0 0 1-2.181 2.13c-1.215.986-2.79 2.104-4.465 1.327a2.098 2.098 0 0 1-.992-.906c1.208-.509 2.466-.995 3.57-1.64.89-.522 2.055-1.686 1.17-2.653-.822-.898-2.622-.579-3.655-.24-1.93.634-3.67 2.777-2.911 4.686a227.23 227.23 0 0 0-3.525 1.63c.193-.79.395-1.577.678-2.344.128-.347-1.487-.034-1.686.271-.799 1.227-2.378 2.26-3.766 1.03a2.017 2.017 0 0 1-.16-.161c.812-.33 1.593-.723 2.328-1.16 1.044-.622 2.655-1.57 2.988-2.752.363-1.29-1.732-1.287-2.614-1.115-1.963.381-4.246 1.989-4.726 3.823-.133.512-.063.955.143 1.326-.738.224-1.503.34-2.235.223-1.774-.282-.768-1.733-.288-2.697.405-.815.947-2.127-.384-2.445-1.09-.261-2.373.174-3.297.683-.691.38-1.33.857-1.925 1.39.111-.695.084-1.386-.173-2.019-.151-.373-1.449.069-1.628.264-.555.606-1.015 1.27-1.49 1.93-.507.703-1.109 1.691-1.953 2.107-1.074.53-1.442-.654-1.39-1.371.047-.67.34-1.288.477-1.94.022-.105-.048-.158-.168-.176.131-.089.192-.173.121-.229-2.467-1.932-7.303.174-7.736 2.973-.28 1.805 1.504 2.085 3.03 1.582 1.035-.341 1.83-1.007 2.55-1.76-.01.181-.001.363.035.545.227 1.13 1.41 1.288 2.482 1.114 2.058-.337 3.135-1.677 4.178-3.09-.089 1.29-.75 2.63-1.39 3.681-.136.224 1.437.091 1.686-.27.566-.822 4.818-6.164 5.679-4.42.64 1.3-1.564 2.63-1.154 3.96.381 1.24 2.978.878 3.952.702.453-.082.902-.189 1.346-.316.514.506 1.333.797 2.183.822a5.99 5.99 0 0 0 2.776-.593c-.124.444-.238.89-.349 1.336-.958.47-1.911.951-2.856 1.445-1.835.962-3.77 1.94-5.111 3.467-1.323 1.506-2.068 4.291.76 4.773 2.366.403 4.8-.995 6.106-2.685 1.601-2.073 2.195-4.69 2.79-7.123a207.626 207.626 0 0 1 4.002-1.88c1.433 2.068 5.202.951 6.973-.107a14.811 14.811 0 0 0 2.302-1.714c.183 1.197.686 2.3 1.994 2.372 1.886.106 3.518-1.219 4.708-2.412.12.38.272.748.46 1.1 1.154 2.156 3.868.94 5.337-.316-.14 1.118.287 1.974 2.036 1.81 1.362-.128 2.562-.686 3.574-1.481-.231.863-.44 1.735-.655 2.603-1.203.333-2.37.759-3.467 1.33-1.7.885-3.33 2.127-4.402 3.632-.695.978-1.31 2.41-.577 3.514 1.228 1.852 4.567.816 5.996-.24 2.047-1.514 2.88-4.15 3.553-6.363.173-.568.328-1.142.478-1.72 1.709-.378 3.442-.689 4.946-1.552.333-.191.148-.27-.102-.346"/>
        <path d="M22.23 34.94c.592-1.034 1.284-2.224 2.316-2.966.147-.106.3-.215.477-.28a.45.45 0 0 1 .052-.015c.178.13.25.341.29.54.149.733-.253 1.6-.567 2.254-1.126 2.35-2.949 4.486-4.824 6.389-.167.17-.34.343-.518.519.236-.685.485-1.361.738-2.026.574-1.507 1.225-2.996 2.036-4.414m2.87-3.27c.095-.021.075.015 0 0m.136 4.8c.77-1.146 2.886-4.12 1.377-5.412-.897-.768-2.529-.039-3.31.535-1.254.921-2.097 2.285-2.805 3.566-1.446 2.616-2.546 5.454-3.31 8.322-3.519 3.015-8.16 5.756-12.69 3.779-5.921-2.586-1.126-9.593 1.963-12.375 2.132-1.92 5.214-3.974 8.423-3.605 1.432.165 2.302 1.023 1.68 2.298-.236.483-1.267 1.935-1.984 1.344-.46-.38-2.043.204-1.553.607 2.014 1.658 5.307-1.023 5.443-2.94.229-3.236-5.734-2.228-7.656-1.532-3.362 1.216-6.234 3.624-8.254 6.288-1.668 2.199-3.313 5.341-2.192 8.03 1.126 2.697 4.95 3.758 7.894 3.461 3.173-.32 6.075-1.96 8.537-3.763-.05.223-.097.446-.143.669a15.73 15.73 0 0 0-.286 1.911c-.04.509.877.386 1.181.255 1.418-.612 2.469-1.895 3.558-2.874.42-.377 3.05-2.948 3.683-2.019.45.662-.988 2.26-1.24 2.882-.506 1.252.489 1.726 1.78 1.754.676.015 1.768-.886.636-.91-1.768-.039-.313-1.726.102-2.487.539-.987.77-2.125-.796-2.329-1.725-.223-3.331.977-4.512 1.943-.775.633-1.496 1.317-2.228 1.989a11.66 11.66 0 0 0-.325.315c.137-.89.338-1.777.582-2.658 2.476-2.069 4.705-4.454 6.445-7.044"/>
        <path d="M70.538 13.17c-1.99 1.92-4.282 3.274-6.99 4.193-.857.292-1.304.45-2.19.386-.919-.066-1.9-.143-2.741-.513l2.177-2.306c.248-.262.55-.52.763-.807.647-.87.529-2.19.882-3.2.076-.08.127-.162.134-.248.022-.319-.236-.318-.54-.213-1.373.476-2.696.31-3.88.928l-3.301 1.724c-.003-.006-.004-.013-.008-.018-1.757-2.33 1.419-5.389 3.027-6.917 2.288-2.173 4.831-3.561 8.036-4.275 3.403-.758 7.065-1.004 10.57-.767-1.075 4.38-2.475 8.69-5.94 12.034m-5.23 7.874a80.02 80.02 0 0 1-3.237 1.282c.566-.928 1.275-1.919 1.461-2.932.093-.507-.09-.848-.42-1.092a24.517 24.517 0 0 0 3.756-1.626c-.708 1.386-1.187 2.883-1.56 4.368m-12.155-3.052c1.836-.963 3.404-2.182 4.933-3.573.23-.209.308-.43-.01-.536-.317-.107-.893.344-1.084.519-1.284 1.167-2.573 2.167-4.113 2.962l.362-2.645 3.823-1.997 1.082-.565.168-.09c.494-.042 1.77-.309 2.594-.498-.189.545-.3 1.09-.39 1.661-.063.393-.015.714-.203 1.031-.326.55-1.013 1.073-1.457 1.544l-2.376 2.516-3.33-.329m-.258-8.75c-1.141-.133-2.4.207-3.552.48.697-.86 1.483-1.668 2.267-2.462 1.541-.067 3.104-.218 4.606-.544-.314.326-.617.655-.908.99-.476.547-1.038 1.207-1.51 1.923-.208-.201-.498-.339-.903-.387M77.82.1c-3.087-.23-6.282-.052-9.326.434-2.329.371-4.66.978-6.745 2.012-1.606.796-3.078 1.863-4.391 3.06-1.316.31-2.672.466-4.026.558-.72.05-1.468-.033-2.074.383-.587.402-1.047 1.015-1.522 1.517-.746.79-1.508 1.587-2.149 2.453-.185.25-.063.457.284.388 1.148-.231 2.403-.64 3.588-.625.992.012 1.244.603 1.284 1.43.003.067.041.107.098.13-.111.7-.004 1.398.454 2.057-.672.318-1.4.707-1.555 1.303-.268 1.034-.32 2.157-.446 3.226a.282.282 0 0 0-.02.166l-.021.165c-.01.067.03.102.099.115.01.066.067.11.192.123l3.874.383c1.019.1 1.538-.386 2.14-1.02.849.308 1.836.381 2.724.445.16.011.307.015.451.014.008.037.034.065.086.08.88.242 1.394.564 1.098 1.443-.351 1.04-1.099 2.029-1.625 3-.183.338.373.27.54.213 1.166-.394 2.302-.863 3.438-1.323.666-.27 1.628-.506 2.154-.996.49-.456.534-1.33.715-1.919.388-1.265.825-2.56 1.519-3.718.667-.447 1.31-.934 1.932-1.465C74.955 10.4 76.76 5.578 78.02.376c.04-.167.004-.26-.202-.276"/>
        <path d="M55.78 22.839c-.31-.105-.856.337-1.045.507-3.643 3.292-9.31 3.019-13.875 1.81 1.418-1.108 2.484-2.439 3.065-4.14.668-1.957.964-3.814 2.815-5.164.175-.128.521-.455.26-.638-.25-.174-.846.235-1.012.355-1.576 1.15-2.484 2.59-3.016 4.364-.649 2.164-1.321 3.964-3.392 5.328-.07.046-.856.648-.443.765 5.746 1.624 12.145 1.41 16.65-2.662.224-.202.297-.423-.008-.525"/>
        <path d="M65.759 6.343c.009-1.495 1.138-2.397 2.484-1.879 1.056.407 1.658 1.43 1.713 2.588-.157 3.29-4.214 2.034-4.197-.71m-1.295.71a3.015 3.015 0 0 0 3.624 2.998c1.681-.355 3.075-1.878 3.162-3.707-.222-4.65-6.77-3.403-6.786.709"/>
    </g>
</svg>
