<?xml version="1.0" encoding="UTF-8"?><!DOCTYPE svg PUBLIC "-//W3C//DTD SVG 1.1//EN" "http://www.w3.org/Graphics/SVG/1.1/DTD/svg11.dtd"><svg xmlns="http://www.w3.org/2000/svg"><symbol id="icon-doc" viewBox="0 0 60 60">
    <title>
        Group 6 Copy 7
    </title>
    <g fill-rule="evenodd">
        <circle opacity=".299" cx="30" cy="30" r="29.5"/>
        <g opacity=".804">
            <path d="M35.5 14.5h-17v31h25v-23h-8v-8z"/>
            <path d="M18.5 14.5v31h25V22.207L35.793 14.5H18.5z"/>
            <path d="M22 26h4v4h-4z"/>
            <path d="M22 34h4v4h-4z"/>
            <path d="M28 26h10v2H28z"/>
            <path d="M28 30h6v2h-6z"/>
            <path d="M28 34h10v2H28z"/>
            <path d="M28 38h8v2h-8z"/>
        </g>
    </g>
</symbol><symbol id="icon-facebook" viewBox="0 0 10 19">
    <title>
        facebook
    </title>
    <path d="M9.766.157v2.946H8.014c-.64 0-1.071.134-1.295.402-.223.268-.335.67-.335 1.205v2.11h3.27l-.435 3.303H6.384v8.471H2.97v-8.47H.123V6.82H2.97V4.387c0-1.384.387-2.457 1.161-3.22C4.904.404 5.934.023 7.222.023c1.093 0 1.941.045 2.544.134z" fill-rule="evenodd"/>
</symbol></svg>