<?xml version="1.0" encoding="UTF-8"?><!DOCTYPE svg PUBLIC "-//W3C//DTD SVG 1.1//EN" "http://www.w3.org/Graphics/SVG/1.1/DTD/svg11.dtd"><svg xmlns="http://www.w3.org/2000/svg"><defs>
            <filter id="a" filterUnits="userSpaceOnUse" x="0" y=".4" width="17.9" height="15.5">
                <feColorMatrix values="1 0 0 0 0 0 1 0 0 0 0 0 1 0 0 0 0 0 1 0"/>
            </filter>
        </defs><symbol id="icon-arrow-right" viewBox="0 0 13 20">
    <title>
        Path 12
    </title>
    <path d="M2.4 20.1L.2 17.9 8 10.2-.1 2.1 2.1-.1l10.2 10.3z"/>
</symbol><symbol id="icon-doc" viewBox="0 0 60 60">
    <title>
        Group 6 Copy 7
    </title>
    <g fill-rule="evenodd">
        <circle opacity=".299" cx="30" cy="30" r="29.5"/>
        <g opacity=".804">
            <path d="M35.5 14.5h-17v31h25v-23h-8v-8z"/>
            <path d="M18.5 14.5v31h25V22.207L35.793 14.5H18.5z"/>
            <path d="M22 26h4v4h-4z"/>
            <path d="M22 34h4v4h-4z"/>
            <path d="M28 26h10v2H28z"/>
            <path d="M28 30h6v2h-6z"/>
            <path d="M28 34h10v2H28z"/>
            <path d="M28 38h8v2h-8z"/>
        </g>
    </g>
</symbol><symbol id="icon-facebook" viewBox="0 0 10 19">
    <title>
        facebook
    </title>
    <path d="M9.766.157v2.946H8.014c-.64 0-1.071.134-1.295.402-.223.268-.335.67-.335 1.205v2.11h3.27l-.435 3.303H6.384v8.471H2.97v-8.47H.123V6.82H2.97V4.387c0-1.384.387-2.457 1.161-3.22C4.904.404 5.934.023 7.222.023c1.093 0 1.941.045 2.544.134z" fill-rule="evenodd"/>
</symbol><symbol id="icon-fb" viewBox="0 0 36 36">
    <title>
        Facebook-color
    </title>
    <path d="M19.229 36H1.987A1.987 1.987 0 0 1 0 34.013V1.987C0 .889.89 0 1.987 0h32.026C35.11 0 36 .89 36 1.987v32.026C36 35.11 35.11 36 34.013 36H24.84V22.059h4.68l.7-5.433h-5.38v-3.469c0-1.573.437-2.645 2.693-2.645l2.877-.001V5.65c-.498-.066-2.205-.214-4.192-.214-4.148 0-6.988 2.532-6.988 7.182v4.007h-4.692v5.433h4.692V36z" fill-rule="evenodd"/>
</symbol><symbol id="icon-info-logo" viewBox="0 0 12 20">
    <title>
        Group 7
    </title>
    <g fill-rule="nonzero" opacity=".504">
        <path d="M6.021 19.512l6.024-8.46-6.024 3.545L0 11.053z"/>
        <path d="M6.021 13.511l6.021-3.548L6.022 0 0 9.963z"/>
    </g>
</symbol><symbol id="icon-linkedin-full" viewBox="0 0 24 24">
    <title>
        linkedin
    </title>
    <path d="M2 0h20c1.1 0 2 .9 2 2v20c0 1.1-.9 2-2 2H2c-1.1 0-2-.9-2-2V2C0 .9.9 0 2 0z"/>
    <path fill="currentColor" d="M20.2 19.5h-3.6v-5.3c0-1.4-.6-2.3-1.8-2.3-1 0-1.5.6-1.7 1.2-.2.3-.1.6-.1.9v5.5H9.3V9.3H13v1.6c.2-.7 1.4-1.7 3.2-1.7 2.3 0 4.1 1.5 4.1 4.6v5.7h-.1zM5.7 8c-1.2 0-1.9-.7-1.9-1.7s.8-1.8 2-1.8 1.9.8 1.9 1.8S6.9 8 5.7 8zM4.2 9.3h3.2v10.2H4.2V9.3z"/>
</symbol><symbol id="icon-slack" viewBox="0 0 36 36">
    <title>
        slack
    </title>
    <g fill-rule="evenodd">
        <path d="M23.339 2.227a3.205 3.205 0 1 0-6.098 1.981l8.29 25.505a3.206 3.206 0 0 0 3.9 1.988c1.7-.49 2.738-2.297 2.195-3.968L23.339 2.227"/>
        <path d="M10.494 6.4a3.206 3.206 0 0 0-6.098 1.982l8.29 25.505a3.205 3.205 0 0 0 3.9 1.987c1.701-.49 2.738-2.297 2.195-3.968L10.494 6.401"/>
        <path d="M33.773 23.35a3.206 3.206 0 1 0-1.981-6.098l-25.505 8.29a3.205 3.205 0 0 0-1.988 3.9c.49 1.701 2.297 2.738 3.968 2.195l25.506-8.287"/>
        <path d="M11.603 30.554l6.095-1.98-1.98-6.097-6.097 1.981 1.982 6.096"/>
        <path d="M24.447 26.38l6.096-1.98-1.981-6.098-6.096 1.981 1.981 6.097"/>
        <path d="M29.6 10.506a3.206 3.206 0 0 0-1.982-6.098l-25.505 8.29a3.205 3.205 0 0 0-1.987 3.899c.49 1.701 2.297 2.739 3.968 2.196l25.505-8.287"/>
        <path d="M7.428 17.71l6.097-1.982-1.98-6.096-6.098 1.982 1.981 6.095"/>
        <path d="M20.272 13.536l6.097-1.981-1.98-6.098L18.29 7.44l1.981 6.097"/>
    </g>
</symbol><symbol id="icon-telegram-full" viewBox="0 0 24 24">
    <title>
        telegram
    </title>
    <path d="M2 0h20c1.1 0 2 .9 2 2v20c0 1.1-.9 2-2 2H2c-1.1 0-2-.9-2-2V2C0 .9.9 0 2 0z"/>
    <g transform="translate(3 4.19)">
        
        <mask maskUnits="userSpaceOnUse" x="0" y=".4" width="17.9" height="15.5" id="b">
            <path fill="currentColor" d="M17.9 15.8V.4H0v15.4z" filter="url(#a)"/>
        </mask>
        <path mask="url(#b)" fill="currentColor" d="M17.9.9l-2.8 14.3s-.4 1-1.5.5l-6.5-5-2.4-1.2-4-1.3S.1 8 0 7.5s.7-.7.7-.7L16.6.6c0-.1 1.3-.6 1.3.3"/>
    </g>
    <path d="M9.5 19.2s-.2 0-.4-.8-1.4-4.7-1.4-4.7l9.6-6.1s.6-.3.5 0c0 0 .1.1-.2.3-.3.3-7.5 6.8-7.5 6.8"/>
    <path fill="currentColor" d="M12.6 16.8L10 19.1s-.2.2-.4.1l.5-4.4"/>
</symbol><symbol id="icon-twitter-full" viewBox="0 0 24 24">
    <title>
        twitter
    </title>
    <path d="M2 0h20c1.1 0 2 .9 2 2v20c0 1.1-.9 2-2 2H2c-1.1 0-2-.9-2-2V2C0 .9.9 0 2 0z"/>
    <path fill="currentColor" d="M21 6.8c-.7.3-1.4.5-2.1.6.8-.5 1.3-1.2 1.6-2.1-.7.4-1.5.7-2.3.9-.7-.7-1.7-1.2-2.7-1.2-2 0-3.7 1.7-3.7 3.8 0 .3 0 .6.1.9-3.1-.2-5.8-1.7-7.6-4-.4.6-.5 1.2-.5 1.9 0 1.3.7 2.5 1.6 3.2-.6 0-1.2-.2-1.7-.5 0 1.8 1.3 3.4 3 3.7-.3.1-.6.1-1 .1-.2 0-.5 0-.7-.1.5 1.5 1.8 2.6 3.4 2.6-1.3 1-2.9 1.6-4.6 1.6-.3 0-.6 0-.9-.1C4.6 19.4 6.6 20 8.7 20c6.8 0 10.5-5.8 10.5-10.8v-.5c.7-.5 1.3-1.2 1.8-1.9"/>
</symbol><symbol id="icon-twitter" viewBox="0 0 36 30">
    <title>
        Twitter-color
    </title>
    <path d="M36 3.551a14.426 14.426 0 0 1-4.24 1.192A7.557 7.557 0 0 0 35.006.555a14.547 14.547 0 0 1-4.693 1.835A7.284 7.284 0 0 0 24.924 0c-4.077 0-7.384 3.391-7.384 7.573 0 .594.064 1.17.19 1.725C11.593 8.982 6.152 5.97 2.507 1.382a7.711 7.711 0 0 0-1 3.812 7.623 7.623 0 0 0 3.286 6.303 7.251 7.251 0 0 1-3.347-.944v.093c0 3.67 2.547 6.732 5.927 7.426a7.043 7.043 0 0 1-1.946.266c-.475 0-.94-.045-1.39-.134.94 3.007 3.666 5.198 6.899 5.256a14.584 14.584 0 0 1-9.173 3.244c-.596 0-1.185-.034-1.762-.104A20.564 20.564 0 0 0 11.322 30c13.587 0 21.014-11.538 21.014-21.547 0-.33-.006-.659-.019-.982A15.158 15.158 0 0 0 36 3.551" fill-rule="evenodd"/>
</symbol></svg>